<?xml version="1.0" encoding="utf-8" ?>
<svg baseProfile="full" height="1000" version="1.1" viewBox="-500 -500 1000 1000" width="1000" xmlns="http://www.w3.org/2000/svg" xmlns:ev="http://www.w3.org/2001/xml-events" xmlns:xlink="http://www.w3.org/1999/xlink"><defs /><path d="M 100.0 0.0 L 101.86716245634494 0.6406993975554259 L 103.69535412714875 1.304447431197879 L 105.4851458133381 1.990574725437985 L 107.2370916005761 2.698429253787784 L 108.95172953081571 3.427375671081142 L 110.62958224310789 4.176794676514997 L 112.27115758529507 4.946082405779329 L 113.8769491981247 5.734649850741982 L 115.4474370732241 6.541922305246055 L 116.98308808629406 7.367338835663149 L 118.4843565067973 8.21035177492553 L 119.95168448534426 9.070426238834909 L 121.38550251990858 9.947039663515271 L 122.78622990193932 10.8396813629423 L 124.15427514337718 11.74785210554316 L 125.49003638552159 12.671063708917158 L 126.79390179064696 13.608838651781703 L 128.06624991721247 14.560709702297867 L 129.30745007946226 15.52621956197663 L 130.51786269217416 16.504920524411578 L 131.6978396012671 17.49637414812448 L 132.84772440094196 18.50015094284927 L 133.96785273799543 19.51583006861664 L 135.05855260390857 20.5429990470352 L 136.12014461528275 21.581253484197696 L 137.15294228316355 22.630196804671 L 138.15725227176603 23.68943999605697 L 139.13337464708647 24.758601363637943 L 140.0816031158617 25.837306294646236 L 141.00222525531365 26.92518703172047 L 141.89552273409237 28.021882455133856 L 142.76177152481253 29.12703787340112 L 143.60124210855494 30.2403048218899 L 144.41419967169116 31.36134086908229 L 145.20090429536413 32.4898094301485 L 145.9616111379494 33.62537958751287 L 146.69657061079863 34.76772591810696 L 147.40602854755593 35.91652832702004 L 148.09022636732374 37.07147188727134 L 148.74940123193903 38.23224668544161 L 149.38378619760965 39.39854767291388 L 149.99361036115053 40.570074522486124 L 150.57909900104337 41.74653149012855 L 151.14047371353814 42.92762728167007 L 151.6779525440001 44.11307492420768 L 152.19175011370044 45.30259164204285 L 152.6820777422363 46.49589873695768 L 153.1491435657586 47.69272147265171 L 153.59315265117942 48.89278896316989 L 154.01430710651977 50.09583406515803 L 154.4128061875537 51.30159327379079 L 154.7888464008987 52.50980662222407 L 155.14262160369074 53.72021758442928 L 155.47432309998237 54.932572981274284 L 155.78413973399262 56.14662288972189 L 156.07225798033113 57.36212055502085 L 156.33886203131732 58.57882230577185 L 156.5841338815061 59.7964874717545 L 156.80825340952964 61.01487830440672 L 157.0113984573582 62.233759899852615 L 157.19374490708108 63.45290012437937 L 157.35546675530122 64.67206954226747 L 157.4967361852359 65.89104134588301 L 157.6177236366112 67.10959128794431 L 157.71859787343308 68.32749761587873 L 157.79952604971757 69.54454100818936 L 157.86067377325514 70.7605045127537 L 157.90220516748488 71.97517348698057 L 157.92428293154978 73.18833553975364 L 157.92706839860017 74.3997804750932 L 157.91072159241247 75.60930023747034 L 157.87540128238575 76.8166888587106 L 157.82126503697708 78.02174240642603 L 157.7484692756329 79.2242589339169 L 157.6571693192744 80.4240384314879 L 157.54751943938982 81.62088277912369 L 157.41967290578555 82.81459570047228 L 157.27378203304607 84.00498271808556 L 157.10999822575258 85.19185110986992 L 156.92847202250377 86.3750098666986 L 156.7293531387865 87.55426965114259 L 156.51279050873785 88.72944275727573 L 156.27893232584074 89.90034307151296 L 156.02792608259332 91.06678603444078 L 155.7599186091909 92.22858860360148 L 155.475056111258 93.38556921719372 L 155.1734842066671 94.53754775865275 L 154.8553479614779 95.68434552207502 L 154.5207919250326 96.825785178454 L 154.16996016423928 97.96169074269392 L 153.8029962970742 99.091887541369 L 153.42004352533618 100.21620218119907 L 153.0212446666793 101.33446251820939 L 152.606742185957 102.44649762754811 L 152.17667822590178 103.55213777393163 L 151.7311946371701 104.65121438269117 L 151.2704330077784 105.74356001139415 L 150.79453469195516 106.82900832201497 L 150.30364083843475 107.90739405362902 L 149.79789241821712 108.97855299560698 L 149.27743025181712 110.04232196128498 L 148.74239503602624 111.09853876208754 L 148.19292737020933 112.14704218208081 L 147.62916778215833 113.18767195293441 L 147.0512567535248 114.22026872927032 L 146.45933474485068 115.24467406437736 L 145.85354222022022 116.26073038627165 L 145.23401967155053 117.26828097408217 L 144.60090764254227 118.26716993474247 L 143.9543467523088 119.25724217996844 L 143.2944777187026 120.2383434035043 L 142.6214413813584 121.21032005861713 L 141.93537872447024 122.17301933582254 L 141.23643089932037 123.12628914082279 L 140.52473924657934 124.06997807264085 L 139.8004453183921 125.00393540193119 L 139.06369090026956 125.92801104945163 L 138.3146180328014 126.84205556467876 L 137.55336903320733 127.74592010454964 L 136.7800865167431 128.63945641231365 L 135.9949134179787 129.5225167964781 L 135.1979930119638 130.39495410983062 L 134.3894689352974 131.25662172852236 L 133.56948520711825 132.10737353119626 L 132.73818625003122 132.9470638781435 L 131.8957169109865 133.77554759047266 L 131.0422224821271 134.59267992927536 L 130.17784872162073 135.3983165747721 L 129.3027418744925 136.19231360542327 L 128.41704869347393 136.97452747698773 L 127.52091645988438 137.7448150015146 L 126.61449300456175 138.50303332625083 L 125.6979267288574 139.2490399124492 L 124.77136662571282 139.9826925140597 L 123.83496230083348 140.70384915628884 L 122.88886399397717 141.41236811400938 L 121.93322260037317 142.10810789000467 L 120.96818969228866 142.79092719302992 L 119.99391754076075 143.46068491567405 L 119.01055913750967 144.11724011200448 L 118.01826821705214 144.76045197497746 L 117.01719927903164 145.39017981359612 L 116.0075076107847 146.00628302979902 L 114.98934931015958 146.6086210950585 L 113.96288130860879 147.19705352667415 L 112.92826139457179 147.77143986373835 L 111.88564823716902 148.33163964275718 L 110.83520141022592 148.8775123729061 L 109.77708141664785 149.40891751090027 L 108.71144971316616 149.9257144354589 L 107.63846873547645 150.4277624213428 L 106.55830192379064 150.91492061294343 L 105.4711137488252 151.38704799740134 L 104.37706973824783 151.84400337723145 L 103.27633650360607 152.28564534243247 L 102.16908176776134 152.71183224205515 L 101.05547439285368 153.12242215520683 L 99.93568440882142 153.51727286146593 L 98.80988304250221 153.89624181068058 L 97.67824274734247 154.25918609212545 L 96.54093723374109 154.605962402988 L 95.39814150005863 154.93642701615852 L 94.25003186431744 155.2504357472913 L 93.09678599662584 155.54784392110986 L 91.9385829523562 155.82850633692382 L 90.77560320610868 156.092277233326 L 89.6080286864943 156.3390102520359 L 88.43604281177144 156.56855840085626 L 87.25983052637093 156.78077401570712 L 86.07957833834672 156.9755087217006 L 84.89547435778954 157.15261339321825 L 83.70770833624327 157.31193811295293 L 82.5164717071645 157.45333212987367 L 81.32195762746704 157.5766438160716 L 80.12436102019574 157.68172062244338 L 78.923878618374 157.76840903316761 L 77.72070901007291 157.836554518926 L 76.51505268474993 157.8860014888218 L 75.30711208090844 157.9165932409445 L 74.09709163512986 157.9281719115279 L 72.88519783253419 157.9205784226483 L 71.67163925872411 157.8936524284038 L 70.45662665327323 157.8472322595186 L 69.24037296481903 157.78115486630918 L 68.02309340782398 157.6952557599484 L 66.80500552107267 157.5893689519628 L 65.58632922797223 157.46332689189234 L 64.36728689872977 157.31696040304152 L 63.14810341448069 157.1500986162465 L 61.9290062334469 156.96256890158105 L 60.71022545920544 156.75419679791798 L 59.491993911153756 156.5248059402641 L 58.27454719725871 156.27421798477684 L 57.05812378918303 156.00225253137336 L 55.84296509988499 155.70872704383328 L 54.62931556379215 155.39345676729602 L 53.41742271965432 155.05625464304723 L 52.207537296185635 154.6969312204843 L 50.999913300610025 154.3152945661468 L 49.79480811023044 153.91115016969127 L 48.592482567147385 153.48430084668712 L 47.3932010762567 153.03454663809902 L 46.19723170666529 152.56168470632352 L 45.004846296666656 152.065509227632 L 43.81632056242766 151.5458112808729 L 42.63193421054287 151.0023787322756 L 41.45197105462131 150.43499611618952 L 40.27671913607847 149.84344451158967 L 39.10647084931373 149.22750141416424 L 37.941523071462875 148.586940603798 L 36.7821772969241 147.92153200725033 L 35.628739776866595 147.23104155582283 L 34.481521663938864 146.51523103779425 L 33.34083916240755 145.77385794539697 L 32.207013683966956 145.00667531609255 L 31.08037200947198 144.21343156789305 L 29.961246456860597 143.39387032846435 L 28.84997505554493 142.54773025773088 L 27.746901727564 141.67474486368897 L 26.65237647580744 140.77464231112046 L 25.56675557963429 139.8471452228817 L 24.490401798228614 138.89197047342674 L 23.423684582051525 137.90882897420536 L 22.366980292768034 136.89742545055685 L 21.32067243204801 135.85745820970232 L 20.285151879660468 134.78861889941342 L 19.260817141305214 133.69059225691657 L 18.248074606648093 132.5630558475646 L 17.24733881805283 131.4056797927842 L 16.25903275052911 130.21812648677843 L 15.283588103445728 129.00005030143677 L 14.321445604588412 127.7510972788726 L 13.373055327173976 126.47090481097632 L 12.438877020468446 125.15910130533784 L 11.519380454692518 123.81530583685354 L 10.615045780937962 122.43912778429521 L 9.726363906860408 121.03016645107618 L 8.853836888958476 119.58801066940337 L 7.997978342297392 118.11223838695857 L 7.159313868585511 116.60241623519954 L 6.338381503567467 115.05809907831872 L 5.535732184754816 113.47882954183773 L 4.751930240577549 111.86413751975442 L 3.987553902106111 110.21353965909385 L 3.2431958385644855 108.52653882064234 L 2.519463717930347 106.8026235145679 L 1.816980794000379 105.04126730955078 L 1.136386521384931 103.24192821395843 L 0.4783371999899875 101.40404802750851 L -0.15797676145707998 100.47047598901561 L -0.8045020467677311 102.32784129611827 L -1.4739069601070574 104.14638012289731 L -2.165526527575358 105.9266590267597 L -2.878712954381199 107.6692280207126 L -3.612834965000713 109.37462123707238 L -4.367277173640062 111.04335756084423 L -5.14143948339424 112.67594123438107 L -5.934736512591868 114.27286243483117 L -6.746597046905354 115.83459782579229 L -7.576463515890806 117.3616110845137 L -8.423791492699127 118.85435340589854 L -9.2880492157744 120.31326398449335 L -10.168717131423456 121.73877047558022 L -11.065287456204999 123.13128943642333 L -11.977263758146389 124.49122674866025 L -12.90416055585257 125.81897802277514 L -13.845502934624466 127.11492898553593 L -14.800826178752658 128.3794558512279 L -15.769675419199459 129.61292567747307 L -16.75160529592503 130.81569670637714 L -17.746179634154426 131.9881186917093 L -18.752971133920052 133.13053321277755 L -19.771561072250854 134.2432739756311 L -20.801539017412033 135.32666710218334 L -21.84250255463184 136.38103140782005 L -22.89405702278126 137.40667866802693 L -23.95581526150064 138.4039138745418 L -25.02739736829343 139.3730354815107 L -26.108430465132333 140.314335642104 L -27.19854847414689 141.2281004360222 L -28.29739190198241 142.1146100883014 L -29.404607632442236 142.9741391798064 L -30.519848727044323 143.806956849781 L -31.64277423314183 144.6133269908054 L -32.773048999274124 145.39350843649243 L -33.91034349743256 146.14775514224146 L -35.054333651939714 146.8763163593489 L -36.20470067465541 147.57943680276105 L -37.361130906238024 148.2573568127437 L -38.52331566320122 148.9103125107256 L -39.69095109051963 149.53853594956286 L -40.86373801954833 150.14225525845995 L -42.04138183103245 150.72169478277036 L -43.22359232299315 151.27707521889022 L -44.410083583286834 151.80861374444845 L -45.60057386664376 152.31652414398778 L -46.79478547600067 152.8010169303198 L -47.99244464795117 153.26229946173225 L -49.193281442145285 153.70057605521654 L -50.39702963447766 154.11604809587527 L -51.603426613910244 154.50891414266482 L -52.81221328278292 154.87937003061774 L -54.02313396047214 155.22760896968688 L -55.235936290263254 155.55382164034472 L -56.450371149308324 155.85819628606464 L -57.666192561546865 156.14091880280884 L -58.88315761347262 156.40217282563782 L -60.101026372633555 156.64213981255585 L -61.31956180875787 156.8609991256972 L -62.538529717403534 157.05892810995874 L -63.75769864603205 157.23610216917476 L -64.97683982241278 157.3926948399299 L -66.19572708526675 157.52887786310043 L -67.41413681706376 157.64482125320995 L -68.63184787888895 157.7406933656829 L -69.84864154729969 157.81666096207596 L -71.06430145309561 157.8728892733633 L -72.27861352192888 157.9095420613496 L -73.49136591668312 157.92678167828026 L -74.70234898155519 157.9247691247189 L -75.91135518777185 157.90366410575353 L -77.11817908088125 157.86362508559793 L -78.32261722955798 157.80480934064525 L -79.52446817586366 157.72737301103305 L -80.72353238690764 157.6314711507752 L -81.91961220785451 157.51725777651404 L -83.1125118162263 157.384885914944 L -84.30203717745023 157.23450764895733 L -85.48799600160372 157.06627416255816 L -86.67019770131076 156.88033578459215 L -87.84845335074527 156.67684203133592 L -89.02257564569841 156.45594164798862 L -90.19237886466837 156.21778264910708 L -91.35767883093325 155.962512358025 L -92.51829287556745 155.69027744529407 L -93.67403980136592 155.40122396618403 L -94.82473984763817 155.09549739727805 L -95.97021465583958 154.77324267219882 L -97.11028723600403 154.43460421649695 L -98.24478193394731 154.07972598173643 L -99.37352439920834 153.7087514788073 L -100.49634155369819 153.32182381049617 L -101.6130615610276 152.91908570334516 L -102.72351379648357 152.50067953882638 L -103.82752881762758 152.0667473838608 L -104.92493833548863 151.61743102070864 L -106.01557518632399 151.1528719762566 L -107.09927330392334 150.67321155072835 L -108.17586769242979 150.17859084584256 L -109.2451943996558 149.66915079244265 L -110.30709049086843 149.14503217762243 L -111.36139402302183 148.60637567136894 L -112.40794401941494 148.05332185274685 L -113.44658044475185 147.4860112356448 L -114.4771441805841 146.90458429410535 L -115.49947700111369 146.30918148725948 L -116.51342154933654 145.699943283886 L -117.51882131350635 145.07701018661533 L -118.5155206038998 144.4405227557983 L -119.50336452986318 143.79062163305758 L -120.48219897712178 143.12744756454154 L -121.45187058533438 142.45114142389951 L -122.41222672587386 141.76184423499456 L -123.36311547981512 141.05969719437422 L -124.3043856161161 140.34484169351492 L -125.23588656996901 139.61741934085796 L -126.15746842131142 138.87757198365495 L -127.06898187347312 138.12544172963877 L -127.97027823194813 137.36117096853636 L -128.86120938327082 136.58490239344212 L -129.7416277739825 135.7967790220656 L -130.6113863896706 134.99694421787189 L -131.47033873406468 134.18554171112984 L -132.31833880817297 133.36271561988508 L -133.15524108944382 132.52861047087274 L -133.98090051093513 131.68337122038787 L -134.79517244047713 130.82714327512667 L -135.5979126598102 129.96007251301802 L -136.38897734368516 129.08230530405783 L -137.16822303890572 128.19398853116542 L -137.9355066433017 127.29526961107516 L -138.6906853846124 126.3862965152823 L -139.43361679926758 125.4672177910563 L -140.1641587110469 124.53818258254016 L -140.88216920960357 123.5993406519521 L -141.58750662883475 122.65084240090405 L -142.2800295250807 121.69283889185698 L -142.95959665513897 120.72548186972614 L -143.6260669540726 119.7489237836577 L -144.2792995127985 118.76331780898964 L -144.91915355543645 117.76881786941806 L -145.5454884164011 116.76557865938457 L -146.1581635172198 115.75375566670394 L -146.75703834305696 114.73350519544954 L -147.34197241892645 113.70498438911689 L -147.9128252855737 112.66835125408147 L -148.46945647500652 111.62376468337473 L -149.01172548565688 110.57138448079245 L -149.53949175715098 109.51137138536193 L -150.05261464466986 108.44388709618276 L -150.55095339287564 107.36909429766767 L -151.03436710938644 106.28715668520067 L -151.50271473777232 105.19823899123838 L -151.9558550300547 104.10250701187448 L -152.39364651868232 103.00012763389276 L -152.81594748796095 101.89126886233129 L -153.22261594491317 100.77609984858384 L -153.61350958954068 99.65479091906184 L -153.9884857844654 98.52751360444584 L -154.34740152392152 97.39444066954985 L -154.69011340206973 96.25574614382998 L -155.01647758060844 95.1116053525621 L -155.32634975564827 93.96219494872176 L -155.61958512382364 92.80769294559246 L -155.89603834760737 91.64827875013816 L -156.15556351979757 90.48413319716803 L -156.39801412714294 89.31543858432994 L -156.62324301307163 88.14237870796555 L -156.8311023394893 86.9651388998636 L -157.02144354760765 85.78390606494732 L -157.19411731776768 84.59886871993555 L -157.34897352821474 83.41021703301547 L -157.48586121278893 82.21814286457013 L -157.60462851748372 81.022839809 L -157.70512265583233 79.82450323768728 L -157.78718986307462 78.62333034314291 L -157.8506753490574 77.41952018439004 L -157.89542324981912 76.21327373362647 L -157.92127657780782 75.00479392422372 L -157.9280771706796 73.79428570011018 L -157.91566563862222 72.58195606659737 L -157.88388131014676 71.36801414270464 L -157.83256217628775 70.15267121504255 L -157.7615448331501 68.93614079331668 L -157.6706644227378 67.71863866751701 L -157.55975457199844 66.50038296685813 L -157.4286473300127 65.2815942205435 L -157.27717310325636 64.06249542042197 L -157.10516058886003 62.84331208561758 L -156.9124367057862 61.6242723292062 L -156.6988265238428 60.405606927026554 L -156.46415319044613 59.18754938870653 L -156.20823785504533 57.97033603099918 L -155.93089959111356 56.75420605351731 L -155.63195531560905 55.53940161696738 L -155.3112197058049 54.32616792398307 L -154.9685051133805 53.11475330266488 L -154.60362147566445 51.9054092929371 L -154.21637622391245 50.69839073583823 L -153.8065741884993 49.49395586586465 L -153.37401750089893 48.292366406497564 L -152.91850549231847 47.09388766904103 L -152.43983458885018 45.89878865491508 L -151.93779820299324 44.70734216154352 L -151.4121866213971 43.51982489199377 L -150.862786888664 42.33651756852261 L -150.28938268704698 41.157705050198345 L -149.69175421186762 39.98367645477167 L -149.06967804247097 38.81472528497871 L -148.42292700852636 37.65114955946807 L -147.7512700514731 36.493251948552484 L -147.05447208090027 35.34133991499629 L -146.3322938256398 34.195725860059994 L -145.5844916793398 33.056727275032756 L -144.81081754027628 31.924666898499673 L -144.0110186451453 30.79987287959564 L -143.1848373965686 29.68267894751932 L -142.33201118402758 28.573424587585272 L -141.45227219793287 27.472455224116334 L -140.54534723651108 26.38012241048382 L -139.61095750518655 25.296784026628522 L -138.64881840810662 24.222804484405675 L -137.65863933145044 23.15855494111958 L -136.6401234181355 22.104413521630732 L -135.59296733351874 21.060765549439743 L -134.51686102166732 20.028003787173674 L -133.41148745174934 19.00652868692405 L -132.27652235407092 17.99674865090826 L -131.1116339452633 16.999080302956692 L -129.91648264208857 16.013948771348364 L -128.6907207633137 15.04178798355578 L -127.43399221905895 14.083040973481975 L -126.14593218700705 13.138160201814754 L -124.82616677481066 12.20760789015013 L -123.47431266801073 11.291856369581561 L -122.08997676272746 10.391388444486896 L -120.67275578235078 9.506697772289971 L -119.22223587740679 8.638289260018428 L -117.73799220773203 7.786679478528588 L -116.21958850603029 6.952397095318036 L -114.6665766218396 6.135983326905873 L -113.0784960448678 5.337992411813594 L -111.45487340660225 4.558992105249685 L -109.79522195902231 3.7995641966612093 L -108.09904102918121 3.060305051394875 L -106.365815448335 2.341826177780289 L -104.59501495422639 1.6447548210374716 L -102.78609356503028 0.9697345854929723 L -100.93848892338411 0.3174260866888719 L -100.93848892338386 -0.3174260866888016 L -102.78609356503007 -0.9697345854928993 L -104.5950149542263 -1.6447548210374447 L -106.36581544833483 -2.3418261777802116 L -108.0990410291811 -3.0603050513947974 L -109.79522195902209 -3.7995641966611258 L -111.45487340660208 -4.558992105249603 L -113.07849604486763 -5.3379924118135085 L -114.66657662183948 -6.135983326905787 L -116.21958850603019 -6.952397095318002 L -117.73799220773192 -7.786679478528498 L -119.22223587740675 -8.638289260018396 L -120.6727557823506 -9.506697772289874 L -122.08997676272742 -10.391388444486864 L -123.47431266801061 -11.291856369581467 L -124.82616677481057 -12.207607890150092 L -126.14593218700699 -13.13816020181472 L -127.43399221905892 -14.08304097348194 L -128.69072076331358 -15.041787983555675 L -129.91648264208854 -16.013948771348325 L -131.11163394526315 -16.999080302956585 L -132.27652235407095 -17.99674865090829 L -133.41148745174917 -19.006528686923932 L -134.5168610216673 -20.028003787173702 L -135.5929673335186 -21.060765549439623 L -136.64012341813543 -22.10441352163069 L -137.65863933145033 -23.158554941119462 L -138.6488184081066 -24.222804484405632 L -139.61095750518643 -25.2967840266284 L -140.54534723651105 -26.38012241048378 L -141.45227219793273 -27.47245522411627 L -142.33201118402752 -28.57342458758523 L -143.18483739656847 -29.682678947519193 L -144.01101864514533 -30.7998728795956 L -144.81081754027625 -31.924666898499563 L -145.5844916793398 -33.05672727503278 L -146.33229382563974 -34.195725860059866 L -147.05447208090033 -35.34133991499633 L -147.751270051473 -36.493251948552356 L -148.42292700852636 -37.65114955946802 L -149.06967804247088 -38.81472528497858 L -149.69175421186765 -39.983676454771626 L -150.28938268704698 -41.15770505019832 L -150.86278688866395 -42.33651756852257 L -151.41218662139707 -43.51982489199372 L -151.93779820299324 -44.70734216154349 L -152.43983458885006 -45.89878865491493 L -152.91850549231845 -47.09388766904098 L -153.37401750089884 -48.29236640649743 L -153.80657418849933 -49.49395586586469 L -154.21637622391245 -50.69839073583811 L -154.60362147566445 -51.90540929293713 L -154.96850511338044 -53.11475330266474 L -155.31121970580483 -54.32616792398301 L -155.631955315609 -55.53940161696724 L -155.9308995911136 -56.75420605351727 L -156.20823785504535 -57.970336030999135 L -156.4641531904461 -59.18754938870647 L -156.69882652384274 -60.40560692702641 L -156.91243670578618 -61.62427232920614 L -157.10516058885997 -62.843312085617455 L -157.2771731032563 -64.06249542042198 L -157.4286473300126 -65.28159422054333 L -157.55975457199844 -66.50038296685815 L -157.67066442273776 -67.71863866751687 L -157.7615448331501 -68.93614079331672 L -157.83256217628775 -70.1526712150424 L -157.88388131014682 -71.36801414270462 L -157.91566563862224 -72.58195606659726 L -157.9280771706796 -73.79428570011012 L -157.92127657780776 -75.00479392422366 L -157.89542324981915 -76.21327373362644 L -157.85067534905744 -77.41952018438994 L -157.78718986307467 -78.62333034314288 L -157.70512265583238 -79.82450323768714 L -157.60462851748375 -81.02283980900006 L -157.48586121278896 -82.21814286457001 L -157.3489735282148 -83.41021703301553 L -157.19411731776765 -84.59886871993541 L -157.02144354760767 -85.78390606494727 L -156.83110233948926 -86.96513889986343 L -156.62324301307163 -88.14237870796552 L -156.39801412714294 -89.31543858432988 L -156.15556351979762 -90.484133197168 L -155.89603834760743 -91.64827875013816 L -155.61958512382364 -92.80769294559242 L -155.32634975564832 -93.96219494872166 L -155.01647758060847 -95.11160535256205 L -154.69011340206976 -96.25574614382984 L -154.34740152392146 -97.39444066954988 L -153.98848578446547 -98.52751360444573 L -153.61350958954066 -99.65479091906185 L -153.22261594491323 -100.77609984858371 L -152.815947487961 -101.89126886233129 L -152.39364651868232 -103.00012763389262 L -151.9558550300547 -104.10250701187444 L -151.50271473777235 -105.19823899123836 L -151.03436710938644 -106.28715668520063 L -150.55095339287573 -107.36909429766757 L -150.05261464466983 -108.44388709618269 L -149.53949175715104 -109.5113713853618 L -149.01172548565688 -110.57138448079237 L -148.4694564750066 -111.62376468337462 L -147.91282528557363 -112.6683512540815 L -147.34197241892653 -113.70498438911679 L -146.75703834305693 -114.73350519544957 L -146.15816351721986 -115.75375566670382 L -145.54548841640116 -116.76557865938457 L -144.91915355543648 -117.76881786941794 L -144.2792995127985 -118.76331780898958 L -143.62606695407254 -119.74892378365762 L -142.95959665513902 -120.72548186972611 L -142.28002952508075 -121.69283889185684 L -141.58750662883475 -122.65084240090403 L -140.88216920960366 -123.59934065195202 L -140.1641587110468 -124.53818258254014 L -139.43361679926767 -125.46721779105617 L -138.69068538461252 -126.38629651528234 L -137.9355066433018 -127.2952696110751 L -137.1682230389058 -128.1939885311653 L -136.38897734368518 -129.08230530405768 L -135.59791265981033 -129.96007251301796 L -134.79517244047722 -130.82714327512656 L -133.98090051093521 -131.68337122038778 L -133.15524108944388 -132.5286104708727 L -132.31833880817305 -133.36271561988497 L -131.47033873406474 -134.18554171112976 L -130.61138638967068 -134.99694421787177 L -129.74162777398257 -135.7967790220655 L -128.86120938327082 -136.58490239344206 L -127.97027823194821 -137.36117096853624 L -127.0689818734732 -138.12544172963865 L -126.15746842131156 -138.8775719836549 L -125.23588656996913 -139.61741934085788 L -124.30438561611615 -140.34484169351478 L -123.36311547981526 -141.05969719437422 L -122.4122267258739 -141.76184423499453 L -121.45187058533443 -142.45114142389951 L -120.48219897712181 -143.12744756454146 L -119.50336452986312 -143.79062163305747 L -118.51552060389992 -144.4405227557982 L -117.51882131350641 -145.07701018661533 L -116.51342154933654 -145.69994328388606 L -115.49947700111377 -146.3091814872595 L -114.47714418058413 -146.90458429410543 L -113.44658044475189 -147.48601123564478 L -112.40794401941491 -148.05332185274688 L -111.3613940230219 -148.6063756713689 L -110.3070904908684 -149.14503217762245 L -109.24519439965589 -149.6691507924427 L -108.17586769242972 -150.1785908458425 L -107.09927330392338 -150.67321155072833 L -106.01557518632404 -151.15287197625656 L -104.92493833548873 -151.61743102070855 L -103.82752881762761 -152.06674738386076 L -102.72351379648364 -152.50067953882626 L -101.61306156102765 -152.91908570334516 L -100.49634155369831 -153.32182381049617 L -99.37352439920839 -153.7087514788073 L -98.24478193394748 -154.0797259817365 L -97.1102872360041 -154.43460421649698 L -95.97021465583971 -154.77324267219882 L -94.82473984763823 -155.09549739727805 L -93.67403980136586 -155.40122396618398 L -92.51829287556751 -155.6902774452941 L -91.3576788309332 -155.96251235802504 L -90.19237886466848 -156.217782649107 L -89.02257564569845 -156.45594164798862 L -87.84845335074525 -156.67684203133595 L -86.67019770131083 -156.88033578459215 L -85.48799600160368 -157.06627416255813 L -84.30203717745027 -157.23450764895733 L -83.11251181622629 -157.38488591494405 L -81.91961220785456 -157.51725777651401 L -80.7235323869076 -157.6314711507752 L -79.52446817586372 -157.72737301103308 L -78.32261722955795 -157.80480934064525 L -77.11817908088129 -157.8636250855979 L -75.91135518777182 -157.90366410575353 L -74.7023489815553 -157.92476912471886 L -73.49136591668315 -157.92678167828026 L -72.27861352192899 -157.9095420613496 L -71.06430145309574 -157.8728892733634 L -69.84864154729985 -157.81666096207596 L -68.63184787888903 -157.7406933656829 L -67.41413681706393 -157.64482125320995 L -66.19572708526685 -157.5288778631005 L -64.97683982241296 -157.39269483992993 L -63.75769864603217 -157.23610216917479 L -62.5385297174036 -157.0589281099588 L -61.319561808758 -156.86099912569722 L -60.101026372633605 -156.64213981255585 L -58.883157613472775 -156.40217282563788 L -57.66619256154692 -156.14091880280887 L -56.45037114930844 -155.85819628606464 L -55.23593629026334 -155.55382164034472 L -54.02313396047215 -155.2276089696869 L -52.812213282783006 -154.87937003061774 L -51.603426613910244 -154.50891414266482 L -50.397029634477796 -154.11604809587544 L -49.193281442145285 -153.70057605521654 L -47.992444647951245 -153.26229946173228 L -46.79478547600071 -152.80101693031978 L -45.60057386664389 -152.31652414398783 L -44.41008358328686 -151.80861374444845 L -43.223592322993255 -151.2770752188902 L -42.04138183103248 -150.72169478277033 L -40.86373801954845 -150.14225525846 L -39.69095109051969 -149.5385359495629 L -38.5233156632014 -148.91031251072576 L -37.36113090623812 -148.25735681274375 L -36.204700674655584 -147.57943680276117 L -35.0543336519398 -146.87631635934895 L -33.91034349743258 -146.14775514224152 L -32.773048999274195 -145.39350843649243 L -31.64277423314202 -144.6133269908055 L -30.519848727044476 -143.8069568497812 L -29.40460763244227 -142.9741391798064 L -28.29739190198253 -142.11461008830145 L -27.198548474146932 -141.2281004360222 L -26.108430465132443 -140.31433564210408 L -25.027397368293467 -139.37303548151073 L -23.955815261500653 -138.40391387454181 L -22.89405702278134 -137.406678668027 L -21.842502554631984 -136.38103140782016 L -20.801539017412104 -135.32666710218336 L -19.771561072250858 -134.2432739756311 L -18.752971133920123 -133.13053321277764 L -17.74617963415458 -131.98811869170953 L -16.751605295924996 -130.8156967063771 L -15.769675419199496 -129.6129256774731 L -14.800826178752768 -128.37945585122807 L -13.845502934624637 -127.11492898553618 L -12.904160555852535 -125.81897802277506 L -11.97726375814642 -124.49122674866024 L -11.065287456205127 -123.13128943642349 L -10.168717131423652 -121.73877047558057 L -9.288049215774404 -120.31326398449335 L -8.423791492699197 -118.8543534058987 L -7.5764635158909295 -117.36161108451395 L -6.746597046905413 -115.83459782579237 L -5.934736512591869 -114.27286243483117 L -5.14143948339433 -112.67594123438134 L -4.36727717364009 -111.04335756084427 L -3.612834965000795 -109.37462123707259 L -2.878712954381228 -107.66922802071268 L -2.1655265275754343 -105.92665902675986 L -1.473906960107084 -104.1463801228974 L -0.8045020467678032 -102.32784129611848 L -0.15797676145712727 -100.47047598901582 L 0.4783371999899852 -101.40404802750851 L 1.1363865213848814 -103.2419282139583 L 1.8169807940002791 -105.04126730955052 L 2.5194637179302957 -106.80262351456781 L 3.243195838564482 -108.52653882064229 L 3.9875539021060527 -110.21353965909368 L 4.75193024057741 -111.86413751975414 L 5.535732184754841 -113.47882954183777 L 6.338381503567441 -115.05809907831873 L 7.1593138685854205 -116.60241623519939 L 7.9979783422972375 -118.11223838695827 L 8.853836888958503 -119.58801066940342 L 9.726363906860346 -121.03016645107611 L 10.615045780937834 -122.43912778429505 L 11.519380454692449 -123.81530583685343 L 12.438877020468444 -125.15910130533784 L 13.373055327173908 -126.47090481097625 L 14.321445604588277 -127.75109727887245 L 15.283588103445794 -129.00005030143686 L 16.259032750529077 -130.21812648677843 L 17.247338818052718 -131.40567979278407 L 18.248074606648046 -132.5630558475645 L 19.260817141305246 -133.69059225691663 L 20.28515187966044 -134.78861889941345 L 21.320672432047893 -135.85745820970217 L 22.366980292767998 -136.8974254505568 L 23.423684582051514 -137.90882897420533 L 24.49040179822854 -138.8919704734267 L 25.566755579634282 -139.8471452228817 L 26.652376475807365 -140.77464231112043 L 27.746901727564 -141.67474486368897 L 28.84997505554485 -142.54773025773082 L 29.961246456860586 -143.39387032846432 L 31.080372009471844 -144.21343156789294 L 32.20701368396692 -145.00667531609258 L 33.340839162407605 -145.77385794539708 L 34.48152166393882 -146.5152310377942 L 35.62873977686648 -147.23104155582274 L 36.7821772969242 -147.92153200725036 L 37.941523071462875 -148.586940603798 L 39.106470849313666 -149.22750141416424 L 40.27671913607829 -149.84344451158952 L 41.45197105462138 -150.43499611618955 L 42.63193421054286 -151.00237873227556 L 43.816320562427606 -151.54581128087295 L 45.00484629666648 -152.06550922763188 L 46.19723170666534 -152.56168470632355 L 47.393201076256645 -153.03454663809896 L 48.59248256714723 -153.484300846687 L 49.79480811023042 -153.91115016969133 L 50.99991330061006 -154.3152945661468 L 52.20753729618559 -154.69693122048432 L 53.41742271965419 -155.05625464304723 L 54.62931556379206 -155.393456767296 L 55.84296509988499 -155.70872704383328 L 57.05812378918295 -156.00225253137336 L 58.274547197258705 -156.27421798477684 L 59.491993911153656 -156.52480594026406 L 60.710225459205425 -156.75419679791804 L 61.92900623344687 -156.962568901581 L 63.14810341448059 -157.1500986162465 L 64.36728689872957 -157.31696040304146 L 65.58632922797213 -157.46332689189228 L 66.80500552107267 -157.5893689519628 L 68.02309340782388 -157.69525575994834 L 69.24037296481882 -157.78115486630918 L 70.4566266532733 -157.84723225951865 L 71.67163925872404 -157.89365242840375 L 72.88519783253406 -157.92057842264828 L 74.09709163512964 -157.9281719115279 L 75.30711208090844 -157.9165932409444 L 76.51505268474989 -157.88600148882182 L 77.7207090100728 -157.836554518926 L 78.9238786183738 -157.76840903316764 L 80.12436102019578 -157.68172062244338 L 81.32195762746703 -157.57664381607165 L 82.51647170716436 -157.45333212987376 L 83.70770833624319 -157.31193811295296 L 84.89547435778951 -157.15261339321825 L 86.07957833834661 -156.97550872170058 L 87.25983052637093 -156.78077401570715 L 88.43604281177133 -156.56855840085626 L 89.6080286864943 -156.3390102520359 L 90.77560320610857 -156.09227723332603 L 91.93858295235617 -155.82850633692385 L 93.09678599662573 -155.5478439211099 L 94.25003186431739 -155.2504357472913 L 95.39814150005867 -154.93642701615852 L 96.54093723374103 -154.605962402988 L 97.67824274734224 -154.25918609212542 L 98.80988304250214 -153.89624181068064 L 99.93568440882139 -153.51727286146595 L 101.05547439285357 -153.12242215520683 L 102.16908176776116 -152.7118322420552 L 103.2763365036061 -152.28564534243247 L 104.3770697382478 -151.8440033772315 L 105.4711137488251 -151.3870479974014 L 106.55830192379044 -150.91492061294355 L 107.63846873547644 -150.42776242134278 L 108.71144971316613 -149.92571443545896 L 109.77708141664768 -149.4089175109003 L 110.83520141022584 -148.87751237290612 L 111.88564823716902 -148.33163964275718 L 112.92826139457178 -147.77143986373844 L 113.96288130860859 -147.1970535266742 L 114.98934931015947 -146.60862109505854 L 116.00750761078464 -146.00628302979896 L 117.01719927903153 -145.39017981359618 L 118.01826821705211 -144.7604519749775 L 119.01055913750955 -144.11724011200454 L 119.99391754076068 -143.46068491567402 L 120.96818969228859 -142.79092719303003 L 121.93322260037311 -142.10810789000473 L 122.88886399397703 -141.41236811400944 L 123.83496230083344 -140.7038491562889 L 124.77136662571282 -139.9826925140597 L 125.69792672885735 -139.2490399124493 L 126.61449300456167 -138.50303332625103 L 127.52091645988446 -137.74481500151458 L 128.41704869347387 -136.97452747698773 L 129.30274187449243 -136.19231360542335 L 130.17784872162056 -135.39831657477225 L 131.04222248212713 -134.5926799292753 L 131.8957169109865 -133.77554759047274 L 132.73818625003113 -132.94706387814364 L 133.56948520711805 -132.1073735311964 L 134.38946893529743 -131.25662172852233 L 135.19799301196372 -130.39495410983065 L 135.9949134179786 -129.52251679647821 L 136.78008651674304 -128.63945641231373 L 137.55336903320728 -127.74592010454964 L 138.31461803280135 -126.84205556467884 L 139.06369090026942 -125.92801104945178 L 139.800445318392 -125.00393540193123 L 140.5247392465793 -124.06997807264086 L 141.2364308993203 -123.1262891408229 L 141.93537872447018 -122.17301933582254 L 142.62144138135835 -121.21032005861727 L 143.29447771870258 -120.23834340350439 L 143.95434675230882 -119.25724217996847 L 144.60090764254227 -118.26716993474253 L 145.23401967155047 -117.26828097408233 L 145.85354222022016 -116.26073038627172 L 146.45933474485068 -115.24467406437736 L 147.05125675352474 -114.2202687292704 L 147.62916778215828 -113.18767195293458 L 148.19292737020933 -112.14704218208074 L 148.7423950360262 -111.09853876208754 L 149.27743025181707 -110.0423219612851 L 149.79789241821703 -108.97855299560698 L 150.30364083843472 -107.90739405362896 L 150.79453469195514 -106.82900832201503 L 151.27043300777837 -105.74356001139432 L 151.7311946371701 -104.65121438269105 L 152.17667822590178 -103.55213777393169 L 152.60674218595696 -102.44649762754823 L 153.02124466667925 -101.33446251820959 L 153.42004352533615 -100.21620218119901 L 153.80299629707423 -99.09188754136906 L 154.1699601642392 -97.96169074269403 L 154.5207919250326 -96.82578517845405 L 154.85534796147792 -95.68434552207499 L 155.17348420666715 -94.53754775865285 L 155.47505611125806 -93.3855692171939 L 155.75991860919086 -92.22858860360154 L 156.02792608259327 -91.06678603444074 L 156.27893232584074 -89.90034307151308 L 156.51279050873785 -88.72944275727573 L 156.7293531387865 -87.55426965114268 L 156.92847202250374 -86.3750098666986 L 157.10999822575258 -85.19185110987003 L 157.27378203304613 -84.00498271808564 L 157.41967290578552 -82.81459570047241 L 157.54751943938982 -81.62088277912375 L 157.65716931927443 -80.4240384314879 L 157.74846927563283 -79.22425893391693 L 157.82126503697708 -78.02174240642617 L 157.87540128238584 -76.8166888587107 L 157.91072159241241 -75.60930023747032 L 157.92706839860006 -74.39978047509325 L 157.92428293154984 -73.18833553975385 L 157.90220516748496 -71.97517348698054 L 157.86067377325514 -70.76050451275373 L 157.7995260497176 -69.54454100818947 L 157.71859787343308 -68.32749761587893 L 157.61772363661117 -67.10959128794426 L 157.49673618523593 -65.89104134588308 L 157.35546675530125 -64.67206954226762 L 157.19374490708105 -63.45290012437941 L 157.01139845735815 -62.233759899852586 L 156.80825340952964 -61.01487830440681 L 156.5841338815061 -59.796487471754666 L 156.3388620313173 -58.57882230577193 L 156.07225798033107 -57.362120555020844 L 155.78413973399256 -56.14662288972197 L 155.47432309998243 -54.93257298127432 L 155.1426216036907 -53.72021758442936 L 154.7888464008988 -52.50980662222413 L 154.41280618755374 -51.301593273790914 L 154.01430710651974 -50.095834065158066 L 153.59315265117954 -48.89278896317005 L 153.14914356575864 -47.69272147265177 L 152.6820777422363 -46.49589873695767 L 152.1917501137005 -45.30259164204294 L 151.67795254400016 -44.11307492420784 L 151.14047371353814 -42.92762728167 L 150.57909900104337 -41.746531490128554 L 149.99361036115056 -40.57007452248621 L 149.3837861976097 -39.39854767291406 L 148.74940123193898 -38.23224668544157 L 148.09022636732385 -37.07147188727141 L 147.406028547556 -35.916528327020174 L 146.69657061079874 -34.767725918107175 L 145.96161113794946 -33.62537958751287 L 145.20090429536415 -32.489809430148554 L 144.4141996716913 -31.361340869082447 L 143.60124210855497 -30.24030482188997 L 142.76177152481247 -29.127037873401115 L 141.89552273409242 -28.021882455133934 L 141.0022252553137 -26.925187031720622 L 140.08160311586175 -25.837306294646332 L 139.13337464708644 -24.75860136363796 L 138.15725227176617 -23.689439996057082 L 137.15294228316358 -22.630196804671044 L 136.12014461528284 -21.581253484197802 L 135.05855260390862 -20.542999047035245 L 133.96785273799534 -19.515830068616616 L 132.84772440094207 -18.500150942849334 L 131.69783960126728 -17.496374148124612 L 130.51786269217428 -16.504920524411652 L 129.30745007946226 -15.526219561976635 L 128.0662499172125 -14.560709702297936 L 126.79390179064725 -13.608838651781861 L 125.49003638552146 -12.671063708917105 L 124.15427514337722 -11.747852105543185 L 122.78622990193949 -10.839681362942393 L 121.38550251990878 -9.947039663515426 L 119.95168448534427 -9.070426238834889 L 118.48435650679743 -8.210351774925574 L 116.98308808629432 -7.367338835663258 L 115.44743707322442 -6.54192230524622 L 113.8769491981247 -5.734649850741978 L 112.2711575852952 -4.946082405779384 L 110.62958224310819 -4.17679467651511 L 108.95172953081584 -3.427375671081202 L 107.2370916005761 -2.6984292537877956 L 105.48514581333826 -1.9905747254380493 L 103.69535412714879 -1.3044474311978977 L 101.86716245634516 -0.6406993975554939 L 100.0 0.0" fill="none" stroke="black" /></svg>