<?xml version="1.0" encoding="utf-8" ?>
<svg baseProfile="full" height="1000" version="1.1" viewBox="-500 -500 1000 1000" width="1000" xmlns="http://www.w3.org/2000/svg" xmlns:ev="http://www.w3.org/2001/xml-events" xmlns:xlink="http://www.w3.org/1999/xlink"><defs /><path d="M 50.0 49.99999999999999 L 49.12481519021782 50.875184809782176 L 48.24909393892131 51.75090606107867 L 47.372298488549596 52.62770151145041 L 46.49388844258176 53.50611155741824 L 45.61331942882839 54.3866805711716 L 44.7300417418754 55.26995825812459 L 43.843498957439934 56.156501042560066 L 42.95312651114318 57.04687348885682 L 42.05835023387971 57.94164976612028 L 41.15858483556326 58.84141516443675 L 40.25323232854854 59.74676767145146 L 39.3416803814609 60.658319618539096 L 38.423300593502184 61.576699406497816 L 37.49744667853269 62.50255332146731 L 36.563452547343154 63.43654745265684 L 35.62063027551469 64.37936972448531 L 34.66826794310207 65.3317320568979 L 33.70562733104888 66.29437266895113 L 32.73194145772913 67.26805854227088 L 31.746411937286208 68.2535880627138 L 30.74820613947343 69.25179386052656 L 29.73645412846182 70.26354587153818 L 28.710245355524766 71.28975464447522 L 27.668625077594022 72.33137492240597 L 26.610590470348555 73.38940952965145 L 25.53508640068492 74.46491359931508 L 24.441000819049208 75.55899918095079 L 23.327159727095296 76.67284027290471 L 22.192321670368976 77.80767832963103 L 21.03517169907547 78.96482830092452 L 19.85431473232246 80.14568526767755 L 18.64826825236197 81.35173174763803 L 17.41545424507617 82.58454575492382 L 16.154190291005616 83.8458097089944 L 14.862679697304802 85.1373203026952 L 13.5390005447613 86.46099945523869 L 12.181093504987935 87.81890649501207 L 10.786748260558108 89.21325173944189 L 9.353588334549727 90.64641166545027 L 7.87905410489429 92.1209458951057 L 6.360383742120862 93.63961625787914 L 4.794591765336325 95.20540823466368 L 3.178444859109144 96.82155514089085 L 1.5084345314832477 98.49156546851675 L -0.21829663396514679 99.78170336603485 L -1.9311898761317354 98.06881012386826 L -3.587389250797418 96.41261074920259 L -5.19062975233684 94.80937024766315 L -6.74434832470017 93.25565167529983 L -8.251713892596218 91.74828610740377 L -9.715653870544829 90.28434612945517 L -11.13887762449975 88.86112237550026 L -12.523897289125486 87.47610271087451 L -13.873046284133547 86.12695371586646 L -15.188495823173973 84.81150417682603 L -16.472269666890327 83.52773033310966 L -17.726257336478426 82.27374266352157 L -18.952225974294763 81.04777402570525 L -20.151831012815094 79.84816898718489 L -21.326625791789287 78.67337420821072 L -22.478070245152775 77.52192975484722 L -23.607538763627527 76.39246123637247 L -24.716327325555547 75.28367267444446 L -25.80565997700529 74.19434002299471 L -26.87669473228635 73.12330526771366 L -27.93052895745916 72.06947104254084 L -28.96820429203195 71.03179570796804 L -29.990711157626716 70.00928884237328 L -30.998992896830302 69.0010071031697 L -31.993949580601026 68.00605041939897 L -32.976441518380476 67.02355848161953 L -33.9472925013731 66.0527074986269 L -34.907292806233585 65.09270719376642 L -35.85720198358167 64.14279801641833 L -36.797751453290985 63.202248546709015 L -37.729646926331974 62.27035307366802 L -38.65357067104539 61.346429328954606 L -39.570183640054964 60.42981635994503 L -40.48012747256199 59.519872527438004 L -41.384026385481604 58.615973614518396 L -42.28248896575521 57.71751103424479 L -43.17610987519261 56.823890124807384 L -44.065471478340775 55.93452852165922 L -44.95114540313588 55.04885459686412 L -45.83369404345618 54.166305956543816 L -46.71367201214815 53.286327987851855 L -47.59162755263869 52.40837244736131 L -48.46810391686559 51.53189608313442 L -49.34364071695154 50.65635928304847 L -50.21877525780864 49.78122474219137 L -51.09404385768892 48.90595614231107 L -51.96998316358844 48.03001683641156 L -52.84713146836517 47.15286853163482 L -53.726030036448094 46.273969963551906 L -54.60722444509015 45.39277555490986 L -55.49126594825894 44.50873405174106 L -56.37871287046221 43.621287129537784 L -57.2701320380786 42.7298679619214 L -58.16610025610634 41.83389974389367 L -59.06720583866188 40.932794161338116 L -59.97405020206322 40.02594979793678 L -60.88724952992198 39.11275047007802 L -61.80743652035775 38.19256347964225 L -62.73526222624512 37.264737773754895 L -63.671398000320615 36.32860199967938 L -64.61653755802746 35.38346244197254 L -65.57139917217872 34.428600827821285 L -66.53672801489051 33.46327198510949 L -67.51329866379989 32.48670133620012 L -68.5019177913655 31.49808220863449 L -69.50342705807857 30.496572941921446 L -70.51870623272615 29.481293767273858 L -71.54867656549062 28.45132343450937 L -72.5943044426824 27.405695557317607 L -73.65660535534958 26.3433946446504 L -74.73664821795307 25.263351782046907 L -75.83556007781661 24.164439922183387 L -76.95453126125263 23.04546873874737 L -78.09482100823848 21.905178991761513 L -79.25776365439863 20.74223634560138 L -80.4447754269978 19.55522457300222 L -81.65736193084997 18.342638069150034 L -82.89712641071796 17.102873589282044 L -84.16577888918502 15.834221110814992 L -85.46514629344145 14.534853706558547 L -86.79718370132784 13.20281629867217 L -88.16398685677453 11.836013143225466 L -89.56780612804515 10.432193871954846 L -91.01106210960357 8.988937890396432 L -92.49636310082866 7.503636899171349 L -94.02652473322136 5.973475266778636 L -95.60459206345128 4.395407936548726 L -97.23386450414077 2.766135495859237 L -98.91792402963323 1.0820759703667664 L -99.34794860645691 -0.6520513935430848 L -97.64959652707083 -2.35040347292917 L -96.00697483436656 -3.993025165633446 L -94.41642607479693 -5.583573925203076 L -92.87458297819641 -7.1254170218035755 L -91.37833935607195 -8.62166064392805 L -89.92482439588584 -10.075175604114172 L -88.51137989579232 -11.488620104207696 L -87.13554005268794 -12.86445994731205 L -85.7950134734904 -14.204986526509598 L -84.48766712731303 -15.512332872686963 L -83.21151199631656 -16.788488003683433 L -81.96469021681888 -18.035309783181134 L -80.74546353082333 -19.254536469176667 L -79.55220289235774 -20.447797107642277 L -78.38337909362392 -21.616620906376077 L -77.23755429353704 -22.76244570646296 L -76.11337434626317 -23.88662565373683 L -75.00956184025286 -24.990438159747136 L -73.92490976934614 -26.07509023065385 L -72.85827576706946 -27.14172423293055 L -71.80857684348739 -28.191423156512606 L -70.77478457110588 -29.225215428894117 L -69.75592067251073 -30.24407932748927 L -68.75105296780004 -31.248947032199972 L -67.75929164455016 -32.24070835544983 L -66.77978581713472 -33.220214182865284 L -65.81172034578009 -34.188279654219926 L -64.85431288885825 -35.14568711114176 L -63.906811164646555 -36.093188835353445 L -62.968490401176155 -37.03150959882385 L -62.03865095488829 -37.9613490451117 L -61.116616080660194 -38.8833839193398 L -60.201729837375886 -39.798270162624114 L -59.29335511463651 -40.706644885363495 L -58.39087176744587 -41.60912823255413 L -57.49367484679433 -42.50632515320567 L -56.60117291501335 -43.39882708498666 L -55.71278643559897 -44.287213564401036 L -54.82794622791653 -45.17205377208347 L -53.94609197781369 -46.053908022186306 L -53.066670795692325 -46.933329204307675 L -52.18913581402838 -47.81086418597162 L -51.31294481669098 -48.687055183309006 L -50.437558892702135 -49.562441107297865 L -49.562441107297865 -50.43755889270215 L -48.68705518330905 -51.312944816690944 L -47.81086418597165 -52.18913581402835 L -46.93332920430767 -53.06667079569233 L -46.05390802218633 -53.946091977813666 L -45.172053772083515 -54.8279462279165 L -44.28721356440108 -55.712786435598936 L -43.39882708498667 -56.601172915013336 L -42.506325153205694 -57.49367484679431 L -41.60912823255414 -58.390871767445866 L -40.70664488536353 -59.29335511463647 L -39.79827016262418 -60.20172983737582 L -38.88338391933982 -61.11661608066019 L -37.961349045111724 -62.03865095488828 L -37.03150959882389 -62.96849040117611 L -36.09318883535348 -63.906811164646506 L -35.145687111141775 -64.85431288885822 L -34.18827965421993 -65.81172034578006 L -33.2202141828653 -66.7797858171347 L -32.24070835544988 -67.75929164455013 L -31.248947032200036 -68.75105296779996 L -30.24407932748929 -69.75592067251071 L -29.225215428894135 -70.77478457110587 L -28.191423156512602 -71.8085768434874 L -27.14172423293059 -72.85827576706941 L -26.07509023065387 -73.92490976934613 L -24.990438159747157 -75.00956184025284 L -23.886625653736846 -76.11337434626314 L -22.762445706463012 -77.237554293537 L -21.616620906376102 -78.3833790936239 L -20.44779710764229 -79.55220289235771 L -19.25453646917669 -80.7454635308233 L -18.03530978318112 -81.96469021681887 L -16.788488003683426 -83.21151199631657 L -15.512332872687054 -84.48766712731295 L -14.204986526509588 -85.79501347349041 L -12.864459947312072 -87.13554005268793 L -11.488620104207682 -88.51137989579232 L -10.075175604114197 -89.9248243958858 L -8.621660643928113 -91.37833935607188 L -7.125417021803603 -92.8745829781964 L -5.583573925203063 -94.41642607479693 L -3.9930251656334743 -96.00697483436653 L -2.350403472929284 -97.64959652707071 L -0.6520513935430713 -99.34794860645692 L 1.0820759703666931 -98.91792402963331 L 2.7661354958592494 -97.23386450414075 L 4.395407936548698 -95.60459206345129 L 5.97347526677857 -94.02652473322145 L 7.5036368991713225 -92.49636310082867 L 8.988937890396445 -91.01106210960356 L 10.432193871954823 -89.56780612804518 L 11.836013143225374 -88.16398685677463 L 13.202816298672179 -86.79718370132782 L 14.534853706558456 -85.46514629344155 L 15.834221110815 -84.16577888918499 L 17.10287358928202 -82.89712641071797 L 18.342638069150013 -81.65736193085 L 19.555224573002196 -80.44477542699781 L 20.742236345601384 -79.25776365439862 L 21.905178991761492 -78.0948210082385 L 23.045468738747292 -76.95453126125271 L 24.16443992218339 -75.8355600778166 L 25.26335178204684 -74.73664821795316 L 26.343394644650413 -73.65660535534958 L 27.40569555731759 -72.59430444268241 L 28.45132343450935 -71.54867656549065 L 29.481293767273836 -70.51870623272616 L 30.49657294192145 -69.50342705807856 L 31.49808220863448 -68.50191779136553 L 32.486701336200056 -67.51329866379996 L 33.46327198510949 -66.5367280148905 L 34.42860082782122 -65.57139917217879 L 35.383462441972554 -64.61653755802746 L 36.328601999679364 -63.67139800032063 L 37.264737773754845 -62.73526222624514 L 38.19256347964224 -61.80743652035777 L 39.112750470078026 -60.887249529921974 L 40.02594979793677 -59.97405020206324 L 40.932794161338094 -59.06720583866189 L 41.833899743893674 -58.16610025610634 L 42.729867961921336 -57.27013203807866 L 43.62128712953775 -56.37871287046225 L 44.508734051741044 -55.491265948258956 L 45.39277555490982 -54.60722444509019 L 46.27396996355189 -53.72603003644811 L 47.15286853163483 -52.84713146836516 L 48.03001683641155 -51.96998316358846 L 48.90595614231104 -51.09404385768897 L 49.78122474219137 -50.21877525780862 L 50.65635928304841 -49.3436407169516 L 51.53189608313435 -48.468103916865644 L 52.408372447361295 -47.591627552638705 L 53.28632798785181 -46.71367201214818 L 54.16630595654379 -45.83369404345621 L 55.04885459686413 -44.95114540313588 L 55.9345285216592 -44.0654714783408 L 56.82389012480739 -43.17610987519261 L 57.71751103424479 -42.282488965755206 L 58.61597361451836 -41.38402638548165 L 59.51987252743795 -40.48012747256205 L 60.42981635994502 -39.570183640054985 L 61.34642932895457 -38.65357067104543 L 62.270353073667984 -37.729646926332016 L 63.202248546709 -36.797751453291006 L 64.14279801641831 -35.85720198358169 L 65.09270719376642 -34.90729280623358 L 66.0527074986269 -33.94729250137309 L 67.02355848161946 -32.97644151838054 L 68.0060504193989 -31.99394958060109 L 69.00100710316966 -30.99899289683033 L 70.00928884237324 -29.990711157626762 L 71.03179570796806 -28.968204292031942 L 72.06947104254081 -27.930528957459178 L 73.12330526771363 -26.87669473228637 L 74.19434002299472 -25.80565997700528 L 75.28367267444446 -24.71632732555555 L 76.39246123637247 -23.607538763627534 L 77.5219297548472 -22.478070245152793 L 78.67337420821067 -21.32662579178932 L 79.84816898718485 -20.151831012815148 L 81.04777402570521 -18.95222597429478 L 82.27374266352156 -17.72625733647845 L 83.52773033310964 -16.472269666890348 L 84.81150417682603 -15.18849582317396 L 86.12695371586645 -13.873046284133554 L 87.47610271087451 -12.523897289125491 L 88.8611223755002 -11.138877624499791 L 90.28434612945513 -9.715653870544871 L 91.74828610740371 -8.251713892596282 L 93.2556516752998 -6.744348324700197 L 94.80937024766314 -5.190629752336869 L 96.41261074920256 -3.587389250797446 L 98.06881012386827 -1.9311898761317219 L 99.78170336603483 -0.21829663396515514 L 98.49156546851674 1.5084345314832583 L 96.82155514089094 3.17844485910907 L 95.20540823466372 4.794591765336282 L 93.63961625787918 6.360383742120806 L 92.12094589510575 7.879054104894245 L 90.64641166545029 9.353588334549709 L 89.2132517394419 10.7867482605581 L 87.81890649501207 12.181093504987931 L 86.46099945523869 13.539000544761304 L 85.1373203026952 14.862679697304795 L 83.84580970899445 16.154190291005563 L 82.58454575492387 17.415454245076138 L 81.35173174763807 18.648268252361927 L 80.14568526767758 19.854314732322425 L 78.96482830092454 21.035171699075462 L 77.80767832963105 22.192321670368955 L 76.67284027290471 23.327159727095292 L 75.5589991809508 24.4410008190492 L 74.46491359931508 25.535086400684918 L 73.38940952965149 26.61059047034851 L 72.331374922406 27.668625077594 L 71.28975464447527 28.71024535552473 L 70.26354587153821 29.736454128461794 L 69.25179386052659 30.74820613947341 L 68.25358806271382 31.746411937286194 L 67.26805854227088 32.73194145772913 L 66.29437266895113 33.70562733104887 L 65.3317320568979 34.668267943102094 L 64.37936972448536 35.62063027551465 L 63.43654745265688 36.563452547343125 L 62.50255332146734 37.49744667853266 L 61.57669940649783 38.42330059350216 L 60.65831961853912 39.34168038146088 L 59.746767671451465 40.25323232854853 L 58.841415164436754 41.158584835563246 L 57.941649766120285 42.05835023387971 L 57.04687348885681 42.95312651114319 L 56.15650104256006 43.84349895743994 L 55.26995825812464 44.73004174187537 L 54.38668057117163 45.61331942882836 L 53.506111557418265 46.49388844258174 L 52.627701511450425 47.372298488549575 L 51.750906061078695 48.249093938921305 L 50.87518480978219 49.12481519021782 L 50.0 49.99999999999999" fill="none" stroke="black" /></svg>