<?xml version="1.0" encoding="utf-8" ?>
<svg baseProfile="full" height="1000" version="1.1" viewBox="-500 -500 1000 1000" width="1000" xmlns="http://www.w3.org/2000/svg" xmlns:ev="http://www.w3.org/2001/xml-events" xmlns:xlink="http://www.w3.org/1999/xlink"><defs /><path d="M 100.0 0.0 L 99.37497535704279 0.6250246429572248 L 98.75766676523382 1.2423332347661815 L 98.14788427055039 1.8521157294496178 L 97.54544369934581 2.454556300654185 L 96.95016643447762 3.049833565522366 L 96.36187920167605 3.6381207983239587 L 95.78041386560889 4.219586134391112 L 95.20560723513184 4.794392764868164 L 94.63730087724305 5.362699122756961 L 94.07534093929013 5.924659060709875 L 93.51957797900391 6.480422020996095 L 92.96986680195809 7.030133198041908 L 92.42606630607753 7.573933693922463 L 91.88803933283927 8.111960667160734 L 91.35565252483089 8.644347475169113 L 90.82877618934998 9.171223810650007 L 90.30728416774606 9.69271583225395 L 89.79105371022291 10.208946289777089 L 89.27996535583576 10.720034644164235 L 88.77390281743106 11.226097182568944 L 88.27275287129169 11.727247128708322 L 87.7764052512626 12.223594748737383 L 87.28475254714444 12.715247452855552 L 86.7976901071535 13.202309892846495 L 86.3151159442582 13.684884055741795 L 85.83693064621109 14.16306935378891 L 85.36303728910578 14.636962710894219 L 84.89334135429678 15.106658645703218 L 84.4277506485286 15.572249351471399 L 83.96617522712853 16.03382477287146 L 83.50852732012494 16.491472679875063 L 83.05472126115976 16.945278738840237 L 82.60467341907096 17.395326580929037 L 82.15830213202638 17.841697867973625 L 81.71552764409677 18.284472355903226 L 81.27627204416129 18.72372795583872 L 80.84045920704364 19.159540792956363 L 80.40801473678272 19.59198526321728 L 79.9788659119455 20.0211340880545 L 79.55294163289498 20.44705836710501 L 79.1301723709299 20.869827629070098 L 78.71049011921693 21.289509880783058 L 78.29382834544002 21.70617165455999 L 77.88012194609458 22.11987805390542 L 77.46930720235855 22.530692797641446 L 77.06132173747433 22.938678262525674 L 76.6561044755796 23.343895524420393 L 76.2535956019276 23.746404398072407 L 75.85373652443975 24.146263475560257 L 75.45646983653681 24.543530163463185 L 75.0617392811966 24.9382607188034 L 74.66948971618886 25.330510283811133 L 74.27966708044019 25.720332919559795 L 73.89221836148376 26.107781638516244 L 73.5070915639506 26.4929084360494 L 73.12423567906154 26.87576432093846 L 72.74360065507987 27.256399344920116 L 72.36513736868727 27.634862631312732 L 71.98879759724664 28.01120240275334 L 71.61453399191755 28.38546600808245 L 71.2423000515906 28.757699948409396 L 70.8720500976096 29.127949902390398 L 70.50373924925051 29.49626075074949 L 70.13732339992846 29.86267660007154 L 69.77275919410452 30.227240805895487 L 69.41000400486561 30.589995995134373 L 69.04901591215179 30.95098408784822 L 68.68975368160594 31.310246318394075 L 68.33217674402265 31.667823255977353 L 67.97624517537302 32.02375482462697 L 67.6219196773838 32.3780803226162 L 67.26916155864964 32.730838441350365 L 66.91793271625853 33.08206728374147 L 66.56819561791067 33.431804382089325 L 66.21991328451232 33.780086715487684 L 65.87304927322646 34.12695072677356 L 65.52756766096314 34.47243233903686 L 65.18343302829282 34.81656697170719 L 64.84061044376632 35.15938955623368 L 64.49906544862651 35.5009345513735 L 64.15876404189625 35.841235958103745 L 63.81967266582867 36.18032733417133 L 63.48175819170547 36.51824180829454 L 63.144987905970304 36.855012094029696 L 62.80932949668407 37.190670503315935 L 62.47475104028957 37.52524895971044 L 62.14122098867373 37.85877901132628 L 61.80870815651558 38.19129184348442 L 61.47718170890863 38.52281829109137 L 61.14661114924697 38.85338885075302 L 60.816966307364346 39.183033692635654 L 60.48821732791605 39.511782672083946 L 60.160334658993776 39.839665341006224 L 59.83328904096378 40.16671095903624 L 59.507051495518944 40.49294850448105 L 59.181593314936 40.81840668506399 L 58.85688605152873 41.14311394847127 L 58.53290150728889 41.46709849271111 L 58.20961172370654 41.79038827629345 L 57.88698897176163 42.11301102823836 L 57.56500574207894 42.434994257921055 L 57.24363473523892 42.75636526476107 L 56.92284885223676 43.07715114776323 L 56.602621185082526 43.397378814917474 L 56.282925007535205 43.717074992464795 L 55.963733765963745 44.03626623403626 L 55.645021070328326 44.354978929671674 L 55.32676068527509 44.67323931472491 L 55.00892652133798 44.991073478662024 L 54.69149262624123 45.308507373758765 L 54.37443317629621 45.6255668237038 L 54.05772246788652 45.94227753211349 L 53.74133490903538 46.25866509096462 L 53.42524501104913 46.574754988950865 L 53.10942738023122 46.89057261976877 L 52.79385670966079 47.206143290339206 L 52.47850777103017 47.52149222896982 L 52.16335540653571 47.83664459346429 L 51.84837452081621 48.151625479183785 L 51.53354007293376 48.46645992706623 L 51.21882706839113 48.781172931608886 L 50.90421055118053 49.095789448819474 L 50.589665595858456 49.41033440414153 L 50.2751672996409 49.724832700359094 L 49.96069077451392 50.039309225486086 L 49.64621113935417 50.353788860645835 L 49.33170351205402 50.66829648794597 L 49.01714300164604 50.98285699835396 L 48.70250470042145 51.29749529957855 L 48.38776367603745 51.61223632396254 L 48.072894963607844 51.92710503639215 L 47.75787355777177 52.24212644222824 L 47.44267440473518 52.557325595264835 L 47.12727239427964 52.872727605720364 L 46.81164235173304 53.188357648266965 L 46.495759029896625 53.50424097010339 L 46.17959710092305 53.82040289907695 L 45.86313114813968 54.13686885186033 L 45.54633565781152 54.45366434218848 L 45.229185010838194 54.770814989161806 L 44.91165347437893 55.08834652562107 L 44.593715193399916 55.4062848066001 L 44.275344182137914 55.72465581786207 L 43.95651431547417 56.04348568452582 L 43.63719932021223 56.36280067978777 L 43.317372766253634 56.68262723374637 L 42.997008057664935 57.002991942335065 L 42.676078423629534 57.323921576370466 L 42.354556909277534 57.64544309072245 L 42.03241636638711 57.9675836336129 L 41.70962944394988 58.290370556050114 L 41.38616857859377 58.61383142140624 L 41.06200598485543 58.937994015144554 L 40.73711364529525 59.26288635470475 L 40.41146330044668 59.588536699553316 L 40.08502643859257 59.91497356140742 L 39.75777428535998 60.24222571464003 L 39.42967779312513 60.57032220687487 L 39.10070763022019 60.899292369779815 L 38.770834169932755 61.22916583006723 L 38.44002747928903 61.55997252071098 L 38.10825730761134 61.89174269238866 L 37.7754930748403 62.224506925159695 L 37.441703859611614 62.5582961403884 L 37.106858387077175 62.893141612922825 L 36.77092501646001 63.22907498353999 L 36.43387172833177 63.56612827166822 L 36.095666111601744 63.90433388839826 L 35.75627535020525 64.24372464979476 L 35.41566620947973 64.58433379052028 L 35.07380502221549 64.92619497778449 L 34.730657674368366 65.26934232563163 L 34.386189590420656 65.61381040957934 L 34.04036571837642 65.95963428162358 L 33.69315051437662 66.30684948562339 L 33.344507926918915 66.65549207308109 L 32.99440138066678 67.00559861933321 L 32.642793759831505 67.3572062401685 L 32.289647391110286 67.7103526088897 L 31.9349240261631 68.0650759738369 L 31.578584823609948 68.42141517639006 L 31.220590330529856 68.77940966947014 L 30.860900463441777 69.13909953655822 L 30.499474488747182 69.50052551125282 L 30.13627100261293 69.86372899738707 L 29.771247910272525 70.22875208972748 L 29.40436240472248 70.59563759527752 L 29.035570944790113 70.96442905520988 L 28.664829232547614 71.33517076745238 L 28.29209219004645 71.70790780995354 L 27.917313935345014 72.082686064655 L 27.54044775780122 72.45955224219878 L 27.161446092600542 72.83855390739946 L 26.78026049448875 73.21973950551124 L 26.39684161067731 73.60315838932269 L 26.011139152887832 73.98886084711216 L 25.623101868500612 74.37689813149939 L 25.232677510770806 74.7673224892292 L 24.839812808073805 75.16018719192618 L 24.444453432140218 75.55554656785979 L 24.046543965238442 75.95345603476154 L 23.646027866261427 76.35397213373857 L 23.24284743567173 76.75715256432827 L 22.836943779257346 77.16305622074265 L 22.428256770648176 77.57174322935184 L 22.016725012540714 77.98327498745928 L 21.60228579657641 78.39771420342359 L 21.184875061815927 78.81512493818408 L 20.764427351749397 79.23557264825062 L 20.340875769779377 79.65912423022061 L 19.914151933110524 80.08584806688948 L 19.484185924976455 80.51581407502354 L 19.050906245131042 80.94909375486895 L 18.614239758527773 81.38576024147223 L 18.174111642106915 81.82588835789309 L 17.730445329606194 82.2695546703938 L 17.283162454306574 82.71683754569342 L 16.832182789620067 83.16781721037992 L 16.377424187421713 83.62257581257828 L 15.918802514023122 84.08119748597689 L 15.45623158367922 84.54376841632079 L 14.989623089514518 85.01037691048549 L 14.518886531749008 85.48111346825098 L 14.043929143097616 85.95607085690239 L 13.56465581121037 86.43534418878964 L 13.080968998013045 86.91903100198695 L 12.592768655801049 87.40723134419895 L 12.099952139930636 87.90004786006936 L 11.602414117943429 88.39758588205656 L 11.100046474950993 88.89995352504901 L 10.592738215096562 89.40726178490344 L 10.080375358900966 89.91962464109903 L 9.562840836288448 90.43715916371156 L 9.040014375077163 90.95998562492285 L 8.51177238470615 91.48822761529384 L 7.977987834957816 92.02201216504218 L 7.438530129420831 92.56146987057917 L 6.893264973423431 93.10673502657657 L 6.3420542361513235 93.65794576384867 L 5.784755806647014 94.21524419335299 L 5.221223443369931 94.77877655663008 L 4.651306616976699 95.3486933830233 L 4.074850345960612 95.92514965403939 L 3.4916950247671616 96.50830497523283 L 2.901676243978927 97.09832375602107 L 2.3046246021374763 97.69537539786253 L 1.7003655087435376 98.29963449125647 L 1.088718977946998 98.911281022053 L 0.469499412407634 99.53050058759237 L -0.15699015252556184 99.84300984747445 L -0.7800676496731858 99.21993235032681 L -1.3954771387325906 98.60452286126741 L -2.0034071070630777 97.99659289293692 L -2.604040318606899 97.39595968139311 L -3.1975540351482175 96.80244596485178 L -3.7841202274708 96.21587977252919 L -4.363905776950058 95.63609422304995 L -4.937072668082847 95.06292733191715 L -5.503778172428318 94.49622182757167 L -6.064175024405471 93.93582497559453 L -6.618411589366229 93.38158841063378 L -7.166632024339096 92.8333679756609 L -7.7089764318151905 92.29102356818481 L -8.245581006927186 91.7544189930728 L -8.776578178351727 91.22342182164827 L -9.302096743247013 90.69790325675298 L -9.822261996520075 90.17773800347993 L -10.337195854701216 89.6628041452988 L -10.847016974688309 89.15298302531168 L -11.351840867608793 88.6481591323912 L -11.851780008033813 88.14821999196619 L -12.346943938766051 87.65305606123395 L -12.837439371411227 87.16256062858878 L -13.323370282931387 86.67662971706861 L -13.804838008368144 86.19516199163185 L -14.281941329913701 85.7180586700863 L -14.754776562498382 85.24522343750162 L -15.223437636054404 84.7765623639456 L -15.688016174607432 84.31198382539256 L -16.148601572339857 83.85139842766016 L -16.605281066761844 83.39471893323815 L -17.058139809119925 82.94186019088006 L -17.50726093216589 82.49273906783412 L -17.95272561540278 82.04727438459722 L -18.394613147918975 81.60538685208103 L -18.833000988915668 81.16699901108434 L -19.267964826028287 80.73203517397171 L -19.699578631536834 80.30042136846316 L -20.12791471655622 79.87208528344378 L -20.553043783292697 79.4469562167073 L -20.975034975448786 79.02496502455122 L -21.393955926854797 78.60604407314521 L -21.80987280840177 78.19012719159824 L -22.222850373346645 77.77714962665334 L -22.632952001057607 77.3670479989424 L -23.04023973926408 76.95976026073593 L -23.444774344873125 76.55522565512688 L -23.846615323410905 76.1533846765891 L -24.24582096714531 75.75417903285468 L -24.64244839194357 75.35755160805644 L -25.036553572915587 74.96344642708442 L -25.428191378892233 74.57180862110776 L -25.8174156057851 74.1825843942149 L -26.2042790088724 73.7957209911276 L -26.588833334053696 73.4111666659463 L -26.97112934811416 73.02887065188584 L -27.351216868037675 72.64878313196233 L -27.72914478940578 72.27085521059422 L -28.104961113918506 71.8950388860815 L -28.478712976071215 71.52128702392879 L -28.850446669020236 71.14955333097977 L -29.22020766966885 70.77979233033116 L -29.588040663003465 70.41195933699653 L -29.95398956570925 70.04601043429075 L -30.3180975490925 69.6819024509075 L -30.680407061336542 69.31959293866346 L -31.0409598491166 68.9590401508834 L -31.399796978598054 68.60020302140194 L -31.756958855841518 68.24304114415848 L -32.11248524663747 67.88751475336252 L -32.466415295791876 67.53358470420811 L -32.81878754588368 67.18121245411632 L -33.16963995551437 66.83036004448563 L -33.51900991706856 66.48099008293143 L -33.86693427400429 66.13306572599572 L -34.21344933769079 65.7865506623092 L -34.558590903810966 65.44140909618903 L -34.90239426834484 65.09760573165516 L -35.24489424315022 64.75510575684977 L -35.58612517115565 64.41387482884436 L -35.92612094118047 64.07387905881954 L -36.26491500239634 63.73508499760366 L -36.60254037844385 63.397459621556145 L -36.939029681217534 63.06097031878246 L -37.27441512433201 62.72558487566799 L -37.60872853628188 62.39127146371811 L -37.94200137330699 62.05799862669303 L -38.27426473197476 61.725735268025254 L -38.60554936149093 61.394450638509085 L -38.935885675749184 61.06411432425083 L -39.26530376513047 60.734696234869546 L -39.5938334080619 60.4061665919381 L -39.92150408234525 60.07849591765475 L -40.2483449762644 59.75165502373559 L -40.57438499948116 59.42561500051884 L -40.89965279372827 59.100347206271735 L -41.22417674330844 58.77582325669157 L -41.54798498540782 58.45201501459218 L -41.87110542023208 58.128894579767916 L -42.193565720973325 57.80643427902668 L -42.51539334361541 57.4846066563846 L -42.83661553658536 57.163384463414644 L -43.1572593502584 56.84274064974159 L -43.47735164632363 56.522648353676374 L -43.796919107017594 56.20308089298241 L -44.11598824423257 55.88401175576743 L -44.43458540850632 55.565414591493685 L -44.75273679789997 55.24726320210004 L -45.070468466770386 54.92953153322961 L -45.38780633444358 54.612193665556404 L -45.70477619379519 54.2952238062048 L -46.021403719744136 53.978596280255864 L -46.33771447766595 53.66228552233404 L -46.653733931730756 53.34626606826926 L -46.96948745317287 53.03051254682712 L -47.28500032849674 52.714999671503264 L -47.60029776762584 52.39970223237417 L -47.91540491199908 52.084595088000924 L -48.23034684262165 51.76965315737835 L -48.54514858807419 51.4548514119258 L -48.85983513248728 51.14016486751272 L -49.174431423485494 50.82556857651451 L -49.488962380107125 50.51103761989288 L -49.8034529007045 50.1965470992955 L -50.1179278708305 49.8820721291695 L -50.43241217111627 49.56758782888374 L -50.746930685146 49.253069314854 L -51.06150830733314 48.93849169266686 L -51.37616995080456 48.62383004919545 L -51.69094055529654 48.30905944470346 L -52.00584509506954 47.994154904930475 L -52.32090858684532 47.679091413154694 L -52.63615609777347 47.36384390222653 L -52.951612753431526 47.04838724656847 L -53.267303745864545 46.73269625413545 L -53.583254341670035 46.416745658329965 L -53.899489890132735 46.10051010986727 L -54.21603583141626 45.783964168583736 L -54.53291770481576 45.46708229518424 L -54.85016115707866 45.14983884292134 L -55.16779195079838 44.83220804920161 L -55.4858359728874 44.51416402711259 L -55.80431924313548 44.19568075686452 L -56.12326792285926 43.87673207714074 L -56.44270832364922 43.557291676350786 L -56.76266691622077 43.237333083779234 L -57.083170339375165 42.91682966062484 L -57.4042454090778 42.5957545909222 L -57.72591912765954 42.27408087234046 L -58.048218693149 41.95178130685099 L -58.37117150874179 41.62882849125822 L -58.69480519241489 41.30519480758511 L -59.0191475866926 40.980852413307396 L -59.34422676857245 40.655773231427546 L -59.67007105961818 40.32992894038182 L -59.99670903622814 40.00329096377186 L -60.32416954008712 39.67583045991288 L -60.6524816888101 39.347518311189894 L -60.98167488678641 39.01832511321359 L -61.31177883623366 38.688221163766336 L -61.64282354846977 38.357176451530236 L -61.97483935541372 38.025160644586286 L -62.30785692132343 37.69214307867657 L -62.641907254782254 37.358092745217746 L -62.97702172094306 37.02297827905694 L -63.3132320540419 36.68676794595811 L -63.65057037019137 36.349429629808625 L -63.98906918046577 36.01093081953423 L -64.32876140428947 35.67123859571053 L -64.66968038314111 35.33031961685889 L -65.01185989458605 34.988140105413926 L -65.35533416665045 34.644665833349556 L -65.70013789255015 34.299862107449854 L -66.04630624578948 33.95369375421053 L -66.39387489564304 33.60612510435696 L -66.74288002303751 33.25711997696249 L -67.09335833684739 32.90664166315261 L -67.44534709062273 32.55465290937726 L -67.79888409976438 32.20111590023563 L -68.15400775916545 31.845992240834544 L -68.51075706133685 31.489242938663157 L -68.86917161503584 31.130828384964172 L -69.22929166441783 30.77070833558217 L -69.59115810873172 30.408841891268263 L -69.9548125225802 30.045187477419812 L -70.32029717676772 29.679702823232272 L -70.68765505975877 29.31234494024124 L -71.05692989977133 28.943070100228656 L -71.42816618753005 28.57183381246993 L -71.8014091997062 28.1985908002938 L -72.1767050230707 27.823294976929308 L -72.55410057939034 27.44589942060966 L -72.9336436510952 27.066356348904808 L -73.31538290774992 26.684617092250082 L -73.69936793336029 26.300632066639704 L -74.08564925454942 25.914350745450573 L -74.4742783696388 25.525721630361193 L -74.86530777867125 25.134692221328756 L -75.2587910144141 24.74120898558589 L -75.65478267438377 24.345217325616233 L -76.05333845393241 23.946661546067595 L -76.45451518044277 23.545484819557235 L -76.85837084867538 23.14162915132461 L -77.26496465731827 22.735035342681726 L -77.67435704678799 22.325642953212007 L -78.08660973833658 21.91339026166343 L -78.5017857745186 21.49821422548141 L -78.91994956107717 21.080050438922832 L -79.34116691030951 20.658833089690486 L -79.76550508597593 20.234494914024054 L -80.19303284981932 19.80696715018068 L -80.62382050976511 19.376179490234883 L -81.05793996987563 18.94206003012437 L -81.49546478213637 18.504535217863634 L -81.93647020015446 18.063529799845544 L -82.38103323485623 17.618966765143774 L -82.82923271227152 17.170767287728474 L -83.28114933350103 16.71885066649898 L -83.73686573696347 16.26313426303652 L -84.19646656302893 15.803533436971062 L -84.66003852114602 15.339961478853983 L -85.12767045957932 14.872329540420678 L -85.59945343787804 14.40054656212196 L -86.07548080220361 13.924519197796393 L -86.55584826365101 13.444151736348969 L -87.04065397970575 12.959346020294257 L -87.52999863898538 12.470001361014617 L -88.02398554942485 11.976014450575148 L -88.52272073006968 11.477279269930328 L -89.02631300665514 10.973686993344854 L -89.5348741111545 10.465125888845515 L -90.04851878549397 9.951481214506032 L -90.56736488963965 9.432635110360351 L -91.09153351427632 8.908466485723674 L -91.62114909830836 8.378850901691624 L -92.1563395514277 7.843660448572301 L -92.69723638200733 7.302763617992671 L -93.24397483059455 6.756025169405449 L -93.7966940092934 6.203305990706593 L -94.3555370473447 5.644462952655307 L -94.92065124322758 5.079348756772431 L -95.49218822363044 4.507811776369568 L -96.07030410965496 3.9296958903450565 L -96.65515969064475 3.344840309355259 L -97.24692060604913 2.7530793939508706 L -97.84575753576307 2.1542424642369413 L -98.45184639940699 1.5481536005930099 L -99.06536856504471 0.9346314349552822 L -99.68651106786473 0.3134889321352676 L -99.68651106786481 -0.3134889321351992 L -99.06536856504478 -0.9346314349552145 L -98.45184639940702 -1.5481536005929863 L -97.84575753576313 -2.154242464236875 L -97.24692060604919 -2.7530793939508054 L -96.65515969064481 -3.3448403093551944 L -96.07030410965501 -3.929695890344993 L -95.49218822363049 -4.507811776369505 L -94.92065124322764 -5.079348756772368 L -94.35553704734471 -5.644462952655286 L -93.79669400929346 -6.203305990706531 L -93.24397483059457 -6.756025169405427 L -92.69723638200739 -7.302763617992611 L -92.15633955142772 -7.84366044857228 L -91.62114909830842 -8.378850901691568 L -91.09153351427635 -8.908466485723654 L -90.56736488963966 -9.432635110360332 L -90.048518785494 -9.951481214506012 L -89.53487411115455 -10.465125888845458 L -89.02631300665516 -10.973686993344833 L -88.52272073006972 -11.477279269930271 L -88.02398554942484 -11.976014450575162 L -87.52999863898545 -12.470001361014564 L -87.04065397970574 -12.959346020294275 L -86.55584826365109 -13.44415173634892 L -86.07548080220363 -13.924519197796375 L -85.5994534378781 -14.40054656212191 L -85.12767045957933 -14.87232954042066 L -84.66003852114606 -15.33996147885393 L -84.19646656302896 -15.803533436971046 L -83.73686573696351 -16.263134263036505 L -83.28114933350105 -16.718850666498962 L -82.82923271227158 -17.170767287728424 L -82.38103323485625 -17.618966765143753 L -81.9364702001545 -18.063529799845494 L -81.49546478213635 -18.504535217863648 L -81.05793996987568 -18.94206003012432 L -80.6238205097651 -19.376179490234897 L -80.19303284981936 -19.806967150180633 L -79.76550508597596 -20.23449491402404 L -79.34116691030957 -20.658833089690443 L -78.91994956107719 -21.080050438922814 L -78.50178577451861 -21.498214225481394 L -78.08660973833659 -21.913390261663416 L -77.674357046788 -22.32564295321199 L -77.26496465731829 -22.73503534268171 L -76.85837084867543 -23.141629151324572 L -76.45451518044278 -23.545484819557217 L -76.05333845393245 -23.946661546067556 L -75.65478267438375 -24.345217325616243 L -75.25879101441414 -24.74120898558585 L -74.86530777867124 -25.134692221328766 L -74.47427836963885 -25.525721630361154 L -74.08564925454944 -25.91435074545056 L -73.69936793336034 -26.30063206663966 L -73.31538290774994 -26.68461709225007 L -72.93364365109521 -27.06635634890479 L -72.55410057939035 -27.445899420609646 L -72.17670502307074 -27.823294976929265 L -71.80140919970621 -28.198590800293786 L -71.42816618753011 -28.571833812469897 L -71.05692989977133 -28.943070100228674 L -70.68765505975881 -29.312344940241204 L -70.32029717676771 -29.679702823232283 L -69.95481252258023 -30.045187477419766 L -69.59115810873172 -30.40884189126828 L -69.22929166441787 -30.770708335582132 L -68.86917161503584 -31.130828384964147 L -68.51075706133688 -31.48924293866311 L -68.15400775916547 -31.845992240834534 L -67.7988840997644 -32.201115900235614 L -67.44534709062275 -32.55465290937725 L -67.09335833684742 -32.90664166315258 L -66.74288002303751 -33.25711997696247 L -66.39387489564307 -33.60612510435692 L -66.04630624578945 -33.95369375421053 L -65.70013789255019 -34.29986210744982 L -65.35533416665044 -34.64466583334956 L -65.0118598945861 -34.9881401054139 L -64.66968038314113 -35.33031961685887 L -64.32876140428951 -35.67123859571049 L -63.989069180465776 -36.010930819534224 L -63.65057037019139 -36.34942962980862 L -63.313232054041904 -36.686767945958096 L -62.97702172094307 -37.02297827905693 L -62.64190725478227 -37.35809274521774 L -62.307856921323456 -37.69214307867653 L -61.974839355413735 -38.025160644586265 L -61.642823548469806 -38.357176451530194 L -61.31177883623365 -38.68822116376636 L -60.981674886786436 -39.01832511321356 L -60.652481688810084 -39.34751831118991 L -60.324169540087155 -39.675830459912845 L -59.996709036228154 -40.003290963771846 L -59.670071059618216 -40.329928940381784 L -59.34422676857247 -40.65577323142754 L -59.01914758669261 -40.98085241330739 L -58.694805192414904 -41.305194807585096 L -58.37117150874182 -41.628828491258176 L -58.04821869314902 -41.95178130685098 L -57.72591912765957 -42.27408087234043 L -57.40424540907782 -42.59575459092219 L -57.083170339375194 -42.916829660624806 L -56.762666916220766 -43.23733308377925 L -56.44270832364925 -43.55729167635075 L -56.12326792285925 -43.876732077140744 L -55.80431924313552 -44.19568075686448 L -55.48583597288741 -44.51416402711258 L -55.16779195079842 -44.83220804920158 L -54.850161157078674 -45.149838842921326 L -54.53291770481577 -45.46708229518423 L -54.21603583141627 -45.78396416858372 L -53.89948989013277 -46.10051010986724 L -53.58325434167005 -46.41674565832996 L -53.26730374586458 -46.73269625413541 L -52.95161275343152 -47.04838724656848 L -52.63615609777351 -47.36384390222649 L -52.32090858684533 -47.67909141315467 L -52.00584509506957 -47.99415490493043 L -51.69094055529658 -48.30905944470342 L -51.376169950804595 -48.62383004919542 L -51.06150830733318 -48.93849169266682 L -50.74693068514603 -49.253069314853974 L -50.432412171116304 -49.56758782888371 L -50.117927870830506 -49.88207212916949 L -49.803452900704535 -50.196547099295465 L -49.488962380107154 -50.51103761989284 L -49.17443142348554 -50.82556857651448 L -48.85983513248731 -51.140164867512695 L -48.545148588074206 -51.454851411925794 L -48.23034684262169 -51.76965315737832 L -47.91540491199912 -52.08459508800089 L -47.60029776762587 -52.399702232374125 L -47.28500032849678 -52.714999671503215 L -46.96948745317291 -53.0305125468271 L -46.653733931730784 -53.34626606826922 L -46.33771447766597 -53.66228552233403 L -46.02140371974414 -53.97859628025585 L -45.70477619379521 -54.2952238062048 L -45.3878063344436 -54.61219366555641 L -45.07046846677043 -54.92953153322958 L -44.75273679789998 -55.24726320210002 L -44.43458540850631 -55.565414591493685 L -44.115988244232575 -55.88401175576742 L -43.79691910701758 -56.20308089298241 L -43.47735164632364 -56.52264835367635 L -43.15725935025839 -56.84274064974161 L -42.83661553658537 -57.16338446341462 L -42.51539334361539 -57.48460665638461 L -42.19356572097334 -57.80643427902666 L -41.87110542023207 -58.12889457976794 L -41.54798498540784 -58.452015014592156 L -41.224176743308455 -58.77582325669155 L -40.89965279372831 -59.1003472062717 L -40.574384999481175 -59.42561500051883 L -40.24834497626445 -59.751655023735566 L -39.921504082345265 -60.07849591765474 L -39.59383340806193 -60.40616659193807 L -39.26530376513048 -60.73469623486953 L -38.935885675749205 -61.06411432425078 L -38.60554936149094 -61.39445063850906 L -38.27426473197479 -61.725735268025204 L -37.942001373306994 -62.057998626693006 L -37.60872853628187 -62.39127146371813 L -37.274415124332016 -62.72558487566797 L -36.93902968121753 -63.06097031878248 L -36.60254037844389 -63.39745962155611 L -36.26491500239636 -63.73508499760364 L -35.92612094118046 -64.07387905881954 L -35.58612517115566 -64.41387482884433 L -35.24489424315021 -64.7551057568498 L -34.90239426834485 -65.09760573165515 L -34.55859090381095 -65.44140909618903 L -34.21344933769081 -65.78655066230918 L -33.86693427400427 -66.13306572599572 L -33.51900991706857 -66.48099008293143 L -33.16963995551436 -66.83036004448564 L -32.818787545883694 -67.1812124541163 L -32.46641529579187 -67.53358470420812 L -32.112485246637505 -67.8875147533625 L -31.756958855841532 -68.24304114415847 L -31.399796978598093 -68.6002030214019 L -31.04095984911663 -68.95904015088337 L -30.680407061336595 -69.3195929386634 L -30.318097549092528 -69.68190245090747 L -29.953989565709307 -70.0460104342907 L -29.588040663003493 -70.4119593369965 L -29.220207669668902 -70.7797923303311 L -28.850446669020275 -71.14955333097973 L -28.47871297607123 -71.52128702392878 L -28.10496111391855 -71.89503888608145 L -27.729144789405794 -72.2708552105942 L -27.351216868037717 -72.64878313196229 L -26.971129348114175 -73.02887065188582 L -26.58883333405374 -73.41116666594627 L -26.20427900887243 -73.79572099112757 L -25.8174156057851 -74.1825843942149 L -25.42819137889226 -74.57180862110773 L -25.03655357291559 -74.96344642708442 L -24.642448391943596 -75.35755160805638 L -24.24582096714531 -75.75417903285468 L -23.84661532341093 -76.15338467658907 L -23.444774344873142 -76.55522565512686 L -23.040239739264123 -76.95976026073588 L -22.63295200105762 -77.36704799894238 L -22.22285037334669 -77.77714962665331 L -21.80987280840179 -78.19012719159822 L -21.39395592685484 -78.60604407314516 L -20.9750349754488 -79.0249650245512 L -20.553043783292757 -79.44695621670724 L -20.12791471655625 -79.87208528344374 L -19.6995786315369 -80.3004213684631 L -19.267964826028315 -80.73203517397168 L -18.83300098891567 -81.16699901108433 L -18.394613147919006 -81.605386852081 L -17.952725615402862 -82.04727438459715 L -17.507260932165938 -82.49273906783405 L -17.058139809119947 -82.94186019088006 L -16.605281066761894 -83.39471893323811 L -16.148601572339874 -83.85139842766013 L -15.688016174607483 -84.31198382539252 L -15.223437636054422 -84.77656236394557 L -14.754776562498384 -85.24522343750161 L -14.281941329913739 -85.71805867008626 L -13.804838008368213 -86.19516199163178 L -13.323370282931425 -86.67662971706858 L -12.837439371411229 -87.16256062858878 L -12.346943938766087 -87.65305606123391 L -11.851780008033886 -88.14821999196612 L -11.351840867608777 -88.64815913239121 L -10.847016974688328 -89.15298302531167 L -10.337195854701271 -89.66280414529874 L -9.822261996520167 -90.17773800347983 L -9.302096743246997 -90.69790325675301 L -8.776578178351748 -91.22342182164826 L -8.245581006927264 -91.75441899307273 L -7.708976431815307 -92.2910235681847 L -7.166632024339098 -92.8333679756609 L -6.618411589366269 -93.38158841063373 L -6.064175024405552 -93.93582497559444 L -5.503778172428361 -94.49622182757165 L -4.937072668082849 -95.06292733191715 L -4.363905776950121 -95.63609422304988 L -3.784120227470823 -96.21587977252918 L -3.197554035148282 -96.80244596485171 L -2.6040403186069225 -97.39595968139308 L -2.003407107063144 -97.99659289293686 L -1.3954771387326144 -98.60452286126738 L -0.7800676496732536 -99.21993235032674 L -0.15699015252560838 -99.84300984747438 L 0.4694994124076317 -99.53050058759237 L 1.0887189779469522 -98.91128102205305 L 1.7003655087434497 -98.29963449125655 L 2.3046246021374315 -97.69537539786256 L 2.901676243978925 -97.09832375602107 L 3.491695024767118 -96.50830497523289 L 4.074850345960508 -95.9251496540395 L 4.651306616976717 -95.34869338302329 L 5.22122344336991 -94.77877655663009 L 5.784755806646952 -94.21524419335306 L 6.342054236151223 -93.65794576384877 L 6.893264973423448 -93.10673502657656 L 7.438530129420791 -92.56146987057922 L 7.977987834957738 -92.02201216504226 L 8.511772384706111 -91.4882276152939 L 9.040014375077162 -90.95998562492285 L 9.562840836288409 -90.4371591637116 L 10.080375358900891 -89.9196246410991 L 10.592738215096595 -89.4072617849034 L 11.100046474950972 -88.89995352504901 L 11.602414117943376 -88.39758588205663 L 12.099952139930618 -87.90004786006939 L 12.592768655801065 -87.40723134419893 L 13.080968998013025 -86.91903100198697 L 13.564655811210317 -86.43534418878968 L 14.043929143097596 -85.9560708569024 L 14.518886531749006 -85.481113468251 L 14.989623089514481 -85.01037691048552 L 15.45623158367922 -84.54376841632079 L 15.918802514023085 -84.08119748597692 L 16.377424187421713 -83.62257581257828 L 16.832182789620035 -83.16781721037997 L 17.283162454306574 -82.71683754569344 L 17.730445329606148 -82.26955467039386 L 18.174111642106897 -81.8258883578931 L 18.614239758527788 -81.3857602414722 L 19.050906245131028 -80.94909375486897 L 19.48418592497641 -80.51581407502358 L 19.91415193311057 -80.08584806688944 L 20.340875769779377 -79.65912423022061 L 20.76442735174936 -79.23557264825064 L 21.184875061815866 -78.81512493818414 L 21.602285796576435 -78.39771420342356 L 22.01672501254071 -77.98327498745928 L 22.428256770648137 -77.57174322935185 L 22.83694377925729 -77.16305622074272 L 23.242847435671745 -76.75715256432825 L 23.646027866261413 -76.3539721337386 L 24.0465439652384 -75.9534560347616 L 24.444453432140197 -75.55554656785979 L 24.839812808073823 -75.16018719192618 L 25.23267751077079 -74.76732248922922 L 25.62310186850057 -74.37689813149943 L 26.011139152887804 -73.98886084711219 L 26.39684161067731 -73.60315838932269 L 26.780260494488722 -73.21973950551127 L 27.161446092600542 -72.83855390739946 L 27.54044775780119 -72.45955224219881 L 27.917313935345 -72.082686064655 L 28.292092190046446 -71.70790780995355 L 28.664829232547586 -71.33517076745242 L 29.035570944790063 -70.96442905520995 L 29.404362404722455 -70.59563759527755 L 29.771247910272525 -70.22875208972748 L 30.1362710026129 -69.8637289973871 L 30.499474488747115 -69.50052551125287 L 30.86090046344179 -69.1390995365582 L 31.22059033052984 -68.77940966947016 L 31.57858482360991 -68.42141517639008 L 31.93492402616303 -68.06507597383697 L 32.2896473911103 -67.7103526088897 L 32.64279375983149 -67.35720624016851 L 32.99440138066675 -67.00559861933326 L 33.34450792691885 -66.65549207308115 L 33.69315051437663 -66.30684948562339 L 34.04036571837641 -65.95963428162358 L 34.38618959042061 -65.61381040957939 L 34.73065767436834 -65.26934232563165 L 35.07380502221549 -64.9261949777845 L 35.41566620947971 -64.5843337905203 L 35.75627535020525 -64.24372464979476 L 36.095666111601716 -63.904333888398284 L 36.43387172833177 -63.56612827166822 L 36.77092501645998 -63.22907498354002 L 37.10685838707716 -62.89314161292283 L 37.44170385961157 -62.55829614038843 L 37.775493074840284 -62.2245069251597 L 38.108257307611346 -61.89174269238865 L 38.440027479289014 -61.55997252071099 L 38.77083416993272 -61.229165830067295 L 39.10070763022017 -60.89929236977984 L 39.42967779312512 -60.570322206874884 L 39.75777428535995 -60.242225714640064 L 40.08502643859252 -59.914973561407486 L 40.41146330044669 -59.588536699553316 L 40.73711364529524 -59.26288635470477 L 41.0620059848554 -58.93799401514459 L 41.3861685785937 -58.613831421406296 L 41.709629443949886 -58.290370556050114 L 42.03241636638708 -57.967583633612904 L 42.354556909277505 -57.6454430907225 L 42.676078423629505 -57.32392157637049 L 42.997008057664935 -57.002991942335065 L 43.3173727662536 -56.68262723374639 L 43.63719932021218 -56.36280067978783 L 43.95651431547415 -56.04348568452586 L 44.275344182137914 -55.72465581786209 L 44.59371519339988 -55.406284806600134 L 44.91165347437891 -55.08834652562108 L 45.229185010838165 -54.77081498916184 L 45.54633565781151 -54.45366434218849 L 45.86313114813963 -54.136868851860356 L 46.179597100923026 -53.820402899076974 L 46.49575902989658 -53.504240970103425 L 46.81164235173302 -53.18835764826698 L 47.12727239427964 -52.872727605720364 L 47.44267440473514 -52.55732559526485 L 47.75787355777171 -52.24212644222828 L 48.07289496360786 -51.927105036392135 L 48.38776367603745 -51.612236323962556 L 48.702504700421414 -51.29749529957858 L 49.01714300164598 -50.982856998354016 L 49.33170351205404 -50.66829648794597 L 49.64621113935416 -50.35378886064585 L 49.96069077451387 -50.039309225486114 L 50.27516729964084 -49.724832700359165 L 50.58966559585846 -49.41033440414153 L 50.90421055118051 -49.09578944881949 L 51.21882706839108 -48.78117293160893 L 51.53354007293374 -48.46645992706626 L 51.84837452081621 -48.151625479183785 L 52.16335540653568 -47.83664459346432 L 52.478507771030124 -47.521492228969876 L 52.793856709660766 -47.20614329033924 L 53.10942738023122 -46.89057261976879 L 53.4252450110491 -46.57475498895091 L 53.741334909035366 -46.25866509096463 L 54.05772246788648 -45.94227753211352 L 54.37443317629618 -45.625566823703814 L 54.69149262624123 -45.30850737375876 L 55.00892652133797 -44.99107347866204 L 55.32676068527505 -44.67323931472496 L 55.645021070328305 -44.3549789296717 L 55.963733765963745 -44.03626623403626 L 56.28292500753518 -43.71707499246483 L 56.60262118508248 -43.39737881491752 L 56.922848852236775 -43.07715114776322 L 57.24363473523892 -42.75636526476109 L 57.56500574207891 -42.43499425792109 L 57.88698897176162 -42.11301102823838 L 58.20961172370656 -41.79038827629345 L 58.53290150728888 -41.46709849271112 L 58.85688605152868 -41.14311394847131 L 59.18159331493603 -40.81840668506397 L 59.50705149551894 -40.492948504481056 L 59.83328904096374 -40.166710959036266 L 60.16033465899372 -39.83966534100628 L 60.48821732791606 -39.511782672083946 L 60.81696630736434 -39.18303369263567 L 61.14661114924694 -38.85338885075306 L 61.47718170890862 -38.522818291091376 L 61.808708156515586 -38.191291843484414 L 62.14122098867371 -37.858779011326284 L 62.47475104028951 -37.525248959710474 L 62.80932949668405 -37.19067050331596 L 63.14498790597032 -36.855012094029696 L 63.48175819170544 -36.51824180829456 L 63.81967266582867 -36.18032733417133 L 64.15876404189622 -35.841235958103766 L 64.4990654486265 -35.500934551373504 L 64.8406104437663 -35.15938955623371 L 65.1834330282928 -34.81656697170719 L 65.52756766096311 -34.47243233903689 L 65.87304927322643 -34.126950726773565 L 66.21991328451232 -33.78008671548768 L 66.56819561791066 -33.43180438208935 L 66.91793271625849 -33.082067283741516 L 67.26916155864961 -32.73083844135038 L 67.6219196773838 -32.378080322616206 L 67.97624517537301 -32.023754824627005 L 68.33217674402259 -31.667823255977407 L 68.68975368160595 -31.31024631839405 L 69.04901591215177 -30.950984087848227 L 69.41000400486558 -30.589995995134416 L 69.77275919410445 -30.227240805895544 L 70.13732339992848 -29.862676600071527 L 70.5037392492505 -29.496260750749503 L 70.87205009760956 -29.127949902390444 L 71.24230005159059 -28.757699948409414 L 71.61453399191755 -28.385466008082442 L 71.98879759724663 -28.011202402753373 L 72.36513736868723 -27.634862631312785 L 72.74360065507986 -27.256399344920144 L 73.12423567906154 -26.87576432093846 L 73.50709156395057 -26.492908436049436 L 73.89221836148374 -26.10778163851625 L 74.27966708044018 -25.720332919559837 L 74.66948971618885 -25.330510283811144 L 75.06173928119657 -24.938260718803445 L 75.4564698365368 -24.543530163463203 L 75.8537365244397 -24.146263475560296 L 76.25359560192759 -23.74640439807243 L 76.6561044755796 -23.34389552442039 L 77.0613217374743 -22.938678262525706 L 77.46930720235851 -22.530692797641507 L 77.8801219460946 -22.119878053905396 L 78.29382834544002 -21.70617165456 L 78.7104901192169 -21.289509880783093 L 79.13017237092983 -20.86982762907017 L 79.552941632895 -20.447058367104994 L 79.97886591194549 -20.021134088054513 L 80.40801473678268 -19.59198526321733 L 80.84045920704357 -19.15954079295645 L 81.27627204416129 -18.72372795583871 L 81.71552764409674 -18.284472355903247 L 82.15830213202631 -17.841697867973682 L 82.60467341907093 -17.39532658092907 L 83.05472126115976 -16.94527873884024 L 83.50852732012491 -16.4914726798751 L 83.96617522712847 -16.033824772871533 L 84.42775064852857 -15.572249351471442 L 84.89334135429677 -15.106658645703227 L 85.36303728910573 -14.636962710894265 L 85.83693064621107 -14.163069353788927 L 86.31511594425815 -13.684884055741849 L 86.79769010715349 -13.202309892846518 L 87.28475254714446 -12.71524745285555 L 87.77640525126259 -12.223594748737414 L 88.27275287129162 -11.727247128708386 L 88.77390281743102 -11.22609718256898 L 89.27996535583576 -10.720034644164238 L 89.79105371022288 -10.208946289777131 L 90.30728416774596 -9.69271583225403 L 90.82877618935002 -9.171223810649982 L 91.35565252483087 -8.644347475169127 L 91.88803933283921 -8.111960667160787 L 92.42606630607744 -7.57393369392256 L 92.9698668019581 -7.030133198041893 L 93.51957797900387 -6.480422020996121 L 94.07534093929004 -5.924659060709944 L 94.63730087724292 -5.362699122757074 L 95.20560723513184 -4.794392764868161 L 95.78041386560885 -4.219586134391152 L 96.36187920167595 -3.6381207983240436 L 96.95016643447758 -3.0498335655224142 L 97.54544369934581 -2.4545563006541955 L 98.14788427055034 -1.8521157294496735 L 98.75766676523381 -1.2423332347661986 L 99.37497535704271 -0.6250246429572893 L 100.0 0.0" fill="none" stroke="black" /></svg>