<?xml version="1.0" encoding="utf-8" ?>
<svg baseProfile="full" height="1000" version="1.1" viewBox="-500 -500 1000 1000" width="1000" xmlns="http://www.w3.org/2000/svg" xmlns:ev="http://www.w3.org/2001/xml-events" xmlns:xlink="http://www.w3.org/1999/xlink"><defs /><path d="M 100.0 0.0 L 99.06345196963002 0.6230652986324496 L 98.14045584499445 1.2345689602122194 L 97.23072657770193 1.8348083549510719 L 96.33398771169203 2.424072181512485 L 95.44997104743537 3.002640802327519 L 94.57841632149707 3.570786563550079 L 93.71907090064812 4.128774100467585 L 92.87168948975773 4.6768606291339365 L 92.03603385274542 5.215296224945824 L 91.21187254591464 5.744324088840715 L 90.39898066302973 6.264180801754916 L 89.59713959153481 6.775096567942783 L 88.80613677934865 7.277295447723362 L 88.02576551170176 7.770995580188037 L 87.2558246975126 8.256409396372357 L 86.49611866482853 8.733743823366613 L 85.74645696488345 9.203200479812981 L 85.00665418434922 9.66497586321199 L 84.27652976538245 10.119261529437686 L 83.55590783308818 10.566244264838614 L 82.84461703004476 11.006106251281302 L 82.14249035755267 11.439025224473397 L 81.44936502328807 11.865174625885416 L 80.76508229505912 12.284723748572906 L 80.08948736038012 12.697837877184808 L 79.42242919159203 13.104678422428648 L 78.76376041627324 13.505403050248875 L 78.11333719269807 13.900165805961377 L 77.47101909011197 14.289117233574544 L 76.83666897360538 14.672404490515332 L 76.21015289337902 15.050171457967714 L 75.59133997820317 15.422558847020127 L 74.98010233288547 15.789704300808928 L 74.37631493956829 16.15174249283504 L 73.77985556268835 16.508805221622566 L 73.19060465743777 16.86102150187945 L 72.60844528157426 17.208517652312537 L 72.03326301043606 17.551417380241933 L 71.46494585502322 17.88984186315239 L 70.90338418301448 18.223909827312937 L 70.34847064259493 18.553737623589626 L 69.80010008897523 18.879439300570176 L 69.2581695134896 19.201126675113922 L 68.72257797516413 19.51890940043484 L 68.19322653465335 19.83289503182067 L 67.67001819044606 20.143189090086025 L 67.15285781724751 20.44989512285323 L 66.64165210644873 20.753114763749995 L 66.1363095085973 21.052947789609053 L 65.63674017778894 21.34949217575133 L 65.14285591790195 21.642844149429976 L 64.65457013060013 21.933098241509516 L 64.17179776503387 22.22034733645111 L 63.69445526917143 22.50468272067149 L 63.222460542695345 22.78619412934034 L 62.75573289140284 23.06496979167816 L 62.294192983050195 23.34109647481365 L 61.83776280458492 23.614659526257512 L 61.386365620711274 23.88574291504667 L 60.93992593373747 24.15442927161118 L 60.498369444654294 24.42079992641315 L 60.06162301539815 24.684934947405765 L 59.62961463225234 24.946913176357796 L 59.20227337034312 25.206812264087446 L 58.77952935918845 25.46470870464758 L 58.36131374925912 25.720677868502502 L 57.94755867951387 25.974794034735034 L 57.53819724587107 26.227130422320762 L 57.133163470581756 26.47775922050532 L 56.73239227246963 26.72675161831869 L 56.33581943800522 26.974177833259432 L 55.94338159318263 27.220107139180335 L 55.555016176168714 27.464607893405905 L 55.170661410695395 27.70774756311088 L 54.79025628016706 27.94959275098766 L 54.41374050245604 28.19020922022979 L 54.04105450536034 28.429661918857427 L 53.67213940269867 28.66801500340989 L 53.30693697101804 28.905331862029147 L 52.94538962689185 29.141675136957858 L 52.587440404784964 29.377106746473892 L 52.23303293546502 29.61168790628328 L 51.88211142493856 29.845479150392237 L 51.53462063389242 30.07854035147831 L 51.19050585762072 30.310930740780243 L 50.84971290641852 30.542708927525027 L 50.51218808642456 30.773932917910468 L 50.17787818089529 31.004660133660597 L 49.846730431893135 31.23494743017104 L 49.51869252237293 31.46485111426041 L 49.19371255865062 31.694426961543986 L 48.87173905323853 31.92373023344456 L 48.55272090803308 32.15281569385583 L 48.23660739783963 32.381737625472255 L 47.92334815422109 32.610549845799724 L 47.61289314965674 32.839305722860594 L 47.305192681997525 33.06805819060591 L 47.00019735920561 33.29685976404813 L 46.697858084365514 33.5257625541265 L 46.39812604095469 33.75481828231729 L 46.100952678361665 33.984078295000565 L 45.80628969764051 34.21359357759526 L 45.514089037490194 34.44341476847353 L 45.22430286044805 34.67359217266536 L 44.936883539286505 34.90417577536411 L 44.65178364360288 35.13521525524362 L 44.36895592659184 35.366759997596674 L 44.08835331199066 35.59885910730525 L 43.809928881187446 35.83156142165197 L 43.53363586048278 36.06491552298255 L 43.25942760849541 36.29896975122874 L 42.98725760370253 36.53377221630054 L 42.71707943210602 36.76937081035738 L 42.44884677501523 37.005813219966875 L 42.1825133969377 37.243146938159754 L 41.918033133569374 37.481419276390206 L 41.65535987987525 37.7206773764096 L 41.394447578252496 37.96096822206248 L 41.13525020676732 38.20233865101305 L 40.877721767457594 38.4448353664103 L 40.621816274692684 38.68850494850024 L 40.36748774358262 38.93339386619308 L 40.11469017842859 39.17954848859392 L 39.86337756120623 39.42701509650445 L 39.61350384007426 39.67583989390391 L 39.365022917900134 39.92606901941748 L 39.11788864079488 40.1777485577798 L 38.8720547866492 40.43092455130169 L 38.627475053662565 40.68564301134796 L 38.384103048857895 40.941949929834394 L 38.14189227657328 41.19989129075184 L 37.90079612692302 41.45951308172542 L 37.660767864219906 41.72086130561679 L 37.42176061535049 41.983981992177945 L 37.18372735809549 42.248921209764234 L 36.94662090938655 42.51572507711514 L 36.710393913491785 42.784439775210984 L 36.47499883012105 43.05511155921413 L 36.240387922442864 43.32778677050278 L 36.00651324500426 43.60251184880647 L 35.773326631544776 43.879333344451524 L 35.54077968269595 44.158297930725595 L 35.308823753557064 44.43945241636995 L 35.0774099411385 44.72284375820924 L 34.84648907166266 45.00851907392697 L 34.616011687713865 45.29652565499738 L 34.385928035226925 45.5869109797823 L 34.15618805030498 45.879722726803514 L 33.92674134585624 46.17500878820022 L 33.697537198039726 46.47281728338215 L 33.46852453250906 46.77319657288853 L 33.23965191044416 47.07619527246409 L 33.01086751435921 47.38186226736246 L 32.78211913367618 47.69024672688891 L 32.55335415005175 48.00139811919342 L 32.32451952244647 48.315366226326454 L 32.095561771923265 48.63220115956918 L 31.866426966163093 48.95195337505099 L 31.63706070368494 49.27467368966722 L 31.40740809775654 49.600413297309956 L 31.17741375998252 49.92922378542635 L 30.947021783555428 50.26115715191743 L 30.716175726155658 50.59626582239324 L 30.484818592484835 50.93460266779822 L 30.252892816417297 51.2762210224227 L 30.020340242753928 51.621174702316736 L 29.787102108561456 51.96951802412226 L 29.55311902408053 52.32130582434101 L 29.318330953184542 52.67659347905571 L 29.082677193371357 53.035436924122735 L 28.84609635526873 53.39789267585527 L 28.608526341634004 53.76401785221646 L 28.369904325827676 54.13387019454255 L 28.130166729740093 54.50750808981758 L 27.88924920114923 54.88499059352089 L 27.647086590487028 55.26637745307028 L 27.403612926991013 55.65172913188412 L 27.158761394216704 56.04110683408683 L 26.912464304885518 56.43457252988286 L 26.664653075042253 56.83218898162552 L 26.415258197494417 57.23401977060777 L 26.164209214505572 57.640129324603436 L 25.911434689712845 58.05058294618817 L 25.656862179238203 58.46544684187077 L 25.400418201961546 58.8847881520669 L 25.142028208922508 59.308674981948066 L 24.88161655181626 59.73717643320067 L 24.619106450547655 60.17036263673092 L 24.35441995980598 60.608304786353116 L 24.087477934621393 61.0510751735001 L 23.81819999486246 61.49874722299712 L 23.546504488632156 61.95139552994062 L 23.27230845451827 62.40909589772728 L 22.995527582651967 62.87192537727848 L 22.71607617452635 63.33996230750886 L 22.433867101524793 63.81328635708918 L 22.148811762106398 64.2919785675559 L 21.860820037593953 64.77612139782232 L 21.569800246506777 65.2657987701486 L 21.27565909737894 65.76109611763086 L 20.978301639999824 66.26210043327085 L 20.677631215012017 66.76890032069352 L 20.373549401797536 67.28158604657887 L 20.065955964581182 67.80024959488148 L 19.75474879667574 68.32498472291171 L 19.439823862790444 68.85588701935724 L 19.121075139320798 69.39305396432785 L 18.798394552533107 69.93658499150838 L 18.471671914553855 70.48658155251142 L 18.14079485706894 71.04314718352344 L 17.80564876263383 71.60638757434438 L 17.466116693490186 72.17641063992363 L 17.122079317780063 72.75332659450329 L 16.7734148330428 73.33724802848164 L 16.41999888687441 73.92828998811815 L 16.061704494622973 74.5265700582064 L 15.698401953987322 75.13220844784706 L 15.329958756379458 75.74532807946105 L 14.956239494903928 76.36605468118944 L 14.577105768800083 76.99451688283393 L 14.192416084184837 77.63084631550068 L 13.802025750925257 78.27517771511783 L 13.405786775461193 78.92764903000668 L 13.003547749388813 79.58840153269558 L 12.595153733605665 80.25757993617556 L 12.180446137807117 80.93533251480864 L 11.759262595113029 81.62181123010924 L 11.331436831590954 82.31717186163246 L 10.896798530429754 83.0215741432156 L 10.455173190503729 83.73518190483284 L 10.006381979052916 84.45816322033677 L 9.550241578190034 85.19069056137734 L 9.086564024927757 85.93294095780345 L 8.615156544403252 86.68509616487097 L 8.135821375957853 87.44734283759888 L 7.648355591710298 88.21987271263555 L 7.152550907240883 89.00288279801705 L 6.648193483981551 89.79657557122323 L 6.135063722883065 90.60115918595994 L 5.612936048904702 91.41684768812217 L 5.081578685845239 92.243861241419 L 4.5407534210044345 93.08242636317149 L 3.9902153591334946 93.93277617082501 L 3.429712665099793 94.7951506397502 L 2.858986294655732 95.66979687294342 L 2.2777697126633676 96.55696938327436 L 1.6857885980864324 97.45693038896968 L 1.0827605350172562 98.36995012306483 L 0.4683946889598398 99.29630715760285 L -0.15686682640912206 99.7645765797818 L -0.7770133500363676 98.83144373210288 L -1.3856734110607822 97.91179070356367 L -1.9831421794990427 97.00533462620906 L -2.5697062391351113 96.11180113897817 L -3.1456439189166554 95.2309240558242 L -3.7112256091996425 94.36244504898981 L -4.266714063644535 93.50611334663355 L -4.81236468751922 92.66168544405289 L -5.348425813118689 91.8289248277941 L -5.875138962969804 91.00760171197963 L -6.392739101449616 90.1974927862257 L -6.901454875409683 89.39838097455686 L -7.401508844364157 88.61005520476039 L -7.893117700767459 87.83231018765399 L -8.376492480877394 87.06494620577178 L -8.85183876667132 86.30776891100021 L -9.319356879257025 85.56058913072293 L -9.779242064194786 84.82322268205766 L -10.231684669124414 84.0954901937915 L -10.676870314069264 83.37721693564296 L -11.114980054768736 82.6682326544983 L -11.546190539371802 81.96837141729101 L -11.970674158806274 81.27747146020849 L -12.388599191121306 80.59537504392927 L -12.800129940085181 79.92192831460832 L -13.205426868305256 79.25698117034372 L -13.6046467251231 78.6003871328716 L -13.997942669524527 77.95200322424996 L -14.385464388291819 77.31168984830363 L -14.767358209613977 76.6793106766149 L -15.143767212359272 76.05473253885525 L -15.514831331204636 75.43782531726427 L -15.880687457806088 74.82846184509077 L -16.2414695381854 74.2265178088212 L -16.597308666499583 73.6318716540296 L -16.948333175351056 73.0444044946897 L -17.294668722789357 72.46400002579956 L -17.636438376147012 71.89054443917593 L -17.973762692845995 71.32392634228128 L -18.30675979830413 70.76403667995501 L -18.63554546106493 70.21076865892476 L -18.960233165268107 69.66401767498087 L -19.280934180572935 69.12368124270172 L -19.59775762964083 68.58965892762373 L -19.910810553278953 68.06185228075414 L -20.22019797334162 67.54016477532946 L -20.52602295348218 67.02450174572776 L -20.82838665784337 66.5147703284462 L -21.12738840777031 66.01087940505944 L -21.423125736626808 65.5127395470791 L -21.715694442791253 65.02026296263686 L -22.005188640905896 64.53336344491902 L -22.29170081144922 64.0519563222809 L -22.575321848698543 63.575958409975456 L -22.85614110714687 63.1052879634315 L -23.13424644643507 62.639864633020466 L -23.409724274858306 62.179609420252895 L -23.682659591502308 61.724444635349016 L -23.953136027063586 61.27429385612953 L -24.221235883404674 60.82908188817505 L -24.48704017189376 60.3887347262054 L -24.750628650575855 59.95317951663132 L -25.012079860220553 59.52234452123354 L -25.271471159289938 59.09615908192585 L -25.528878757867943 58.67455358656058 L -25.784377750591148 58.2574594357369 L -26.038042148619226 57.84480901057341 L -26.2899449106817 57.436535641408476 L -26.54015797323632 57.03257357739326 L -26.788752279772755 56.63285795694298 L -27.03579780929438 56.23732477901493 L -27.281363604008984 55.84591087518112 L -27.525517796258917 55.45855388246568 L -27.76832763471917 55.07519221691872 L -28.009859509891367 54.695765047898284 L -28.250178978920324 54.32021227303359 L -28.48935078975905 53.948474493844664 L -28.72743890470667 53.580492991992394 L -28.964506523343534 53.216209706136226 L -29.20061610488626 52.855567209375884 L -29.43582938998487 52.498508687255 L -29.670207421983584 52.144977916305535 L -29.903810567665783 51.794919243112275 L -30.13669853750307 51.44827756387714 L -30.368930405427577 51.10499830446473 L -30.600564628146376 50.76502740090987 L -30.83165906401559 50.4283112803699 L -31.06227099149166 50.094796842503555 L -31.292457127176792 49.7644314412606 L -31.52227364347442 49.437162867065126 L -31.751776185870735 49.112939329377326 L -31.98101988985736 48.791709439618344 L -32.21005939750996 48.473422194443444 L -32.438948873737004 48.158026959349236 L -32.667742022212856 47.8454734526011 L -32.89649210100823 47.535711729467124 L -33.125251937931495 47.22869216674594 L -33.354073945593385 46.924365447575155 L -33.58301013620736 46.622682546508585 L -33.81211213613801 46.32359471484968 L -34.04143120020878 46.02705346622987 L -34.27101822578081 45.73301056242036 L -34.50092376661383 45.44141799936594 L -34.731198046520106 45.15222799343032 L -34.96189097282178 44.86539296784205 L -35.19305214962243 44.58086553933093 L -35.424730890902545 44.29859850494464 L -35.65697623344917 44.018544829035626 L -35.889836949629206 43.74065763040852 L -36.123361560016136 43.464890169618755 L -36.35759834587937 43.19119583641271 L -36.59259536154536 42.919528137300404 L -36.82840044663996 42.64984068325147 L -37.06506123822021 42.382087177506136 L -37.30262518280496 42.11622140349114 L -37.541139548312714 41.85219721283393 L -37.78065143591514 41.58996851346407 L -38.02120779181483 41.3294892577962 L -38.26285541895584 41.0707134309836 L -38.505640988674614 40.81359503923626 L -38.749611052300374 40.558088098193615 L -38.994812052712355 40.30414662134484 L -39.24129033586243 40.05172460848826 L -39.48909216227094 39.800776034221805 L -39.73826371850383 39.55125483645659 L -39.98885112863891 39.30311490494572 L -40.24090046572961 39.056310069819915 L -40.49445776327351 38.81079409012296 L -40.74956902669449 38.56652064233765 L -41.0062802448454 38.32344330889571 L -41.26463740154052 38.08151556666239 L -41.524686487124434 37.840690775388744 L -41.78647351008671 37.60092216612281 L -42.050044508729606 37.36216282957201 L -42.31544556289717 37.12436570440836 L -42.582722805774445 36.887483565508205 L -42.85192243576424 36.65146901211856 L -43.12309072845092 36.416274455940936 L -43.396274048658654 36.18185210912506 L -43.67151886261368 35.9481539721628 L -43.94887175021862 35.715131821674554 L -44.22837941744819 35.482737198078595 L -44.51008870887494 35.25092139313459 L -44.794046620334555 35.019635437352136 L -45.08030031173956 34.78883008725502 L -45.368897120051656 34.55845581249145 L -45.65988457242125 34.3284627827811 L -45.95331039950542 34.09880085468842 L -46.24922254897311 33.86941955821278 L -46.5476691992089 33.640268083184516 L -46.84869877322505 33.411295265457035 L -47.15235995279345 33.182449572883165 L -47.45870169280763 32.95367909106602 L -47.76777323588716 32.72493150887168 L -48.079624127235164 32.49615410369295 L -48.39430422976154 32.26729372645193 L -48.71186373948386 32.03829678632901 L -49.032353201218775 31.809109235205902 L -49.355823524576536 31.579676551809563 L -49.682326000272674 31.349943725543397 L -50.01191231676978 31.11985523999277 L -50.34463457726438 30.88935505608931 L -50.68054531703282 30.658386594920923 L -51.01969752115208 30.426892720170905 L -51.36214464261002 30.19481572017179 L -51.70794062082244 29.96209728955687 L -52.05713990057242 29.728678510493463 L -52.409797451390034 29.494499833480315 L -52.76596878738949 29.259501057691395 L -53.125709987582795 29.023621310847833 L -53.48907771668835 28.786799028598722 L -53.85612924645491 28.548971933391318 L -54.2269224775203 28.31007701280982 L -54.6015159618277 28.070050497361848 L -54.979968925619374 27.828827837690675 L -55.36234129303288 27.58634368118994 L -55.748693710321135 27.342531847997932 L -56.139087570723184 27.09732530634611 L -56.53358504000895 26.850656147237117 L -56.93224908272619 26.602455558425092 L -57.335143489176176 26.35265379767138 L -57.74233290314697 26.101180165246614 L -58.15388285043409 25.847962975649626 L -58.56985976817942 25.59292952851221 L -58.9903310350605 25.33600607865766 L -59.415365002363885 25.07711780527904 L -59.84503102597703 24.816188780203458 L -60.2793994993357 24.553141935204494 L -60.718541887363806 24.28789902832647 L -61.1625307614462 24.02038060917975 L -61.61143983547419 23.75050598316715 L -62.06534400300836 23.47819317459755 L -62.52431937560143 23.203358888643013 L -62.988443322329466 22.92591847209168 L -63.4577945105792 22.645785872848744 L -63.93245294814249 22.362873598134012 L -64.41250002667108 22.077092671323232 L -64.89801856654711 21.788352587377712 L -65.38909286322681 21.496561266804346 L -65.88580873511933 21.20162500808518 L -66.3882535730616 20.90344843851385 L -66.8965163914583 20.60193446337176 L -67.41068788115354 20.296984213375804 L -67.9308604641089 19.988496990324002 L -68.45712834996185 19.676370210864288 L -68.98958759454564 19.360499348306032 L -69.52833616045254 19.040777872391793 L -70.07347397972836 18.71709718694173 L -70.62510301878933 18.389346565279457 L -71.18332734565712 18.057413083343555 L -71.74825319961259 17.721181550384202 L -72.31998906337321 17.380534437139705 L -72.89864573790511 17.03535180138242 L -73.48433641998594 16.685511210717493 L -74.07717678263924 16.330887662513778 L -74.6772850585701 15.971353500837292 L -75.28478212673438 15.606778330254617 L -75.89979160218522 15.237028926363193 L -76.52243992934228 14.861969142901543 L -77.15285647884366 14.481459815281967 L -77.79117364814095 14.095358660382166 L -78.43752696601341 13.703520172422554 L -79.0920552011815 13.305795514747258 L -79.75490047521214 12.902032407317101 L -80.42620837991754 12.492075009712622 L -81.10612809946056 12.07576379943433 L -81.79481253738989 11.652935445275938 L -82.49241844884409 11.22342267553351 L -83.19910657817047 10.787054140802033 L -83.91504180222597 10.343654271094415 L -84.6403932796346 9.893043127006731 L -85.37533460629834 9.43503624463404 L -86.12004397746873 8.96944447392855 L -86.87470435670953 8.496073810170367 L -87.63950365209557 8.014725218205383 L -88.41463490001523 7.525194449082976 L -89.2002964569644 7.027271848705508 L -89.99669219974302 6.520742158078827 L -90.80403173448858 6.005384304728843 L -91.622530615009 5.480971184822466 L -92.45241057090108 4.947269435505751 L -93.29389974597576 4.404039196939065 L -94.14723294753654 3.851033863481978 L -95.01265190709756 3.287999823442015 L -95.89040555315762 2.71467618677037 L -96.78075029669158 2.130794500044023 L -97.68395033005456 1.536078448037452 L -98.60027794004651 0.930243541138071 L -99.5300138359248 0.31299678781606705 L -99.53001383592493 -0.3129967878159989 L -98.60027794004662 -0.9302435411380039 L -97.68395033005461 -1.536078448037429 L -96.78075029669166 -2.130794500043958 L -95.8904055531577 -2.714676186770306 L -95.01265190709765 -3.287999823441953 L -94.14723294753662 -3.851033863481917 L -93.29389974597585 -4.404039196939005 L -92.45241057090115 -4.9472694355056905 L -91.62253061500903 -5.4809711848224465 L -90.80403173448866 -6.005384304728786 L -89.99669219974305 -6.520742158078805 L -89.2002964569645 -7.027271848705453 L -88.41463490001526 -7.5251944490829565 L -87.63950365209564 -8.01472521820533 L -86.87470435670957 -8.49607381017035 L -86.12004397746874 -8.969444473928533 L -85.37533460629838 -9.435036244634022 L -84.64039327963468 -9.893043127006681 L -83.91504180222599 -10.343654271094396 L -83.19910657817054 -10.787054140801983 L -82.49241844884406 -11.223422675533522 L -81.79481253738999 -11.652935445275892 L -81.10612809946053 -12.075763799434347 L -80.42620837991765 -12.49207500971258 L -79.75490047521215 -12.902032407317085 L -79.09205520118157 -13.305795514747215 L -78.43752696601342 -13.703520172422538 L -77.79117364814101 -14.095358660382121 L -77.1528564788437 -14.481459815281955 L -76.52243992934235 -14.861969142901534 L -75.89979160218525 -15.237028926363179 L -75.28478212673446 -15.606778330254578 L -74.6772850585701 -15.971353500837273 L -74.07717678263928 -16.330887662513735 L -73.48433641998592 -16.685511210717507 L -72.89864573790517 -17.035351801382376 L -72.31998906337319 -17.380534437139715 L -71.74825319961266 -17.721181550384166 L -71.18332734565716 -18.057413083343544 L -70.6251030187894 -18.389346565279425 L -70.07347397972839 -18.717097186941714 L -69.52833616045257 -19.04077787239178 L -68.98958759454567 -19.36049934830602 L -68.45712834996186 -19.676370210864274 L -67.93086046410892 -19.988496990323988 L -67.4106878811536 -20.29698421337578 L -66.89651639145833 -20.601934463371748 L -66.38825357306166 -20.903448438513824 L -65.8858087351193 -21.201625008085188 L -65.38909286322685 -21.496561266804317 L -64.89801856654708 -21.78835258737772 L -64.41250002667115 -22.077092671323207 L -63.93245294814251 -22.362873598134 L -63.457794510579255 -22.645785872848712 L -62.98844332232948 -22.925918472091666 L -62.52431937560144 -23.203358888642995 L -62.065344003008384 -23.478193174597543 L -61.611439835474236 -23.750505983167123 L -61.16253076144622 -24.020380609179742 L -60.71854188736388 -24.287899028326454 L -60.27939949933571 -24.55314193520451 L -59.845031025977086 -24.816188780203436 L -59.41536500236387 -25.077117805279048 L -58.990331035060535 -25.33600607865763 L -58.56985976817942 -25.592929528512226 L -58.15388285043414 -25.847962975649597 L -57.742332903146966 -26.10118016524659 L -57.335143489176204 -26.352653797671344 L -56.9322490827262 -26.602455558425085 L -56.53358504000897 -26.85065614723711 L -56.1390875707232 -27.097325306346107 L -55.74869371032116 -27.342531847997908 L -55.36234129303287 -27.58634368118992 L -54.9799689256194 -27.828827837690643 L -54.601515961827666 -28.07005049736184 L -54.22692247752034 -28.310077012809792 L -53.85612924645489 -28.548971933391318 L -53.4890777166884 -28.786799028598708 L -53.12570998758281 -29.023621310847822 L -52.76596878738954 -29.259501057691374 L -52.40979745139005 -29.49449983348031 L -52.057139900572444 -29.72867851049346 L -51.70794062082244 -29.962097289556855 L -51.362144642610026 -30.194815720171775 L -51.019697521152096 -30.426892720170905 L -50.680545317032845 -30.658386594920888 L -50.344634577264394 -30.889355056089293 L -50.01191231676981 -31.119855239992738 L -49.682326000272674 -31.34994372554342 L -49.35582352457656 -31.579676551809534 L -49.03235320121876 -31.809109235205916 L -48.711863739483896 -32.038296786328985 L -48.394304229761545 -32.26729372645192 L -48.079624127235206 -32.49615410369293 L -47.76777323588719 -32.72493150887168 L -47.458701692807644 -32.95367909106602 L -47.15235995279346 -33.18244957288316 L -46.84869877322508 -33.411295265457 L -46.54766919920892 -33.640268083184516 L -46.24922254897314 -33.869419558212755 L -45.95331039950543 -34.09880085468842 L -45.65988457242127 -34.32846278278108 L -45.368897120051656 -34.55845581249147 L -45.08030031173959 -34.78883008725499 L -44.79404662033454 -35.01963543735214 L -44.510088708874974 -35.25092139313457 L -44.22837941744819 -35.48273719807858 L -43.94887175021866 -35.71513182167454 L -43.671518862613695 -35.94815397216279 L -43.396274048658675 -36.18185210912505 L -43.123090728450926 -36.41627445594092 L -42.85192243576427 -36.65146901211854 L -42.58272280577446 -36.8874835655082 L -42.315445562897196 -37.12436570440833 L -42.050044508729606 -37.36216282957202 L -41.786473510086736 -37.600922166122785 L -41.52468648712443 -37.840690775388715 L -41.26463740154054 -38.08151556666235 L -41.00628024484543 -38.32344330889568 L -40.74956902669452 -38.566520642337636 L -40.49445776327353 -38.810794090122926 L -40.24090046572964 -39.0563100698199 L -39.98885112863894 -39.3031149049457 L -39.73826371850384 -39.551254836456586 L -39.48909216227097 -39.80077603422178 L -39.24129033586245 -40.05172460848823 L -38.99481205271239 -40.30414662134481 L -38.74961105230041 -40.55808809819359 L -38.50564098867463 -40.81359503923626 L -38.26285541895588 -41.07071343098358 L -38.02120779181486 -41.32948925779617 L -37.78065143591515 -41.58996851346403 L -37.541139548312735 -41.85219721283388 L -37.302625182805 -42.11622140349114 L -37.065061238220224 -42.382087177506094 L -36.828400446639975 -42.64984068325147 L -36.59259536154536 -42.91952813730039 L -36.35759834587939 -43.19119583641272 L -36.123361560016164 -43.46489016961878 L -35.88983694962924 -43.7406576304085 L -35.65697623344917 -44.018544829035605 L -35.42473089090253 -44.298598504944636 L -35.193052149622424 -44.58086553933091 L -34.96189097282176 -44.865392967842034 L -34.731198046520106 -45.1522279934303 L -34.50092376661382 -45.44141799936595 L -34.27101822578081 -45.73301056242033 L -34.04143120020876 -46.02705346622987 L -33.81211213613802 -46.323594714849655 L -33.58301013620736 -46.622682546508614 L -33.35407394559339 -46.924365447575134 L -33.12525193793151 -47.22869216674592 L -32.896492101008256 -47.535711729467096 L -32.66774202221287 -47.84547345260109 L -32.43894887373705 -48.15802695934923 L -32.210059397509966 -48.473422194443444 L -31.981019889857386 -48.7917094396183 L -31.751776185870746 -49.11293932937731 L -31.52227364347442 -49.43716286706507 L -31.292457127176792 -49.76443144126058 L -31.062270991491673 -50.094796842503506 L -30.83165906401559 -50.428311280369876 L -30.600564628146376 -50.765027400909894 L -30.36893040542758 -51.1049983044647 L -30.136698537503065 -51.44827756387716 L -29.903810567665815 -51.79491924311225 L -29.670207421983594 -52.14497791630552 L -29.43582938998486 -52.49850868725499 L -29.20061610488626 -52.85556720937585 L -28.96450652334353 -53.21620970613626 L -28.727438904706673 -53.58049299199238 L -28.489350789759037 -53.94847449384466 L -28.250178978920342 -54.320212273033576 L -28.009859509891356 -54.695765047898284 L -27.768327634719178 -55.07519221691872 L -27.525517796258914 -55.458553882465694 L -27.281363604008995 -55.845910875181104 L -27.035797809294372 -56.23732477901495 L -26.78875227977278 -56.63285795694295 L -26.54015797323633 -57.032573577393244 L -26.289944910681733 -57.43653564140843 L -26.03804214861924 -57.844809010573364 L -25.784377750591187 -58.257459435736834 L -25.528878757867965 -58.67455358656054 L -25.27147115928998 -59.096159081925784 L -25.012079860220574 -59.52234452123351 L -24.750628650575894 -59.95317951663125 L -24.48704017189379 -60.38873472620535 L -24.22123588340468 -60.829081888175025 L -23.953136027063618 -61.27429385612948 L -23.68265959150232 -61.724444635349 L -23.409724274858334 -62.17960942025284 L -23.134246446435082 -62.639864633020444 L -22.8561411071469 -63.10528796343147 L -22.575321848698565 -63.57595840997542 L -22.29170081144922 -64.0519563222809 L -22.005188640905917 -64.53336344491899 L -21.715694442791257 -65.02026296263686 L -21.423125736626822 -65.51273954707901 L -21.12738840777031 -66.01087940505944 L -20.82838665784339 -66.51477032844616 L -20.526022953482197 -67.02450174572775 L -20.22019797334165 -67.54016477532939 L -19.910810553278967 -68.06185228075412 L -19.59775762964087 -68.5896589276237 L -19.280934180572952 -69.12368124270171 L -18.96023316526814 -69.6640176749808 L -18.63554546106494 -70.21076865892472 L -18.306759798304178 -70.76403667995493 L -17.97376269284602 -71.32392634228124 L -17.636438376147066 -71.89054443917584 L -17.29466872278938 -72.46400002579952 L -16.94833317535106 -73.04440449468967 L -16.597308666499607 -73.63187165402957 L -16.241469538185466 -74.2265178088211 L -15.88068745780612 -74.82846184509066 L -15.514831331204656 -75.43782531726427 L -15.143767212359315 -76.05473253885519 L -14.767358209613992 -76.67931067661488 L -14.385464388291863 -77.31168984830357 L -13.99794266952454 -77.95200322424994 L -13.6046467251231 -78.60038713287159 L -13.205426868305288 -79.25698117034366 L -12.800129940085242 -79.92192831460822 L -12.38859919112134 -80.59537504392924 L -11.970674158806275 -81.27747146020849 L -11.546190539371832 -81.96837141729094 L -11.1149800547688 -82.66823265449818 L -10.67687031406925 -83.37721693564298 L -10.231684669124432 -84.09549019379149 L -9.779242064194834 -84.82322268205756 L -9.319356879257109 -85.56058913072279 L -8.851838766671305 -86.30776891100025 L -8.376492480877415 -87.06494620577176 L -7.893117700767531 -87.83231018765389 L -7.401508844364264 -88.61005520476022 L -6.9014548754096845 -89.39838097455686 L -6.392739101449653 -90.19749278622561 L -5.87513896296988 -91.0076017119795 L -5.348425813118729 -91.82892482779405 L -4.812364687519222 -92.66168544405289 L -4.266714063644595 -93.50611334663344 L -3.7112256091996647 -94.3624450489898 L -3.1456439189167176 -95.2309240558241 L -2.5697062391351344 -96.11180113897814 L -1.9831421794991075 -97.00533462620899 L -1.3856734110608055 -97.91179070356364 L -0.7770133500364349 -98.83144373210278 L -0.15686682640916852 -99.7645765797817 L 0.46839468895983755 -99.29630715760285 L 1.082760535017211 -98.36995012306488 L 1.685788598086346 -97.45693038896981 L 2.2777697126633236 -96.5569693832744 L 2.8589862946557307 -95.66979687294342 L 3.429712665099751 -94.79515063975029 L 3.990215359133395 -93.93277617082516 L 4.540753421004451 -93.08242636317148 L 5.081578685845218 -92.24386124141901 L 5.612936048904644 -91.41684768812226 L 6.135063722882971 -90.60115918596009 L 6.648193483981566 -89.7965755712232 L 7.152550907240847 -89.00288279801711 L 7.648355591710226 -88.21987271263566 L 8.13582137595782 -87.44734283759895 L 8.615156544403252 -86.68509616487097 L 9.086564024927721 -85.93294095780351 L 9.550241578189969 -85.19069056137744 L 10.006381979052946 -84.45816322033671 L 10.455173190503709 -83.73518190483284 L 10.896798530429708 -83.0215741432157 L 11.33143683159094 -82.3171718616325 L 11.759262595113041 -81.62181123010922 L 12.180446137807099 -80.93533251480866 L 12.59515373360562 -80.25757993617562 L 13.003547749388796 -79.5884015326956 L 13.405786775461193 -78.9276490300067 L 13.802025750925223 -78.27517771511788 L 14.192416084184837 -77.63084631550068 L 14.57710576880005 -76.99451688283398 L 14.956239494903928 -76.36605468118944 L 15.329958756379433 -75.7453280794611 L 15.698401953987322 -75.13220844784708 L 16.061704494622937 -74.52657005820647 L 16.419998886874396 -73.92828998811817 L 16.77341483304281 -73.33724802848158 L 17.122079317780056 -72.7533265945033 L 17.46611669349015 -72.17641063992369 L 17.805648762633865 -71.60638757434432 L 18.14079485706894 -71.04314718352344 L 18.471671914553824 -70.48658155251144 L 18.79839455253306 -69.93658499150847 L 19.121075139320816 -69.3930539643278 L 19.43982386279044 -68.85588701935725 L 19.754748796675702 -68.32498472291172 L 20.065955964581143 -67.80024959488156 L 20.373549401797547 -67.28158604657884 L 20.67763121501201 -66.76890032069355 L 20.978301639999795 -66.26210043327092 L 21.27565909737892 -65.76109611763084 L 21.569800246506794 -65.2657987701486 L 21.860820037593943 -64.77612139782232 L 22.148811762106366 -64.29197856755596 L 22.433867101524772 -63.81328635708922 L 22.71607617452635 -63.33996230750886 L 22.995527582651945 -62.87192537727851 L 23.27230845451827 -62.40909589772728 L 23.54650448863213 -61.951395529940655 L 23.818199994862447 -61.49874722299711 L 24.087477934621393 -61.051075173500124 L 24.35441995980596 -60.608304786353166 L 24.619106450547623 -60.17036263673101 L 24.881616551816244 -59.73717643320071 L 25.142028208922508 -59.308674981948066 L 25.40041820196153 -58.884788152066946 L 25.656862179238153 -58.465446841870836 L 25.911434689712852 -58.05058294618815 L 26.164209214505565 -57.64012932460346 L 26.41525819749439 -57.23401977060781 L 26.664653075042203 -56.8321889816256 L 26.912464304885532 -56.43457252988287 L 27.15876139421669 -56.04110683408685 L 27.403612926990995 -55.65172913188416 L 27.647086590486982 -55.266377453070334 L 27.88924920114924 -54.88499059352089 L 28.13016672974008 -54.50750808981757 L 28.369904325827637 -54.13387019454259 L 28.608526341633983 -53.76401785221649 L 28.846096355268735 -53.39789267585529 L 29.082677193371346 -53.03543692412277 L 29.31833095318454 -52.676593479055704 L 29.553119024080512 -52.32130582434104 L 29.787102108561456 -51.96951802412226 L 30.020340242753903 -51.62117470231677 L 30.252892816417287 -51.2762210224227 L 30.484818592484803 -50.934602667798245 L 30.716175726155647 -50.59626582239325 L 30.947021783555428 -50.261157151917416 L 31.17741375998251 -49.929223785426366 L 31.40740809775653 -49.60041329731003 L 31.637060703684924 -49.274673689667246 L 31.86642696616309 -48.951953375051005 L 32.09556177192325 -48.63220115956922 L 32.324519522446444 -48.31536622632652 L 32.55335415005177 -48.001398119193425 L 32.78211913367617 -47.69024672688893 L 33.01086751435919 -47.38186226736249 L 33.2396519104441 -47.07619527246414 L 33.468524532509065 -46.77319657288853 L 33.6975371980397 -46.47281728338215 L 33.926741345856236 -46.17500878820027 L 34.15618805030496 -45.879722726803536 L 34.385928035226925 -45.5869109797823 L 34.61601168771382 -45.29652565499738 L 34.84648907166263 -45.00851907392703 L 35.077409941138484 -44.72284375820928 L 35.30882375355707 -44.43945241636999 L 35.54077968269593 -44.158297930725624 L 35.77332663154476 -43.879333344451524 L 36.00651324500424 -43.60251184880651 L 36.240387922442864 -43.3277867705028 L 36.47499883012101 -43.05511155921415 L 36.710393913491764 -42.784439775211005 L 36.946620909386525 -42.51572507711517 L 37.18372735809547 -42.24892120976424 L 37.42176061535049 -41.983981992177945 L 37.660767864219864 -41.72086130561679 L 37.90079612692297 -41.45951308172544 L 38.14189227657329 -41.19989129075183 L 38.384103048857895 -40.94194992983441 L 38.627475053662536 -40.68564301134798 L 38.87205478664915 -40.430924551301736 L 39.1178886407949 -40.17774855777981 L 39.36502291790012 -39.92606901941749 L 39.613503840074216 -39.67583989390393 L 39.86337756120619 -39.42701509650451 L 40.114690178428596 -39.17954848859393 L 40.36748774358261 -38.93339386619309 L 40.621816274692634 -38.68850494850027 L 40.87772176745757 -38.44483536641033 L 41.135250206767324 -38.20233865101305 L 41.39444757825247 -37.960968222062505 L 41.655359879875206 -37.72067737640964 L 41.91803313356936 -37.48141927639024 L 42.18251339693771 -37.24314693815978 L 42.4488467750152 -37.00581321996691 L 42.71707943210602 -36.76937081035739 L 42.98725760370249 -36.533772216300555 L 43.25942760849538 -36.29896975122874 L 43.533635860482775 -36.064915522982545 L 43.80992888118743 -35.831561421651976 L 44.08835331199062 -35.59885910730529 L 44.36895592659182 -35.3667599975967 L 44.65178364360288 -35.13521525524362 L 44.936883539286484 -34.90417577536414 L 45.224302860448006 -34.673592172665394 L 45.51408903749021 -34.44341476847353 L 45.80628969764051 -34.213593577595276 L 46.100952678361644 -33.984078295000586 L 46.39812604095469 -33.75481828231731 L 46.697858084365535 -33.52576255412651 L 47.00019735920559 -33.296859764048136 L 47.305192681997475 -33.06805819060593 L 47.61289314965677 -32.83930572286059 L 47.92334815422108 -32.610549845799724 L 48.23660739783959 -32.38173762547227 L 48.552720908033024 -32.15281569385587 L 48.87173905323855 -31.923730233444562 L 49.1937125586506 -31.694426961543993 L 49.5186925223729 -31.46485111426044 L 49.84673043189312 -31.23494743017104 L 50.17787818089529 -31.004660133660593 L 50.51218808642453 -30.773932917910464 L 50.849712906418446 -30.542708927525045 L 51.1905058576207 -30.310930740780258 L 51.534620633892445 -30.078540351478317 L 51.88211142493852 -29.845479150392247 L 52.23303293546502 -29.61168790628328 L 52.587440404784935 -29.377106746473903 L 52.94538962689184 -29.141675136957865 L 53.30693697101801 -28.905331862029172 L 53.672139402698626 -28.66801500340988 L 54.041054505360314 -28.429661918857455 L 54.413740502456 -28.19020922022979 L 54.79025628016705 -27.949592750987648 L 55.17066141069539 -27.7077475631109 L 55.555016176168664 -27.464607893405933 L 55.943381593182586 -27.220107139180335 L 56.335819438005224 -26.974177833259443 L 56.732392272469625 -26.726751618318726 L 57.133163470581685 -26.47775922050535 L 57.538197245871075 -26.22713042232074 L 57.947558679513854 -25.97479403473504 L 58.36131374925908 -25.720677868502534 L 58.77952935918837 -25.46470870464762 L 59.20227337034314 -25.206812264087436 L 59.62961463225232 -24.946913176357807 L 60.0616230153981 -24.684934947405797 L 60.49836944465428 -24.420799926413164 L 60.93992593373748 -24.154429271611175 L 61.38636562071125 -23.88574291504669 L 61.83776280458487 -23.61465952625755 L 62.29419298305018 -23.34109647481367 L 62.75573289140285 -23.06496979167816 L 63.222460542695316 -22.78619412934037 L 63.69445526917141 -22.504682720671493 L 64.17179776503386 -22.220347336451145 L 64.6545701306001 -21.93309824150952 L 65.14285591790193 -21.64284414943001 L 65.63674017778894 -21.349492175751344 L 66.13630950859721 -21.052947789609078 L 66.6416521064487 -20.75311476375001 L 67.15285781724751 -20.44989512285323 L 67.67001819044603 -20.14318909008605 L 68.19322653465329 -19.832895031820716 L 68.72257797516417 -19.518909400434822 L 69.2581695134896 -19.20112667511393 L 69.80010008897519 -18.879439300570205 L 70.34847064259483 -18.553737623589683 L 70.9033841830145 -18.223909827312923 L 71.46494585502319 -17.8898418631524 L 72.033263010436 -17.551417380241976 L 72.60844528157418 -17.208517652312608 L 73.19060465743777 -16.861021501879442 L 73.77985556268831 -16.508805221622584 L 74.37631493956819 -16.151742492835087 L 74.98010233288544 -15.789704300808957 L 75.59133997820317 -15.422558847020131 L 76.21015289337898 -15.050171457967744 L 76.83666897360533 -14.672404490515397 L 77.47101909011192 -14.28911723357458 L 78.11333719269805 -13.900165805961386 L 78.76376041627319 -13.505403050248912 L 79.42242919159202 -13.104678422428663 L 80.08948736038006 -12.697837877184854 L 80.76508229505909 -12.284723748572928 L 81.44936502328811 -11.865174625885416 L 82.14249035755265 -11.439025224473424 L 82.84461703004466 -11.006106251281357 L 83.55590783308811 -10.566244264838646 L 84.27652976538245 -10.119261529437688 L 85.00665418434917 -9.66497586321203 L 85.7464569648833 -9.203200479813052 L 86.4961186648286 -8.733743823366591 L 87.25582469751258 -8.25640939637237 L 88.02576551170168 -7.770995580188086 L 88.80613677934852 -7.277295447723452 L 89.59713959153483 -6.775096567942769 L 90.39898066302968 -6.264180801754939 L 91.2118725459145 -5.74432408884078 L 92.03603385274523 -5.215296224945931 L 92.87168948975773 -4.676860629133934 L 93.71907090064806 -4.1287741004676235 L 94.57841632149692 -3.5707865635501603 L 95.4499710474353 -3.0026408023275657 L 96.33398771169203 -2.4240721815124955 L 97.23072657770184 -1.8348083549511265 L 98.14045584499443 -1.2345689602122363 L 99.06345196962991 -0.6230652986325137 L 100.0 0.0" fill="none" stroke="black" /></svg>