<?xml version="1.0" encoding="utf-8" ?>
<svg baseProfile="full" height="1000" version="1.1" viewBox="-500 -500 1000 1000" width="1000" xmlns="http://www.w3.org/2000/svg" xmlns:ev="http://www.w3.org/2001/xml-events" xmlns:xlink="http://www.w3.org/1999/xlink"><defs /><path d="M 50.0 49.99999999999999 L 49.68552211423873 50.31447788576127 L 49.37101934692349 50.6289806530765 L 49.05646680862516 50.94353319137484 L 48.741839594159 51.25816040584099 L 48.427112774693605 51.57288722530639 L 48.11226138984395 51.88773861015606 L 47.79726043974309 52.202739560256894 L 47.48208487708748 52.51791512291252 L 47.166709599149975 52.833290400850025 L 46.85110943975571 53.14889056024429 L 46.535259161214874 53.46474083878511 L 46.219133446207195 53.780866553792805 L 45.902706889612354 54.09729311038764 L 45.58595399028084 54.41404600971916 L 45.2688491427394 54.73115085726061 L 44.951366628825404 55.04863337117458 L 44.633480609244266 55.36651939075573 L 44.315165115043754 55.68483488495623 L 43.996394038999526 56.00360596100048 L 43.677141126905234 56.32285887309478 L 43.357379968761414 56.642620031238586 L 43.0370839898564 56.962916010143594 L 42.71622644173291 57.28377355826711 L 42.394780393033514 57.60521960696648 L 42.07271872021848 57.927281279781525 L 41.75001409814851 58.24998590185148 L 41.42663899052581 58.57336100947418 L 41.10256564018575 58.897434359814255 L 40.777766059231865 59.22223394076814 L 40.45221201900649 59.547787980993505 L 40.12587503988905 59.87412496011095 L 39.79872638091398 60.201273619086024 L 39.470737029199995 60.52926297080001 L 39.14187768918202 60.858122310818 L 38.81211877163709 61.187881228362905 L 38.48143038249515 61.51856961750486 L 38.1497823114252 61.8502176885748 L 37.81714402018751 62.18285597981249 L 37.48348463074158 62.51651536925843 L 37.148772913099805 62.851227086900195 L 36.81297727291627 63.18702272708372 L 36.476065738799605 63.523934261200395 L 36.13800594933854 63.86199405066148 L 35.79876513982869 64.20123486017131 L 35.4583101286883 64.5416898713117 L 35.11660730355033 64.88339269644968 L 34.773622607018154 65.22637739298183 L 34.4293215220712 65.57067847792881 L 34.083669057106746 65.91633094289327 L 33.73662973060333 66.26337026939667 L 33.388167555390915 66.61183244460908 L 33.038246022512126 66.96175397748789 L 32.68682808465855 67.31317191534146 L 32.33387613916536 67.66612386083465 L 31.97935201054664 68.02064798945335 L 31.623216932553824 68.37678306744617 L 31.265431529737768 68.73456847026223 L 30.905955798495828 69.09404420150418 L 30.544749087582552 69.45525091241744 L 30.181770078064016 69.81822992193598 L 29.816976762692732 70.18302323730727 L 29.450326424681187 70.5496735753188 L 29.081775615849292 70.9182243841507 L 28.711280134121857 71.28871986587814 L 28.3387950003491 71.66120499965089 L 27.96427443442445 72.03572556557555 L 27.58767183067034 72.41232816932965 L 27.208939732463723 72.79106026753628 L 26.82802980606973 73.17197019393026 L 26.444892813652515 73.55510718634748 L 26.05947858542894 73.94052141457105 L 25.671735990931392 74.32826400906862 L 25.281612909342172 74.71838709065783 L 24.889056198862757 75.11094380113725 L 24.494011665076993 75.50598833492302 L 24.096424028267844 75.90357597173215 L 23.696236889643327 76.30376311035668 L 23.29339269642712 76.70660730357288 L 22.88783270576545 77.11216729423455 L 22.479496947401532 77.52050305259847 L 22.068324185064494 77.9316758149355 L 21.654251876519282 78.34574812348072 L 21.237216132219515 78.7627838677805 L 20.81715167250425 79.18284832749576 L 20.393991783275307 79.60600821672469 L 19.9676682700899 80.0323317299101 L 19.5381114105992 80.4618885894008 L 19.105249905260735 80.89475009473927 L 18.669010826248527 81.33098917375148 L 18.229319564481305 81.7706804355187 L 17.786099774684928 82.21390022531507 L 17.33927331840148 82.6607266815985 L 16.888760204851742 83.11123979514825 L 16.434478529554998 83.56552147044499 L 15.976344410602923 84.02365558939708 L 15.514271922481003 84.485728077519 L 15.048173027323589 84.95182697267641 L 14.577957503484285 85.42204249651572 L 14.103532871295696 85.8964671287043 L 13.62480431588704 86.37519568411297 L 13.141674606920205 86.8583253930798 L 12.654044015097769 87.34595598490223 L 12.161810225288345 87.83818977471165 L 11.664868246106291 88.3351317538937 L 11.163110315773453 88.83688968422655 L 10.656425804081701 89.3435741959183 L 10.144701110264165 89.85529888973583 L 9.6278195565727 90.3721804434273 L 9.105661277347453 90.89433872265253 L 8.578103103352179 91.42189689664782 L 8.045018441135996 91.954981558864 L 7.506277147168092 92.49372285283191 L 6.961745396477603 93.0382546035224 L 6.411285545514566 93.58871445448544 L 5.854755988931337 94.14524401106867 L 5.292011009965761 94.70798899003424 L 4.7229006240882265 95.27709937591176 L 4.147270415554307 95.8527295844457 L 3.564961366482421 96.43503863351758 L 2.9758096780531584 97.02419032194685 L 2.379646583401171 97.62035341659882 L 1.776298151744083 98.22370184825591 L 1.1655850832640038 98.834414916736 L 0.5473224942264121 99.45267750577358 L -0.07855669091863392 99.92144330908137 L -0.7026062360966354 99.29739376390337 L -1.3189637984078693 98.68103620159212 L -1.9278185967210373 98.07218140327898 L -2.5293540980922025 97.4706459019078 L -3.123748240325753 96.87625175967425 L -3.711173644364696 96.28882635563531 L -4.291797817050356 95.70820218294965 L -4.865783344758377 95.13421665524163 L -5.433288078388359 94.56671192161163 L -5.994465310155793 94.00553468984421 L -6.549463942608667 93.45053605739133 L -7.098428650266531 92.90157134973346 L -7.641500034256547 92.35849996574345 L -8.178814770299965 91.82118522970003 L -8.710505750381593 91.2894942496184 L -9.23670221841661 90.76329778158339 L -9.757529900211036 90.24247009978896 L -10.27311112799567 89.72688887200432 L -10.78356495979781 89.21643504020219 L -11.289007293900378 88.71099270609962 L -11.78955097862476 88.21044902137524 L -12.285305917660207 87.71469408233978 L -12.77637917115124 87.22362082884877 L -13.262875052742757 86.73712494725724 L -13.744895222772131 86.25510477722787 L -14.222538777787273 85.77746122221274 L -14.695902336560783 85.30409766343922 L -15.165080122760665 84.83491987723933 L -15.630164044430462 84.36983595556954 L -16.091243770423375 83.90875622957664 L -16.548406803927683 83.45159319607231 L -17.001738553213794 82.9982614467862 L -17.45132239972651 82.54867760027349 L -17.89723976364032 82.10276023635969 L -18.339570166989006 81.660429833011 L -18.77839129447593 81.22160870552408 L -19.21377905206584 80.78622094793417 L -19.645807623454 80.354192376546 L -20.074549524504413 79.9254504754956 L -20.500075655743096 79.4999243442569 L -20.92245535299043 79.07754464700957 L -21.34175643620993 78.65824356379008 L -21.758045256649755 78.24195474335025 L -22.171386742347366 77.82861325765263 L -22.5818444420665 77.4181555579335 L -22.989480567730382 77.01051943226963 L -23.394356035414326 76.60564396458568 L -23.79653050495569 76.2034694950443 L -24.196062418238643 75.80393758176135 L -24.59300903620676 75.40699096379325 L -24.987426474655685 75.01257352534432 L -25.379369738854276 74.62063026114572 L -25.768892757041808 74.23110724295819 L -26.156048412845678 73.84395158715432 L -26.54088857666275 73.45911142333725 L -26.92346413604533 73.07653586395467 L -27.303825025130976 72.69617497486902 L -27.682020253153812 72.31797974684619 L -28.05809793207319 71.9419020679268 L -28.432105303354163 71.56789469664584 L -28.80408876393289 71.19591123606712 L -29.174093891398268 70.82590610860173 L -29.542165468420368 70.45783453157964 L -29.908347506454472 70.09165249354552 L -30.2726832687487 69.7273167312513 L -30.635215292681785 69.36478470731821 L -30.9959854114567 69.0040145885433 L -31.355034775174683 68.64496522482533 L -31.712403871313292 68.28759612868672 L -32.068132544631005 67.93186745536899 L -32.42226001652042 67.57773998347959 L -32.77482490383061 67.22517509616938 L -33.12586523717914 66.87413476282086 L -33.475418478772674 66.52458152122733 L -33.82352153975514 66.17647846024485 L -34.170210797101134 65.82978920289888 L -34.515522110071764 65.48447788992823 L -34.85949083624977 65.14050916375024 L -35.20215184716955 64.79784815283044 L -35.54353954355784 64.45646045644216 L -35.88368787019953 64.11631212980046 L -36.22263033044334 63.777369669556656 L -36.56040000036063 63.43959999963937 L -36.89702954257135 63.10297045742864 L -37.23255121974931 62.76744878025068 L -37.56699690781961 62.43300309218041 L -37.90039810886011 62.099601891139905 L -38.23278596371861 61.767214036281395 L -38.56419126435682 61.435808735643164 L -38.894644465932146 61.10535553406784 L -39.22417569862766 60.77582430137234 L -39.552814779240535 60.44718522075946 L -39.88059122253884 60.119408777461175 L -40.20753425239606 59.79246574760395 L -40.53367281271294 59.466327187287064 L -40.85903557813526 59.14096442186475 L -41.183650964576756 58.816349035423244 L -41.507547139555264 58.49245286044474 L -41.83075203235056 58.16924796764944 L -42.153293343992 57.84670665600802 L -42.47519855708354 57.52480144291648 L -42.796494945474095 57.20350505452591 L -43.11720958378037 56.88279041621963 L -43.43736935676964 56.56263064323036 L -43.757000968609404 56.242999031390596 L -44.076130951990976 55.92386904800902 L -44.3947856771337 55.60521432286629 L -44.712991360676455 55.287008639323545 L -45.030774074462805 54.9692259255372 L -45.348159754226515 54.65184024577347 L -45.66517420818336 54.33482579181665 L -45.98184312553513 54.01815687446487 L -46.29819208489278 53.70180791510722 L -46.61424656262354 53.38575343737646 L -46.930031941128725 53.069968058871275 L -47.24557351705726 52.75442648294275 L -47.560896509461315 52.439103490538685 L -47.876026067899375 52.12397393210062 L -48.19098728049194 51.80901271950806 L -48.50580518193602 51.49419481806398 L -48.820504761483356 51.179495238516644 L -49.1351109708883 50.8648890291117 L -49.44964873233002 50.55035126766999 L -49.76414294631502 50.23585705368498 L -50.078618499565174 49.92138150043483 L -50.393100272896206 49.60689972710379 L -50.707613149092545 49.292386850907455 L -51.02218202078305 48.97781797921696 L -51.33683179832376 48.66316820167624 L -51.65158741769253 48.34841258230746 L -51.96647384840065 48.03352615159935 L -52.28151610142728 47.71848389857272 L -52.596739237181694 47.403260762818306 L -52.912168373499156 47.087831626500844 L -53.227828693675164 46.77217130632483 L -53.54374545454432 46.45625454545567 L -53.85994399460874 46.14005600539126 L -54.17644974222209 45.82355025777791 L -54.493288223834604 45.506711776165396 L -54.810485072304616 45.189514927695384 L -55.12806603528313 44.87193396471687 L -55.4460569836765 44.553943016323494 L -55.7644839201938 44.2355160798062 L -56.083372987984454 43.91662701201555 L -56.40275047937286 43.59724952062714 L -56.722642844696104 43.27735715530389 L -57.04307670125073 42.95692329874926 L -57.364078842355994 42.635921157644006 L -57.68567624653946 42.31432375346054 L -58.0078960868525 41.992103913147496 L -58.33076574032223 41.669234259677765 L -58.65431279754696 41.34568720245305 L -58.978565072443146 41.021434927556854 L -59.30355061215069 40.69644938784931 L -59.62929770710473 40.37070229289528 L -59.9558349012815 40.04416509871849 L -60.2831910026269 39.7168089973731 L -60.61139509367581 39.388604906324176 L -60.9404765423707 39.05952345762929 L -61.270465013088725 38.72953498691128 L -61.60139047788608 38.39860952211393 L -61.93328322796965 38.06671677203034 L -62.26617388540478 37.733826114595225 L -62.600093415069786 37.39990658493022 L -62.9350731368677 37.06492686313229 L -63.27114473820538 36.728855261794614 L -63.60834028675142 36.39165971324858 L -63.946692243484 36.053307756516006 L -64.28623347604083 35.71376652395916 L -64.62699727238332 35.37300272761667 L -64.96901735478701 35.03098264521299 L -65.31232789417236 34.68767210582765 L -65.65696352478851 34.343036475211484 L -66.00295935926508 33.997040640734916 L -66.35035100404527 33.64964899595475 L -66.6991745752166 33.30082542478339 L -67.04946671475442 32.9505332852456 L -67.40126460719428 32.59873539280573 L -67.75460599675077 32.245394003249224 L -68.1095292048993 31.8904707951007 L -68.46607314844029 31.533926851559716 L -68.82427735806374 31.175722641936254 L -69.18418199743466 30.815818002565337 L -69.545827882819 30.454172117181013 L -69.90925650327232 30.090743496727676 L -70.27451004141318 29.72548995858682 L -70.6416313948036 29.35836860519642 L -71.01066419796179 28.98933580203822 L -71.38165284503157 28.618347154968436 L -71.7546425131348 28.245357486865206 L -72.12967918643415 27.870320813565858 L -72.50680968093417 27.493190319065825 L -72.88608167005127 27.113918329948735 L -73.26754371098234 26.732456289017655 L -73.6512452719054 26.348754728094608 L -74.03723676004485 25.96276323995515 L -74.42556955063765 25.574430449362357 L -74.8162960168365 25.183703983163493 L -75.20946956058822 24.790530439411768 L -75.60514464452827 24.39485535547175 L -76.00337682493249 23.996623175067516 L -76.40422278577088 23.59577721422912 L -76.8077403739081 23.192259626091897 L -77.21398863550002 22.786011364499995 L -77.62302785363588 22.376972146364125 L -78.03491958727865 21.965080412721345 L -78.44972671155918 21.550273288440835 L -78.86751345948127 21.13248654051873 L -79.28834546509933 20.71165453490069 L -79.71228980823038 20.287710191769612 L -80.13941506076868 19.860584939231302 L -80.5697913346717 19.43020866532829 L -81.00349033169094 18.996509668309045 L -81.4405853949249 18.559414605075105 L -81.88115156227389 18.118848437726108 L -82.3252656218828 17.6747343781172 L -82.77300616965996 17.22699383034004 L -83.22445366896565 16.775546331034345 L -83.67969051256931 16.32030948743069 L -84.13880108697816 15.861198913021845 L -84.601871839247 15.39812816075301 L -85.0689913463825 14.931008653617498 L -85.54025038746366 14.459749612536342 L -86.01574201860494 13.984257981395071 L -86.49556165089562 13.504438349104378 L -86.97980713145698 13.020192868543027 L -87.46857882776463 12.531421172235358 L -87.96197971539449 12.038020284605517 L -88.46011546935567 11.53988453064433 L -88.96309455918647 11.03690544081354 L -89.47102834799581 10.528971652004177 L -89.98403119564652 10.015968804353475 L -90.50222056628394 9.497779433716055 L -91.02571714042838 8.97428285957162 L -91.55464493186015 8.445355068139843 L -92.08913140954039 7.910868590459618 L -92.62930762482398 7.37069237517602 L -93.17530834423773 6.824691655762251 L -93.72727218810984 6.27272781189017 L -94.28534177535789 5.714658224642124 L -94.84966387475681 5.150336125243185 L -95.4203895630316 4.579610436968393 L -95.99767439013625 4.002325609863753 L -96.58167855210725 3.418321447892749 L -97.17256707189983 2.8274329281001744 L -97.77050998864294 2.2294900113570564 L -98.3756825557757 1.6243174442242996 L -98.98826544855692 1.011734551443099 L -99.60844498147114 0.3915550185288703 L -99.76469922871823 -0.23530077128175722 L -99.14259074174542 -0.8574092582545862 L -98.52812638111998 -1.4718736188800237 L -97.92111838736912 -2.078881612630886 L -97.32138469620777 -2.6786153037922262 L -96.72874871857351 -3.271251281426485 L -96.14303913069244 -3.8569608693075477 L -95.56408967364752 -4.435910326352477 L -94.99173896194715 -5.008261038052853 L -94.4258303006262 -5.57416969937379 L -93.86621151043673 -6.13378848956328 L -93.31273476071154 -6.687265239288474 L -92.76525640951083 -7.23474359048916 L -92.22363685068024 -7.776363149319775 L -91.68774036747448 -8.312259632525512 L -91.15743499241711 -8.84256500758289 L -90.63259237308736 -9.367407626912636 L -90.11308764354204 -9.88691235645796 L -89.59879930109626 -10.401200698903736 L -89.08960908820274 -10.910390911797256 L -88.58540187918348 -11.414598120816523 L -88.08606557158039 -11.913934428419598 L -87.5914909819063 -12.408509018093708 L -87.10157174558572 -12.898428254414275 L -86.61620422089106 -13.383795779108937 L -86.1352873966848 -13.864712603315208 L -85.65872280379345 -14.341277196206555 L -85.18641442984375 -14.81358557015624 L -84.7182686374037 -15.281731362596298 L -84.2541940852771 -15.745805914722895 L -83.7941016528093 -16.2058983471907 L -83.33790436706825 -16.662095632931752 L -82.88551733277255 -17.114482667227463 L -82.43685766484408 -17.56314233515592 L -81.9918444234697 -18.0081555765303 L -81.55039855156072 -18.449601448439285 L -81.112442814507 -18.887557185492987 L -80.6779017421242 -19.322098257875798 L -80.24670157270111 -19.753298427298894 L -79.81877019905531 -20.181229800944692 L -79.39403711651302 -20.605962883486974 L -78.97243337272974 -21.02756662727026 L -78.55389151927511 -21.44610848072488 L -78.13834556490741 -21.861654435092603 L -77.72573093046678 -22.27426906953321 L -77.31598440532048 -22.68401559467952 L -76.90904410529532 -23.09095589470467 L -76.50484943203615 -23.49515056796385 L -76.10334103373258 -23.896658966267424 L -75.70446076715693 -24.295539232843083 L -75.30815166096166 -24.69184833903835 L -74.91435788018377 -25.08564211981623 L -74.52302469190936 -25.476975308090644 L -74.13409843204997 -25.865901567950047 L -73.74752647318832 -26.252473526811674 L -73.36325719344939 -26.636742806550618 L -72.98123994635705 -27.018760053642946 L -72.60142503163749 -27.39857496836252 L -72.22376366693173 -27.77623633306827 L -71.84820796038227 -28.15179203961773 L -71.47471088405945 -28.525289115940563 L -71.10322624819466 -28.896773751805338 L -70.73370867619023 -29.26629132380978 L -70.36611358037423 -29.633886419625764 L -70.00039713847366 -29.99960286152635 L -69.6365162707762 -30.36348372922381 L -69.27442861795629 -30.725571382043704 L -68.9140925195384 -31.085907480461607 L -68.55546699297422 -31.444533007025782 L -68.19851171331013 -31.80148828668987 L -67.84318699342239 -32.156813006577615 L -67.48945376479861 -32.51054623520139 L -67.13727355884483 -32.86272644115518 L -66.78660848869809 -33.21339151130191 L -66.43742123152582 -33.56257876847418 L -66.08967501129268 -33.9103249887073 L -65.74333358197862 -34.256666418021375 L -65.39836121122917 -34.60163878877083 L -65.05472266442365 -34.94527733557636 L -64.71238318914338 -35.287616810856626 L -64.37130850002654 -35.62869149997346 L -64.03146476399338 -35.96853523600663 L -63.6928185858287 -36.30718141417131 L -63.35533699410737 -36.64466300589263 L -63.01898742744991 -36.98101257255009 L -62.683737721095184 -37.316262278904816 L -62.34955609377811 -37.650443906221895 L -62.016411134900295 -37.983588865099705 L -61.684271791982376 -38.315728208017624 L -61.353107358386275 -38.646892641613725 L -61.02288746129773 -38.97711253870228 L -60.69358204995723 -39.306417950042764 L -60.36516138413084 -39.63483861586916 L -60.037596022809446 -39.96240397719056 L -59.710856813128586 -40.2891431868714 L -59.38491487949832 -40.615085120501675 L -59.059741612934914 -40.940258387065086 L -58.73530866058553 -41.264691339414476 L -58.411587915437366 -41.58841208456264 L -58.088551506203075 -41.911448493796925 L -57.76617178737466 -42.23382821262533 L -57.44442132943753 -42.555578670562475 L -57.12327290923808 -42.87672709076192 L -56.8026995004962 -43.1973004995038 L -56.48267426445677 -43.51732573554323 L -56.16317054067179 -43.836829459328214 L -55.84416183790766 -44.15583816209234 L -55.525621825169395 -44.47437817483061 L -55.20752432283662 -44.79247567716338 L -54.88984329390365 -45.11015670609635 L -54.5725528353182 -45.4274471646818 L -54.255627169412016 -45.74437283058798 L -53.939040635417555 -46.06095936458244 L -53.62276768106453 -46.37723231893547 L -53.30678285425069 -46.69321714574931 L -52.99106079478043 -47.00893920521956 L -52.6755762261665 -47.32442377383349 L -52.36030394748775 -47.63969605251224 L -52.04521882529887 -47.95478117470115 L -51.73029578558496 -48.26970421441505 L -51.41550980575707 -48.58449019424294 L -51.10083590668178 -48.89916409331822 L -50.78624914474044 -49.21375085525957 L -50.47172460391223 -49.52827539608778 L -50.15723738787581 -49.842762612124204 L -49.84276261212424 -50.157237387875774 L -49.528275396087814 -50.471724603912186 L -49.213750855259576 -50.786249144740424 L -48.899164093318255 -51.10083590668174 L -48.58449019424295 -51.415509805757054 L -48.26970421441509 -51.730295785584914 L -47.954781174701175 -52.045218825298825 L -47.63969605251228 -52.360303947487715 L -47.32442377383354 -52.67557622616647 L -47.008939205219576 -52.99106079478042 L -46.69321714574935 -53.30678285425065 L -46.377232318935484 -53.62276768106451 L -46.06095936458248 -53.93904063541752 L -45.744372830588 -54.25562716941201 L -45.42744716468184 -54.57255283531816 L -45.11015670609636 -54.88984329390363 L -44.792475677163424 -55.20752432283659 L -44.47437817483062 -55.525621825169374 L -44.155838162092394 -55.8441618379076 L -43.83682945932822 -56.16317054067177 L -43.51732573554329 -56.48267426445671 L -43.19730049950381 -56.80269950049619 L -42.87672709076193 -57.123272909238075 L -42.55557867056249 -57.44442132943752 L -42.23382821262536 -57.76617178737465 L -41.91144849379694 -58.08855150620305 L -41.588412084562655 -58.41158791543735 L -41.26469133941447 -58.73530866058554 L -40.94025838706511 -59.0597416129349 L -40.615085120501675 -59.38491487949834 L -40.28914318687143 -59.710856813128586 L -39.962403977190554 -60.037596022809446 L -39.6348386158692 -60.3651613841308 L -39.30641795004276 -60.693582049957236 L -38.977112538702315 -61.022887461297685 L -38.64689264161372 -61.35310735838628 L -38.31572820801767 -61.68427179198234 L -37.98358886509969 -62.016411134900295 L -37.65044390622193 -62.34955609377806 L -37.31626227890484 -62.68373772109518 L -36.98101257255013 -63.01898742744987 L -36.644663005892646 -63.355336994107354 L -36.30718141417135 -63.69281858582866 L -35.968535236006645 -64.03146476399337 L -35.6286914999735 -64.37130850002649 L -35.28761681085664 -64.71238318914337 L -34.94527733557642 -65.05472266442358 L -34.60163878877085 -65.39836121122916 L -34.2566664180214 -65.74333358197862 L -33.91032498870732 -66.08967501129267 L -33.562578768474204 -66.4374212315258 L -33.21339151130192 -66.78660848869806 L -32.862726441155196 -67.13727355884481 L -32.51054623520143 -67.48945376479858 L -32.15681300657763 -67.84318699342236 L -31.801488286689864 -68.19851171331014 L -31.444533007025804 -68.5554669929742 L -31.085907480461596 -68.91409251953841 L -30.725571382043725 -69.27442861795627 L -30.3634837292238 -69.6365162707762 L -29.99960286152639 -70.00039713847362 L -29.633886419625757 -70.36611358037425 L -29.26629132380982 -70.73370867619018 L -28.896773751805327 -71.10322624819467 L -28.525289115940605 -71.47471088405939 L -28.151792039617725 -71.84820796038228 L -27.776236333068315 -72.22376366693167 L -27.398574968362535 -72.60142503163746 L -27.018760053642993 -72.98123994635701 L -26.636742806550636 -73.36325719344937 L -26.252473526811723 -73.74752647318829 L -25.86590156795006 -74.13409843204994 L -25.47697530809072 -74.52302469190928 L -25.08564211981625 -74.91435788018376 L -24.691848339038426 -75.30815166096157 L -24.295539232843097 -75.7044607671569 L -23.89665896626744 -76.10334103373255 L -23.495150567963872 -76.50484943203614 L -23.090955894704692 -76.90904410529531 L -22.684015594679533 -77.31598440532045 L -22.274269069533236 -77.72573093046677 L -21.86165443509259 -78.13834556490741 L -21.446108480724902 -78.5538915192751 L -21.027566627270254 -78.97243337272975 L -20.605962883486995 -79.394037116513 L -20.18122980094468 -79.81877019905531 L -19.753298427298947 -80.24670157270106 L -19.322098257875787 -80.67790174212422 L -18.887557185493044 -81.11244281450696 L -18.449601448439335 -81.55039855156066 L -18.008155576530353 -81.99184442346964 L -17.56314233515591 -82.43685766484408 L -17.114482667227517 -82.88551733277248 L -16.66209563293171 -83.33790436706829 L -16.20589834719069 -83.7941016528093 L -15.745805914722917 -84.25419408527708 L -15.281731362596355 -84.71826863740365 L -14.813585570156265 -85.18641442984374 L -14.34127719620661 -85.6587228037934 L -13.864712603315228 -86.13528739668477 L -13.383795779109029 -86.61620422089098 L -12.898428254414231 -87.10157174558576 L -12.408509018093731 -87.59149098190628 L -11.913934428419623 -88.08606557158036 L -11.414598120816548 -88.58540187918345 L -10.91039091179728 -89.0896090882027 L -10.401200698903832 -89.59879930109616 L -9.886912356458021 -90.11308764354199 L -9.36740762691266 -90.63259237308733 L -8.842565007582879 -91.15743499241712 L -8.312259632525539 -91.68774036747446 L -7.776363149319763 -92.22363685068024 L -7.234743590489226 -92.76525640951077 L -6.68726523928854 -93.31273476071146 L -6.133788489563424 -93.86621151043657 L -5.574169699373779 -94.42583030062622 L -5.008261038052922 -94.99173896194708 L -4.435910326352506 -95.5640896736475 L -3.8569608693075357 -96.14303913069247 L -3.2712512814265553 -96.72874871857344 L -2.6786153037922973 -97.32138469620772 L -2.0788816126310428 -97.92111838736895 L -1.4718736188800967 -98.5281263811199 L -0.85740925825466 -99.14259074174534 L -0.23530077128183194 -99.76469922871817 L 0.39155501852888397 -99.60844498147111 L 1.0117345514430691 -98.98826544855694 L 1.6243174442242267 -98.37568255577577 L 2.229490011356942 -97.77050998864304 L 2.827432928100104 -97.1725670718999 L 3.4183214478926374 -96.58167855210736 L 4.002325609863684 -95.99767439013632 L 4.579610436968365 -95.42038956303165 L 5.150336125243157 -94.84966387475684 L 5.714658224642095 -94.2853417753579 L 6.2727278118901415 -93.72727218810985 L 6.8246916557622255 -93.17530834423776 L 7.370692375175917 -92.62930762482408 L 7.910868590459516 -92.08913140954049 L 8.445355068139818 -91.5546449318602 L 8.974282859571556 -91.02571714042844 L 9.49777943371603 -90.50222056628397 L 10.015968804353488 -89.98403119564652 L 10.528971652004154 -89.47102834799584 L 11.036905440813479 -88.96309455918652 L 11.5398845306442 -88.4601154693558 L 12.038020284605528 -87.96197971539448 L 12.531421172235335 -87.46857882776466 L 13.020192868543036 -86.97980713145697 L 13.504438349104387 -86.49556165089561 L 13.98425798139508 -86.01574201860493 L 14.459749612536317 -85.54025038746367 L 14.931008653617441 -85.06899134638256 L 15.398128160752954 -84.60187183924704 L 15.861198913021822 -84.13880108697818 L 16.32030948743067 -83.67969051256934 L 16.775546331034388 -83.22445366896561 L 17.22699383034005 -82.77300616965995 L 17.67473437811718 -82.32526562188282 L 18.118848437726086 -81.88115156227391 L 18.55941460507508 -81.44058539492491 L 18.996509668308967 -81.00349033169104 L 19.430208665328273 -80.56979133467172 L 19.860584939231313 -80.13941506076868 L 20.287710191769648 -79.71228980823034 L 20.711654534900664 -79.28834546509933 L 21.132486540518677 -78.86751345948132 L 21.550273288440838 -78.44972671155915 L 21.9650804127213 -78.03491958727872 L 22.376972146364047 -77.62302785363596 L 22.786011364500002 -77.2139886355 L 23.192259626091907 -76.8077403739081 L 23.595777214229127 -76.40422278577087 L 23.99662317506747 -76.00337682493253 L 24.39485535547176 -75.60514464452825 L 24.79053043941175 -75.20946956058823 L 25.183703983163443 -74.81629601683655 L 25.57443044936231 -74.42556955063769 L 25.962763239955162 -74.03723676004483 L 26.348754728094562 -73.65124527190544 L 26.732456289017666 -73.26754371098234 L 27.113918329948742 -72.88608167005127 L 27.49319031906581 -72.5068096809342 L 27.87032081356581 -72.12967918643419 L 28.24535748686516 -71.75464251313484 L 28.618347154968394 -71.38165284503161 L 28.989335802038195 -71.0106641979618 L 29.358368605196347 -70.64163139480365 L 29.72548995858683 -70.27451004141317 L 30.09074349672766 -69.90925650327235 L 30.454172117180992 -69.545827882819 L 30.815818002565315 -69.18418199743468 L 31.17572264193619 -68.82427735806381 L 31.53392685155965 -68.46607314844036 L 31.890470795100658 -68.10952920489935 L 32.24539400324921 -67.75460599675078 L 32.59873539280571 -67.40126460719428 L 32.95053328524558 -67.04946671475442 L 33.300825424783405 -66.69917457521659 L 33.649648995954706 -66.3503510040453 L 33.99704064073485 -66.00295935926515 L 34.34303647521139 -65.6569635247886 L 34.68767210582766 -65.31232789417234 L 35.03098264521295 -64.96901735478706 L 35.37300272761666 -64.62699727238333 L 35.71376652395917 -64.28623347604083 L 36.05330775651601 -63.946692243483994 L 36.391659713248536 -63.60834028675146 L 36.72885526179453 -63.27114473820547 L 37.06492686313226 -62.93507313686776 L 37.39990658493021 -62.6000934150698 L 37.73382611459518 -62.26617388540482 L 38.0667167720303 -61.93328322796969 L 38.3986095221139 -61.601390477886085 L 38.72953498691126 -61.27046501308873 L 39.059523457629226 -60.94047654237076 L 39.38860490632415 -60.61139509367586 L 39.71680899737308 -60.28319100262691 L 40.04416509871848 -59.95583490128153 L 40.37070229289526 -59.62929770710475 L 40.696449387849256 -59.30355061215075 L 41.02143492755684 -58.97856507244317 L 41.34568720245305 -58.65431279754694 L 41.669234259677744 -58.33076574032224 L 41.99210391314743 -58.007896086852554 L 42.31432375346053 -57.68567624653948 L 42.63592115764401 -57.36407884235598 L 42.956923298749224 -57.04307670125077 L 43.27735715530384 -56.72264284469617 L 43.597249520627145 -56.402750479372855 L 43.91662701201555 -56.08337298798444 L 44.23551607980617 -55.76448392019384 L 44.55394301632342 -55.44605698367659 L 44.871933964716874 -55.12806603528312 L 45.18951492769537 -54.81048507230463 L 45.50671177616535 -54.49328822383463 L 45.823550257777875 -54.17644974222213 L 46.14005600539127 -53.85994399460874 L 46.45625454545566 -53.543745454544336 L 46.77217130632478 -53.227828693675235 L 47.08783162650081 -52.912168373499185 L 47.40326076281829 -52.5967392371817 L 47.71848389857271 -52.2815161014273 L 48.03352615159934 -51.96647384840067 L 48.348412582307425 -51.651587417692575 L 48.663168201676235 -51.33683179832377 L 48.97781797921694 -51.02218202078306 L 49.292386850907434 -50.70761314909256 L 49.60689972710373 -50.39310027289628 L 49.92138150043481 -50.07861849956518 L 50.23585705368499 -49.76414294631501 L 50.550351267669974 -49.44964873233003 L 50.86488902911164 -49.13511097088835 L 51.17949523851661 -48.82050476148339 L 51.49419481806399 -48.50580518193601 L 51.809012719508026 -48.190987280491974 L 52.12397393210056 -47.87602606789944 L 52.43910349053869 -47.56089650946131 L 52.75442648294275 -47.24557351705725 L 53.06996805887123 -46.93003194112876 L 53.38575343737637 -46.61424656262362 L 53.701807915107224 -46.29819208489277 L 54.01815687446486 -45.98184312553514 L 54.334825791816606 -45.665174208183394 L 54.65184024577344 -45.34815975422656 L 54.9692259255372 -45.03077407446279 L 55.287008639323524 -44.71299136067647 L 55.60521432286624 -44.39478567713377 L 55.923869048009024 -44.07613095199097 L 56.24299903139058 -43.757000968609425 L 56.56263064323032 -43.437369356769686 L 56.88279041621961 -43.117209583780394 L 57.20350505452591 -42.79649494547408 L 57.524801442916456 -42.47519855708355 L 57.84670665600797 -42.15329334399203 L 58.169247967649426 -41.83075203235058 L 58.49245286044474 -41.50754713955525 L 58.81634903542323 -41.18365096457677 L 59.140964421864744 -40.85903557813525 L 59.46632718728705 -40.533672812712965 L 59.792465747603934 -40.20753425239607 L 60.119408777461175 -39.880591222538825 L 60.447185220759444 -39.55281477924055 L 60.7758243013723 -39.2241756986277 L 61.10535553406783 -38.894644465932174 L 61.43580873564318 -38.56419126435682 L 61.76721403628138 -38.23278596371863 L 62.099601891139855 -37.900398108860145 L 62.43300309218043 -37.56699690781957 L 62.767448780250696 -37.232551219749304 L 63.102970457428626 -36.897029542571374 L 63.439599999639334 -36.56040000036067 L 63.77736966955669 -36.2226303304433 L 64.11631212980045 -35.88368787019955 L 64.45646045644213 -35.543539543557884 L 64.79784815283038 -35.202151847169624 L 65.14050916375024 -34.85949083624976 L 65.48447788992821 -34.51552211007178 L 65.82978920289882 -34.17021079710117 L 66.17647846024484 -33.82352153975516 L 66.52458152122733 -33.47541847877266 L 66.87413476282084 -33.12586523717915 L 67.2251750961694 -32.774824903830606 L 67.57773998347956 -32.422260016520426 L 67.931867455369 -32.068132544631 L 68.28759612868669 -31.712403871313306 L 68.64496522482531 -31.355034775174687 L 69.00401458854327 -30.99598541145673 L 69.36478470731821 -30.635215292681803 L 69.72731673125129 -30.2726832687487 L 70.0916524935455 -29.9083475064545 L 70.45783453157958 -29.542165468420425 L 70.8259061086017 -29.174093891398297 L 71.19591123606712 -28.804088763932896 L 71.56789469664581 -28.4321053033542 L 71.94190206792675 -28.058097932073245 L 72.31797974684619 -27.6820202531538 L 72.69617497486901 -27.303825025130994 L 73.07653586395463 -26.923464136045375 L 73.45911142333718 -26.540888576662823 L 73.84395158715434 -26.15604841284567 L 74.23110724295817 -25.76889275704183 L 74.62063026114568 -25.379369738854322 L 75.0125735253443 -24.987426474655702 L 75.40699096379323 -24.593009036206762 L 75.80393758176133 -24.196062418238665 L 76.20346949504426 -23.796530504955754 L 76.60564396458565 -23.394356035414344 L 77.01051943226962 -22.989480567730382 L 77.41815555793347 -22.581844442066515 L 77.82861325765262 -22.171386742347387 L 78.2419547433502 -21.758045256649787 L 78.65824356379004 -21.34175643620995 L 79.07754464700953 -20.92245535299046 L 79.4999243442569 -20.500075655743117 L 79.92545047549554 -20.074549524504445 L 80.35419237654595 -19.645807623454036 L 80.78622094793417 -19.213779052065824 L 81.22160870552403 -18.778391294475966 L 81.66042983301092 -18.339570166989073 L 82.10276023635964 -17.897239763640357 L 82.54867760027348 -17.451322399726514 L 82.99826144678617 -17.001738553213833 L 83.45159319607222 -16.54840680392777 L 83.90875622957664 -16.091243770423365 L 84.36983595556951 -15.630164044430487 L 84.83491987723927 -15.16508012276072 L 85.30409766343912 -14.69590233656087 L 85.77746122221274 -14.222538777787262 L 86.25510477722784 -13.744895222772152 L 86.73712494725716 -13.26287505274283 L 87.22362082884872 -12.77637917115128 L 87.71469408233978 -12.285305917660214 L 88.2104490213752 -11.789550978624801 L 88.71099270609953 -11.289007293900456 L 89.21643504020216 -10.783564959797854 L 89.72688887200431 -10.273111127995696 L 90.2424700997889 -9.757529900211098 L 90.76329778158336 -9.236702218416635 L 91.28949424961834 -8.710505750381655 L 91.8211852297 -8.178814770299992 L 92.35849996574339 -7.6415000342566115 L 92.90157134973344 -7.098428650266557 L 93.45053605739125 -6.549463942608752 L 94.00553468984417 -5.99446531015584 L 94.56671192161163 -5.433288078388367 L 95.13421665524157 -4.865783344758424 L 95.70820218294955 -4.291797817050445 L 96.28882635563534 -3.711173644364662 L 96.87625175967423 -3.123748240325761 L 97.47064590190773 -2.5293540980922735 L 98.07218140327885 -1.927818596721152 L 98.68103620159215 -1.3189637984078562 L 99.29739376390334 -0.7026062360966656 L 99.9214433090813 -0.07855669091870883 L 99.45267750577365 0.5473224942263438 L 98.83441491673602 1.165585083263991 L 98.22370184825596 1.7762981517440493 L 97.62035341659889 2.3796465834011173 L 97.02419032194692 2.975809678053085 L 96.43503863351759 3.5649613664824207 L 95.85272958444571 4.147270415554287 L 95.27709937591182 4.7229006240881874 L 94.70798899003431 5.292011009965683 L 94.14524401106867 5.854755988931328 L 93.58871445448547 6.41128554551454 L 93.03825460352245 6.961745396477558 L 92.49372285283197 7.506277147168027 L 91.954981558864 8.045018441136 L 91.42189689664782 8.578103103352163 L 90.8943387226526 9.105661277347403 L 90.37218044342738 9.627819556572634 L 89.85529888973583 10.14470111026416 L 89.34357419591832 10.65642580408168 L 88.83688968422658 11.163110315773414 L 88.33513175389376 11.664868246106236 L 87.83818977471165 12.161810225288352 L 87.34595598490226 12.65404401509774 L 86.85832539307984 13.14167460692016 L 86.37519568411294 13.624804315887056 L 85.8964671287043 14.103532871295696 L 85.42204249651574 14.577957503484273 L 84.95182697267644 15.048173027323555 L 84.48572807751898 15.514271922481008 L 84.02365558939708 15.976344410602916 L 83.56552147044505 16.434478529554962 L 83.1112397951483 16.888760204851703 L 82.66072668159852 17.339273318401485 L 82.21390022531507 17.78609977468493 L 81.77068043551874 18.229319564481262 L 81.33098917375152 18.669010826248485 L 80.89475009473925 19.10524990526075 L 80.46188858940081 19.5381114105992 L 80.03233172991011 19.96766827008988 L 79.60600821672473 20.393991783275276 L 79.18284832749573 20.817151672504263 L 78.76278386778048 21.23721613221952 L 78.34574812348073 21.654251876519258 L 77.93167581493555 22.06832418506446 L 77.52050305259847 22.479496947401532 L 77.11216729423455 22.88783270576545 L 76.70660730357292 23.293392696427095 L 76.3037631103567 23.696236889643295 L 75.90357597173215 24.096424028267837 L 75.50598833492302 24.49401166507698 L 75.11094380113728 24.889056198862722 L 74.71838709065786 25.281612909342137 L 74.3282640090686 25.671735990931392 L 73.94052141457105 26.05947858542895 L 73.55510718634753 26.444892813652483 L 73.1719701939303 26.828029806069697 L 72.79106026753628 27.208939732463715 L 72.41232816932965 27.587671830670335 L 72.03572556557558 27.96427443442442 L 71.66120499965092 28.33879500034907 L 71.28871986587814 28.711280134121857 L 70.9182243841507 29.081775615849295 L 70.54967357531885 29.45032642468115 L 70.1830232373073 29.8169767626927 L 69.81822992193598 30.181770078064016 L 69.45525091241744 30.54474908758255 L 69.0940442015042 30.905955798495803 L 68.73456847026226 31.265431529737747 L 68.37678306744618 31.623216932553817 L 68.02064798945337 31.979352010546634 L 67.66612386083467 32.33387613916533 L 67.31317191534148 32.686828084658515 L 66.96175397748787 33.038246022512126 L 66.61183244460909 33.38816755539091 L 66.26337026939669 33.736629730603305 L 65.9163309428933 34.08366905710671 L 65.5706784779288 34.429321522071206 L 65.22637739298186 34.77362260701814 L 64.88339269644969 35.1166073035503 L 64.54168987131173 35.458310128688254 L 64.20123486017131 35.798765139828696 L 63.86199405066148 36.13800594933853 L 63.52393426120042 36.47606573879958 L 63.18702272708376 36.812977272916235 L 62.851227086900195 37.1487729130998 L 62.51651536925844 37.48348463074156 L 62.182855979812516 37.817144020187484 L 61.85021768857484 38.149782311425156 L 61.518569617504866 38.48143038249514 L 61.187881228362926 38.812118771637074 L 60.85812231081801 39.14187768918198 L 60.52926297080005 39.47073702919995 L 60.201273619086024 39.79872638091398 L 59.87412496011096 40.12587503988904 L 59.54778798099354 40.452212019006474 L 59.22223394076818 40.77776605923183 L 58.89743435981426 41.10256564018575 L 58.5733610094742 41.426638990525795 L 58.24998590185152 41.75001409814849 L 57.92728127978156 42.07271872021844 L 57.605219606966486 42.39478039303352 L 57.283773558267114 42.716226441732886 L 56.96291601014362 43.03708398985638 L 56.642620031238636 43.35737996876138 L 56.32285887309478 43.67714112690523 L 56.00360596100049 43.996394038999505 L 55.68483488495627 44.31516511504374 L 55.366519390755776 44.63348060924423 L 55.04863337117459 44.951366628825404 L 54.731150857260616 45.26884914273938 L 54.414046009719186 45.58595399028082 L 54.097293110387675 45.90270688961232 L 53.7808665537928 46.219133446207195 L 53.46474083878513 46.53525916121487 L 53.14889056024431 46.85110943975569 L 52.83329040085005 47.16670959914994 L 52.51791512291252 47.48208487708748 L 52.202739560256916 47.797260439743084 L 51.88773861015608 48.112261389843916 L 51.57288722530643 48.427112774693576 L 51.258160405841004 48.741839594159 L 50.943533191374854 49.056466808625146 L 50.62898065307654 49.37101934692347 L 50.31447788576131 49.685522114238694 L 50.0 49.99999999999999" fill="none" stroke="black" /></svg>