<?xml version="1.0" encoding="utf-8" ?>
<svg baseProfile="full" height="1000" version="1.1" viewBox="-500 -500 1000 1000" width="1000" xmlns="http://www.w3.org/2000/svg" xmlns:ev="http://www.w3.org/2001/xml-events" xmlns:xlink="http://www.w3.org/1999/xlink"><defs /><path d="M 50.0 49.99999999999999 L 47.241423128560015 52.758576871439985 L 44.46600132662528 55.53399867337471 L 41.65647568933818 58.34352431066182 L 38.79473755490086 61.20526244509913 L 35.86134711130957 64.13865288869043 L 32.83497831881057 67.16502168118943 L 29.69175490356429 70.30824509643571 L 26.404431012233655 73.59556898776634 L 22.941353145323877 77.05864685467613 L 19.265114249365702 80.7348857506343 L 15.33077147172168 84.66922852827831 L 11.083437906420917 88.91656209357909 L 6.454961703489399 93.54503829651061 L 1.3592485667878196 98.64075143321217 L -3.9717574894310768 96.02824251056893 L -8.821736293982138 91.17826370601786 L -13.250130310671432 86.74986968932856 L -17.333369626936463 82.66663037306354 L -21.132486540518713 78.86751345948127 L -24.697046045415068 75.30295395458494 L -28.06796655018347 71.93203344981653 L -31.27958641774725 68.72041358225275 L -34.361208794283876 65.63879120571613 L -37.33828039014779 62.66171960985223 L -40.23331090523734 59.76668909476265 L -43.06660800659105 56.93339199340895 L -45.85688187746167 54.14311812253834 L -48.62175957338398 51.378240426616 L -51.378240426616 48.621759573384004 L -54.14311812253835 45.85688187746166 L -56.93339199340894 43.06660800659107 L -59.76668909476267 40.233310905237325 L -62.66171960985221 37.338280390147794 L -65.63879120571612 34.36120879428388 L -68.72041358225276 31.279586417747254 L -71.93203344981652 28.067966550183495 L -75.30295395458492 24.697046045415078 L -78.86751345948127 21.13248654051873 L -82.66663037306354 17.333369626936456 L -86.74986968932856 13.250130310671429 L -91.17826370601787 8.821736293982115 L -96.02824251056892 3.9717574894310945 L -98.64075143321219 -1.3592485667878016 L -93.54503829651063 -6.454961703489384 L -88.9165620935791 -11.083437906420883 L -84.66922852827831 -15.330771471721684 L -80.73488575063429 -19.26511424936572 L -77.05864685467614 -22.941353145323863 L -73.59556898776636 -26.404431012233644 L -70.30824509643573 -29.691754903564284 L -67.16502168118943 -32.83497831881056 L -64.13865288869043 -35.861347111309584 L -61.20526244509912 -38.794737554900884 L -58.343524310661806 -41.656475689338194 L -55.533998673374725 -44.46600132662528 L -52.75857687143999 -47.24142312856 L -50.000000000000014 -50.0 L -47.241423128560015 -52.75857687143998 L -44.46600132662529 -55.53399867337471 L -41.656475689338166 -58.34352431066184 L -38.79473755490087 -61.20526244509912 L -35.8613471113096 -64.1386528886904 L -32.834978318810585 -67.16502168118943 L -29.691754903564274 -70.30824509643573 L -26.404431012233662 -73.59556898776634 L -22.941353145323852 -77.05864685467614 L -19.26511424936571 -80.73488575063428 L -15.33077147172171 -84.6692285282783 L -11.083437906420908 -88.91656209357909 L -6.454961703489371 -93.54503829651063 L -1.3592485667878313 -98.64075143321216 L 3.971757489431025 -96.02824251056897 L 8.821736293982129 -91.17826370601787 L 13.250130310671405 -86.74986968932859 L 17.33336962693647 -82.66663037306353 L 21.132486540518677 -78.86751345948132 L 24.697046045415004 -75.302953954585 L 28.067966550183503 -71.9320334498165 L 31.279586417747307 -68.7204135822527 L 34.36120879428389 -65.6387912057161 L 37.338280390147794 -62.66171960985219 L 40.23331090523735 -59.76668909476263 L 43.066608006591046 -56.93339199340895 L 45.85688187746164 -54.14311812253837 L 48.62175957338398 -51.37824042661601 L 51.37824042661599 -48.621759573384004 L 54.14311812253835 -45.85688187746167 L 56.93339199340893 -43.066608006591075 L 59.76668909476267 -40.23331090523734 L 62.66171960985218 -37.33828039014782 L 65.63879120571609 -34.36120879428392 L 68.72041358225276 -31.279586417747225 L 71.93203344981652 -28.06796655018347 L 75.30295395458496 -24.69704604541503 L 78.8675134594813 -21.13248654051871 L 82.66663037306351 -17.333369626936502 L 86.74986968932856 -13.250130310671441 L 91.17826370601784 -8.821736293982164 L 96.02824251056893 -3.9717574894310634 L 98.64075143321219 1.3592485667878142 L 93.54503829651054 6.454961703489443 L 88.91656209357909 11.083437906420906 L 84.66922852827835 15.33077147172164 L 80.73488575063429 19.26511424936572 L 77.05864685467614 22.941353145323866 L 73.59556898776633 26.40443101223368 L 70.30824509643571 29.691754903564288 L 67.1650216811894 32.8349783188106 L 64.13865288869043 35.86134711130957 L 61.20526244509915 38.794737554900856 L 58.343524310661806 41.656475689338194 L 55.533998673374725 44.46600132662528 L 52.75857687143997 47.24142312856004 L 50.0 49.99999999999999" fill="none" stroke="black" /></svg>