<?xml version="1.0" encoding="utf-8" ?>
<svg baseProfile="full" height="1000" version="1.1" viewBox="-500 -500 1000 1000" width="1000" xmlns="http://www.w3.org/2000/svg" xmlns:ev="http://www.w3.org/2001/xml-events" xmlns:xlink="http://www.w3.org/1999/xlink"><defs /><path d="M 100.0 0.0 L 97.81735841997894 0.6152279213333491 L 95.67161216403699 1.2035118619963705 L 93.56209580630808 1.7655788569568882 L 91.48816376107689 2.302135704945685 L 89.44918949926632 2.813869749548131 L 87.44456480078114 3.30144962445456 L 85.47369904080503 3.7655259647734765 L 83.5360185082613 4.206732086197027 L 81.6309657547549 4.625684633701278 L 79.75799897241268 5.022984201364078 L 77.91659139913304 5.399215924790199 L 76.10623074984173 5.7549500475462825 L 74.32641867243312 6.090742462926958 L 72.57667022715174 6.407135232297254 L 70.85651338823945 6.704657081185333 L 69.16548856674272 6.983823874233038 L 67.503148153433 7.245139070049106 L 65.86905608085443 7.489094156951602 L 64.26278740356919 7.716169070531488 L 62.68392789571662 7.9268325939172986 L 61.13207366505705 8.121542741573224 L 59.60683078271299 8.300747127417454 L 58.107814927862556 8.464883318004873 L 56.63465104668158 8.614379171478554 L 55.18697302486785 8.749653162956857 L 53.764423373115804 8.8711146969876 L 52.36665292494312 8.979164407667499 L 50.993320546303224 9.074194446994014 L 49.644092856445425 9.156588761987127 L 48.318643959512826 9.226723361090826 L 47.01665518639529 9.284966570338316 L 45.73781484637677 9.331679279739685 L 44.481817988143476 9.367215180328499 L 43.248366169735895 9.391920992280712 L 42.03716723705467 9.406136684499932 L 40.847935110543716 9.410195686042377 L 39.68038957969677 9.404425089737238 L 38.53425610504946 9.389145848340553 L 37.40926562733411 9.364672963543969 L 36.305154383492464 9.331315668144637 L 35.22166372925507 9.289377601667738 L 34.15853996800843 9.239156979718642 L 33.11553418568791 9.180946757329645 L 32.09240209144234 9.115034786552513 L 31.088903863832577 9.04170396853755 L 30.104804002333005 8.961232400327438 L 29.139871183919148 8.873893516584591 L 28.19387812453322 8.77995622646034 L 27.26660144522745 8.679685045804233 L 26.357821542797474 8.573340224903909 L 25.467322464723388 8.461177871936275 L 24.59489178824522 8.343450072303046 L 23.740320503408597 8.22040500401637 L 22.903402899922114 8.09228704929247 L 22.08393645767434 7.959336902504095 L 21.281721740768056 7.821791674636959 L 20.496562294931486 7.6798849943877805 L 19.72826454817551 7.5338471060366246 L 18.97663771456979 7.38390496421998 L 18.241493701017134 7.230282325726094 L 17.522647016909048 7.073199838428163 L 16.819914686552337 6.9128751274672275 L 16.133116164259647 6.749522878791037 L 15.462073252001751 6.583354920151056 L 14.806610019524172 6.4145802996559595 L 14.166552726833132 6.2434053619750145 L 13.54172974896219 6.070033822282291 L 12.931971502931603 5.894666838027522 L 12.337110376818195 5.717503078617181 L 11.756980660856065 5.538738793085582 L 11.191418480490881 5.35856787583236 L 10.640261731314574 5.177181930500211 L 10.103350015809433 4.994770332063627 L 9.580524581834275 4.811520287197091 L 9.071628262786021 4.627616892987557 L 8.576505419374357 4.443243194054727 L 8.095001882949148 4.258580238139714 L 7.626964900322058 4.0738071302207075 L 7.172243080024906 3.8891010852110277 L 6.730686339953216 3.704637479295311 L 6.302145856339841 3.520589899954473 L 5.886474014010432 3.337130194731081 L 5.4835243578709125 3.154428518783014 L 5.093151545580916 2.972653381272771 L 4.715211301367312 2.7919716906374674 L 4.349560370934292 2.6125487987833864 L 3.996056477427878 2.434548544247228 L 3.654558278414136 2.258133294365294 L 3.3249253238311525 2.0834639864897184 L 3.0070180148767776 1.9107001682899565 L 2.7006975637956856 1.7400000371773103 L 2.40582595452846 1.5715204788870025 L 2.122265904190307 1.4054171052542443 L 1.8498808253430283 1.2418442912163172 L 1.58853478902968 1.080955211074432 L 1.3380924885397079 0.9229018740470138 L 1.0984192038726945 0.7678351591444681 L 0.8693807668724602 0.6159048493961947 L 0.6508435270014132 0.46725966545872666 L 0.4426743177269543 0.3220472986329739 L 0.24474042349257275 0.1804144433185897 L 0.056909547246853265 0.04250682893203361 L -0.1209502214960878 -0.09153074868525124 L -0.2889704380898621 -0.2215543963431017 L -0.4472823337082943 -0.34742109303865476 L -0.5960168458405875 -0.4689886599269286 L -0.7353046483541092 -0.5861157307033125 L -0.8652761811470668 -0.6986617223733802 L -0.9860616794147035 -0.80648680638825 L -1.0977912025510008 -0.9094518801222904 L -1.2005946627077932 -1.0074185386715229 L -1.294601853033413 -1.1002490469512836 L -1.3799424756114078 -1.1878063120715794 L -1.4567461691204002 -1.269953855969085 L -1.525142536236359 -1.3465557882762837 L -1.5852611707962723 -1.4174767794057743 L -1.6372316847444495 -1.4825820338313136 L -1.6811837348803635 -1.5417372635447464 L -1.717247049428238 -1.5948086616698802 L -1.7455514544470745 -1.6416628762134096 L -1.7662269001011097 -1.6821669839343727 L -1.7794034868090094 -1.716188464312495 L -1.7852114912908803 -1.7435951735964892 L -1.7837813925324468 -1.764255318914131 L -1.7752438976843905 -1.778037432424803 L -1.759729967916023 -1.7848103454959272 L -1.737370844241667 -1.784443162884891 L -1.7082980733381419 -1.7768052369073786 L -1.6726435333729626 -1.761766141574391 L -1.630539459860337 -1.7391956466782048 L -1.5821184715649892 -1.7089636918093802 L -1.5275135964719695 -1.6709403602858899 L -1.466858297841199 -1.6249958529753812 L -1.4002865003660858 -1.5710004619917228 L -1.3279326164547385 -1.508824544246707 L -1.249931572653722 -1.4383384948378577 L -1.1664188362332837 -1.3594127202528696 L -1.0775304419534422 -1.2719176113706538 L -0.9834030190317478 -1.1757235162399908 L -0.8841738183314831 -1.0707007126148724 L -0.7799807397918315 -0.9567193802266729 L -0.6709623601199084 -0.8336495727724085 L -0.5572579607663286 -0.7013611895985079 L -0.43900755620421705 -0.5597239470571154 L -0.31635192253561684 -0.4086073495162168 L -0.18943262644522463 -0.2478806599986143 L -0.05839205452512175 -0.077412870428752 L 0.07662655700679721 0.10292732853570641 L 0.21547909217107986 0.2932715781113018 L 0.3580205246502075 0.4937518824591578 L 0.5041048867457718 0.7045006402421805 L 0.653585237845725 0.925650676695497 L 0.8063136323743194 1.1573352762340576 L 0.962141087199889 1.3996882156255595 L 1.1209175484720504 1.6528437977538317 L 1.282491857862091 1.9169368860025955 L 1.4467117181764095 2.192102939285782 L 1.6134236583149502 2.478478047755459 L 1.782472997543934 2.7761989692168285 L 1.9537038090516958 3.085403166280848 L 2.1269588827564974 3.4062288442878383 L 2.3020796873317835 3.738814990032509 L 2.478906331417093 4.08330141132744 L 2.6572775239777187 4.439828777437498 L 2.837030533777792 4.808538660422208 L 3.0180011479295885 5.1895735774237295 L 3.2000236294801923 5.583077033938409 L 3.3829306739956806 5.989193568112022 L 3.5665533651017043 6.408068796099528 L 3.7507211289378617 6.839849458532569 L 3.9352616874817095 7.28468346813839 L 4.120001010696555 7.74271995855581 L 4.304763267455762 8.214109334395395 L 4.489370775194786 8.699003322593576 L 4.673643948239672 9.197555025110894 L 4.85740124475948 9.709918973027015 L 5.040459112287948 10.236251182087727 L 5.222631931757487 10.776709209760185 L 5.403731959986445 11.331452213855464 L 5.583569270558872 11.900641012780014 L 5.761951693032302 12.484438147478663 L 5.938684750408445 13.083007945136607 L 6.113571594797115 13.696516584707986 L 6.286412941202276 14.325132164342591 L 6.457006999356018 14.969024770786248 L 6.625149403522435 15.628366550830414 L 6.790633140191389 16.303331784893267 L 6.95324847357783 16.9940969628151 L 7.112782868839446 17.70084086195606 L 7.269020912921167 18.423744627686354 L 7.421744232932248 19.162991856365622 L 7.57073141195589 19.918768680907974 L 7.715757902189186 20.691263859038592 L 7.856595935304831 21.480668864347436 L 7.9930144299225105 22.28717798025356 L 8.124778896072637 23.110988396997264 L 8.251651336529548 23.95230031178199 L 8.373390144886535 24.811317032194765 L 8.489750000238669 25.688245083038296 L 8.600481758333826 26.583294316715104 L 8.705332339045352 27.496678027308057 L 8.804044610014378 28.428613068513286 L 8.896357266300756 29.379319975581232 L 8.982004705876527 30.349023091436806 L 9.060716900785998 31.337950697151193 L 9.132219263789366 32.3463351469491 L 9.19623251029835 33.37441300794488 L 9.252472515401836 34.422425204805606 L 9.300650165771689 35.490617169554625 L 9.34047120622719 36.57923899673474 L 9.371636080727042 37.68854560416394 L 9.393839767545115 38.81879689952399 L 9.406771608376152 39.970257953040644 L 9.410115131102913 41.143199176519246 L 9.403547865944391 42.33789650901843 L 9.38674115469008 43.55463160945677 L 9.35935995271031 44.79369205646159 L 9.321062623417024 46.05537155578558 L 9.271500724832784 47.33997015563409 L 9.210318787907923 48.64779447026216 L 9.137154086207303 49.97915791222023 L 9.05163639656821 51.33438093364721 L 8.953387750309933 52.71379127702949 L 8.842022174553604 54.11772423586835 L 8.717145423186846 55.54652292571923 L 8.578354696983405 57.00053856609541 L 8.425238352360946 58.48013077375043 L 8.257375598232226 59.98566786788484 L 8.07433618037505 61.51752718785177 L 7.87568005271467 63.07609542396812 L 7.660957034878332 64.6617689620701 L 7.429706455346311 66.27495424249055 L 7.181456779484993 67.91606813417107 L 6.9157252217076115 69.58553832466347 L 6.63201734096467 71.28380372681903 L 6.329826618720226 73.01131490300904 L 6.008634018521095 74.76853450776855 L 5.667907526214028 76.55593774980981 L 5.307101669810031 78.374012874405 L 4.925657017935453 80.2232616671989 L 4.522999655746471 82.10419998057468 L 4.098540637115375 84.01735828376428 L 3.651675411825026 85.96328223796749 L 3.1817832264303183 87.9425332978197 L 2.688226497362953 89.95568934063279 L 2.170350154766932 92.00334532492168 L 1.6274809554580116 94.08611397982253 L 1.0589267632982897 96.20462652711211 L 0.46397579516866305 98.35953343764479 L -0.156373521943363 99.45084350901122 L -0.764796151489095 97.27748925920716 L -1.346458500373549 95.14086207274872 L -1.9020824692429026 93.04030155929769 L -2.4323699212479615 90.97516696931842 L -2.9380034539904076 88.94483641971391 L -3.4196471361150116 86.9487061548323 L -3.877947210422444 84.986189840968 L -4.31353276526471 83.0567178925959 L -4.72701637588017 81.15973682868379 L -5.118994717227137 79.29470865752005 L -5.490049149783166 77.46111028859332 L -5.840746279692031 75.65843297014064 L -6.171638494560025 73.88618175106268 L -6.483264476128553 72.14387496597872 L -6.776149690980063 70.43104374226579 L -7.0508068603685405 68.74723152798913 L -7.30773641020483 67.09199363969493 L -7.547426902169064 65.4648968290931 L -7.770355446868839 63.86551886771083 L -7.9769880999111455 62.29344814864998 L -8.16778024170843 60.74828330462674 L -8.3431769417948 59.229632841519205 L -8.50361330838646 57.73711478668733 L -8.649514823880983 56.2703563513719 L -8.781297666953336 54.82899360651422 L -8.899369021871479 53.4126711713734 L -9.00412737562197 52.02104191435153 L -9.095962803405012 50.65376666546741 L -9.17525724302937 49.31051393994791 L -9.242384758710461 47.99095967243389 L -9.297711794748988 46.69478696132363 L -9.341597419543481 45.42168582280109 L -9.374393560366872 44.17135295411734 L -9.396445229315876 42.9434915057171 L -9.40809074082201 41.73781086182391 L -9.40966192109261 40.554026429111126 L -9.401484309833645 39.39185943311098 L -9.38387735458772 38.251036722026974 L -9.357154598005092 37.131290577631326 L -9.321623858349875 36.03235853294587 L -9.277587403529507 34.95398319641894 L -9.225342118921342 33.89591208232349 L -9.165179669257595 32.85789744711566 L -9.09738665481758 31.839696131505292 L -9.022244762164341 30.841069408001104 L -8.940030909651782 29.86178283370353 L -8.851017387918407 28.901606108131304 L -8.755471995573242 27.960312935874626 L -8.653658170270326 27.037680893878516 L -8.545835115359765 26.13349130316967 L -8.432257922293925 25.247529104846663 L -8.31317768896055 24.37958274016404 L -8.188841634105703 23.529444034544902 L -8.059493208003119 22.6969080853669 L -7.925372199519554 21.881773153372322 L -7.786714839718719 21.083840557558965 L -7.643753902140833 20.302914573415144 L -7.49671879988842 19.538802334368206 L -7.345835679643905 18.791313736321683 L -7.191327512738514 18.060261345160065 L -7.033414183387855 17.345460307107906 L -6.872312574203892 16.64672826183196 L -6.70823664908891 15.963885258181577 L -6.541397533612685 15.296753672466231 L -6.372003592969726 14.645158129172884 L -6.200260507609578 14.008925424030643 L -6.02637134662972 13.387884449333448 L -5.850536639016294 12.781866121434632 L -5.6729544428155165 12.190703310332367 L -5.4938204123138945 11.614230771264793 L -5.313327863304391 11.052285078242235 L -5.1316678365102 10.504704559440313 L -4.94902915923711 9.97132923438587 L -4.765598505321613 9.452000752867903 L -4.581560453439689 8.946562335508538 L -4.397097543838463 8.454858715931174 L -4.212390333551376 7.976736084467177 L -4.027617450153976 7.512042033341324 L -3.842955644116781 7.06062550328204 L -3.6585798398087057 6.622336731501981 L -3.4746631852024734 6.197027200996807 L -3.2913771003325536 5.7845495911130556 L -3.1088913245535252 5.384757729336819 L -2.9273739626452056 4.997506544255856 L -2.746991529809854 4.622652019651689 L -2.5679089956043555 4.260051149676926 L -2.390289826849994 3.9095618950774025 L -2.21429602955925 3.5710431404167693 L -2.0400881899202403 3.244354652266658 L -1.8678255143753617 2.9293570383223297 L -1.6976658688318054 2.6259117074084557 L -1.5297658170392197 2.3338808303393037 L -1.3642806581687807 2.053127301598238 L -1.2013644636274066 1.7835147018038384 L -1.0411701131396427 1.5249072609301209 L -0.8838493301280508 1.2771698222486805 L -0.7295527164237186 1.0401678069634244 L -0.5784297863356187 0.8137671795070673 L -0.43062900010851024 0.5978344134712756 L -0.2862977967967808 0.3922364581417028 L -0.14558262658226084 0.1968407056109669 L -0.008628982562569831 0.011514958443228807 L 0.12441856796444029 -0.16387260213669919 L 0.2534163526939892 -0.32945344755388106 L 0.3782215639614819 -0.4853587327194191 L 0.49869222881813613 -0.6317193264151015 L 0.6146871795125648 -0.7686658412515115 L 0.7260660243540187 -0.8963286632220289 L 0.8326891189355052 -1.014837980875825 L 0.934417537693669 -1.1243238141318486 L 1.0311130457839397 -1.224916042755659 L 1.1226380712497672 -1.3167444345214179 L 1.208855677463994 -1.3999386730787862 L 1.289629535821966 -1.4746283855463531 L 1.3648238986666499 -1.5409431698527598 L 1.434303572423417 -1.599012621843407 L 1.4979338909276478 -1.6489663621763029 L 1.5555806889221913 -1.6909340630227305 L 1.6071102757073987 -1.7250454745953903 L 1.6523894089237032 -1.7514304515219052 L 1.6912852684472313 -1.7702189790828342 L 1.723665430380187 -1.7815411993338301 L 1.749397841116334 -1.78552743713022 L 1.7683507914632912 -1.7823082260729777 L 1.7803928908028226 -1.772014334395017 L 1.7853930412705168 -1.7547767908063463 L 1.7832204119359503 -1.7307269103164202 L 1.7737444129650086 -1.6999963200526125 L 1.756834669745821 -1.6627169850935388 L 1.7323609969591942 -1.6190212343352783 L 1.700193372575555 -1.5690417864099544 L 1.6602019117591027 -1.5129117756750574 L 1.6122568406603506 -1.4507647782920827 L 1.5562284700780893 -1.382734838413839 L 1.4919871689723365 -1.3089564944999594 L 1.419403337807907 -1.2295648057788497 L 1.3383473817097382 -1.1446953788762855 L 1.248689683410447 -1.054484394630272 L 1.1503005759697587 -0.9590686351116702 L 1.0430503152462336 -0.8585855108713432 L 0.9268090521004098 -0.7531730884336696 L 0.8014468043086538 -0.6429701180573986 L 0.6668334281672301 -0.5281160617851199 L 0.5228385897642909 -0.40875112180226836 L 0.36933173589904555 -0.2850162691280218 L 0.20618206462479094 -0.15705327265966673 L 0.03325849539444192 -0.025004728593842174 L -0.1495703612158863 0.11098590975328904 L -0.3424362342273781 0.2507743017020445 L -0.5454712234484802 0.39421518851863624 L -0.7588078311581299 0.5411623622523081 L -0.9825789943076799 0.6914686340753846 L -1.2169181172677739 0.8449858021005241 L -1.4619591051460432 1.0015646186482101 L -1.7178363977030884 1.1610547569374816 L -1.9846850038951374 1.3233047771722184 L -2.262640537070837 1.4881620919935301 L -2.551839250853476 1.6554729312699266 L -2.8524180757370488 1.825082306193437 L -3.164514656428736 1.9968339726516362 L -3.4882673899698062 2.170570393842901 L -3.823815464667021 2.346132702101407 L -4.171298899870401 2.52336065989833 L -4.530858586631382 2.7020926199835458 L -4.902636329277868 2.882165484631173 L -5.2867748879445955 3.063414663951903 L -5.683418022096625 3.2456740332328025 L -6.0927105350871 3.4287758892646565 L -6.514798319789577 3.61255090561486 L -6.949828405349521 3.796828086803618 L -7.397949005097544 3.9814347213379087 L -7.859309565672753 4.166196333558357 L -8.33406081740091 4.350936634249681 L -8.822354825980582 4.535477469967109 L -9.324345045524723 4.719638771025519 L -9.840186373014326 4.903238498099732 L -10.370035204216123 5.08609258737922 L -10.914049491124999 5.268014894221508 L -11.47238880098724 5.448817135243068 L -12.04521437696912 5.628308828787276 L -12.632689200533498 5.806297233704278 L -13.234978055591519 5.982587286376379 L -13.852247594499119 6.156981535919442 L -14.484666405970223 6.329280077488004 L -15.132405084981706 6.499280483609063 L -15.79563630474852 6.6667777334661125 L -16.474534890850066 6.831564140052329 L -17.169277897593183 6.993429275107832 L -17.880044686698824 7.1521598917526426 L -18.607017008406196 7.30753984472355 L -19.350379085088143 7.459350008118527 L -20.11031769748047 7.607368190549117 L -20.887022273626364 7.751369047595826 L -21.680684980647648 7.891123991458066 L -22.491500819454828 8.026401097684904 L -23.31966772251475 8.156965008867761 L -24.16538665480023 8.28257683517139 L -25.0288617180505 8.40299405157354 L -25.910300258477633 8.517970391678176 L -26.80991297806156 8.627255737960976 L -27.72791404957833 8.730596008298864 L -28.664521235520454 8.827733038629862 L -29.61995601106613 8.918404461580572 L -30.594443691271422 9.002343580893106 L -31.588213562657288 9.079279241473404 L -32.601499019381926 9.14893569487644 L -33.634537704188354 9.211032460033323 L -34.687571654333155 9.265284179017312 L -35.76084745270858 9.311400467635343 L -36.854616384381906 9.34908576062155 L -37.969134598785686 9.378039151198298 L -39.10466327780563 9.397954224759003 L -40.26146881002303 9.408518886414607 L -41.43982297138422 9.409415182132934 L -42.640003112578334 9.400319113186713 L -43.86229235342557 9.38090044361136 L -45.106979784585846 9.350822500359193 L -46.37436067692195 9.309741965820045 L -47.66473669885759 9.257308662361636 L -48.978416142102596 9.193165328525588 L -50.31571415612069 9.116947386494896 L -51.67695299174976 9.028282700430054 L -53.06246225439528 8.926791325248448 L -54.4725791672462 8.812085245399931 L -55.90764884498368 8.683768103167235 L -57.36802457847977 8.541434915994621 L -58.85406813100791 8.384671782321222 L -60.36615004652106 8.213055575366953 L -61.904649970573686 8.026153624288849 L -63.46995698450925 7.823523382092661 L -65.062469953555 7.604712079651599 L -66.68259788951586 7.369256365146067 L -68.33076032878503 7.116681928201349 L -70.00738772644236 6.846503107957139 L -71.71292186724439 6.558222484260414 L -73.44781629436535 6.251330451125678 L -75.21253675679267 5.925304771556858 L -77.0075616763369 5.579610112772337 L -78.83338263526926 5.213697560817845 L -80.6905048856662 4.827004113491102 L -82.57944788159507 4.41895215043903 L -84.50074583535708 3.9889488792170518 L -86.45494829906289 3.5363857560296634 L -88.44262077290878 3.0606378797890397 L -90.46434534159158 2.561063358048368 L -92.52072134040561 2.0370026432723494 L -94.61236605264486 1.4877778378152213 L -96.73991544005372 0.912691965869226 L -98.90402490816511 0.3110282105392648 L -98.90402490816541 -0.31102821053919766 L -96.73991544005398 -0.9126919658691615 L -94.61236605264497 -1.4877778378151998 L -92.52072134040581 -2.03700264327229 L -90.46434534159175 -2.5610633580483104 L -88.44262077290901 -3.0606378797889873 L -86.45494829906309 -3.5363857560296124 L -84.50074583535728 -3.988948879217003 L -82.57944788159523 -4.418952150438981 L -80.69050488566629 -4.827004113491088 L -78.83338263526943 -5.213697560817802 L -77.00756167633696 -5.579610112772321 L -75.21253675679289 -5.925304771556823 L -73.44781629436541 -6.251330451125664 L -71.71292186724455 -6.55822248426038 L -70.00738772644246 -6.846503107957131 L -68.33076032878508 -7.116681928201339 L -66.68259788951592 -7.369256365146057 L -65.06246995355517 -7.604712079651572 L -63.469956984509295 -7.823523382092651 L -61.90464997057383 -8.026153624288826 L -60.366150046521014 -8.213055575366957 L -58.85406813100811 -8.384671782321208 L -57.36802457847976 -8.541434915994632 L -55.90764884498389 -8.683768103167228 L -54.47257916724626 -8.812085245399928 L -53.06246225439544 -8.92679132524844 L -51.676952991749815 -9.028282700430053 L -50.31571415612084 -9.116947386494886 L -48.97841614210266 -9.193165328525588 L -47.66473669885774 -9.257308662361652 L -46.374360676922 -9.309741965820045 L -45.10697978458601 -9.350822500359193 L -43.86229235342559 -9.380900443611349 L -42.64000311257841 -9.4003191131867 L -41.4398229713842 -9.409415182132939 L -40.261468810023146 -9.408518886414603 L -39.10466327780558 -9.397954224758998 L -37.969134598785836 -9.378039151198308 L -36.85461638438197 -9.349085760621556 L -35.760847452708745 -9.31140046763536 L -34.68757165433316 -9.265284179017307 L -33.634537704188375 -9.211032460033321 L -32.60149901938198 -9.14893569487645 L -31.58821356265733 -9.079279241473408 L -30.594443691271437 -9.002343580893099 L -29.619956011066293 -8.918404461580598 L -28.664521235520496 -8.827733038629866 L -27.72791404957845 -8.730596008298885 L -26.80991297806151 -8.627255737960962 L -25.910300258477704 -8.517970391678187 L -25.02886171805048 -8.40299405157354 L -24.165386654800358 -8.282576835171412 L -23.319667722514815 -8.156965008867779 L -22.491500819454934 -8.026401097684925 L -21.68068498064767 -7.891123991458066 L -20.88702227362638 -7.751369047595823 L -20.110317697480518 -7.607368190549131 L -19.35037908508823 -7.459350008118545 L -18.60701700840624 -7.307539844723564 L -17.880044686698945 -7.152159891752678 L -17.16927789759322 -6.993429275107854 L -16.474534890850194 -6.831564140052375 L -15.795636304748506 -6.666777733466109 L -15.13240508498177 -6.499280483609077 L -14.484666405970223 -6.329280077488008 L -13.852247594499197 -6.1569815359194635 L -13.234978055591476 -5.982587286376354 L -12.63268920053352 -5.806297233704274 L -12.045214376969142 -5.628308828787283 L -11.47238880098729 -5.44881713524309 L -10.914049491125006 -5.2680148942215155 L -10.370035204216151 -5.08609258737923 L -9.840186373014298 -4.903238498099711 L -9.324345045524751 -4.719638771025526 L -8.822354825980511 -4.5354774699670735 L -8.334060817400939 -4.350936634249692 L -7.85930956567271 -4.166196333558332 L -7.3979490050976295 -3.9814347213379513 L -6.949828405349528 -3.7968280868036253 L -6.514798319789662 -3.6125509056148957 L -6.0927105350871145 -3.4287758892646707 L -5.68341802209666 -3.2456740332328238 L -5.286774887944581 -3.063414663951903 L -4.902636329277847 -2.882165484631159 L -4.530858586631403 -2.702092619983567 L -4.171298899870415 -2.52336065989833 L -3.823815464667021 -2.3461327021014 L -3.4882673899698275 -2.1705703938429153 L -3.1645146564287643 -1.9968339726516575 L -2.8524180757370488 -1.8250823061934511 L -2.551839250853476 -1.6554729312699408 L -2.2626405370708653 -1.4881620919935585 L -1.984685003895109 -1.32330477717219 L -1.7178363977031523 -1.1610547569375171 L -1.4619591051460645 -1.0015646186482243 L -1.216918117267781 -0.8449858021005312 L -0.982578994307687 -0.6914686340753917 L -0.7588078311581157 -0.541162362252301 L -0.5454712234485086 -0.39421518851866466 L -0.34243623422740654 -0.2507743017020658 L -0.1495703612159076 -0.11098590975331746 L 0.03325849539443482 0.025004728593827963 L 0.20618206462477673 0.15705327265965963 L 0.36933173589904555 0.2850162691280218 L 0.5228385897643122 0.40875112180227546 L 0.6668334281672017 0.5281160617850986 L 0.8014468043086751 0.6429701180574128 L 0.9268090521003884 0.7531730884336412 L 1.0430503152462265 0.858585510871336 L 1.150300575969716 0.9590686351116346 L 1.248689683410447 1.0544843946302649 L 1.3383473817097098 1.1446953788762642 L 1.4194033378078856 1.2295648057788355 L 1.4919871689723365 1.3089564944999665 L 1.5562284700780467 1.3827348384138034 L 1.6122568406603293 1.4507647782920614 L 1.6602019117591595 1.5129117756751072 L 1.7001933725755904 1.5690417864099828 L 1.73236099695918 1.6190212343352641 L 1.7568346697457713 1.6627169850934962 L 1.7737444129650441 1.699996320052648 L 1.7832204119359503 1.730726910316406 L 1.7853930412705097 1.754776790806325 L 1.780392890802844 1.772014334395024 L 1.7683507914632983 1.7823082260729706 L 1.7493978411163482 1.7855274371302272 L 1.72366543038018 1.781541199333823 L 1.691285268447217 1.77021897908282 L 1.6523894089236748 1.7514304515218768 L 1.6071102757073845 1.725045474595369 L 1.5555806889221842 1.6909340630227234 L 1.4979338909276905 1.6489663621763455 L 1.4343035724234383 1.5990126218434497 L 1.3648238986666072 1.540943169852703 L 1.2896295358220087 1.4746283855464029 L 1.2088556774639798 1.399938673078779 L 1.1226380712497885 1.3167444345214392 L 1.0311130457839042 1.2249160427556163 L 0.9344175376935908 1.124323814131742 L 0.832689118935491 1.014837980875818 L 0.72606602435404 0.8963286632220502 L 0.6146871795125861 0.7686658412515399 L 0.49869222881817166 0.63171932641513 L 0.3782215639615103 0.48535873271947594 L 0.25341635269401763 0.3294534475539166 L 0.12441856796444029 0.16387260213669208 L -0.00862898256254141 -0.01151495844319328 L -0.14558262658226795 -0.1968407056109669 L -0.2862977967967524 -0.3922364581416389 L -0.43062900010853866 -0.5978344134713254 L -0.5784297863356187 -0.8137671795070602 L -0.7295527164237114 -1.0401678069634102 L -0.8838493301280437 -1.2771698222486663 L -1.0411701131396498 -1.524907260930135 L -1.2013644636274492 -1.7835147018038953 L -1.3642806581687807 -2.053127301598238 L -1.5297658170391912 -2.333880830339254 L -1.697665868831784 -2.6259117074084273 L -1.8678255143752907 -2.9293570383222303 L -2.040088189920219 -3.2443546522666225 L -2.2142960295592147 -3.5710431404167053 L -2.3902898268499726 -3.90956189507736 L -2.567908995604377 -4.260051149676968 L -2.746991529809833 -4.622652019651646 L -2.927373962645227 -4.9975065442558915 L -3.1088913245535252 -5.384757729336798 L -3.2913771003325394 -5.78454959111302 L -3.4746631852024663 -6.197027200996793 L -3.6585798398086773 -6.622336731501932 L -3.842955644116806 -7.060625503282097 L -4.027617450153961 -7.512042033341302 L -4.212390333551372 -7.976736084467156 L -4.39709754383847 -8.454858715931167 L -4.581560453439685 -8.946562335508531 L -4.765598505321606 -9.452000752867896 L -4.949029159237117 -9.971329234385891 L -5.131667836510196 -10.504704559440299 L -5.313327863304394 -11.05228507824225 L -5.493820412313884 -11.614230771264765 L -5.6729544428155165 -12.190703310332353 L -5.85053663901628 -12.781866121434582 L -6.026371346629688 -13.387884449333349 L -6.20026050760956 -14.008925424030558 L -6.372003592969712 -14.645158129172827 L -6.54139753361267 -15.296753672466146 L -6.708236649088892 -15.96388525818152 L -6.87231257420386 -16.646728261831832 L -7.0334141833878405 -17.345460307107828 L -7.191327512738496 -18.060261345160008 L -7.345835679643891 -18.791313736321605 L -7.496718799888409 -19.538802334368178 L -7.643753902140805 -20.30291457341503 L -7.786714839718709 -21.08384055755893 L -7.9253721995195505 -21.88177315337228 L -8.059493208003108 -22.69690808536683 L -8.188841634105696 -23.529444034544902 L -8.313177688960543 -24.379582740163983 L -8.432257922293928 -25.247529104846663 L -8.545835115359719 -26.13349130316947 L -8.653658170270326 -27.037680893878516 L -8.755471995573231 -27.960312935874562 L -8.851017387918413 -28.90160610813129 L -8.940030909651767 -29.8617828337034 L -9.022244762164345 -30.841069408001097 L -9.09738665481759 -31.839696131505264 L -9.165179669257602 -32.85789744711565 L -9.225342118921331 -33.89591208232336 L -9.277587403529497 -34.95398319641887 L -9.321623858349858 -36.032358532945665 L -9.357154598005085 -37.13129057763122 L -9.383877354587723 -38.25103672202682 L -9.401484309833636 -39.39185943311088 L -9.409661921092606 -40.55402642911109 L -9.408090740822013 -41.73781086182385 L -9.396445229315889 -42.94349150571693 L -9.374393560366853 -44.17135295411709 L -9.341597419543493 -45.42168582280109 L -9.297711794748997 -46.69478696132352 L -9.242384758710463 -47.990959672433824 L -9.175257243029382 -49.310513939947796 L -9.095962803405019 -50.65376666546735 L -9.004127375621964 -52.02104191435148 L -8.899369021871486 -53.4126711713733 L -8.781297666953357 -54.82899360651403 L -8.649514823880999 -56.27035635137184 L -8.503613308386461 -57.73711478668733 L -8.343176941794813 -59.229632841519084 L -8.167780241708453 -60.74828330462649 L -7.976988099911139 -62.29344814865003 L -7.770355446868848 -63.865518867710776 L -7.547426902169086 -65.4648968290929 L -7.307736410204873 -67.09199363969462 L -7.050806860368536 -68.74723152798923 L -6.776149690980079 -70.43104374226577 L -6.4832644761286 -72.14387496597851 L -6.171638494560091 -73.88618175106228 L -5.840746279692032 -75.65843297014064 L -5.490049149783189 -77.46111028859312 L -5.11899471722719 -79.29470865751975 L -4.727016375880203 -81.15973682868369 L -4.3135327652647115 -83.0567178925959 L -3.8779472104224904 -84.98618984096773 L -3.419647136115031 -86.94870615483225 L -2.938003453990461 -88.94483641971367 L -2.4323699212479815 -90.97516696931834 L -1.9020824692429623 -93.04030155929749 L -1.3464585003735707 -95.14086207274863 L -0.76479615148916 -97.27748925920692 L -0.1563735219434091 -99.45084350901098 L 0.4639757951686608 -98.35953343764479 L 1.0589267632982464 -96.20462652711225 L 1.6274809554579313 -94.08611397982283 L 2.1703501547668913 -92.00334532492178 L 2.6882264973629524 -89.95568934063282 L 3.181783226430284 -87.94253329781989 L 3.651675411824944 -85.96328223796786 L 4.09854063711539 -84.01735828376424 L 4.522999655746453 -82.10419998057469 L 4.92565701793541 -80.2232616671991 L 5.307101669809964 -78.37401287440534 L 5.667907526214039 -76.55593774980977 L 6.008634018521069 -74.76853450776865 L 6.329826618720178 -73.01131490300926 L 6.632017340964651 -71.28380372681919 L 6.915725221707611 -69.58553832466347 L 7.1814567794849715 -67.91606813417118 L 7.429706455346276 -66.27495424249076 L 7.660957034878347 -64.66176896206998 L 7.875680052714656 -63.07609542396812 L 8.074336180375035 -61.51752718785198 L 8.257375598232226 -59.98566786788494 L 8.42523835236095 -58.480130773750375 L 8.578354696983393 -57.00053856609542 L 8.717145423186832 -55.54652292571937 L 8.842022174553597 -54.117724235868394 L 8.95338775030994 -52.71379127702954 L 9.051636396568192 -51.334380933647275 L 9.137154086207303 -49.97915791222023 L 9.210318787907912 -48.64779447026223 L 9.271500724832784 -47.33997015563409 L 9.321062623417028 -46.05537155578569 L 9.359359952710317 -44.79369205646164 L 9.386741154690087 -43.55463160945693 L 9.403547865944384 -42.33789650901844 L 9.410115131102904 -41.14319917651915 L 9.40677160837616 -39.970257953040694 L 9.393839767545115 -38.8187968995241 L 9.37163608072705 -37.68854560416386 L 9.34047120622719 -36.57923899673474 L 9.300650165771673 -35.49061716955463 L 9.252472515401852 -34.422425204805776 L 9.196232510298344 -33.37441300794481 L 9.132219263789368 -32.34633514694911 L 9.060716900785971 -31.337950697151165 L 8.982004705876545 -30.349023091436983 L 8.896357266300747 -29.379319975581176 L 8.804044610014394 -28.428613068513364 L 8.705332339045379 -27.496678027308207 L 8.600481758333808 -26.583294316715076 L 8.489750000238676 -25.688245083038296 L 8.373390144886542 -24.811317032194786 L 8.251651336529555 -23.952300311782068 L 8.124778896072641 -23.110988396997314 L 7.9930144299225105 -22.28717798025356 L 7.856595935304828 -21.480668864347457 L 7.715757902189189 -20.691263859038585 L 7.570731411955897 -19.91876868090803 L 7.421744232932234 -19.16299185636558 L 7.269020912921178 -18.423744627686396 L 7.1127828688394565 -17.70084086195613 L 6.953248473577869 -16.99409696281525 L 6.790633140191407 -16.303331784893338 L 6.625149403522435 -15.628366550830414 L 6.457006999356043 -14.969024770786326 L 6.2864129412023 -14.32513216434269 L 6.113571594797097 -13.696516584707936 L 5.938684750408459 -13.083007945136657 L 5.761951693032316 -12.484438147478713 L 5.5835692705589 -11.90064101278012 L 5.4037319599864695 -11.33145221385552 L 5.2226319317574905 -10.776709209760199 L 5.0404591122879765 -10.236251182087784 L 4.857401244759497 -9.70991897302708 L 4.673643948239665 -9.197555025110887 L 4.4893707751947645 -8.699003322593533 L 4.304763267455765 -8.21410933439541 L 4.1200010106965586 -7.742719958555838 L 3.9352616874817237 -7.284683468138432 L 3.750721128937897 -6.839849458532633 L 3.56655336510169 -6.408068796099499 L 3.382930673995702 -5.989193568112064 L 3.2000236294801923 -5.583077033938409 L 3.01800114792961 -5.189573577423765 L 2.837030533777785 -4.808538660422194 L 2.657277523977733 -4.439828777437526 L 2.478906331417093 -4.08330141132744 L 2.3020796873317693 -3.7388149900324805 L 2.1269588827564974 -3.4062288442878454 L 1.953703809051774 -3.085403166280976 L 1.7824729975439482 -2.776198969216857 L 1.6134236583149644 -2.4784780477554733 L 1.446711718176438 -2.1921029392858244 L 1.2824918578621194 -1.9169368860026594 L 1.1209175484720575 -1.652843797753853 L 0.9621410871998819 -1.3996882156255595 L 0.8063136323743478 -1.1573352762340932 L 0.6535852378457321 -0.9256506766955184 L 0.504104886745786 -0.7045006402421947 L 0.3580205246501791 -0.49375188245912227 L 0.2154790921711438 -0.29327157811137994 L 0.07662655700680432 -0.10292732853572772 L -0.05839205452512175 0.077412870428752 L -0.18943262644526015 0.24788065999864983 L -0.3163519225355742 0.40860734951615285 L -0.4390075562041673 0.5597239470570514 L -0.5572579607662931 0.7013611895984582 L -0.6709623601199084 0.8336495727724085 L -0.7799807397918457 0.9567193802266871 L -0.8841738183314476 1.070700712614837 L -0.9834030190317193 1.1757235162399695 L -1.0775304419534635 1.2719176113706823 L -1.1664188362332766 1.3594127202528767 L -1.2499315726536935 1.4383384948378293 L -1.3279326164547385 1.5088245442467212 L -1.4002865003660858 1.5710004619917228 L -1.4668582978412417 1.6249958529754238 L -1.527513596472005 1.6709403602859325 L -1.5821184715650176 1.7089636918094016 L -1.6305394598603158 1.7391956466781835 L -1.6726435333729768 1.7617661415744053 L -1.708298073338149 1.7768052369073786 L -1.7373708442416316 1.7844431628848625 L -1.7597299679160585 1.7848103454959556 L -1.775243897684426 1.7780374324248456 L -1.7837813925324184 1.7642553189141097 L -1.7852114912908803 1.743595173596482 L -1.7794034868090023 1.7161884643124878 L -1.766226900101124 1.682166983934387 L -1.7455514544470816 1.6416628762134096 L -1.7172470494282166 1.594808661669866 L -1.6811837348803564 1.5417372635447535 L -1.6372316847444424 1.4825820338313136 L -1.585261170796258 1.4174767794057601 L -1.5251425362363307 1.3465557882762624 L -1.4567461691204073 1.2699538559690922 L -1.3799424756113936 1.1878063120715723 L -1.2946018530334555 1.1002490469513262 L -1.2005946627078146 1.007418538671537 L -1.097791202551015 0.9094518801223046 L -0.9860616794147106 0.8064868063882571 L -0.8652761811470882 0.6986617223734015 L -0.7353046483541164 0.5861157307033054 L -0.5960168458405875 0.4689886599269286 L -0.4472823337083085 0.34742109303865476 L -0.28897043808989764 0.22155439634313723 L -0.1209502214960807 0.09153074868523703 L 0.056909547246867476 -0.042506828932047824 L 0.24474042349257275 -0.1804144433185897 L 0.44267431772698274 -0.3220472986330094 L 0.6508435270014488 -0.467259665458748 L 0.8693807668724602 -0.6159048493961876 L 1.0984192038726306 -0.7678351591444326 L 1.3380924885397505 -0.9229018740470494 L 1.5885347890296586 -1.0809552110744107 L 1.8498808253429857 -1.241844291216296 L 2.1222659041902503 -1.405417105254216 L 2.4058259545285026 -1.571520478887031 L 2.70069756379565 -1.740000037177289 L 3.0070180148767633 -1.9107001682899565 L 3.324925323831124 -2.083463986489697 L 3.654558278414136 -2.258133294365301 L 3.9960564774278 -2.4345485442471784 L 4.349560370934171 -2.6125487987833225 L 4.71521130136729 -2.7919716906374674 L 5.093151545580973 -2.9726533812727993 L 5.483524357870863 -3.154428518782993 L 5.886474014010432 -3.337130194731081 L 6.302145856339784 -3.5205898999544445 L 6.730686339953216 -3.704637479295311 L 7.17224308002487 -3.8891010852110135 L 7.626964900321944 -4.073807130220651 L 8.095001882949113 -4.2585802381397 L 8.576505419374293 -4.443243194054695 L 9.071628262785985 -4.627616892987543 L 9.580524581834297 -4.811520287197109 L 10.103350015809362 -4.994770332063602 L 10.640261731314482 -5.1771819305001685 L 11.191418480490924 -5.358567875832385 L 11.756980660856094 -5.5387387930856065 L 12.33711037681806 -5.717503078617131 L 12.931971502931574 -5.894666838027501 L 13.541729748962176 -6.070033822282294 L 14.166552726833082 -6.243405361975007 L 14.806610019524058 -6.414580299655928 L 15.462073252001801 -6.58335492015107 L 16.133116164259597 -6.749522878791019 L 16.819914686552252 -6.912875127467213 L 17.52264701690904 -7.073199838428167 L 18.24149370101717 -7.230282325726105 L 18.97663771456974 -7.3839049642199726 L 19.72826454817543 -7.53384710603661 L 20.496562294931465 -7.679884994387777 L 21.281721740768084 -7.821791674636966 L 22.083936457674312 -7.959336902504102 L 22.90340289992207 -8.092287049292459 L 23.740320503408597 -8.220405004016381 L 24.594891788245143 -8.343450072303025 L 25.46732246472333 -8.461177871936275 L 26.35782154279746 -8.573340224903912 L 27.266601445227288 -8.6796850458042 L 28.193878124533178 -8.779956226460337 L 29.139871183919148 -8.873893516584591 L 30.10480400233294 -8.961232400327432 L 31.088903863832464 -9.041703968537547 L 32.0924020914424 -9.115034786552519 L 33.11553418568791 -9.18094675732965 L 34.15853996800836 -9.239156979718643 L 35.22166372925489 -9.289377601667733 L 36.30515438349251 -9.331315668144638 L 37.409265627334015 -9.364672963543953 L 38.534256105049344 -9.389145848340556 L 39.68038957969659 -9.404425089737245 L 40.84793511054368 -9.410195686042368 L 42.037167237054604 -9.40613668449993 L 43.24836616973568 -9.391920992280703 L 44.48181798814342 -9.367215180328508 L 45.73781484637681 -9.331679279739696 L 47.016655186395234 -9.284966570338327 L 48.318643959512706 -9.226723361090851 L 49.644092856445326 -9.156588761987134 L 50.99332054630321 -9.074194446994017 L 52.36665292494296 -8.979164407667504 L 53.76442337311576 -8.871114696987606 L 55.186973024867726 -8.749653162956875 L 56.63465104668153 -8.614379171478564 L 58.10781492786266 -8.464883318004883 L 59.606830782712905 -8.300747127417463 L 61.132073665056836 -8.121542741573245 L 62.68392789571648 -7.926832593917309 L 64.26278740356919 -7.716169070531491 L 65.86905608085436 -7.489094156951628 L 67.50314815343265 -7.245139070049137 L 69.16548856674288 -6.98382387423303 L 70.8565133882394 -6.70465708118534 L 72.57667022715154 -6.407135232297282 L 74.32641867243285 -6.090742462927019 L 76.10623074984176 -5.754950047546271 L 77.9165913991329 -5.399215924790213 L 79.75799897241237 -5.022984201364123 L 81.63096575475448 -4.625684633701358 L 83.5360185082613 -4.206732086197025 L 85.47369904080489 -3.7655259647735075 L 87.4445648007808 -3.301449624454627 L 89.44918949926617 -2.813869749548172 L 91.48816376107689 -2.3021357049456954 L 93.56209580630788 -1.7655788569569386 L 95.67161216403694 -1.2035118619963867 L 97.81735841997869 -0.6152279213334114 L 100.0 0.0" fill="none" stroke="black" /></svg>