<?xml version="1.0" encoding="utf-8" ?>
<svg baseProfile="full" height="1000" version="1.1" viewBox="-500 -500 1000 1000" width="1000" xmlns="http://www.w3.org/2000/svg" xmlns:ev="http://www.w3.org/2001/xml-events" xmlns:xlink="http://www.w3.org/1999/xlink"><defs /><path d="M 100.0 0.0 L 100.62106890669386 0.6328620202563254 L 101.22651044619128 1.2733903329820302 L 101.81651504194424 1.9213452274438014 L 102.39126764996095 2.5764927772209845 L 102.95094798264667 3.238604618301754 L 103.49573072239197 3.907457737419478 L 104.02578572545198 4.58283427008522 L 104.54127821662827 5.264521307805072 L 105.04236897523357 5.9523107140015075 L 105.5292145127921 6.645998948186512 L 106.0019672429006 7.345386897960813 L 106.46077564365117 8.050279718438409 L 106.90578441299306 8.760486678718866 L 107.3371346173893 9.475821015051517 L 107.75496383410403 10.196099790356136 L 108.15940628743579 10.921143759783583 L 108.55059297919651 11.650777242017826 L 108.92865181371769 12.384827996037478 L 109.29370771764901 13.123127103070432 L 109.64588275480261 13.86550885349026 L 109.9852962362794 14.6118106384164 L 110.31206482610229 15.361872845793327 L 110.62630264256994 16.115538760736097 L 110.92812135553103 16.872654469940848 L 111.21763027977047 17.633068769969746 L 111.49493646468731 18.396633079229957 L 111.76014478043591 19.163201353475593 L 112.01335800069162 19.93263000467058 L 112.25467688219514 20.70477782305882 L 112.48420024122109 21.479505902295966 L 112.70202502710866 22.25667756750446 L 112.90824639298614 23.03615830612068 L 113.10295776381295 23.81781570140947 L 113.28625090185876 24.601519368527956 L 113.45821596973045 25.38714089302586 L 113.61894159105535 26.174553771675793 L 113.76851490892113 26.963633355531663 L 113.90702164216933 27.754256795118657 L 114.03454613963463 28.546302987662923 L 114.151171432417 29.339652526273312 L 114.25697928426976 30.134187650991986 L 114.35205024018373 30.92979220163459 L 114.43646367324169 31.726351572344267 L 114.51029782981637 32.52375266778775 L 114.57362987317933 33.32188386092456 L 114.62653592558739 34.12063495228426 L 114.66909110890795 34.91989713068904 L 114.7013695838431 35.71956293536206 L 114.7234445878096 36.519526219365076 L 114.73538847152828 37.31968211431061 L 114.73727273437515 38.119926996297096 L 114.72916805854378 38.9201584530176 L 114.71114434206547 39.720275251994536 L 114.68327073073307 40.52017730989526 L 114.6456156489716 41.319765662885644 L 114.59824682969634 42.118942437979655 L 114.54123134319859 42.91761082534598 L 114.47463562509668 43.71567505153362 L 114.39852550338813 44.51304035358003 L 114.31296622463789 45.30961295396753 L 114.21802247933584 46.10530003639438 L 114.1137584264554 46.90000972232893 L 114.00023771724321 47.693651048316255 L 113.87752351826984 48.48613394400793 L 113.7456785337688 49.27736921088711 L 113.60476502729159 50.06726850166186 L 113.45484484270347 50.85574430030096 L 113.29597942454541 51.642709902687315 L 113.12822983778621 52.42807939786549 L 112.9516567869866 53.21176764986008 L 112.76632063489814 53.99369028004327 L 112.5722814205177 54.77376365003049 L 112.36959887661781 55.551904845083754 L 112.1583324467718 56.32803165800311 L 111.93854130189337 57.102062573487785 L 111.71028435630814 57.873916752948624 L 111.47362028337434 58.64351401975457 L 111.22860753066945 59.41077484489638 L 110.97530433475946 60.175620333051796 L 110.71376873556514 60.93797220903605 L 110.44405859034137 61.697752804623164 L 110.16623158728326 62.454885045723536 L 109.8803452587731 63.209292439903756 L 109.58645699428182 63.960899064235235 L 109.28462405293749 64.70962955345871 L 108.9749035757738 65.45540908845209 L 108.65735259767041 66.19816338498951 L 108.33202805899674 66.93781868277972 L 107.99898681697061 67.67430173477268 L 107.65828565674312 68.40753979672347 L 107.30998130221928 69.13746061700233 L 106.95413042662611 69.8639924266415 L 106.59078966283656 70.58706392960781 L 106.22001561346038 71.30660429329217 L 105.84186486071036 72.02254313920635 L 105.45639397605305 72.73481053387758 L 105.06365952965356 73.44333697993271 L 104.66371809962203 74.14805340736304 L 104.25662628107064 74.84889116496123 L 103.84244069498936 75.54578201192267 L 103.42121799694803 76.23865810960302 L 102.99301488563258 76.9274520134243 L 102.55788811122304 77.61209666492202 L 102.11589448362044 78.29252538392595 L 101.66709088053 78.96867186086754 L 101.2115342554072 79.6404701492068 L 100.74928164527428 80.30785465797166 L 100.2803901784128 80.97076014440354 L 99.80491708194013 81.62912170670225 L 99.32291968927501 82.28287477686361 L 98.83445544749941 82.93195511360406 L 98.33958192462246 83.57629879536532 L 97.83835681675282 84.21584221339359 L 97.33083795518475 84.85052206488683 L 96.81708331340528 85.48027534620482 L 96.29715101402644 86.1050393461352 L 95.77109933564986 86.72475163921072 L 95.23898671966856 87.33935007907152 L 94.70087177701177 87.94877279186672 L 94.15681329483843 88.55295816968994 L 93.60687024318491 89.15184486404348 L 93.05110178157217 89.74537177932504 L 92.48956726557793 90.33347806633195 L 91.92232625337957 90.91610311577767 L 91.34943851227257 91.4931865518148 L 90.77096402517033 92.06466822555925 L 90.18696299709057 92.63048820861067 L 89.59749586163339 93.19058678656303 L 89.00262328745698 93.7449044525009 L 88.40240618475568 94.29338190047514 L 87.7969057117461 94.83596001895337 L 87.18618328116676 95.37257988423954 L 86.57030056679628 95.90318275385701 L 85.94931950999623 96.42771005989003 L 85.32330232628325 96.9461034022779 L 84.69231151193691 97.45830454205638 L 84.05640985064811 97.96425539454081 L 83.41566042021418 98.46389802244511 L 82.77012659928613 98.95717462893126 L 82.11987207417394 99.44402755058314 L 81.46496084571554 99.92439925029926 L 80.80545723621577 100.39823231009811 L 80.1414258964613 100.86546942383055 L 79.47293181281688 101.32605338979216 L 78.80004031441051 101.77992710323096 L 78.12281708041272 102.22703354874236 L 77.44132814741698 102.66731579254612 L 76.75563991692772 103.10071697463827 L 76.0658191629627 103.52718030081137 L 75.37193303977664 103.9466490345359 L 74.67404908971317 104.35906648869646 L 73.9722352511922 104.76437601717484 L 73.26655986684031 105.16252100627295 L 72.55709169177155 105.5534448659681 L 71.84389990202638 105.93709102099291 L 71.12705410317696 106.31340290173128 L 70.40662433910683 106.68232393492343 L 69.68268110097327 107.04379753417041 L 68.95529533636119 107.3977670902302 L 68.22453845863761 107.74417596109635 L 67.49048235651506 108.08296746184949 L 66.75319940383498 108.41408485427358 L 66.01276246957886 108.7374713362255 L 65.26924492811872 109.05307003074913 L 64.52272066971668 109.36082397492333 L 63.77326411128435 109.660676108433 L 63.02095020741304 109.95256926185206 L 62.265854461686594 110.23644614462725 L 61.50805293828809 110.51224933275094 L 60.74762227391322 110.77992125611044 L 59.98463969000251 111.03940418550138 L 59.21918300530582 111.29064021929229 L 58.45133064879258 111.53357126972651 L 57.68116167292173 111.76813904884759 L 56.90875576728618 111.99428505403338 L 56.13419327264646 112.21195055312435 L 55.35755519536984 112.42107656912961 L 54.57892322229072 112.62160386449514 L 53.79837973600936 112.81347292491711 L 53.01600783064648 112.9966239426824 L 52.23189132807207 113.17099679951917 L 51.446114794626986 113.33653104893696 L 50.658763558357506 113.4931658980384 L 49.86992372678311 113.640840188781 L 49.07968220521846 113.77949237866773 L 48.2881267156726 113.90906052084513 L 47.49534581634735 114.02948224358492 L 46.70142892175994 114.1406947291257 L 45.90646632351415 114.24263469184945 L 45.11054921174667 114.33523835576729 L 44.31376969727523 114.4184414312865 L 43.51622083447749 114.49217909123143 L 42.71799664492963 114.55638594608814 L 41.919192141835886 114.6109960184423 L 41.11990335528115 114.65594271657798 L 40.32022735833999 114.69115880720409 L 39.52026229407747 114.7165763872733 L 38.720107403478224 114.73212685485674 L 37.91986305434192 114.7377408790365 L 37.11963077118533 114.73334836877554 L 36.319513266192914 114.71887844072434 L 35.51961447125907 114.69425938591878 L 34.72003957116851 114.65941863532589 L 33.920895037962005 114.61428272418732 L 33.12228866653792 114.55877725511236 L 32.32432961154179 114.49282685986742 L 31.52712842559886 114.41635515980656 L 30.7307970989472 114.32928472488686 L 29.935449100531564 114.23153703120742 L 29.141199420621128 114.12303241700931 L 28.34816461501731 114.00369003706992 L 27.556462850921527 113.87342781542318 L 26.766213954534955 113.7321623963316 L 25.97753946046766 113.5798090934346 L 25.190562663036935 113.41628183699282 L 24.405408669539085 113.24149311914343 L 23.622204455583585 113.05535393707889 L 22.8410789225825 112.8577737340554 L 22.06216295749286 112.64866033813362 L 21.285589494915282 112.42791989854867 L 20.511493581656755 112.19545681960123 L 19.740012443871567 111.95117369195611 L 18.971285556900266 111.69497122122817 L 18.205454717932824 111.42674815372962 L 17.44266412162919 111.14640119924597 L 16.68306043883676 110.85382495070019 L 15.926792898553131 110.54891180055776 L 15.174013373289364 110.23155185381698 L 14.424876467998132 109.9016328374204 L 13.67953961274005 109.55904000591373 L 12.938163159271145 109.20365604317011 L 12.200910481744689 108.83536095998582 L 11.467948081731212 108.45403198734394 L 10.739445697772805 108.05954346513035 L 10.015576419699334 107.65176672607369 L 9.296516807947889 107.2305699746687 L 8.58244701814062 106.79581816082768 L 7.8735509311909535 106.34737284798997 L 7.170016289224358 105.88509207540362 L 6.472034837616262 105.40883021427626 L 5.779802473468699 104.9184378174744 L 5.093519400865758 104.41376146243051 L 4.413390293269081 103.8946435868969 L 3.7396244634366362 103.36092231716334 L 3.072436041271706 102.81243128833171 L 2.4120441600339118 102.24899945621522 L 1.7586731513719585 101.67045090040362 L 1.1125527496659644 101.07660461800572 L 0.47391830619881076 100.46727430755044 L -0.1574834569913209 100.15674291824503 L -0.7922848482204584 100.77388682322254 L -1.4346920494198239 101.37545149208236 L -2.0844668173192176 101.9616259598483 L -2.741376636494049 102.53259385105285 L -3.4051945000744652 103.08853360096208 L -4.075698700555431 103.62961866668671 L -4.752672630172149 104.15601772871551 L -5.4359045903373575 104.66789488337416 L -6.1251876096668365 105.16540982668198 L -6.820319270148138 105.64871803005411 L -7.521101541032678 106.11797090826616 L -8.227340620056749 106.57331598007713 L -8.938846781619324 107.01489702188252 L -9.655434231566092 107.44285421474807 L -10.376920968249058 107.85732428515426 L -11.103128649549792 108.25844063976406 L -11.83388246557227 108.64633349450793 L -12.569011016726938 109.02112999826335 L -13.308346196943884 109.38295435139237 L -14.051723081766912 109.73192791938418 L -14.79897982109412 110.06816934183774 L -15.549957536343051 110.39179463700576 L -16.30450022183104 110.70291730210994 L -17.06245465017171 111.00164840962597 L -17.823670281499993 111.28809669972595 L -18.58799917634748 111.56236866905661 L -19.355295911999512 111.8245686560217 L -20.125417502173917 112.07479892272815 L -20.89822331986988 112.31315973374828 L -21.673575023243373 112.53974943184117 L -22.451336484372128 112.75466451076977 L -23.23137372078108 112.95799968534324 L -24.013554829605106 113.14984795880756 L -24.797749924272303 113.33030068770131 L -25.58383107359655 113.49944764428672 L -26.371672243174114 113.65737707666291 L -27.161149238984 113.8041757666603 L -27.952139653096125 113.9399290856121 L -28.744522811397122 114.06472104809374 L -29.538179723246955 114.17863436371645 L -30.332993032984206 114.28175048705705 L -31.12884697320156 114.37414966580259 L -31.92562731971711 114.4559109871843 L -32.7232213481699 114.52711242277178 L -33.52151779217222 114.58783087169543 L -34.32040680295392 114.63814220236185 L -35.1197799104369 114.67812129272333 L -35.91952998568104 114.70784206916068 L -36.7195512046453 114.72737754403562 L -37.51973901321062 114.73679985196586 L -38.31999009341291 114.73618028487462 L -39.12020233083758 114.72558932586274 L -39.92027478312862 114.70509668195089 L -40.72010764956783 114.67477131573615 L -41.51960224168101 114.63468147600548 L -42.31866095483051 114.58489472734735 L -43.11718724075515 114.52547797880008 L -43.91508558101967 114.45649751157504 L -44.71226146133819 114.37801900588934 L -45.50862134673737 114.29010756694377 L -46.30407265752614 114.19282775007727 L -47.09852374604081 114.08624358513052 L -47.891883874135104 113.97041860004849 L -48.6840631913865 113.84541584375036 L -49.474972713990724 113.7112979082952 L -50.264524304318115 113.56812695036972 L -51.0526306511061 113.41596471212335 L -51.83920525026346 113.25487254137579 L -52.62416238626231 113.08491141121937 L -53.407417114096326 112.90614193904071 L -54.18888524178186 112.71862440498082 L -54.968483313382464 112.52241876985713 L -55.74612859253618 112.31758469256543 L -56.52173904646611 112.10418154698223 L -57.295233330455964 111.88226843838547 L -58.06653077277265 111.65190421941162 L -58.835551360018634 111.41314750556651 L -59.60221572289754 111.16605669030625 L -60.36644512237697 110.91068995970396 L -61.1281614362332 110.64710530671826 L -61.88728714596287 110.37536054507773 L -62.64374532404737 110.09551332279614 L -63.39745962155611 109.8076211353316 L -64.1483542560754 109.51174133840374 L -64.89635399994972 109.20793116048102 L -65.64138416882389 108.89624771495107 L -66.38337061047258 108.57674801198553 L -67.12223969390718 108.24948897011204 L -67.85791829874748 107.91452742750302 L -68.59033380484824 107.57192015299364 L -69.3194140821694 107.22172385683842 L -70.04508748088004 106.86399520121714 L -70.76728282168642 106.49879081049997 L -71.48592938637398 106.12616728128098 L -72.20095690855437 105.74618119218982 L -72.91229556460846 105.35888911349018 L -73.61987596481622 104.96434761647407 L -74.32362914466557 104.56261328266027 L -75.02348655633094 104.15374271280524 L -75.71938006031456 103.73779253573467 L -76.41124191724192 103.31481941700352 L -77.09900477980361 102.88488006739178 L -77.78260168483666 102.44803125124423 L -78.46196604553774 102.00432979466058 L -79.13703164380085 101.55383259354389 L -79.80773262267313 101.09659662151346 L -80.47400347892143 100.63267893768985 L -81.13577905570315 100.16213669435768 L -81.7929945353351 99.68502714451395 L -82.44558543215338 99.201407649307 L -83.09348758545849 98.71133568537317 L -83.73663715253926 98.2148688520777 L -84.3749706017699 97.71206487866431 L -85.00842470577294 97.20298163132175 L -85.63693653464449 96.68767712017103 L -86.26044344923287 96.1662095061806 L -86.87888309446863 95.63863710801455 L -87.49219339273611 95.10501840881984 L -88.10031253728489 94.56541206295735 L -88.70317898567251 94.01987690268396 L -89.30073145323487 93.46847194478917 L -89.89290890657804 92.9112563971932 L -90.4796505570859 92.34828966551137 L -91.06089585443874 91.77963135959028 L -91.63658448013716 91.20534130002112 L -92.2066563410257 90.62547952463581 L -92.77105156281155 90.04010629499034 L -93.32971048357166 89.44928210284243 L -93.88257364724487 88.85306767662664 L -94.42958179710112 88.25152398793443 L -94.97067586918561 87.64471225800281 L -95.50579698572886 87.0326939642185 L -96.03488644852052 86.41553084664142 L -96.55788573223921 85.7932849145543 L -97.07473647773406 85.16601845304378 L -97.58538048525239 84.53379402961701 L -98.0897597076067 83.89667450086213 L -98.58781624327762 83.25472301915494 L -99.07949232944418 82.60800303942096 L -99.56473033493857 81.95657832595549 L -100.04347275311741 81.30051295930983 L -100.51566219464425 80.63987134324859 L -100.98124138017764 79.97471821178422 L -101.4401531329581 79.30511863629513 L -101.89234037128784 78.63113803273384 L -102.33774610089722 77.95284216893035 L -102.77631340719086 77.27029717199979 L -103.20798544736734 76.58356953585732 L -103.63270544240527 75.8927261288512 L -104.05041666890943 75.19783420151688 L -104.46106245080873 74.49896139446295 L -104.86458615090066 73.79617574639289 L -105.26093116223245 73.08954570227289 L -105.65004089931358 72.379140121651 L -106.03185878915025 71.66502828713729 L -106.40632826209455 70.94727991305157 L -106.77339274250014 70.22596515424836 L -107.13299563917539 69.50115461512587 L -107.4850803356259 68.77291935882971 L -107.82959018007759 68.0413309166581 L -108.16646847526974 67.3064612976801 L -108.49565846801107 66.5683829985742 L -108.81710333848585 65.82716901369918 L -109.13074618930295 65.0828928454051 L -109.43653003427521 64.33562851459756 L -109.73439778691974 63.58545057156307 L -110.02429224866717 62.832434107069275 L -110.30615609676869 62.076654763749886 L -110.57993187188937 61.31818874778706 L -110.84556196537439 60.5571128409031 L -111.10298860617687 59.793504412674736 L -111.3521538474326 59.02744143318252 L -111.59299955266954 58.25900248600999 L -111.8254673816366 57.488266781605276 L -112.04949877573769 56.715314171022115 L -112.26503494305607 55.940225160052705 L -112.4720168429524 55.163080923771325 L -112.67038517022092 54.38396332150187 L -112.86008033878609 53.60295491222968 L -113.04104246492253 52.82013897047236 L -113.21321134997953 52.03559950263026 L -113.3765264625913 51.24942126383441 L -113.5309269203528 50.46168977531235 L -113.67635147094092 49.672491342292474 L -113.81273847265899 48.881913072468414 L -113.94002587438308 48.0900428950452 L -114.05815119488574 47.29696958039237 L -114.16705150151384 46.50278276032532 L -114.26666338819504 45.70757294904376 L -114.3569229527462 44.91143156475 L -114.43776577345673 44.11445095197793 L -114.50912688491823 43.316724404658096 L -114.57094075307026 42.51834618995199 L -114.62314124943174 41.71941157288369 L -114.66566162448467 40.920016841803545 L -114.69843448017716 40.12025933471682 L -114.72139174150965 39.320237466513035 L -114.73446462716785 38.52005075713293 L -114.73758361916327 37.71979986071206 L -114.73067843144153 36.91958659574044 L -114.71367797741567 36.119513976282576 L -114.68651033638062 35.319686244299135 L -114.64910271876278 34.520208903119844 L -114.60138143015575 33.721188752112624 L -114.54327183409255 32.92273392260289 L -114.4746983135003 32.12495391509302 L -114.39558423078279 31.327959637839875 L -114.3058518864724 30.531863446847247 L -114.20542247639025 29.736779187334598 L -114.09421604725115 28.94282223674606 L -113.97215145064622 28.150109549366583 L -113.8391462953327 27.358759702615586 L -113.69511689775771 26.56889294509218 L -113.53997823073809 25.780631246448195 L -113.37364387021536 24.99409834917261 L -113.19602594000077 24.209419822369707 L -113.00703505442006 23.426723117623897 L -112.8065802587643 22.646137627042126 L -112.59456896744817 21.867794743576425 L -112.37090689977 21.091827923727443 L -112.13549801316628 20.318372752741254 L -111.88824443384297 19.547567012413175 L -111.62904638466425 18.779550751620768 L -111.35780211016954 18.014466359713563 L -111.07440779858489 17.252458642894357 L -110.77875750068654 16.493674903733964 L -110.47074304536736 15.738265023969333 L -110.15025395174789 14.986381550741704 L -109.81717733766648 14.23817978644351 L -109.47139782437186 13.493817882346608 L -109.1127974372341 12.753456936200648 L -108.74125550227646 12.017261093994003 L -108.35664853832334 11.285397656087554 L -107.95885014454349 10.558037187936902 L -107.54773088315955 9.835353635636594 L -107.12315815707758 9.117524446529599 L -106.68499608217905 8.404730695141321 L -106.23310535400067 7.697157214711939 L -105.76734310851272 6.99499273461759 L -105.2875627766875 6.298430023986672 L -104.79361393253359 5.607666041839152 L -104.28534213424912 4.922902094091581 L -103.7625887581286 4.244343997797371 L -103.22519082483353 3.572202253008234 L -102.67298081761517 2.9066922226728726 L -102.10578649204903 2.248034321008615 L -101.52343067681669 1.5964542108152409 L -100.9257310650375 0.9521830102241272 L -100.31249999562442 0.31545750941206974 L -100.31249999562434 -0.3154575094120004 L -100.92573106503743 -0.9521830102240569 L -101.52343067681666 -1.5964542108152155 L -102.10578649204898 -2.2480343210085434 L -102.67298081761514 -2.906692222672801 L -103.22519082483345 -3.57220225300816 L -103.76258875812854 -4.244343997797298 L -104.28534213424906 -4.922902094091507 L -104.79361393253356 -5.607666041839077 L -105.28756277668745 -6.298430023986644 L -105.76734310851269 -6.994992734617515 L -106.23310535400066 -7.697157214711911 L -106.684996082179 -8.404730695141243 L -107.12315815707757 -9.117524446529572 L -107.54773088315952 -9.835353635636517 L -107.95885014454346 -10.558037187936872 L -108.35664853832333 -11.285397656087525 L -108.74125550227646 -12.017261093993977 L -109.11279743723406 -12.753456936200568 L -109.47139782437185 -13.49381788234658 L -109.81717733766644 -14.238179786443428 L -110.1502539517479 -14.986381550741728 L -110.47074304536731 -15.738265023969248 L -110.77875750068652 -16.49367490373399 L -111.07440779858484 -17.252458642894272 L -111.35780211016953 -18.01446635971353 L -111.62904638466422 -18.779550751620686 L -111.88824443384296 -19.547567012413147 L -112.13549801316624 -20.318372752741165 L -112.37090689977 -21.091827923727415 L -112.59456896744813 -21.86779474357639 L -112.80658025876428 -22.646137627042098 L -113.00703505442003 -23.42672311762381 L -113.19602594000078 -24.209419822369675 L -113.37364387021537 -24.99409834917253 L -113.53997823073807 -25.780631246448213 L -113.6951168977577 -26.568892945092095 L -113.83914629533271 -27.358759702615615 L -113.97215145064618 -28.15010954936649 L -114.09421604725115 -28.94282223674603 L -114.20542247639023 -29.73677918733451 L -114.30585188647241 -30.53186344684722 L -114.39558423078279 -31.327959637839854 L -114.47469831350028 -32.12495391509299 L -114.54327183409254 -32.92273392260286 L -114.60138143015577 -33.721188752112596 L -114.64910271876275 -34.52020890311975 L -114.6865103363806 -35.3196862442991 L -114.71367797741566 -36.11951397628249 L -114.73067843144155 -36.91958659574047 L -114.7375836191633 -37.71979986071198 L -114.73446462716784 -38.52005075713295 L -114.72139174150965 -39.32023746651295 L -114.69843448017714 -40.120259334716785 L -114.66566162448466 -40.92001684180345 L -114.62314124943175 -41.71941157288367 L -114.57094075307027 -42.51834618995196 L -114.50912688491822 -43.31672440465806 L -114.43776577345675 -44.114450951977844 L -114.3569229527462 -44.91143156474996 L -114.26666338819504 -45.70757294904368 L -114.16705150151382 -46.50278276032533 L -114.05815119488571 -47.29696958039227 L -113.94002587438307 -48.09004289504522 L -113.81273847265899 -48.88191307246832 L -113.67635147094092 -49.6724913422925 L -113.53092692035281 -50.461689775312266 L -113.37652646259133 -51.24942126383438 L -113.21321134997956 -52.03559950263018 L -113.04104246492253 -52.82013897047233 L -112.86008033878608 -53.602954912229634 L -112.67038517022094 -54.383963321501845 L -112.47201684295243 -55.163080923771254 L -112.2650349430561 -55.94022516005268 L -112.04949877573772 -56.71531417102203 L -111.8254673816366 -57.488266781605304 L -111.59299955266958 -58.25900248600992 L -111.35215384743262 -59.027441433182545 L -111.10298860617687 -59.79350441267465 L -110.8455619653744 -60.55711284090307 L -110.57993187188939 -61.31818874778696 L -110.3061560967687 -62.07665476374987 L -110.02429224866717 -62.832434107069254 L -109.73439778691977 -63.58545057156306 L -109.43653003427525 -64.33562851459754 L -109.13074618930295 -65.08289284540508 L -108.8171033384859 -65.82716901369909 L -108.4956584680111 -66.56838299857415 L -108.1664684752698 -67.30646129768002 L -107.82959018007756 -68.04133091665813 L -107.48508033562595 -68.77291935882964 L -107.13299563917536 -69.50115461512588 L -106.77339274250019 -70.22596515424829 L -106.40632826209458 -70.94727991305157 L -106.03185878915028 -71.6650282871372 L -105.65004089931358 -72.37914012165099 L -105.26093116223248 -73.08954570227287 L -104.86458615090068 -73.79617574639286 L -104.46106245080878 -74.49896139446287 L -104.05041666890942 -75.19783420151684 L -103.63270544240531 -75.89272612885111 L -103.20798544736735 -76.5835695358573 L -102.7763134071909 -77.27029717199972 L -102.33774610089719 -77.95284216893037 L -101.89234037128789 -78.63113803273376 L -101.4401531329581 -79.30511863629516 L -100.98124138017769 -79.97471821178415 L -100.51566219464428 -80.63987134324857 L -100.04347275311746 -81.30051295930977 L -99.56473033493859 -81.95657832595546 L -99.07949232944416 -82.60800303942092 L -98.58781624327764 -83.25472301915491 L -98.08975970760676 -83.89667450086205 L -97.5853804852524 -84.53379402961698 L -97.07473647773412 -85.1660184530437 L -96.55788573223917 -85.7932849145543 L -96.03488644852058 -86.41553084664133 L -95.50579698572892 -87.03269396421851 L -94.9706758691857 -87.64471225800276 L -94.42958179710118 -88.25152398793438 L -93.8825736472449 -88.85306767662655 L -93.32971048357176 -89.4492821028424 L -92.77105156281162 -90.04010629499027 L -92.20665634102576 -90.62547952463575 L -91.63658448013719 -91.2053413000211 L -91.0608958544388 -91.77963135959021 L -90.47965055708596 -92.34828966551129 L -89.8929089065781 -92.91125639719311 L -89.30073145323493 -93.4684719447891 L -88.70317898567251 -94.01987690268393 L -88.10031253728496 -94.56541206295728 L -87.49219339273617 -95.10501840881977 L -86.87888309446872 -95.6386371080145 L -86.26044344923295 -96.16620950618055 L -85.63693653464452 -96.68767712017095 L -85.00842470577302 -97.20298163132173 L -84.37497060176993 -97.71206487866428 L -83.73663715253929 -98.21486885207769 L -83.09348758545852 -98.71133568537314 L -82.44558543215336 -99.20140764930693 L -81.79299453533517 -99.6850271445139 L -81.13577905570318 -100.16213669435768 L -80.47400347892142 -100.63267893768986 L -79.80773262267317 -101.09659662151347 L -79.13703164380085 -101.55383259354392 L -78.46196604553776 -102.00432979466058 L -77.78260168483666 -102.44803125124423 L -77.09900477980364 -102.88488006739178 L -76.41124191724191 -103.31481941700352 L -75.71938006031462 -103.73779253573468 L -75.0234865563309 -104.15374271280523 L -74.3236291446656 -104.56261328266024 L -73.61987596481626 -104.96434761647407 L -72.91229556460851 -105.35888911349014 L -72.20095690855439 -105.7461811921898 L -71.48592938637405 -106.12616728128091 L -70.76728282168645 -106.49879081049994 L -70.04508748088013 -106.86399520121711 L -69.31941408216943 -107.22172385683841 L -68.59033380484834 -107.57192015299363 L -67.8579182987475 -107.91452742750302 L -67.12223969390725 -108.249488970112 L -66.38337061047261 -108.57674801198553 L -65.64138416882386 -108.89624771495104 L -64.89635399994977 -109.20793116048102 L -64.14835425607536 -109.51174133840375 L -63.39745962155619 -109.80762113533156 L -62.64374532404741 -110.09551332279614 L -61.887287145962844 -110.37536054507774 L -61.12816143623324 -110.64710530671825 L -60.366445122376945 -110.91068995970397 L -59.60221572289756 -111.16605669030623 L -58.83555136001861 -111.41314750556654 L -58.06653077277269 -111.65190421941159 L -57.29523333045594 -111.88226843838547 L -56.521739046466145 -112.10418154698225 L -55.74612859253615 -112.31758469256545 L -54.96848331338249 -112.52241876985711 L -54.18888524178185 -112.71862440498083 L -53.407417114096404 -112.90614193904068 L -52.62416238626234 -113.08491141121937 L -51.83920525026355 -113.25487254137575 L -51.052630651106185 -113.41596471212338 L -50.26452430431823 -113.56812695036967 L -49.47497271399078 -113.7112979082952 L -48.68406319138661 -113.84541584375033 L -47.891883874135175 -113.97041860004849 L -47.09852374604093 -114.08624358513052 L -46.30407265752622 -114.19282775007724 L -45.508621346737414 -114.29010756694379 L -44.71226146133827 -114.37801900588933 L -43.915085581019696 -114.45649751157504 L -43.11718724075524 -114.5254779788001 L -42.31866095483055 -114.58489472734735 L -41.519602241681085 -114.63468147600545 L -40.720107649567886 -114.67477131573615 L -39.920274783128626 -114.70509668195089 L -39.120202330837635 -114.72558932586273 L -38.31999009341292 -114.73618028487462 L -37.519739013210696 -114.73679985196591 L -36.7195512046453 -114.72737754403562 L -35.91952998568109 -114.70784206916068 L -35.119779910436925 -114.67812129272332 L -34.32040680295401 -114.63814220236185 L -33.52151779217224 -114.58783087169542 L -32.72322134816997 -114.52711242277175 L -31.925627319717137 -114.45591098718428 L -31.128846973201647 -114.37414966580259 L -30.33299303298424 -114.28175048705705 L -29.538179723247076 -114.1786343637165 L -28.744522811397182 -114.06472104809376 L -27.952139653096246 -113.93992908561214 L -27.16114923898406 -113.80417576666032 L -26.371672243174125 -113.65737707666293 L -25.5838310735966 -113.49944764428672 L -24.79774992427244 -113.33030068770132 L -24.013554829605205 -113.14984795880763 L -23.231373720781107 -112.95799968534324 L -22.451336484372213 -112.75466451076979 L -21.6735750232434 -112.53974943184117 L -20.898223319869963 -112.3131597337483 L -20.125417502173946 -112.07479892272815 L -19.35529591199952 -111.82456865602171 L -18.58799917634754 -111.56236866905664 L -17.8236702815001 -111.28809669972597 L -17.062454650171766 -111.00164840962597 L -16.30450022183104 -110.70291730210994 L -15.549957536343106 -110.39179463700577 L -14.798979821094232 -110.06816934183782 L -14.051723081766887 -109.73192791938416 L -13.308346196943912 -109.38295435139239 L -12.56901101672702 -109.0211299982634 L -11.833882465572403 -108.646333494508 L -11.103128649549767 -108.25844063976403 L -10.376920968249085 -107.85732428515425 L -9.655434231566195 -107.44285421474811 L -8.938846781619478 -107.01489702188263 L -8.22734062005675 -106.57331598007713 L -7.521101541032732 -106.11797090826622 L -6.820319270148241 -105.6487180300542 L -6.125187609666887 -105.16540982668201 L -5.435904590337359 -104.66789488337416 L -4.752672630172226 -104.15601772871561 L -4.075698700555457 -103.62961866668672 L -3.4051945000745385 -103.08853360096215 L -2.741376636494075 -102.53259385105288 L -2.084466817319289 -101.96162595984836 L -1.4346920494198492 -101.37545149208239 L -0.7922848482205285 -100.77388682322261 L -0.15748345699136784 -100.1567429182451 L 0.4739183061988084 -100.46727430755044 L 1.1125527496659167 -101.07660461800567 L 1.7586731513718645 -101.67045090040354 L 2.4120441600338633 -102.24899945621519 L 3.0724360412717036 -102.81243128833168 L 3.739624463436585 -103.36092231716329 L 4.413390293268959 -103.89464358689682 L 5.0935194008657785 -104.41376146243053 L 5.779802473468676 -104.91843781747441 L 6.472034837616186 -105.40883021427622 L 7.170016289224231 -105.88509207540352 L 7.873550931190975 -106.34737284798999 L 8.582447018140568 -106.79581816082766 L 9.296516807947786 -107.23056997466865 L 10.01557641969928 -107.65176672607366 L 10.739445697772803 -108.05954346513035 L 11.467948081731159 -108.45403198734392 L 12.200910481744584 -108.83536095998578 L 12.938163159271195 -109.20365604317013 L 13.679539612740024 -109.55904000591373 L 14.424876467998047 -109.90163283742035 L 15.174013373289332 -110.23155185381695 L 15.926792898553156 -110.54891180055778 L 16.683060438836733 -110.8538249507002 L 17.442664121629104 -111.14640119924593 L 18.205454717932795 -111.4267481537296 L 18.97128555690026 -111.69497122122816 L 19.74001244387151 -111.95117369195611 L 20.51149358165675 -112.19545681960123 L 21.285589494915225 -112.42791989854867 L 22.062162957492855 -112.64866033813362 L 22.84107892258244 -112.85777373405539 L 23.622204455583578 -113.05535393707888 L 24.405408669538996 -113.2414931191434 L 25.190562663036907 -113.41628183699284 L 25.977539460467696 -113.57980909343463 L 26.766213954534923 -113.73216239633159 L 27.55646285092144 -113.87342781542317 L 28.34816461501739 -114.0036900370699 L 29.141199420621128 -114.12303241700931 L 29.935449100531514 -114.23153703120744 L 30.73079709894708 -114.32928472488683 L 31.52712842559891 -114.41635515980656 L 32.324329611541785 -114.49282685986742 L 33.12228866653787 -114.5587772551124 L 33.920895037961884 -114.6142827241873 L 34.72003957116854 -114.6594186353259 L 35.51961447125903 -114.69425938591877 L 36.319513266192814 -114.71887844072431 L 37.11963077118531 -114.73334836877557 L 37.919863054341945 -114.7377408790365 L 38.720107403478195 -114.73212685485676 L 39.520262294077384 -114.71657638727332 L 40.320227358339935 -114.69115880720409 L 41.11990335528115 -114.65594271657798 L 41.919192141835836 -114.61099601844232 L 42.71799664492963 -114.55638594608816 L 43.51622083447742 -114.49217909123143 L 44.31376969727521 -114.41844143128652 L 45.11054921174666 -114.33523835576727 L 45.90646632351409 -114.24263469184946 L 46.70142892175982 -114.1406947291257 L 47.495345816347296 -114.02948224358492 L 48.2881267156726 -113.90906052084513 L 49.07968220521839 -113.77949237866773 L 49.869923726782964 -113.64084018878103 L 50.65876355835755 -113.49316589803843 L 51.44611479462694 -113.33653104893696 L 52.23189132807198 -113.17099679951917 L 53.01600783064634 -112.99662394268245 L 53.798379736009366 -112.81347292491705 L 54.57892322229069 -112.62160386449516 L 55.35755519536977 -112.42107656912964 L 56.13419327264633 -112.21195055312441 L 56.90875576728621 -111.99428505403338 L 57.68116167292172 -111.76813904884762 L 58.45133064879248 -111.53357126972656 L 59.219183005305766 -111.2906402192923 L 59.9846396900025 -111.03940418550137 L 60.74762227391316 -110.77992125611044 L 61.508052938288095 -110.51224933275097 L 62.26585446168653 -110.23644614462727 L 63.02095020741304 -109.95256926185206 L 63.77326411128427 -109.66067610843302 L 64.52272066971666 -109.36082397492333 L 65.26924492811864 -109.05307003074915 L 66.01276246957883 -108.73747133622551 L 66.75319940383501 -108.41408485427358 L 67.49048235651503 -108.0829674618495 L 68.22453845863748 -107.74417596109635 L 68.95529533636116 -107.39776709023023 L 69.68268110097326 -107.04379753417041 L 70.40662433910676 -106.68232393492346 L 71.12705410317685 -106.31340290173134 L 71.8438999020264 -105.93709102099288 L 72.55709169177152 -105.55344486596813 L 73.26655986684025 -105.16252100627298 L 73.97223525119207 -104.76437601717492 L 74.67404908971317 -104.35906648869644 L 75.37193303977661 -103.94664903453594 L 76.06581916296258 -103.52718030081141 L 76.75563991692766 -103.1007169746383 L 77.44132814741698 -102.66731579254612 L 78.12281708041269 -102.22703354874241 L 78.80004031441038 -101.77992710323102 L 79.47293181281681 -101.3260533897922 L 80.14142589646127 -100.86546942383052 L 80.80545723621572 -100.39823231009817 L 81.46496084571551 -99.92439925029929 L 82.11987207417386 -99.44402755058319 L 82.7701265992861 -98.95717462893126 L 83.41566042021411 -98.46389802244519 L 84.05640985064807 -97.96425539454086 L 84.69231151193681 -97.45830454205642 L 85.32330232628323 -96.94610340227794 L 85.94931950999623 -96.42771005989003 L 86.57030056679625 -95.90318275385707 L 87.18618328116668 -95.37257988423966 L 87.79690571174615 -94.83596001895336 L 88.40240618475566 -94.29338190047514 L 89.00262328745693 -93.74490445250098 L 89.59749586163326 -93.19058678656313 L 90.18696299709057 -92.63048820861064 L 90.77096402517031 -92.0646682255593 L 91.34943851227251 -91.49318655181489 L 91.92232625337945 -90.91610311577779 L 92.48956726557793 -90.33347806633193 L 93.05110178157213 -89.74537177932507 L 93.60687024318484 -89.15184486404357 L 94.1568132948384 -88.55295816968999 L 94.70087177701174 -87.9487727918667 L 95.2389867196685 -87.33935007907158 L 95.77109933564978 -86.72475163921084 L 96.29715101402638 -86.10503934613524 L 96.81708331340525 -85.48027534620482 L 97.3308379551847 -84.85052206488692 L 97.83835681675276 -84.21584221339359 L 98.33958192462242 -83.5762987953654 L 98.83445544749938 -82.93195511360409 L 99.32291968927503 -82.28287477686362 L 99.80491708194012 -81.62912170670228 L 100.28039017841274 -80.97076014440364 L 100.74928164527424 -80.30785465797172 L 101.2115342554072 -79.6404701492068 L 101.66709088052997 -78.96867186086762 L 102.11589448362037 -78.29252538392605 L 102.55788811122305 -77.61209666492198 L 102.99301488563256 -76.92745201342431 L 103.42121799694797 -76.2386581096031 L 103.84244069498932 -75.54578201192268 L 104.25662628107065 -74.8488911649612 L 104.663718099622 -74.14805340736308 L 105.06365952965352 -73.44333697993281 L 105.45639397605305 -72.7348105338775 L 105.84186486071036 -72.02254313920636 L 106.22001561346036 -71.30660429329225 L 106.5907896628365 -70.58706392960794 L 106.95413042662611 -69.86399242664147 L 107.30998130221928 -69.13746061700238 L 107.65828565674306 -68.40753979672354 L 107.99898681697061 -67.67430173477271 L 108.33202805899674 -66.9378186827797 L 108.65735259767044 -66.19816338498957 L 108.97490357577378 -65.4554090884522 L 109.28462405293746 -64.70962955345874 L 109.5864569942818 -63.96089906423522 L 109.8803452587731 -63.20929243990382 L 110.16623158728326 -62.454885045723536 L 110.44405859034137 -61.69775280462322 L 110.71376873556511 -60.93797220903606 L 110.97530433475943 -60.17562033305187 L 111.22860753066948 -59.41077484489642 L 111.47362028337432 -58.64351401975465 L 111.71028435630814 -57.87391675294866 L 111.93854130189338 -57.102062573487785 L 112.15833244677175 -56.32803165800314 L 112.3695988766178 -55.55190484508385 L 112.57228142051773 -54.773763650030546 L 112.76632063489811 -53.99369028004327 L 112.95165678698655 -53.21176764986012 L 113.12822983778622 -52.42807939786563 L 113.29597942454545 -51.64270990268729 L 113.45484484270345 -50.85574430030097 L 113.60476502729159 -50.06726850166194 L 113.74567853376877 -49.27736921088724 L 113.87752351826981 -48.48613394400789 L 114.00023771724322 -47.69365104831629 L 114.1137584264554 -46.90000972232903 L 114.21802247933583 -46.10530003639441 L 114.31296622463786 -45.309612953967516 L 114.39852550338814 -44.513040353580095 L 114.47463562509667 -43.71567505153372 L 114.54123134319858 -42.91761082534604 L 114.59824682969631 -42.118942437979655 L 114.64561564897157 -41.3197656628857 L 114.68327073073308 -40.52017730989529 L 114.71114434206544 -39.7202752519946 L 114.72916805854382 -38.92015845301764 L 114.73727273437515 -38.11992699629718 L 114.73538847152827 -37.31968211431064 L 114.72344458780962 -36.519526219365176 L 114.7013695838431 -35.7195629353621 L 114.66909110890795 -34.91989713068903 L 114.62653592558739 -34.12063495228432 L 114.57362987317934 -33.32188386092467 L 114.51029782981637 -32.5237526677877 L 114.43646367324169 -31.726351572344278 L 114.35205024018373 -30.929792201634655 L 114.25697928426978 -30.134187650992118 L 114.15117143241699 -29.339652526273277 L 114.03454613963467 -28.546302987662962 L 113.90702164216934 -27.754256795118753 L 113.76851490892115 -26.96363335553181 L 113.61894159105537 -26.17455377167579 L 113.45821596973045 -25.3871408930259 L 113.2862509018588 -24.601519368528066 L 113.10295776381295 -23.81781570140952 L 112.90824639298611 -23.036158306120676 L 112.70202502710866 -22.256677567504518 L 112.48420024122109 -21.479505902296076 L 112.25467688219517 -20.704777823058887 L 112.01335800069161 -19.932630004670592 L 111.76014478043595 -19.16320135347567 L 111.49493646468733 -18.396633079229986 L 111.21763027977049 -17.633068769969825 L 110.92812135553105 -16.872654469940883 L 110.62630264256991 -16.115538760736083 L 110.31206482610233 -15.361872845793375 L 109.98529623627944 -14.6118106384165 L 109.64588275480266 -13.865508853490315 L 109.29370771764901 -13.123127103070436 L 108.92865181371769 -12.384827996037533 L 108.55059297919661 -11.650777242017945 L 108.15940628743574 -10.921143759783543 L 107.75496383410405 -10.196099790356156 L 107.33713461738935 -9.47582101505159 L 106.90578441299311 -8.760486678718992 L 106.46077564365119 -8.050279718438391 L 106.00196724290065 -7.345386897960848 L 105.52921451279218 -6.645998948186601 L 105.04236897523367 -5.952310714001647 L 104.54127821662827 -5.26452130780507 L 104.02578572545202 -4.582834270085268 L 103.49573072239207 -3.907457737419577 L 102.95094798264671 -3.238604618301808 L 102.39126764996095 -2.5764927772209956 L 101.8165150419443 -1.9213452274438614 L 101.2265104461913 -1.2733903329820482 L 100.62106890669394 -0.6328620202563916 L 100.0 0.0" fill="none" stroke="black" /></svg>