<?xml version="1.0" encoding="utf-8" ?>
<svg baseProfile="full" height="1000" version="1.1" viewBox="-500 -500 1000 1000" width="1000" xmlns="http://www.w3.org/2000/svg" xmlns:ev="http://www.w3.org/2001/xml-events" xmlns:xlink="http://www.w3.org/1999/xlink"><defs /><path d="M 100.0 0.0 L 98.1288818073917 0.6171872656581242 L 96.28882308427636 1.2112761365503328 L 94.47925349915654 1.7828862314554341 L 92.69961974873067 2.332619824087385 L 90.94938488630858 2.861062512742978 L 89.22802768096012 3.3687838592284396 L 87.5350420057658 3.8563379986970037 L 85.8699362536354 4.324264221931255 L 84.23223277925253 4.773087531512415 L 82.62146736578816 5.203319173233237 L 81.03718871510722 5.615457144031378 L 79.478957960265 6.009986677645408 L 77.946348199162 6.387380709126059 L 76.43894404828924 6.74810031926995 L 74.95634121555774 7.092595159982089 L 73.49814609126418 7.4213038615164315 L 72.06397535629561 7.734654422490076 L 70.65345560672813 8.0330645835167 L 69.2662229940225 8.316942185258037 L 67.90192288005952 8.586685511647628 L 66.56020950630398 8.842683619000244 L 65.24074567642292 9.08531665168144 L 63.94320245171893 9.314956144975007 L 62.667258858775966 9.531965315752142 L 61.412601608745916 9.736699341513845 L 60.17892482773486 9.929505628347862 L 58.965929797775644 10.110724068312843 L 57.773324707901935 10.280687286735855 L 56.60082441486206 10.43972087988398 L 55.44815021303597 10.588143643446951 L 54.31502961314122 10.726267792245666 L 53.20119612933337 10.854399171559795 L 52.10638907432897 10.972837460448606 L 51.03035336219399 11.081876367419294 L 49.97283931846309 11.18180381878059 L 48.93360249726723 11.272902140001644 L 47.91240350516615 11.355448230381063 L 46.90900783139611 11.429713731315898 L 45.92318568425638 11.495965188446075 L 44.95471183337297 11.55446420793671 L 44.00336545759003 11.60546760714821 L 43.06892999825013 11.649227559931525 L 42.15119301763834 11.685991736775716 L 41.249946062372786 11.716003440023094 L 40.36498453153777 11.739501734358331 L 39.49610754936127 11.756721572767086 L 38.64311784225124 11.767893918151751 L 37.8058216200121 11.773245860782755 L 36.98402846106991 11.773000731755438 L 36.17755120154534 11.767378212615764 L 35.386205828018035 11.756594441309701 L 34.60981137383395 11.740862114604665 L 33.848189818814916 11.720390587125054 L 33.10116599223444 11.695385967137224 L 32.36856747892959 11.666051209213157 L 31.650224528426754 11.63258620389726 L 30.945969966961158 11.595187864494248 L 30.255639112277862 11.554050211091845 L 29.579069691105154 11.50936445192665 L 28.91610175919722 11.461319062197365 L 28.266577623845365 11.41009986042441 L 27.630341768763792 11.355890082451864 L 27.00724078125782 11.298870453182726 L 26.397123281587092 11.239219256135154 L 25.799839854440243 11.177112400903866 L 25.215242982439634 11.112723488606886 L 24.64318698160011 11.046223875395476 L 24.083527938666464 10.977782734100831 L 23.536123650259086 10.907567114089215 L 23.00083356375945 10.835741999393857 L 22.477518719869465 10.762470365189131 L 21.966041696781588 10.687913232670244 L 21.466266555899253 10.612229722399196 L 20.978058789049555 10.535577106175538 L 20.501285267131273 10.45811085748758 L 20.03581419014477 10.379984700598492 L 19.58151503855195 10.301350658319144 L 19.138258525916207 10.222359098518002 L 18.70591655277319 10.143158779415558 L 18.28436216168788 10.063896893710947 L 17.87346949345112 9.984719111584326 L 17.473113744374075 9.905769622619125 L 17.083171124637822 9.827191176685325 L 16.70351881765879 9.749125123824154 L 16.334034940430662 9.671711453173167 L 15.97459850480535 9.595088830968798 L 15.62508937967705 9.519394637663037 L 15.285388254034423 9.444765004189122 L 14.955376600846648 9.37133484741005 L 14.63493664175082 9.299237904782572 L 14.323951312509415 9.228606768268978 L 14.022304229205979 9.15957291752639 L 13.729879655151002 9.09226675240464 L 13.446562468467178 9.0268176247803 L 13.172238130327528 8.963353869755753 L 12.906792653818961 8.902002836250404 L 12.650112573403902 8.842890917009825 L 12.40208491495575 8.786143578059182 L 12.162597166342437 8.731885387625667 L 11.931537248533893 8.680240044554054 L 11.708793487209846 8.631330406239087 L 11.494254584845265 8.585278516097837 L 11.28780959325048 8.542205630604442 L 11.089347886544616 8.502232245909006 L 10.898759134540406 8.465478124062038 L 10.715933276520282 8.432062318865711 L 10.540760495382372 8.402103201371688 L 10.373131192137372 8.375718485046278 L 10.212935960735834 8.353025250621805 L 10.060065563207445 8.334139970653922 L 9.914410905093007 8.319178533803544 L 9.775863011150577 8.308256268861676 L 9.644313001317947 8.30148796853566 L 9.519652066913508 8.298987913014905 L 9.401771447057158 8.300869893332724 L 9.290562405295134 8.307247234543212 L 9.185916206410475 8.318232818728916 L 9.087724093402855 8.333939107857063 L 8.995877264620653 8.354478166500854 L 8.910266851029093 8.37996168444252 L 8.830783893597342 8.410500999174282 L 8.757319320788895 8.4462071183139 L 8.68976392613898 8.48719074195111 L 8.628008345902224 8.533562284940515 L 8.571943036755272 8.585431899157378 L 8.521458253538015 8.642909495732425 L 8.476444027017472 8.706104767281282 L 8.43679014165869 8.775127210144888 L 8.402386113385916 8.850086146656196 L 8.37312116731922 8.931090747449943 L 8.348884215469582 9.018250053830926 L 8.329563834376778 9.111673000216939 L 8.315048242674074 9.211468436672654 L 8.305225278563057 9.317745151550696 L 8.299982377182822 9.430611894256032 L 8.29920654785635 9.550177398150396 L 8.302784351197985 9.676550403613092 L 8.310601876065185 9.809839681275541 L 8.322544716336907 9.9501540554457 L 8.338497947502454 10.097602427740462 L 8.358346103042322 10.25229380094288 L 8.381973150584052 10.414337303102087 L 8.409262467814521 10.583842211893604 L 8.440096818131465 10.760917979259474 L 8.474358326013956 10.945674256344581 L 8.511928452094551 11.138220918750392 L 8.552687967912888 11.33866809212401 L 8.59651693033134 11.547126178102658 L 8.643294655592378 11.763705880633538 L 8.692899692997585 11.988518232689898 L 8.745209798186593 12.221674623403771 L 8.800101905995334 12.463286825637645 L 8.857452102870546 12.713467024016161 L 8.917135598818962 12.972327843441391 L 8.979026698866974 13.23998237811373 L 9.042998774008186 13.516544221083556 L 9.108924231613123 13.802127494356625 L 9.176674485276987 14.096846879579338 L 9.246119924079188 14.400817649329426 L 9.317129881227903 14.714155699038123 L 9.389572602062998 15.036977579572465 L 9.463315211387695 15.36940053050374 L 9.538223680101733 15.711542514093892 L 9.614162791104501 16.063522250027674 L 9.690996104437666 16.425459250922323 L 9.768585921635676 16.79747385864698 L 9.84679324925051 17.179687281484377 L 9.925477761516895 17.572221632169267 L 10.004497762122412 17.975199966838574 L 10.083710145046236 18.38874632493011 L 10.162970354428463 18.812985770067606 L 10.242132343430914 19.248044431970968 L 10.321048532048739 19.69404954943218 L 10.39956976383111 20.15112951439957 L 10.47754526146706 20.619413917213393 L 10.554822581191367 21.09903359303783 L 10.631247565963715 21.590120669536823 L 10.706664297372292 22.092808615841847 L 10.780915046211213 22.607232292862307 L 10.853840221679718 23.13352800499139 L 10.925278319147829 23.67183355326094 L 10.995065866432725 24.222288290003313 L 11.063037368526047 24.785033175078034 L 11.129025250711258 25.360210833724636 L 11.192859800007401 25.94796561610641 L 11.254369104872453 26.548443658609827 L 11.313378993097608 27.161792946970124 L 11.369712967820284 27.788163381294055 L 11.42319214158108 28.427706843055326 L 11.473635168346227 29.08057726413979 L 11.520858173414801 29.74693069802349 L 11.564674681124956 30.42692539316613 L 11.604895540271459 31.120721868710767 L 11.641328847141613 31.82848299258019 L 11.67377986607347 32.55037406206739 L 11.702050947435676 33.286562887020246 L 11.725941442923759 34.03721987572547 L 11.745247618063392 34.80251812360166 L 11.759762561805696 35.582633504815874 L 11.769276093095106 36.37774476694405 L 11.77357466428397 37.18803362879875 L 11.772441261263788 38.01368488155835 L 11.76565530017495 38.85488649333064 L 11.75299252055269 39.711829717297974 L 11.734224874758434 40.584709203591316 L 11.709120413539635 41.473723115051136 L 11.677443167553962 42.37907324704062 L 11.638953024684653 43.3009651514813 L 11.59340560296723 44.239608265293825 L 11.540552118937628 45.19521604343191 L 11.480139251203738 46.16800609670905 L 11.411908999031382 47.1582003346239 L 11.33559853572713 48.166025113406306 L 11.250940056587886 49.19171138950985 L 11.157660621176895 50.23549487879336 L 11.055481989673304 51.29761622164418 L 10.944120453029562 52.378321154307955 L 10.823286656657633 53.477860686704446 L 10.69268541735057 54.59649128702293 L 10.552015533130962 55.73447507340511 L 10.400969585701684 56.89208001304034 L 10.23923373515747 58.06958012901487 L 10.066487506597749 59.26725571527379 L 9.882403568262406 60.48539356007515 L 9.686647500791551 61.72428717833331 L 9.478877557189334 62.984237053273716 L 9.258744413048966 64.26555088784013 L 9.025890906571908 65.56854386632175 L 8.779951767888726 66.89353892669273 L 8.520553337161935 68.2408670441843 L 8.247313270921978 69.61086752663677 L 7.959840236057243 71.00388832221225 L 7.657733590845684 72.42028634007917 L 7.340583052381522 73.86042778471536 L 7.007968349712966 75.32468850451399 L 6.659458861967744 76.81345435541567 L 6.294613240701042 78.32712158033067 L 5.9129790156559086 79.86609720516317 L 5.514092183078289 81.43079945229373 L 5.097476775677765 83.02165817242971 L 4.662644413271163 84.63911529578576 L 4.20909383308764 86.28362530361609 L 3.7363103986521433 87.95565572118187 L 3.243765586097687 89.65568763330232 L 2.7309164466861477 91.38421622371044 L 2.197205044241041 93.14175133950985 L 1.6420578661151168 94.92881808210932 L 1.0648852062280314 96.74595742610029 L 0.4650805186164572 98.5937268676343 L -0.15649684805980277 99.52927677670387 L -0.7678504511259131 97.66597787743109 L -1.3562622280453573 95.83359423045246 L -1.9223473968069376 94.03155982602553 L -2.466704000719749 92.25932551173337 L -2.9899135702219697 90.51635832874149 L -3.4925417543861697 88.80214087837167 L -3.975138923727967 87.11617071738439 L -4.438240745828337 85.45795978046014 L -4.8823687351898 83.82703382846137 L -5.308030778662804 82.22293192113494 L -5.7157216376997795 80.6452059130014 L -6.105923428621444 79.09341997124469 L -6.479106082011057 77.5671501144871 L -6.835727782288279 76.06598377139754 L -7.176235388454396 74.58951935814228 L -7.501064836944234 73.1373658737419 L -7.8106415274678795 71.70914251245193 L -8.105380692675494 70.30447829233424 L -8.385687752432734 68.923011699231 L -8.651958653450674 67.56439034539822 L -8.904580194973507 66.22827064209463 L -9.143930341189051 64.91431748546215 L -9.370378520991414 63.62220395506762 L -9.584285915691064 62.35161102451124 L -9.786005735236296 61.102227283537744 L -9.975883483479922 59.873748671115976 L -10.154257212997251 58.66587821898155 L -10.321457769934892 57.47832580516305 L -10.477809029344982 56.31080791703684 L -10.62362812143634 55.16304742347914 L -10.75922564915156 54.034773355706534 L -10.88490589745877 52.92572069641689 L -11.000967034726676 51.83563017686069 L -11.107701306533258 50.76424808149312 L -11.205395222241401 49.71132605987533 L -11.294329734657222 48.676620945505775 L -11.374780413072575 47.659894581283126 L -11.447017609977543 46.66091365131422 L -11.511306621715317 45.67944951879382 L -11.567907843338439 44.71527806969816 L -11.617076917913364 43.7681795620454 L -11.659064880508032 42.837938480487836 L -11.694118297086431 41.924343396012176 L -11.722479398523394 41.0271868305349 L -11.744386209942995 40.14626512618936 L -11.760072675574241 39.28137831911001 L -11.76976877930935 38.43233001753042 L -11.773700661140774 37.59892728401752 L -11.772090729645322 36.78098052167375 L -11.765157770676526 35.978303364147024 L -11.753117052418258 35.19071256929421 L -11.736180426946888 34.418027916352784 L -11.714556428441583 33.66007210647891 L -11.688450368176975 32.91667066651904 L -11.658064426426384 32.18765185588712 L -11.623597741397807 31.472846576424338 L -11.5852464953202 30.772088285124582 L -11.543203997791892 30.085212909613404 L -11.497660766498825 29.412058766273645 L -11.448804605405055 28.75246648091381 L -11.396820680514331 28.106278911882278 L -11.341891593296882 27.4733410755318 L -11.284197451871822 26.853500073944574 L -11.223915940031997 26.24660502483114 L -11.161222384194279 25.652506993519808 L -11.096289818354968 25.071058926957207 L -11.029289047127097 24.502115589643438 L -10.960388706932644 23.945533501428095 L -10.889755325420719 23.40117087709759 L -10.817553379178612 22.86888756768434 L -10.743945349801887 22.348545003435405 L -10.669091778384896 21.840006138375514 L -10.593151318492563 21.343135396405827 L -10.516280787671004 20.857798618880615 L -10.438635217552608 20.383863013605975 L -10.360367902608928 19.921197105206772 L -10.281630447603298 19.469670686811554 L -10.202572813792148 19.029154773004088 L -10.123343363923471 18.599521553995586 L -10.044088906078098 18.18064435097046 L -9.964954736398074 17.77239757256136 L -9.88608468074531 17.374656672411177 L -9.807621135331587 16.98729810778068 L -9.72970510635967 16.61019929916118 L -9.652476248714287 16.24323859085495 L -9.576072903739863 15.886295212485159 L -9.500632136141391 15.539249241400519 L -9.426289770042352 15.201981565938468 L -9.353180424234381 14.874373849515152 L -9.281437546650125 14.556308495508027 L -9.211193448091535 14.247668612900668 L -9.142579335243756 13.94833798265907 L -9.075725343004073 13.658201024809536 L -9.010760566154811 13.37714276619019 L -8.947813090407948 13.105048808847862 L -8.887010022848095 12.841805299053291 L -8.828477521800664 12.587298896909054 L -8.772340826150064 12.34141674652409 L -8.718724284133224 12.1040464467306 L -8.667751381632087 11.875076022318694 L -8.619544769988892 11.654393895765686 L -8.574226293367126 11.441888859437505 L -8.53191701568013 11.237450048238962 L -8.492737247109531 11.040966912692163 L -8.456806570234335 10.852329192420946 L -8.424243865792008 10.671426890021408 L -8.395167338091213 10.498150245297523 L -8.36969454009678 10.332389709842388 L -8.347942398205674 10.174035921945261 L -8.330027236733784 10.022979681805808 L -8.31606480213189 9.879111927036433 L -8.306170286949012 9.742323708434036 L -8.300458353561993 9.612506166003776 L -8.299043157688573 9.48955050521677 L -8.30203837170125 9.373347973483213 L -8.309557207760612 9.263789836825921 L -8.321712440783045 9.160767356733786 L -8.33861643126206 9.064171767182003 L -8.360381147958407 8.97389425179935 L -8.387118190475874 8.889825921167635 L -8.418938811739672 8.811857790236282 L -8.455953940392945 8.739880755835834 L -8.498274203128354 8.673785574274397 L -8.546009946970266 8.613462839000718 L -8.599271261523839 8.558802958317884 L -8.658168001206839 8.50969613313167 L -8.722809807480438 8.466032334717667 L -8.793306131094617 8.427701282491277 L -8.869766254364258 8.394592421764258 L -8.952299313491956 8.366594901472475 L -9.041014320953465 8.343597551858132 L -9.136020187961776 8.325488862090893 L -9.237425747026414 8.312156957811638 L -9.345339774623838 8.30348957858262 L -9.459871013995034 8.29937405522712 L -9.581128198087683 8.299697287042918 L -9.70922007265876 8.304345718872419 L -9.844255419554898 8.313205318012535 L -9.986343080187346 8.32616155094751 L -10.135591979218745 8.34309935988719 L -10.29211114847935 8.363903139093388 L -10.456009751130551 8.388456710976598 L -10.62739710609332 8.41664330194481 L -10.806382712760417 8.448345517986333 L -10.993076276010605 8.483445319967736 L -11.187587731544319 8.521823998628115 L -11.390027271559482 8.563362149249897 L -11.60050537078827 8.607939645987074 L -11.819132812913814 8.655435615829731 L -12.04602071738858 8.705728412185103 L -12.281280566674859 8.758695588053492 L -12.525024233929123 8.81421386877733 L -12.777364011152734 8.872159124341898 L -13.038412637831321 8.932406341204079 L -13.308283330086113 8.994829593626353 L -13.58708981036174 9.059302014492143 L -13.874946337674096 9.125695765577401 L -14.171967738444806 9.193882007253919 L -14.478269437946913 9.263730867597467 L -14.793967492389726 9.335111410874575 L -15.119178621669796 9.407891605380367 L -15.454020242816362 9.481938290598382 L -15.798610504161005 9.557117143653976 L -16.15306832026156 9.633292645030387 L -16.517513407610906 9.71032804351633 L -16.89206632116406 9.788085320353147 L -17.276848491715576 9.866425152547972 L -17.671982264162843 9.945206875318572 L -18.07759093668956 10.024288443633992 L -18.49379880090784 10.103526392814672 L -18.920731182995247 10.182775798153113 L -19.358514485868298 10.2618902335166 L -19.807276232430752 10.340721728889715 L -20.267145109942362 10.419120726815795 L -20.738251015548386 10.496936037691807 L -21.220725103018964 10.574014793872283 L -21.714699830742376 10.6502024025339 L -22.22030901102454 10.725342497252658 L -22.737687860742668 10.799276888241582 L -23.266973053408385 10.871845511196728 L -23.80830277269417 10.942886374696052 L -24.361816767480377 11.012235506093937 L -24.92765640848286 11.079726895851987 L -25.505964746522523 11.145192440244056 L -26.096886572501404 11.20846188237121 L -26.700568479152366 11.269362751419344 L -27.317158924631805 11.32772030009011 L -27.94680829802882 11.383357440131999 L -28.58966898686507 11.4360946758961 L -29.245895446666196 11.4857500358376 L -29.915644272684652 11.532139001880683 L -30.599074273862442 11.575074436561225 L -31.29634654912013 11.614366507857623 L -32.0076245660681 11.64982261161647 L -32.733074242235915 11.681247291475863 L -33.472864028921684 11.708442156184324 L -34.22716499776795 11.73120579420935 L -34.99615093017465 11.749333685524583 L -35.77999840966493 11.76261811045972 L -36.578886917326 11.770848055492026 L -37.39299893044915 11.773809115852611 L -38.22252002450492 11.771283394815336 L -39.06763897858798 11.763049399529379 L -39.92854788448079 11.748881933250829 L -40.80544225948343 11.728551983821125 L -41.698521163172856 11.701826608233839 L -42.6079873182544 11.66846881312294 L -43.53404723568195 11.628237430998416 L -44.476911344228775 11.580886992046374 L -45.43679412470071 11.52616759130205 L -46.41391424899241 11.463824750994775 L -47.408494724197524 11.393599277854179 L -48.42076304199355 11.31522711515656 L -49.45095133353465 11.228439189279074 L -50.49929653009356 11.132961250518479 L -51.5660405297117 11.028513707917842 L -52.65143037012298 10.91481145783305 L -53.75571840823777 10.791563705955834 L -54.879162506478764 10.658473782496612 L -56.02202622628786 10.515238950214682 L -57.18457902912576 10.361550204966713 L -58.36709648531567 10.19709206842818 L -59.56986049109183 10.02154237262315 L -60.793159494237685 9.834572035879223 L -62.037288728717144 9.635844829803581 L -63.302550458724966 9.425017136854548 L -64.5892542326034 9.201737698059901 L -65.89771714710182 8.965647350408592 L -67.22826412247288 8.716378753417146 L -68.58122818893843 8.4535561043431 L -69.9569507850749 8.176794841490382 L -71.35578206871148 7.8857013350180605 L -72.77808124095596 7.57987256463315 L -74.22421688400915 7.258895783510445 L -75.69456731345718 6.922348167746656 L -77.18952094577783 6.569796450615003 L -78.70947668183561 6.200796540844021 L -80.25484430718843 5.814893124098959 L -81.82604491007409 5.4116192467955955 L -83.4235113180019 4.990495881323943 L -85.04768855392157 4.55103147170571 L -86.69903431301175 4.092721458647555 L -88.37801946118131 3.615047782892742 L -90.08512855645597 3.1174783657022838 L -91.82086039448309 2.5994665652288687 L -93.5857285794771 2.0604506074652678 L -95.38026212199729 1.499852990370779 L -97.20500606505192 0.9170798596864372 L -99.06052214010504 0.3115203548584654 L -99.06052214010529 -0.31152035485839796 L -97.20500606505213 -0.9170798596863721 L -95.38026212199738 -1.4998529903707571 L -93.58572857947728 -2.060450607465207 L -91.82086039448323 -2.5994665652288096 L -90.08512855645617 -3.1174783657022287 L -88.37801946118148 -3.615047782892688 L -86.69903431301192 -4.092721458647503 L -85.04768855392172 -4.551031471705659 L -83.42351131800197 -4.990495881323928 L -81.82604491007423 -5.4116192467955475 L -80.25484430718848 -5.814893124098942 L -78.70947668183578 -6.20079654084398 L -77.18952094577787 -6.569796450614987 L -75.69456731345733 -6.922348167746618 L -74.22421688400924 -7.258895783510435 L -72.778081240956 -7.5798725646331375 L -71.35578206871153 -7.885701335018048 L -69.95695078507504 -8.176794841490349 L -68.58122818893847 -8.453556104343086 L -67.228264122473 -8.716378753417114 L -65.89771714710177 -8.965647350408597 L -64.58925423260358 -9.20173769805988 L -63.30255045872495 -9.425017136854562 L -62.03728872871733 -9.635844829803567 L -60.79315949423773 -9.834572035879217 L -59.56986049109197 -10.021542372623134 L -58.36709648531571 -10.197092068428173 L -57.184579029125885 -10.361550204966694 L -56.02202622628792 -10.515238950214679 L -54.87916250647889 -10.658473782496623 L -53.75571840823781 -10.791563705955827 L -52.65143037012312 -10.91481145783304 L -51.566040529711714 -11.02851370791783 L -50.49929653009363 -11.13296125051846 L -49.45095133353463 -11.228439189279083 L -48.42076304199365 -11.315227115156546 L -47.40849472419748 -11.393599277854179 L -46.41391424899254 -11.463824750994773 L -45.43679412470077 -11.526167591302052 L -44.47691134422891 -11.580886992046377 L -43.53404723568197 -11.628237430998409 L -42.60798731825442 -11.668468813122935 L -41.698521163172906 -11.701826608233842 L -40.80544225948347 -11.728551983821124 L -39.92854788448081 -11.74888193325082 L -39.06763897858812 -11.763049399529393 L -38.22252002450496 -11.771283394815336 L -37.39299893044925 -11.77380911585262 L -36.57888691732596 -11.770848055492017 L -35.77999840966499 -11.76261811045972 L -34.996150930174636 -11.749333685524585 L -34.22716499776806 -11.73120579420936 L -33.472864028921734 -11.708442156184333 L -32.733074242236015 -11.681247291475872 L -32.00762456606812 -11.649822611616466 L -31.296346549120145 -11.614366507857616 L -30.599074273862485 -11.575074436561234 L -29.91564427268473 -11.53213900188069 L -29.245895446666232 -11.485750035837608 L -28.589668986865178 -11.436094675896118 L -27.94680829802884 -11.38335744013202 L -27.31715892463192 -11.327720300090139 L -26.700568479152352 -11.269362751419344 L -26.09688657250146 -11.208461882371214 L -25.505964746522523 -11.145192440244063 L -24.92765640848293 -11.079726895851998 L -24.36181676748035 -11.012235506093912 L -23.80830277269419 -10.942886374696041 L -23.266973053408407 -10.871845511196735 L -22.73768786074271 -10.799276888241593 L -22.220309011024554 -10.725342497252662 L -21.714699830742404 -10.6502024025339 L -21.220725103018943 -10.574014793872266 L -20.738251015548414 -10.496936037691807 L -20.267145109942305 -10.419120726815766 L -19.807276232430794 -10.340721728889719 L -19.358514485868255 -10.261890233516581 L -18.92073118299532 -10.182775798153141 L -18.493798800907854 -10.103526392814675 L -18.07759093668963 -10.024288443634017 L -17.67198226416285 -9.94520687531858 L -17.27684849171561 -9.866425152547983 L -16.892066321164044 -9.788085320353137 L -16.517513407610892 -9.710328043516313 L -16.153068320261575 -9.633292645030398 L -15.798610504161019 -9.557117143653965 L -15.45402024281637 -9.481938290598372 L -15.119178621669825 -9.407891605380371 L -14.79396749238974 -9.335111410874596 L -14.478269437946928 -9.26373086759747 L -14.171967738444799 -9.193882007253936 L -13.874946337674118 -9.125695765577412 L -13.587089810361725 -9.059302014492125 L -13.308283330086162 -8.99482959362637 L -13.03841263783135 -8.93240634120409 L -12.777364011152748 -8.872159124341906 L -12.52502423392913 -8.81421386877733 L -12.281280566674859 -8.758695588053477 L -12.046020717388615 -8.705728412185124 L -11.819132812913836 -8.655435615829738 L -11.60050537078829 -8.607939645987095 L -11.39002727155949 -8.563362149249897 L -11.187587731544333 -8.521823998628122 L -10.993076276010612 -8.483445319967736 L -10.806382712760403 -8.448345517986333 L -10.62739710609334 -8.416643301944816 L -10.456009751130537 -8.388456710976584 L -10.292111148479378 -8.363903139093402 L -10.13559197921876 -8.343099359887198 L -9.986343080187382 -8.326161550947532 L -9.844255419554898 -8.313205318012528 L -9.70922007265878 -8.304345718872433 L -9.581128198087697 -8.299697287042925 L -9.459871013995048 -8.299374055227112 L -9.345339774623866 -8.30348957858265 L -9.237425747026435 -8.312156957811652 L -9.136020187961734 -8.325488862090843 L -9.041014320953444 -8.343597551858103 L -8.95229931349197 -8.366594901472475 L -8.8697662543643 -8.394592421764294 L -8.793306131094596 -8.427701282491249 L -8.722809807480445 -8.466032334717674 L -8.658168001206846 -8.509696133131676 L -8.599271261523825 -8.558802958317877 L -8.546009946970273 -8.613462839000718 L -8.498274203128354 -8.673785574274383 L -8.455953940392966 -8.739880755835834 L -8.418938811739686 -8.811857790236289 L -8.387118190475903 -8.889825921167656 L -8.360381147958428 -8.973894251799365 L -8.338616431262075 -9.064171767182003 L -8.321712440783017 -9.160767356733743 L -8.309557207760605 -9.263789836825879 L -8.302038371701293 -9.373347973483256 L -8.299043157688544 -9.48955050521672 L -8.300458353562007 -9.612506166003783 L -8.306170286948998 -9.742323708434014 L -8.316064802131912 -9.879111927036469 L -8.330027236733848 -10.022979681805886 L -8.347942398205689 -10.174035921945261 L -8.369694540096766 -10.332389709842367 L -8.395167338091191 -10.498150245297502 L -8.424243865791972 -10.671426890021372 L -8.456806570234306 -10.852329192420903 L -8.492737247109517 -11.040966912692134 L -8.53191701568013 -11.237450048238976 L -8.574226293367104 -11.441888859437476 L -8.619544769988885 -11.654393895765686 L -8.667751381632065 -11.875076022318638 L -8.718724284133245 -12.10404644673065 L -8.772340826150064 -12.341416746524075 L -8.828477521800657 -12.58729889690904 L -8.887010022848095 -12.84180529905327 L -8.947813090407955 -13.105048808847869 L -9.010760566154847 -13.377142766190225 L -9.075725343004077 -13.658201024809536 L -9.142579335243742 -13.94833798265902 L -9.211193448091528 -14.247668612900654 L -9.281437546650071 -14.556308495507935 L -9.35318042423436 -14.87437384951511 L -9.426289770042327 -15.201981565938404 L -9.500632136141377 -15.539249241400483 L -9.576072903739881 -15.886295212485201 L -9.652476248714269 -16.243238590854908 L -9.729705106359688 -16.61019929916121 L -9.807621135331594 -16.98729810778066 L -9.886084680745306 -17.37465667241115 L -9.964954736398067 -17.77239757256134 L -10.044088906078077 -18.18064435097041 L -10.123343363923485 -18.599521553995636 L -10.202572813792138 -19.029154773004066 L -10.281630447603288 -19.469670686811533 L -10.360367902608935 -19.921197105206765 L -10.438635217552601 -20.383863013605968 L -10.516280787671 -20.857798618880608 L -10.59315131849257 -21.34313539640585 L -10.669091778384896 -21.8400061383755 L -10.74394534980189 -22.34854500343542 L -10.817553379178609 -22.86888756768431 L -10.889755325420719 -23.40117087709757 L -10.960388706932644 -23.945533501428045 L -11.029289047127076 -24.502115589643353 L -11.096289818354965 -25.07105892695713 L -11.161222384194271 -25.652506993519758 L -11.223915940031997 -26.246605024831055 L -11.284197451871812 -26.853500073944517 L -11.341891593296872 -27.473341075531692 L -11.396820680514328 -28.106278911882207 L -11.448804605405044 -28.75246648091376 L -11.497660766498822 -29.412058766273574 L -11.543203997791888 -30.085212909613382 L -11.58524649532019 -30.77208828512449 L -11.623597741397802 -31.472846576424303 L -11.65806442642639 -32.187651855887076 L -11.688450368176973 -32.91667066651898 L -11.714556428441577 -33.6600721064789 L -11.736180426946888 -34.418027916352735 L -11.753117052418261 -35.19071256929421 L -11.765157770676495 -35.97830336414685 L -11.772090729645322 -36.78098052167375 L -11.77370066114077 -37.59892728401746 L -11.769768779309357 -38.432330017530404 L -11.76007267557424 -39.2813783191099 L -11.744386209943 -40.146265126189355 L -11.722479398523411 -41.02718683053487 L -11.69411829708644 -41.92434339601216 L -11.659064880508033 -42.83793848048772 L -11.617076917913357 -43.768179562045326 L -11.567907843338437 -44.71527806969798 L -11.511306621715319 -45.679449518793724 L -11.447017609977559 -46.660913651314075 L -11.374780413072571 -47.65989458128304 L -11.294329734657218 -48.67662094550573 L -11.205395222241412 -49.711326059875276 L -11.107701306533283 -50.764248081492966 L -11.000967034726669 -51.83563017686048 L -10.884905897458786 -52.92572069641689 L -10.759225649151576 -54.034773355706434 L -10.623628121436345 -55.163047423479085 L -10.477809029345003 -56.31080791703674 L -10.321457769934899 -57.478325805162996 L -10.154257212997248 -58.665878218981504 L -9.975883483479937 -59.87374867111589 L -9.786005735236326 -61.10222728353759 L -9.584285915691085 -62.351611024511186 L -9.370378520991414 -63.62220395506762 L -9.143930341189067 -64.91431748546205 L -8.90458019497354 -66.22827064209442 L -8.651958653450667 -67.56439034539827 L -8.385687752432744 -68.92301169923095 L -8.105380692675523 -70.30447829233407 L -7.810641527467931 -71.70914251245166 L -7.501064836944228 -73.13736587374198 L -7.176235388454413 -74.58951935814227 L -6.835727782288332 -76.06598377139736 L -6.479106082011135 -77.56715011448676 L -6.105923428621445 -79.09341997124469 L -5.715721637699805 -80.64520591300123 L -5.308030778662863 -82.22293192113469 L -4.882368735189835 -83.82703382846128 L -4.438240745828339 -85.45795978046014 L -3.9751389237280166 -87.11617071738415 L -3.4925417543861896 -88.80214087837163 L -2.989913570222025 -90.51635832874128 L -2.46670400071977 -92.25932551173328 L -1.9223473968069986 -94.03155982602536 L -1.3562622280453795 -95.83359423045238 L -0.7678504511259787 -97.66597787743088 L -0.15649684805984893 -99.52927677670365 L 0.465080518616455 -98.5937268676343 L 1.0648852062279877 -96.74595742610042 L 1.642057866115035 -94.92881808210957 L 2.1972050442409996 -93.14175133950994 L 2.730916446686147 -91.38421622371047 L 3.243765586097651 -89.65568763330249 L 3.7363103986520567 -87.95565572118218 L 4.209093833087655 -86.28362530361605 L 4.662644413271144 -84.63911529578577 L 5.097476775677719 -83.0216581724299 L 5.5140921830782155 -81.43079945229402 L 5.912979015655921 -79.86609720516313 L 6.294613240701013 -78.32712158033077 L 6.65945886196769 -76.81345435541586 L 7.007968349712943 -75.32468850451413 L 7.34058305238152 -73.86042778471536 L 7.657733590845659 -72.42028634007927 L 7.9598402360571985 -71.00388832221243 L 8.247313270921996 -69.61086752663667 L 8.52055333716192 -68.2408670441843 L 8.779951767888704 -66.89353892669291 L 9.025890906571904 -65.56854386632183 L 9.258744413048973 -64.26555088784009 L 9.47887755718932 -62.98423705327373 L 9.686647500791528 -61.72428717833344 L 9.882403568262397 -60.485393560075195 L 10.066487506597753 -59.26725571527383 L 10.239233735157452 -58.06958012901492 L 10.400969585701688 -56.89208001304034 L 10.552015533130945 -55.734475073405164 L 10.692685417350571 -54.59649128702293 L 10.823286656657627 -53.477860686704545 L 10.94412045302957 -52.378321154308 L 11.0554819896733 -51.29761622164432 L 11.157660621176886 -50.235494878793375 L 11.250940056587881 -49.19171138950976 L 11.335598535727133 -48.16602511340635 L 11.411908999031374 -47.158200334624 L 11.480139251203754 -46.16800609670898 L 11.540552118937628 -45.19521604343191 L 11.593405602967211 -44.23960826529384 L 11.638953024684653 -43.30096515148145 L 11.677443167553962 -42.379073247040566 L 11.709120413539637 -41.47372311505114 L 11.734224874758404 -40.5847092035913 L 11.752992520552695 -39.71182971729813 L 11.765655300174947 -38.854886493330596 L 11.772441261263797 -38.01368488155841 L 11.773574664283982 -37.18803362879889 L 11.769276093095087 -36.37774476694402 L 11.759762561805704 -35.582633504815874 L 11.745247618063392 -34.80251812360167 L 11.725941442923759 -34.03721987572554 L 11.702050947435676 -33.286562887020295 L 11.67377986607347 -32.55037406206739 L 11.641328847141608 -31.82848299258022 L 11.60489554027146 -31.12072186871076 L 11.564674681124957 -30.426925393166186 L 11.520858173414787 -29.746930698023462 L 11.473635168346235 -29.080577264139826 L 11.423192141581083 -28.42770684305539 L 11.369712967820305 -27.78816338129419 L 11.313378993097615 -27.16179294697018 L 11.254369104872453 -26.548443658609827 L 11.192859800007412 -25.94796561610648 L 11.129025250711265 -25.36021083372473 L 11.063037368526036 -24.785033175077984 L 10.99506586643274 -24.222288290003355 L 10.925278319147836 -23.67183355326099 L 10.853840221679725 -23.133528004991497 L 10.780915046211234 -22.607232292862356 L 10.706664297372292 -22.09280861584186 L 10.631247565963733 -21.59012066953688 L 10.55482258119137 -21.099033593037895 L 10.477545261467057 -20.619413917213386 L 10.399569763831096 -20.151129514399543 L 10.321048532048732 -19.6940495494322 L 10.242132343430914 -19.248044431971003 L 10.162970354428474 -18.81298577006764 L 10.083710145046261 -18.388746324930167 L 10.004497762122405 -17.975199966838552 L 9.925477761516905 -17.572221632169303 L 9.84679324925051 -17.179687281484377 L 9.768585921635683 -16.797473858647024 L 9.690996104437659 -16.425459250922323 L 9.614162791104498 -16.063522250027702 L 9.53822368010173 -15.711542514093892 L 9.46331521138768 -15.369400530503711 L 9.389572602063001 -15.03697757957248 L 9.31712988122796 -14.714155699038237 L 9.246119924079188 -14.400817649329454 L 9.17667448527699 -14.096846879579353 L 9.108924231613141 -13.802127494356675 L 9.042998774008204 -13.516544221083628 L 8.979026698866985 -13.239982378113744 L 8.917135598818955 -12.972327843441406 L 8.857452102870553 -12.71346702401619 L 8.800101905995326 -12.463286825637674 L 8.745209798186607 -12.221674623403779 L 8.692899692997557 -11.988518232689877 L 8.64329465559242 -11.763705880633601 L 8.59651693033134 -11.547126178102673 L 8.552687967912888 -11.33866809212401 L 8.511928452094509 -11.138220918750363 L 8.474358326013977 -10.945674256344645 L 8.440096818131494 -10.760917979259531 L 8.40926246781455 -10.58384221189366 L 8.381973150584052 -10.414337303102108 L 8.358346103042308 -10.252293800942866 L 8.338497947502475 -10.097602427740497 L 8.322544716336928 -9.950154055445722 L 8.31060187606515 -9.809839681275527 L 8.302784351197985 -9.6765504036131 L 8.299206547856357 -9.550177398150417 L 8.299982377182815 -9.430611894256018 L 8.305225278563057 -9.317745151550696 L 8.315048242674038 -9.211468436672632 L 8.329563834376735 -9.11167300021691 L 8.34888421546956 -9.018250053830911 L 8.37312116731924 -8.931090747449964 L 8.402386113385901 -8.850086146656189 L 8.436790141658683 -8.775127210144902 L 8.4764440270175 -8.706104767281303 L 8.521458253537993 -8.642909495732404 L 8.571943036755236 -8.58543189915735 L 8.628008345902238 -8.533562284940551 L 8.689763926138987 -8.487190741951125 L 8.757319320788902 -8.446207118313907 L 8.830783893597314 -8.410500999174282 L 8.910266851029085 -8.379961684442527 L 8.995877264620667 -8.354478166500861 L 9.087724093402848 -8.333939107857063 L 9.185916206410468 -8.318232818728923 L 9.290562405295148 -8.307247234543247 L 9.401771447057179 -8.300869893332752 L 9.519652066913494 -8.298987913014905 L 9.644313001317961 -8.301487968535668 L 9.775863011150534 -8.308256268861648 L 9.914410905092986 -8.31917853380353 L 10.06006556320743 -8.3341399706539 L 10.212935960735827 -8.353025250621798 L 10.373131192137343 -8.37571848504627 L 10.540760495382372 -8.402103201371695 L 10.715933276520282 -8.432062318865711 L 10.898759134540391 -8.465478124062045 L 11.08934788654458 -8.502232245909 L 11.2878095932505 -8.542205630604457 L 11.49425458484528 -8.585278516097858 L 11.708793487209839 -8.631330406239087 L 11.931537248533914 -8.680240044554083 L 12.162597166342472 -8.731885387625688 L 12.40208491495575 -8.786143578059175 L 12.650112573403845 -8.842890917009804 L 12.906792653819004 -8.902002836250428 L 13.172238130327514 -8.963353869755743 L 13.446562468467128 -9.026817624780286 L 13.729879655150945 -9.09226675240463 L 14.022304229206014 -9.159572917526415 L 14.323951312509386 -9.228606768268968 L 14.634936641750805 -9.29923790478258 L 14.955376600846627 -9.371334847410036 L 15.285388254034423 -9.444765004189126 L 15.625089379676986 -9.519394637663002 L 15.974598504805243 -9.595088830968756 L 16.33403494043064 -9.671711453173167 L 16.70351881765884 -9.749125123824175 L 17.08317112463778 -9.827191176685307 L 17.473113744374075 -9.905769622619125 L 17.873469493451076 -9.984719111584308 L 18.284362161687874 -10.06389689371095 L 18.70591655277316 -10.143158779415554 L 19.13825852591612 -10.222359098517959 L 19.581515038551913 -10.301350658319137 L 20.035814190144727 -10.37998470059847 L 20.50128526713125 -10.458110857487569 L 20.97805878904957 -10.535577106175555 L 21.46626655589919 -10.612229722399185 L 21.96604169678151 -10.687913232670212 L 22.4775187198695 -10.762470365189149 L 23.00083356375948 -10.835741999393885 L 23.536123650258965 -10.907567114089186 L 24.08352793866645 -10.97778273410081 L 24.643186981600095 -11.04622387539548 L 25.215242982439584 -11.112723488606889 L 25.799839854440137 -11.177112400903852 L 26.397123281587135 -11.239219256135161 L 27.007240781257778 -11.298870453182715 L 27.630341768763714 -11.355890082451857 L 28.26657762384535 -11.410099860424417 L 28.916101759197247 -11.461319062197372 L 29.57906969110512 -11.509364451926654 L 30.25563911227779 -11.554050211091845 L 30.945969966961144 -11.595187864494251 L 31.650224528426776 -11.632586203897265 L 32.36856747892956 -11.666051209213169 L 33.10116599223441 -11.695385967137216 L 33.84818981881491 -11.720390587125072 L 34.60981137383388 -11.740862114604647 L 35.38620582801798 -11.75659444130971 L 36.17755120154533 -11.767378212615771 L 36.98402846106977 -11.77300073175542 L 37.80582162001206 -11.773245860782756 L 38.64311784225124 -11.767893918151751 L 39.49610754936121 -11.756721572767088 L 40.36498453153767 -11.73950173435834 L 41.24994606237284 -11.716003440023094 L 42.15119301763834 -11.685991736775721 L 43.06892999825006 -11.649227559931534 L 44.00336545758988 -11.60546760714822 L 44.954711833373004 -11.554464207936709 L 45.92318568425631 -11.495965188446066 L 46.90900783139601 -11.42971373131591 L 47.91240350516598 -11.355448230381086 L 48.9336024972672 -11.272902140001635 L 49.97283931846303 -11.181803818780594 L 51.03035336219381 -11.081876367419298 L 52.106389074328916 -10.97283746044862 L 53.2011961293334 -10.854399171559805 L 54.315029613141164 -10.72626779224568 L 55.44815021303586 -10.588143643446989 L 56.600824414861975 -10.439720879883996 L 57.77332470790192 -10.28068728673586 L 58.965929797775516 -10.110724068312857 L 60.17892482773482 -9.929505628347869 L 61.41260160874582 -9.736699341513871 L 62.667258858775924 -9.531965315752155 L 63.94320245171902 -9.314956144975017 L 65.24074567642285 -9.085316651681453 L 66.56020950630379 -8.842683619000272 L 67.90192288005939 -8.586685511647644 L 69.2662229940225 -8.316942185258041 L 70.65345560672807 -8.03306458351673 L 72.06397535629532 -7.734654422490116 L 73.4981460912643 -7.421303861516421 L 74.9563412155577 -7.092595159982098 L 76.43894404828907 -6.748100319269984 L 77.94634819916178 -6.387380709126127 L 79.47895796026502 -6.009986677645395 L 81.03718871510709 -5.615457144031394 L 82.62146736578791 -5.203319173233287 L 84.23223277925217 -4.773087531512501 L 85.8699362536354 -4.324264221931252 L 87.53504200576567 -3.856337998697036 L 89.22802768095983 -3.36878385922851 L 90.94938488630845 -2.8610625127430205 L 92.69961974873067 -2.3326198240873954 L 94.47925349915637 -1.7828862314554856 L 96.28882308427632 -1.211276136550349 L 98.1288818073915 -0.617187265658187 L 100.0 0.0" fill="none" stroke="black" /></svg>