<?xml version="1.0" encoding="utf-8" ?>
<svg baseProfile="full" height="1000" version="1.1" viewBox="-500 -500 1000 1000" width="1000" xmlns="http://www.w3.org/2000/svg" xmlns:ev="http://www.w3.org/2001/xml-events" xmlns:xlink="http://www.w3.org/1999/xlink"><defs /><path d="M 100.0 0.0 L 98.75192858221725 0.6211059543076746 L 97.52324492475509 1.226804685658257 L 96.31356888485347 1.817500980452526 L 95.12253172403824 2.3935880623707853 L 93.9497756603931 2.955448039132672 L 92.79495344131809 3.503452328776199 L 91.65772793568735 4.037962066544058 L 90.53777174438362 4.559328493399709 L 89.43476682824779 5.067893327134688 L 88.34840415253915 5.563989116971556 L 87.27838334705557 6.047939582513737 L 86.22441238111155 6.520059937843659 L 85.18620725261977 6.980657201524261 L 84.16349169056426 7.430030493215342 L 83.15599687019431 7.868471317575601 L 82.16346114030708 8.29626383608322 L 81.18562976202084 8.713685127372013 L 80.22225465847552 9.121005436646893 L 79.27309417492913 9.518488414711136 L 78.33791284874529 9.906391347108286 L 77.41648118879783 10.284965373854282 L 76.50857546384276 10.654455700209411 L 75.61397749943168 11.01510179891528 L 74.73247448296473 11.36713760429932 L 73.86385877650206 11.710791698627819 L 73.00792773697297 12.046287491068385 L 72.16448354344071 12.37384338960353 L 71.33333303109936 12.693672966219538 L 70.51428753169533 13.005985115677689 L 69.70716272008225 13.310984208159205 L 68.91177846663308 13.608870236060365 L 68.12795869524656 13.899838955200016 L 67.35553124669997 14.184082020688821 L 66.59432774711019 14.46178711769646 L 65.84418348127993 14.733138087341908 L 65.10493727071426 14.998315047920181 L 64.37643135610489 15.257494511668714 L 63.658511284089414 15.510849497266587 L 62.95102579810094 15.758549638250287 L 62.25382673313398 16.00076128752086 L 61.56676891425997 16.237647618109154 L 60.88971005873353 16.46936872035729 L 60.22251068153918 16.696081695667853 L 59.56503400423368 16.917940746964256 L 58.91714586694816 17.13509726599989 L 58.2787146434178 17.34769991764638 L 57.64961115891542 17.555894721286073 L 57.02970861096985 17.759825129427583 L 56.41888249275483 17.959632103657846 L 55.81701051904108 18.155454188039474 L 55.223972554607315 18.34742758005655 L 54.639650545011406 18.5356861992079 L 54.063928449627554 18.720361753342424 L 53.4966921768591 18.901583802826735 L 52.937829521440094 19.079479822631278 L 52.387230103744145 19.25417526241786 L 51.844785311020516 19.42579360470718 L 51.31038824048257 19.59445642120229 L 50.7839336441759 19.760283427339996 L 50.265317875557386 19.923392535139907 L 49.754438837717984 20.083899904416903 L 49.25119593318669 20.24191999242113 L 48.75549001525417 20.397565601966107 L 48.26722334075778 20.550947928103348 L 47.78629952427238 20.70217660339968 L 47.31262349365262 20.85135974187063 L 46.84610144687595 20.998603981621848 L 46.3866408101362 21.144014526247453 L 45.934150197140866 21.287695185033286 L 45.48853936956624 21.42974841201041 L 45.04971919862663 21.570275343902665 L 44.617601627715615 21.709375837010306 L 44.19209963607889 21.847148503070336 L 43.773127203480115 21.98369074413243 L 43.3605992758218 22.119098786487633 L 42.95443173168562 22.253467713686025 L 42.55454134975754 22.386891498678 L 42.16084577710451 22.519463035112594 L 41.773263498269756 22.651274167824617 L 41.391713805157195 22.782415722542222 L 41.01611676767368 22.912977534844035 L 40.646393205101376 23.043048478395228 L 40.28246465817165 23.172716492489933 L 39.92425336181455 23.302068608926923 L 39.57168221855737 23.43119097824455 L 39.22467477254746 23.56016889533962 L 38.88315518417539 23.68908682449466 L 38.547048205275004 23.818028423836772 L 38.21627915487764 23.94707656925071 L 37.890773895498896 24.076313377767796 L 37.57045880993688 24.205820230452318 L 37.25526077856101 24.335677794805168 L 36.945107157072385 24.465966046705432 L 36.63992575471548 24.59676429190827 L 36.33964481292324 24.7281511871184 L 36.04419298437748 24.860204760657197 L 35.75349931246632 24.993002432740546 L 35.46749321112232 25.126621035385146 L 35.18610444502448 25.261136831959558 L 34.90926311014776 25.396625536396208 L 34.63689961464439 25.53316233208007 L 34.36894466004209 25.670821890429455 L 34.10532922274362 25.809678389183837 L 33.84598453581357 25.94980553041324 L 33.590842071037805 26.091276558263417 L 33.339833521242014 26.234164276450986 L 33.09289078285535 26.37854106552168 L 32.84994593870623 26.524478899885594 L 32.61093124103691 26.672049364641914 L 32.37577909472434 26.821323672206344 L 32.14442204069461 26.972372678753672 L 31.91679273951855 27.125266900487585 L 31.692823955176664 27.28007652975014 L 31.472448538981318 27.436871450982885 L 31.255599413644187 27.595721256550746 L 31.04220955747796 27.75669526244121 L 30.832211988720324 27.919862523849368 L 30.62553974996928 28.085291850660678 L 30.42212589271843 28.25305182284232 L 30.221903461981427 28.423210805754376 L 30.024805480994235 28.595836965391584 L 29.830764935984714 28.770998283566687 L 29.639714760998718 28.94876257304632 L 29.45158782277156 29.129197492649805 L 29.266316905634596 29.312370562321732 L 29.083834696446093 29.49834917818913 L 28.904073769535746 29.687200627613628 L 28.726966571652365 29.878992104249424 L 28.552445406903683 30.073790723117373 L 28.380442421678335 30.271663535706242 L 28.210889589538713 30.472677545111537 L 28.043718696074272 30.67689972122259 L 27.878861323704626 30.884397015968744 L 27.71624883642135 31.09523637863553 L 27.555812364457932 31.3094847712615 L 27.397482788876488 31.527209184126892 L 27.241190726060516 31.748476651345023 L 27.086866512102432 31.973354266567934 L 26.934440187074213 32.20190919881709 L 26.783841479170324 32.43420870845114 L 26.634999788710626 32.67032016328197 L 26.487844171991984 32.91031105485109 L 26.342303324976218 33.154249014877834 L 26.19830556680282 33.40220183189265 L 26.055778823113094 33.65423746806617 L 25.914650609174092 33.91042407624838 L 25.77484801278891 34.170830017229534 L 25.636297676980437 34.43552387723656 L 25.498925782434956 34.704574485677995 L 25.362658029692348 34.978050933151394 L 25.227419621068236 35.25602258972694 L 25.09313524229455 35.53855912352194 L 24.95972904386299 35.82573051958036 L 24.827124622057106 36.11760709907307 L 24.695244999656826 36.41425953883352 L 24.56401260630038 36.715758891245486 L 24.43334925848655 37.02217660449833 L 24.303176139201057 37.333584543227104 L 24.17341377714969 37.65005500955462 L 24.043982025580327 37.97166076455268 L 23.914800040676013 38.29847505014172 L 23.785786259499517 38.6305716114462 L 23.656858377471018 38.9680247196268 L 23.527933325358056 39.31090919520804 L 23.39892724575742 39.659300431922574 L 23.269755469047844 40.013274421093485 L 23.14033248879114 40.3729077765763 L 23.01057193655932 40.738277760283765 L 22.88038655616383 41.109462308316665 L 22.749688177262982 41.48654005772519 L 22.618387688321974 41.869590373926044 L 22.486395008899642 42.2586933788013 L 22.353619061234696 42.65392997950576 L 22.219967741103765 43.055381898011575 L 22.08534788792184 43.46313170141839 L 21.94966525405514 43.87726283305946 L 21.812824473315246 44.29785964443502 L 21.6747290286019 44.72500742800517 L 21.53528121866075 45.15879245087601 L 21.39438212392141 45.599301989414144 L 21.25193157137889 46.0466243648255 L 21.107828098481292 46.50084897973673 L 20.96196891598391 46.96206635581812 L 20.81424986972922 47.43036817248873 L 20.664565401310163 47.905847306746736 L 20.512808507572487 48.38859787416865 L 20.358870698910046 48.87871527112382 L 20.2026419563052 49.376296218251966 L 20.044010687064347 49.88143880525385 L 19.88286367919634 50.394242537046665 L 19.719086054379908 50.91480838133924 L 19.552561219463087 51.443238817682456 L 19.383170816436 51.97963788805511 L 19.210794670815183 52.52411124904572 L 19.03531073837539 53.07676622569504 L 18.856595050161754 53.6377118670662 L 18.674521655712184 54.20705900361243 L 18.4889625644171 54.78492030641543 L 18.29978768493975 55.37141034837103 L 18.10686476261766 55.96664566740192 L 17.910059314761206 56.57074483178015 L 17.709234563762607 57.18382850764846 L 17.50425136792334 57.80601952882945 L 17.294968149905017 58.43744296902031 L 17.081240822703304 59.07822621647158 L 16.862922713040174 59.72849905125521 L 16.639864482065185 60.388393725232106 L 16.41191404325029 61.058045044832696 L 16.178916477358314 61.737590456772224 L 15.940713944358503 62.42717013682626 L 15.697145592157131 63.126927081799266 L 15.448047462003919 63.83700720482372 L 15.193252390429086 64.55755943413763 L 14.93258990755783 65.28873581549104 L 14.665886131641905 66.03069161834323 L 14.392963659639749 66.78358544601899 L 14.113641453668068 67.54757935000069 L 13.82773472313885 68.32283894854218 L 13.535054802386142 69.1095335498006 L 13.235409023577043 69.907836279691 L 12.928600584690452 70.71792421468056 L 12.614428412335995 71.53997851975018 L 12.292687019173378 72.37418459176239 L 11.963166355680011 73.22073220848877 L 11.62565165600096 74.07981568356148 L 11.279923277601188 74.95163402763033 L 10.925756534425007 75.83639111601954 L 10.562921523251273 76.73429586319556 L 10.191182942916077 77.64556240437464 L 9.810299906056464 78.57041028461666 L 9.420025743009269 79.5090646557701 L 9.020107797479104 80.46175648165564 L 8.610287213567066 81.42872275189536 L 8.190298713729343 82.4102067048191 L 7.759870367209558 83.40645805990391 L 7.31872334846278 84.41773326022893 L 6.866571685060936 85.44429572545492 L 6.40312199453967 86.48641611586987 L 5.928073209614806 87.5443726080712 L 5.441116291162389 88.61845118289135 L 4.941933928320547 89.70894592620792 L 4.43020022503217 90.8161593433197 L 3.9055803723063773 91.94040268761063 L 3.3677303054324246 93.08199630426758 L 2.816296345332537 94.24126998986576 L 2.2509148231892584 95.4185633686862 L 1.6712116874293272 96.6142262866829 L 1.0768020920875145 97.82861922407665 L 0.4672899655120456 99.06211372761334 L -0.1567435002926823 99.68614331208916 L -0.7739590503995495 98.44295511387895 L -1.3758696833889739 97.21905854585994 L -1.9628772519350077 96.01407635948122 L -2.535372159663324 94.82764259656324 L -3.093733802685094 93.65940214679664 L -3.638330990928485 92.50901032545043 L -4.169522350339013 91.37613247021717 L -4.687656706955592 90.26044355618865 L -5.19307345380906 89.16162782801652 L -5.686102901534137 88.07937844836474 L -6.167066613533004 87.0133971618176 L -6.6362777264802695 85.9633939734528 L -7.094041256913124 84.92908684133596 L -7.540654394607732 83.91020138223517 L -7.976406783403061 82.90647058989528 L -8.401580790095624 81.91763456524744 L -8.816451761993976 80.94344025796593 L -9.221288273688355 79.98364121881652 L -9.616352363560521 79.03799736227134 L -10.001899760529733 78.10627473889471 L -10.37818010150366 77.18824531703041 L -10.74543713997755 76.28368677334805 L -11.10390894620132 75.3923822918282 L -11.453828099311226 74.51412037078993 L -11.795421871802219 73.6486946375848 L -12.128912406696813 72.79590367060113 L -12.454516887747817 71.95555082824158 L -12.772447702994647 71.12744408455433 L -13.082912601976206 70.3113958712147 L -13.386114846888098 69.50722292556965 L -13.682253357956702 68.71474614447234 L -13.971522853289347 67.93379044364848 L -14.254113983446285 67.1641846223474 L -14.53021346096802 66.40576123304517 L -14.800004185080187 65.65835645597818 L -15.063665361786445 64.92180997829506 L -15.32137261955043 64.19596487762742 L -15.573298120757189 63.48066750988869 L -15.819610669135768 62.7757674011188 L -16.06047581331557 62.08111714320273 L -16.296055946681076 61.396572293298306 L -16.526510403681414 60.721991276816524 L -16.751995552744102 60.057235293805206 L -16.972664885935018 59.40216822859412 L -17.188669105500303 58.75665656256588 L -17.400156207419162 58.12056928992297 L -17.60727156209124 57.49377783632865 L -17.81015799227584 56.87615598030331 L -18.008955848395317 56.26757977726422 L -18.20380308131005 55.66792748610173 L -18.39483531266692 55.07707949818932 L -18.582185902919562 54.494918268730274 L -18.76598601711334 53.9213282503469 L -18.94636468852469 53.35619582882332 L -19.12344888024004 52.799409260916704 L -19.297363544755985 52.25085861415509 L -19.468231681678937 51.71043570854346 L -19.636174393598836 51.17803406010381 L -19.801310940208666 50.65354882617757 L -19.963758790738133 50.1368767524213 L -20.123633674767284 49.62791612143103 L -20.281049631482865 49.126566702931484 L -20.436119057437644 48.63272970547055 L -20.588952752870625 48.146307729560945 L -20.739659966643387 47.667204722213654 L -20.888348439845757 47.195325932810334 L -21.03512444812185 46.73057787026342 L -21.180092842765347 46.27286826141501 L -21.32335709063112 45.82210601062803 L -21.46501931290804 45.37820116052343 L -21.605180322796883 44.94106485382176 L -21.743939662134288 44.51060929624592 L -21.881395637003465 44.08674772044573 L -22.017645352369783 43.66939435090602 L -22.152784745778447 43.25846436980085 L -22.28690862014986 42.853873883757984 L -22.420110675707132 42.455539891500294 L -22.552483541068497 42.06338025232962 L -22.684118803536848 41.67731365542268 L -22.815107038616873 41.29725958990741 L -22.94553783878927 40.92313831569045 L -23.075499841570824 40.55487083500742 L -23.205080756887718 40.19237886466841 L -23.334367393788604 39.83558480897182 L -23.463445686523148 39.48441173326147 L -23.592400720010872 39.13878333810163 L -23.72131675472419 38.79862393404677 L -23.850277251008556 38.463858416981864 L -23.979364892862655 38.13441224401212 L -24.108661611199654 37.81021140987943 L -24.238248606611002 37.49118242388511 L -24.368206371652825 37.177252287298586 L -24.498614712674662 36.86834847123214 L -24.629552771209603 36.56439889496289 L -24.761099044944554 36.26533190468335 L -24.893331408288184 35.97107625266251 L -25.026327132554552 35.68156107680031 L -25.160162905778943 35.39671588055813 L -25.29491485218265 35.116470513249254 L -25.430658551302706 34.84075515067269 L -25.56746905680215 34.569500276075146 L -25.705420914976244 34.30263666142608 L -25.844588182969265 34.04009534899028 L -25.985044446716582 33.78180763318427 L -26.126862838625964 33.52770504270168 L -26.270116055012288 33.27771932289442 L -26.414876373298767 33.03178241839561 L -26.561215668998376 32.78982645597121 L -26.70920543248803 32.551783727587434 L -26.858916785588683 32.317586673681106 L -27.01042049796354 32.08716786662062 L -27.163787003346574 31.86045999434495 L -27.31908641561397 31.637395844168907 L -27.476388544709664 31.417908286743014 L -27.63576291243706 31.201930260155166 L -27.797278768128677 30.989394754164593 L -27.961005104204443 30.780234794553976 L -28.127010671630572 30.574383427591464 L -28.295363995290028 30.37177370458885 L -28.466133389275033 30.172338666546718 L -28.639386972113474 29.976011328874502 L -28.81519268193922 29.782724666175174 L -28.99361829161774 29.59241159708364 L -29.174731423837382 29.40500496914811 L -29.35859956617717 29.220437543743692 L -29.545290086161554 29.038641981007704 L -29.734870246313218 28.859550824785835 L -29.92740721921388 28.683096487579068 L -30.12296810258441 28.509211235479853 L -30.32161993439425 28.337827173087966 L -30.523429708011502 28.168876228394303 L -30.728464387403548 28.002290137622794 L -30.936790922399943 27.838000430019083 L -31.148476264027682 27.675938412575544 L -31.36358737992979 27.516035154681283 L -31.58219126987886 27.35822147268644 L -31.804354981395747 27.202427914369846 L -32.030145625485574 27.048584743298136 L -32.25963039250155 26.896621923065876 L -32.4928765681487 26.746469101404266 L -32.72995154963887 26.5980555941475 L -32.970922862008976 26.451310369044595 L -33.2158581746144 26.306162029404664 L -33.46482531780984 26.162538797563535 L -33.71789229982991 26.02036849815926 L -33.975127323882546 25.879578541203674 L -34.236598805467324 25.74009590493737 L -34.502375389933036 25.601847118454636 L -34.77252597028668 25.464758244085097 L -35.04711970526879 25.328754859518046 L -35.326226037708324 25.193762039655855 L -35.609914713172 25.05970433818122 L -35.89825579892266 24.926505768824647 L -36.191319703201884 24.794089786315812 L -36.48917719485215 24.662379267004084 L -36.791899423294936 24.531296489132004 L -37.09955793888061 24.40076311274514 L -37.41222471362745 24.270700159221906 L -37.729972162366664 24.14102799040553 L -38.05287316431169 24.011666287320455 L -38.381001085069784 23.882534028455304 L -38.71442979911504 23.753549467592336 L -39.05323371274221 23.624630111165274 L -39.39748778752191 23.495692695124067 L -39.74726756427698 23.366653161286635 L -40.10264918760298 23.23742663315563 L -40.46370943095347 23.1079273911783 L -40.830525722314306 22.9780688474264 L -41.20317617048951 22.84776351967226 L -41.581739592024476 22.71692300483678 L -41.966295538790646 22.585457951783518 L -42.356924326259374 22.45327803343308 L -42.75370706249045 22.320291918169787 L -43.15672567786592 22.186407240513162 L -43.56606295559571 22.051530571024387 L -43.98180256302824 21.91556738541739 L -44.40402908379488 21.778422032843256 L -44.832828050823636 21.63999770331496 L -45.26828598025352 21.500196394238607 L -45.71049040628692 21.358918876015636 L -46.159529917015504 21.216064656679606 L -46.61549419125811 21.071531945529053 L -47.078474036450345 20.92521761571708 L -47.54856142762712 20.77701716575616 L -48.0258495475408 20.626824679895513 L -48.510432827960045 20.474532787325806 L -49.00240699219529 20.320032620165676 L -49.50186909890007 20.163213770180327 L -50.00891758719756 20.003964244183017 L -50.5236523231862 19.8421704180657 L -51.04617464787768 19.677716989404995 L -51.57658742662639 19.510486928585443 L -52.11499510010766 19.340361428381215 L -52.66150373690901 19.167219851933275 L -53.216221087798104 18.99093967905778 L -53.77925664173556 18.811396450817448 L -54.35072168370337 18.62846371228527 L -54.93072935442295 18.44201295342667 L -55.519394712039514 18.251913548022806 L -56.116834795854885 18.05803269055413 L -56.72316869219078 17.8602353309601 L -57.33851760247384 17.658384107186286 L -57.96300491363168 17.452339275426993 L -58.59675627089953 17.241958637966277 L -59.23989965313571 17.027097468516565 L -59.89256545075472 16.807608434948634 L -60.5548865463865 16.583341519302174 L -61.226998398379564 16.354143934960625 L -61.90903912726914 16.11986004086843 L -62.60114960533832 15.880331252663051 L -63.303473549405865 15.635395950587727 L -64.01615761698132 15.38488938404453 L -64.7393515059346 15.128643572640465 L -65.4732080578355 14.866487203571353 L -66.21788336512401 14.598245525182012 L -66.97353688228397 14.323740236530808 L -67.74033154119725 14.042789372780762 L -68.5184338708694 13.755207186227407 L -69.30801412172111 13.460804022766567 L -70.1092463946584 13.159386193592873 L -70.92230877513589 12.850755841910349 L -71.7473834724475 12.534710804424428 L -72.58465696448494 12.211044467372556 L -73.43432014822065 11.879545616837808 L -74.29656849618408 11.539998283076276 L -75.17160221921536 11.192181578574402 L -76.05962643579439 10.83586952953726 L -76.96085134826333 10.47083090049187 L -77.87549242627128 10.096829011673737 L -78.80377059779678 9.713621548843976 L -79.7459124481147 9.320960365167949 L -80.70215042710272 8.918591274762045 L -81.6727230652978 8.50625383749675 L -82.65787519914274 8.08368113461706 L -83.65785820588277 7.65059953471914 L -84.67293024860277 7.206728449593652 L -85.70335653192147 6.751780079418346 L -86.7494095688915 6.2854591467522045 L -87.81136945968375 5.807462618751094 L -88.8895241826733 5.317479416989626 L -89.98416989857458 4.815190114239071 L -91.0956112683211 4.300266617508561 L -92.22416178541813 3.772371836618899 L -93.37014412355036 3.231159337528771 L -94.53389050026611 2.6762729795898696 L -95.71574305762009 2.1073465358511045 L -96.91605426070214 1.5240032954818945 L -98.13518731504831 0.9258556473208597 L -99.37351660398488 0.31250464349686646 L -99.37351660398505 -0.3125046434967986 L -98.13518731504846 -0.9258556473207933 L -96.9160542607022 -1.5240032954818716 L -95.7157430576202 -2.107346535851041 L -94.53389050026621 -2.6762729795898075 L -93.37014412355049 -3.2311593375287115 L -92.22416178541825 -3.7723718366188406 L -91.0956112683212 -4.3002666175085045 L -89.98416989857468 -4.815190114239013 L -88.88952418267334 -5.317479416989607 L -87.81136945968385 -5.80746261875104 L -86.74940956889152 -6.285459146752185 L -85.70335653192159 -6.751780079418296 L -84.6729302486028 -7.2067284495936335 L -83.65785820588287 -7.650599534719093 L -82.6578751991428 -8.083681134617045 L -81.67272306529783 -8.506253837496734 L -80.70215042710277 -8.91859127476203 L -79.7459124481148 -9.320960365167904 L -78.80377059779681 -9.71362154884396 L -77.87549242627136 -10.096829011673693 L -76.9608513482633 -10.47083090049188 L -76.05962643579451 -10.835869529537222 L -75.17160221921534 -11.192181578574418 L -74.29656849618421 -11.539998283076244 L -73.43432014822068 -11.879545616837795 L -72.58465696448503 -12.211044467372522 L -71.74738347244752 -12.534710804424417 L -70.92230877513597 -12.850755841910312 L -70.10924639465844 -13.159386193592862 L -69.3080141217212 -13.460804022766563 L -68.51843387086943 -13.755207186227395 L -67.74033154119735 -14.042789372780732 L -66.97353688228398 -14.323740236530792 L -66.21788336512407 -14.598245525181976 L -65.47320805783549 -14.866487203571365 L -64.73935150593466 -15.128643572640433 L -64.01615761698129 -15.384889384044538 L -63.30347354940595 -15.635395950587704 L -62.601149605338364 -15.880331252663046 L -61.90903912726924 -16.11986004086841 L -61.22699839837958 -16.35414393496061 L -60.55488654638651 -16.583341519302166 L -59.892565450754745 -16.80760843494863 L -59.23989965313574 -17.02709746851656 L -58.59675627089955 -17.241958637966263 L -57.96300491363178 -17.452339275426983 L -57.33851760247387 -17.658384107186276 L -56.72316869219085 -17.860235330960087 L -56.11683479585486 -18.05803269055413 L -55.51939471203957 -18.251913548022785 L -54.93072935442294 -18.442012953426676 L -54.350721683703455 -18.628463712285257 L -53.779256641735586 -18.811396450817448 L -53.216221087798175 -18.990939679057767 L -52.661503736909026 -19.167219851933268 L -52.11499510010768 -19.340361428381204 L -51.57658742662642 -19.51048692858544 L -51.046174647877734 -19.677716989404978 L -50.52365232318623 -19.8421704180657 L -50.008917587197644 -20.00396424418301 L -49.50186909890009 -20.16321377018035 L -49.00240699219536 -20.32003262016567 L -48.51043282796003 -20.474532787325813 L -48.025849547540844 -20.626824679895492 L -47.54856142762712 -20.77701716575617 L -47.0784740364504 -20.925217615717067 L -46.615494191258094 -21.07153194552903 L -46.15952991701553 -21.216064656679578 L -45.71049040628694 -21.358918876015636 L -45.26828598025355 -21.500196394238603 L -44.83282805082365 -21.639997703314958 L -44.40402908379491 -21.77842203284324 L -43.981802563028225 -21.91556738541737 L -43.56606295559574 -22.051530571024365 L -43.15672567786588 -22.186407240513148 L -42.75370706249049 -22.32029191816977 L -42.356924326259346 -22.453278033433072 L -41.9662955387907 -22.585457951783518 L -41.58173959202449 -22.716923004836772 L -41.20317617048957 -22.847763519672256 L -40.83052572231431 -22.9780688474264 L -40.4637094309535 -23.1079273911783 L -40.10264918760298 -23.237426633155614 L -39.74726756427698 -23.36665316128662 L -39.397487787521925 -23.49569269512407 L -39.05323371274224 -23.624630111165246 L -38.71442979911505 -23.753549467592318 L -38.38100108506981 -23.882534028455282 L -38.05287316431169 -24.011666287320477 L -37.72997216236668 -24.14102799040551 L -37.41222471362744 -24.270700159221924 L -37.099557938880636 -24.40076311274513 L -36.791899423294936 -24.531296489131986 L -36.48917719485219 -24.662379267004077 L -36.19131970320191 -24.794089786315816 L -35.898255798922676 -24.926505768824647 L -35.60991471317202 -25.059704338181213 L -35.32622603770834 -25.193762039655827 L -35.04711970526881 -25.328754859518053 L -34.77252597028671 -25.464758244085083 L -34.50237538993305 -25.601847118454643 L -34.23659880546734 -25.740095904937352 L -33.975127323882546 -25.879578541203685 L -33.71789229982993 -26.020368498159243 L -33.464825317809826 -26.16253879756354 L -33.215858174614425 -26.30616202940465 L -32.970922862008976 -26.45131036904458 L -32.7299515496389 -26.598055594147493 L -32.492876568148716 -26.746469101404262 L -32.25963039250158 -26.89662192306588 L -32.03014562548559 -27.048584743298125 L -31.804354981395775 -27.202427914369835 L -31.582191269878873 -27.35822147268644 L -31.363587379929815 -27.516035154681262 L -31.148476264027693 -27.675938412575565 L -30.93679092239997 -27.838000430019072 L -30.72846438740353 -28.002290137622758 L -30.523429708011506 -28.168876228394268 L -30.321619934394274 -28.33782717308795 L -30.122968102584448 -28.509211235479857 L -29.927407219213887 -28.683096487579036 L -29.73487024631324 -28.859550824785824 L -29.545290086161575 -29.038641981007693 L -29.358599566177165 -29.22043754374368 L -29.174731423837404 -29.40500496914809 L -28.993618291617754 -29.59241159708361 L -28.81519268193925 -29.782724666175156 L -28.6393869721135 -29.976011328874492 L -28.466133389275054 -30.172338666546725 L -28.29536399529006 -30.371773704588843 L -28.127010671630597 -30.574383427591446 L -27.961005104204443 -30.780234794553934 L -27.79727876812869 -30.989394754164547 L -27.6357629124371 -31.201930260155176 L -27.476388544709664 -31.41790828674297 L -27.319086415613988 -31.637395844168907 L -27.16378700334657 -31.860459994344932 L -27.010420497963562 -32.08716786662063 L -26.858916785588725 -32.31758667368115 L -26.70920543248806 -32.55178372758742 L -26.561215668998372 -32.789826455971195 L -26.41487637329875 -33.03178241839559 L -26.270116055012274 -33.2777193228944 L -26.126862838625943 -33.527705042701655 L -25.98504444671658 -33.78180763318424 L -25.84458818296926 -34.04009534899029 L -25.705420914976237 -34.30263666142605 L -25.56746905680214 -34.569500276075146 L -25.430658551302702 -34.84075515067265 L -25.294914852182657 -35.1164705132493 L -25.16016290577895 -35.39671588055812 L -25.026327132554556 -35.68156107680029 L -24.8933314082882 -35.971076252662485 L -24.761099044944565 -36.26533190468335 L -24.629552771209646 -36.56439889496289 L -24.498614712674673 -36.86834847123214 L -24.36820637165284 -37.17725228729854 L -24.238248606611005 -37.49118242388509 L -24.108661611199636 -37.81021140987936 L -23.979364892862648 -38.13441224401208 L -23.850277251008556 -38.46385841698181 L -23.721316754724185 -38.798623934046745 L -23.59240072001088 -39.13878333810166 L -23.463445686523144 -39.48441173326144 L -23.334367393788607 -39.835584808971845 L -23.205080756887742 -40.192378864668385 L -23.07549984157083 -40.55487083500739 L -22.945537838789264 -40.92313831569044 L -22.815107038616866 -41.29725958990737 L -22.684118803536848 -41.67731365542272 L -22.552483541068494 -42.06338025232961 L -22.42011067570712 -42.45553989150028 L -22.286908620149873 -42.85387388375797 L -22.152784745778437 -43.25846436980085 L -22.017645352369787 -43.66939435090602 L -21.881395637003465 -44.08674772044574 L -21.743939662134295 -44.5106092962459 L -21.60518032279688 -44.94106485382177 L -21.465019312908055 -45.3782011605234 L -21.323357090631127 -45.82210601062802 L -21.18009284276537 -46.27286826141497 L -21.035124448121852 -46.73057787026336 L -20.888348439845778 -47.19532593281026 L -20.7396599666434 -47.66720472221361 L -20.588952752870654 -48.146307729560874 L -20.43611905743765 -48.63272970547051 L -20.281049631482887 -49.1265667029314 L -20.1236336747673 -49.62791612143097 L -19.963758790738137 -50.13687675242127 L -19.801310940208687 -50.65354882617751 L -19.636174393598843 -51.1780340601038 L -19.468231681678954 -51.710435708543386 L -19.29736354475599 -52.250858614155064 L -19.123448880240066 -52.799409260916676 L -18.946364688524703 -53.356195828823274 L -18.765986017113338 -53.9213282503469 L -18.582185902919576 -54.49491826873023 L -18.394835312666928 -55.07707949818932 L -18.203803081310046 -55.66792748610162 L -18.008955848395317 -56.26757977726422 L -17.81015799227585 -56.87615598030327 L -17.60727156209125 -57.49377783632863 L -17.40015620741918 -58.120569289922884 L -17.18866910550031 -58.756656562565865 L -16.972664885935053 -59.40216822859409 L -16.751995552744113 -60.05723529380519 L -16.526510403681435 -60.72199127681644 L -16.29605594668108 -61.39657229329826 L -16.0604758133156 -62.081117143202604 L -15.819610669135784 -62.77576740111873 L -15.57329812075723 -63.48066750988859 L -15.321372619550443 -64.19596487762736 L -15.063665361786445 -64.92180997829503 L -14.800004185080208 -65.65835645597814 L -14.530213460968072 -66.40576123304506 L -14.254113983446302 -67.16418462234726 L -13.971522853289366 -67.93379044364848 L -13.682253357956736 -68.71474614447227 L -13.386114846888109 -69.50722292556961 L -13.082912601976243 -70.31139587121463 L -12.772447702994661 -71.12744408455428 L -12.454516887747815 -71.95555082824156 L -12.128912406696838 -72.79590367060108 L -11.79542187180227 -73.64869463758468 L -11.453828099311256 -74.51412037078988 L -11.103908946201322 -75.3923822918282 L -10.745437139977577 -76.28368677334798 L -10.378180101503713 -77.18824531703027 L -10.00189976052972 -78.10627473889474 L -9.616352363560537 -79.03799736227131 L -9.221288273688398 -79.9836412188164 L -8.816451761994049 -80.94344025796575 L -8.401580790095613 -81.9176345652475 L -7.97640678340308 -82.90647058989526 L -7.540654394607798 -83.91020138223504 L -7.09404125691322 -84.92908684133573 L -6.636277726480271 -85.9633939734528 L -6.167066613533037 -87.01339716181748 L -5.686102901534207 -88.07937844836457 L -5.193073453809098 -89.16162782801646 L -4.687656706955594 -90.26044355618865 L -4.169522350339069 -91.37613247021702 L -3.638330990928506 -92.5090103254504 L -3.0937338026851533 -93.6594021467965 L -2.5353721596633463 -94.82764259656318 L -1.9628772519350712 -96.01407635948111 L -1.375869683388997 -97.21905854585988 L -0.7739590503996162 -98.44295511387881 L -0.15674350029272865 -99.68614331208902 L 0.4672899655120433 -99.06211372761334 L 1.07680209208747 -97.82861922407673 L 1.6712116874292424 -96.61422628668306 L 2.2509148231892153 -95.41856336868625 L 2.8162963453325363 -94.24126998986577 L 3.3677303054323846 -93.08199630426769 L 3.9055803723062823 -91.94040268761084 L 4.430200225032186 -90.81615934331967 L 4.941933928320527 -89.70894592620793 L 5.441116291162335 -88.61845118289148 L 5.92807320961472 -87.5443726080714 L 6.403121994539684 -86.48641611586984 L 6.866571685060902 -85.44429572545499 L 7.318723348462714 -84.41773326022906 L 7.759870367209527 -83.40645805990401 L 8.19029871372934 -82.4102067048191 L 8.610287213567034 -81.42872275189544 L 9.020107797479046 -80.46175648165577 L 9.420025743009296 -79.50906465577003 L 9.810299906056446 -78.57041028461666 L 10.19118294291604 -77.64556240437477 L 10.56292152325126 -76.73429586319561 L 10.92575653442502 -75.83639111601951 L 11.279923277601172 -74.95163402763035 L 11.625651656000922 -74.07981568356156 L 11.963166355679997 -73.2207322084888 L 12.292687019173378 -72.37418459176241 L 12.614428412335966 -71.53997851975022 L 12.928600584690454 -70.71792421468056 L 13.235409023577015 -69.90783627969104 L 13.535054802386142 -69.1095335498006 L 13.827734723138832 -68.32283894854226 L 14.113641453668071 -67.54757935000072 L 14.392963659639724 -66.78358544601909 L 14.66588613164189 -66.03069161834324 L 14.932589907557833 -65.28873581549098 L 15.19325239042908 -64.55755943413766 L 15.448047462003892 -63.83700720482379 L 15.697145592157163 -63.12692708179921 L 15.940713944358503 -62.42717013682626 L 16.178916477358285 -61.73759045677224 L 16.41191404325026 -61.058045044832795 L 16.6398644820652 -60.38839372523206 L 16.862922713040174 -59.72849905125521 L 17.081240822703272 -59.07822621647158 L 17.294968149904992 -58.437442969020424 L 17.504251367923345 -57.806019528829424 L 17.709234563762607 -57.1838285076485 L 17.91005931476119 -56.570744831780246 L 18.10686476261764 -55.966645667401906 L 18.299787684939766 -55.37141034837103 L 18.488962564417093 -54.784920306415444 L 18.674521655712162 -54.207059003612486 L 18.85659505016174 -53.637711867066244 L 19.03531073837539 -53.07676622569504 L 19.210794670815165 -52.524111249045745 L 19.383170816436 -51.97963788805511 L 19.552561219463072 -51.4432388176825 L 19.719086054379893 -50.91480838133923 L 19.88286367919634 -50.39424253704669 L 20.044010687064336 -49.88143880525391 L 20.202641956305186 -49.376296218252065 L 20.358870698910035 -48.878715271123866 L 20.512808507572487 -48.38859787416865 L 20.664565401310156 -47.90584730674679 L 20.81424986972919 -47.4303681724888 L 20.961968915983913 -46.962066355818095 L 21.107828098481292 -46.50084897973676 L 21.251931571378872 -46.04662436482553 L 21.39438212392138 -45.59930198941423 L 21.535281218660767 -45.158792450876035 L 21.67472902860189 -44.725007428005185 L 21.812824473315242 -44.297859644435064 L 21.949665254055112 -43.87726283305952 L 22.085347887921845 -43.46313170141839 L 22.21996774110375 -43.05538189801156 L 22.353619061234667 -42.65392997950579 L 22.486395008899628 -42.258693378801325 L 22.61838768832198 -41.86959037392607 L 22.749688177262986 -41.486540057725236 L 22.880386556163828 -41.10946230831665 L 23.01057193655931 -40.73827776028379 L 23.14033248879114 -40.3729077765763 L 23.26975546904783 -40.01327442109353 L 23.39892724575741 -39.659300431922574 L 23.527933325358035 -39.31090919520807 L 23.656858377471007 -38.9680247196268 L 23.785786259499513 -38.63057161144618 L 23.914800040676006 -38.29847505014173 L 24.04398202558034 -37.971660764552766 L 24.17341377714968 -37.65005500955465 L 24.303176139201057 -37.33358454322712 L 24.433349258486544 -37.02217660449837 L 24.564012606300363 -36.71575889124556 L 24.695244999656836 -36.414259538833534 L 24.8271246220571 -36.11760709907308 L 24.95972904386298 -35.82573051958039 L 25.09313524229451 -35.538559123521985 L 25.227419621068247 -35.256022589726946 L 25.36265802969232 -34.978050933151394 L 25.498925782434963 -34.70457448567805 L 25.636297676980423 -34.43552387723658 L 25.77484801278891 -34.170830017229534 L 25.914650609174053 -33.910424076248376 L 26.05577882311308 -33.65423746806624 L 26.198305566802823 -33.4022018318927 L 26.342303324976232 -33.15424901487788 L 26.487844171991966 -32.91031105485112 L 26.63499978871061 -32.67032016328197 L 26.78384147917032 -32.434208708451166 L 26.93444018707422 -32.201909198817106 L 27.08686651210239 -31.97335426656794 L 27.241190726060506 -31.748476651345037 L 27.39748278887647 -31.52720918412692 L 27.555812364457918 -31.3094847712615 L 27.71624883642135 -31.09523637863553 L 27.87886132370459 -30.88439701596874 L 28.043718696074222 -30.676899721222597 L 28.21088958953871 -30.472677545111523 L 28.380442421678346 -30.27166353570626 L 28.552445406903658 -30.073790723117384 L 28.72696657165233 -29.87899210424946 L 28.90407376953577 -29.687200627613638 L 29.083834696446075 -29.498349178189127 L 29.266316905634554 -29.312370562321732 L 29.45158782277154 -29.12919749264986 L 29.639714760998725 -28.948762573046327 L 29.830764935984707 -28.770998283566698 L 30.024805480994196 -28.595836965391605 L 30.221903461981412 -28.423210805754394 L 30.422125892718437 -28.253051822842323 L 30.625539749969263 -28.085291850660692 L 30.832211988720296 -27.9198625238494 L 31.042209557477957 -27.756695262441244 L 31.255599413644198 -27.59572125655077 L 31.472448538981297 -27.436871450982906 L 31.692823955176664 -27.280076529750147 L 31.916792739518506 -27.125266900487585 L 32.14442204069458 -26.972372678753672 L 32.37577909472433 -26.82132367220633 L 32.610931241036894 -26.672049364641918 L 32.8499459387062 -26.524478899885615 L 33.092890782855335 -26.3785410655217 L 33.339833521242014 -26.234164276450986 L 33.590842071037784 -26.091276558263438 L 33.84598453581353 -25.94980553041326 L 34.105329222743634 -25.809678389183837 L 34.368944660042104 -25.670821890429472 L 34.63689961464438 -25.53316233208009 L 34.90926311014776 -25.396625536396233 L 35.18610444502451 -25.26113683195957 L 35.46749321112232 -25.12662103538515 L 35.75349931246626 -24.993002432740557 L 36.04419298437752 -24.860204760657197 L 36.339644812923225 -24.7281511871184 L 36.639925754715435 -24.596764291908276 L 36.94510715707233 -24.465966046705454 L 37.25526077856104 -24.33567779480518 L 37.570458809936866 -24.205820230452318 L 37.89077389549887 -24.07631337776782 L 38.216279154877626 -23.947076569250704 L 38.547048205275004 -23.818028423836772 L 38.88315518417535 -23.689086824494645 L 39.224674772547374 -23.560168895339615 L 39.57168221855734 -23.43119097824456 L 39.92425336181458 -23.302068608926938 L 40.282464658171605 -23.172716492489933 L 40.646393205101376 -23.043048478395228 L 41.01611676767365 -22.91297753484404 L 41.39171380515718 -22.782415722542225 L 41.77326349826973 -22.65127416782463 L 42.160845777104456 -22.519463035112572 L 42.554541349757514 -22.386891498678015 L 42.954431731685574 -22.253467713686018 L 43.360599275821784 -22.119098786487623 L 43.773127203480115 -21.983690744132453 L 44.19209963607884 -21.84714850307035 L 44.61760162771556 -21.709375837010295 L 45.04971919862665 -21.57027534390268 L 45.48853936956624 -21.429748412010447 L 45.93415019714078 -21.287695185033296 L 46.3866408101362 -21.14401452624743 L 46.846101446875934 -20.998603981621855 L 47.31262349365258 -20.851359741870652 L 47.786299524272295 -20.7021766033997 L 48.26722334075781 -20.550947928103344 L 48.75549001525414 -20.397565601966107 L 49.25119593318664 -20.241919992421153 L 49.75443883771797 -20.083899904416917 L 50.2653178755574 -19.923392535139907 L 50.783933644175875 -19.760283427340013 L 51.31038824048251 -19.594456421202317 L 51.8447853110205 -19.4257936047072 L 52.38723010374416 -19.25417526241786 L 52.937829521440065 -19.079479822631303 L 53.49669217685907 -18.901583802826735 L 54.06392844962754 -18.720361753342456 L 54.639650545011364 -18.535686199207895 L 55.22397255460727 -18.34742758005658 L 55.81701051904106 -18.155454188039485 L 56.41888249275473 -17.95963210365786 L 57.02970861096982 -17.759825129427593 L 57.64961115891542 -17.55589472128607 L 58.27871464341776 -17.347699917646395 L 58.91714586694809 -17.135097265999924 L 59.56503400423372 -16.917940746964245 L 60.22251068153918 -16.69608169566786 L 60.889710058733485 -16.469368720357313 L 61.56676891425985 -16.237647618109193 L 62.253826733134005 -16.000761287520852 L 62.9510257981009 -15.75854963825029 L 63.65851128408934 -15.510849497266621 L 64.37643135610477 -15.257494511668767 L 65.10493727071425 -14.998315047920173 L 65.84418348127988 -14.73313808734192 L 66.59432774711006 -14.46178711769649 L 67.35553124669993 -14.184082020688844 L 68.12795869524658 -13.899838955200023 L 68.91177846663304 -13.60887023606039 L 69.70716272008217 -13.310984208159262 L 70.51428753169527 -13.005985115677719 L 71.33333303109934 -12.693672966219545 L 72.16448354344062 -12.373843389603561 L 73.00792773697295 -12.046287491068398 L 73.86385877650198 -11.71079169862786 L 74.7324744829647 -11.367137604299337 L 75.61397749943174 -11.015101798915284 L 76.50857546384272 -10.654455700209434 L 77.4164811887977 -10.28496537385433 L 78.3379128487452 -9.906391347108311 L 79.27309417492913 -9.51848841471114 L 80.22225465847548 -9.12100543664693 L 81.18562976202064 -8.713685127372074 L 82.16346114030716 -8.296263836083202 L 83.15599687019429 -7.8684713175756125 L 84.16349169056414 -7.430030493215385 L 85.18620725261961 -6.980657201524343 L 86.22441238111156 -6.520059937843644 L 87.27838334705548 -6.047939582513758 L 88.34840415253898 -5.563989116971615 L 89.43476682824755 -5.0678933271347875 L 90.53777174438362 -4.559328493399707 L 91.65772793568726 -4.037962066544094 L 92.79495344131789 -3.503452328776277 L 93.94977566039302 -2.9554480391327176 L 95.12253172403824 -2.3935880623707955 L 96.31356888485335 -1.8175009804525795 L 97.52324492475506 -1.226804685658274 L 98.7519285822171 -0.6211059543077382 L 100.0 0.0" fill="none" stroke="black" /></svg>