<?xml version="1.0" encoding="utf-8" ?>
<svg baseProfile="full" height="1000" version="1.1" viewBox="-500 -500 1000 1000" width="1000" xmlns="http://www.w3.org/2000/svg" xmlns:ev="http://www.w3.org/2001/xml-events" xmlns:xlink="http://www.w3.org/1999/xlink"><defs /><path d="M 100.0 0.0 L 100.93259229410663 0.6348213645811005 L 101.84372136643066 1.2811546075359925 L 102.7336727347927 1.9386526019423473 L 103.60272363761473 2.6069768963626845 L 104.45114336968892 3.2857973814966006 L 105.27919360257096 3.9747919721933576 L 106.08712869041275 4.673646304008748 L 106.87519596200238 5.3820534435393 L 107.6436359997312 6.0997136118126445 L 108.39268290616758 6.826333920055671 L 109.12256455887479 7.561628117201992 L 109.83350285407445 8.305316348537534 L 110.52571393972194 9.057124924917968 L 111.1994084385268 9.816786102024214 L 111.85479166142233 10.584037869152892 L 112.49206381195724 11.358623747066975 L 113.11142018205912 12.140292594458796 L 113.71305133959139 12.928798422602576 L 114.29714330810232 13.72390021779698 L 114.86387773914551 14.52536177122059 L 115.41343207752632 15.33295151584342 L 115.94597971981221 16.146442370057315 L 116.46169016642631 16.96561158770623 L 116.96072916762542 17.790240614214436 L 117.44325886364854 18.620114948526734 L 117.90943791930637 19.45502401059022 L 118.35942165326844 20.294761014120937 L 118.79336216229034 21.139122844412423 L 119.21140844061178 21.98790994095567 L 119.61370649474424 22.84092618465209 L 120.00039945385458 23.69797878941181 L 120.37162767594273 24.55887819794079 L 120.72752884999845 25.423437981529574 L 121.06823809431685 26.29147474366654 L 121.39388805113887 27.162808027306518 L 121.70460897777886 28.03726022563506 L 122.00052883439051 28.91465649617549 L 122.28177336851599 29.794824678094002 L 122.5484661965569 30.67759521256503 L 122.8007288822975 31.562801066065386 L 123.03868101260473 32.45027765647246 L 123.26244027042543 33.33986278184747 L 123.47212250519212 34.23139655179034 L 123.66784180074681 35.12472132125833 L 123.84971054088453 36.01968162674534 L 124.01783947261566 36.91612412472391 L 124.17233776724004 37.81389753225619 L 124.31331307932197 38.71285256968447 L 124.44087160365206 39.61284190531628 L 124.55511813027616 40.51372010202246 L 124.6561560976698 41.415343565670526 L 124.7440876441325 42.31757049531922 L 124.81901365747179 43.22026083510322 L 124.8810338230454 44.12327622774002 L 124.93024667022685 45.0264799695947 L 124.96674961735502 45.92973696723996 L 124.99063901522825 46.83291369545245 L 125.00201018919904 47.73587815658884 L 125.0009574799235 48.6384998412867 L 124.98757428281797 49.540649690438805 L 124.96195308627216 50.442200058390625 L 124.92418550866687 51.343024677313565 L 124.87436233424138 52.242998622707944 L 124.81257354785518 53.14199827999202 L 124.73890836868487 54.039901312135015 L 124.6534552828981 54.93658662829373 L 124.55630207534139 55.83193435341415 L 124.44753586028027 56.725825798760624 L 124.32724311122709 57.61814343333752 L 124.19550968988997 58.508770856168354 L 124.05242087427672 59.397592769400035 L 123.8980613859847 60.28449495220052 L 123.73251541670763 61.16936423541932 L 123.55586665398707 62.05208847698156 L 123.36819830623861 62.93255653798781 L 123.16959312707856 63.810658259492385 L 122.96013343897714 64.686284439934 L 122.73990115626358 65.55932681319368 L 122.50897780750773 66.42967802725633 L 122.2674445572998 67.29723162345168 L 122.01538222745265 68.16188201625302 L 121.7528713176469 69.02352447361159 L 121.47999202554001 69.88205509780607 L 121.1968242663597 70.73737080678663 L 120.90344769200084 71.5893693159944 L 120.59994170964484 72.43794912063748 L 120.28638549991959 73.28300947840532 L 119.96285803461703 74.12445039260355 L 119.62943809398611 74.96217259569302 L 119.28620428361717 75.79607753321608 L 118.933235050933 76.626067348094 L 118.57060870130363 77.4520448652809 L 118.19840341379725 78.2739135767582 L 117.81669725658452 79.09157762685615 L 117.42556820200821 79.90494179788766 L 117.02509414133229 80.71391149608097 L 116.61535289918477 81.51839273779807 L 116.19642224770533 82.31829213602603 L 115.76837992041166 83.11351688712817 L 115.33130362579631 83.90397475784374 L 114.8852710606653 84.68957407252353 L 114.43035992323098 85.47022370059011 L 113.96664792596961 86.24583304421171 L 113.49421280825491 87.01631202617804 L 113.0131323487787 87.78157107796824 L 112.52348437776809 88.54152112799946 L 112.02534678901077 89.29607359004666 L 111.51879755169725 90.04514035182319 L 111.00391472209067 90.7886337637123 L 110.48077645503346 91.52646662763982 L 109.94946101530022 92.25855218607913 L 109.41004678880645 92.98480411117828 L 108.86261229368216 93.70513649400081 L 108.30723619121866 94.41946383387082 L 107.7439972966988 95.12770102781383 L 107.17297459011785 95.82976336008419 L 106.5942472268048 96.52556649177095 L 106.00789454795178 97.21502645047333 L 105.41399609106065 97.89805962003746 L 104.8126316003146 98.57458273034587 L 104.20388103688336 99.24451284715215 L 103.58782458917008 99.90776736195144 L 102.96454268300779 100.56426398187955 L 102.33411599181424 101.21392071963231 L 101.69662544671223 101.85665588339697 L 101.05215224662436 102.4923880667876 L 100.4007778683497 103.12103613877684 L 99.74258407663022 103.7425192336153 L 99.07765293421586 104.3567567407315 L 98.40606681193523 104.96366829460328 L 97.72790839878067 105.56317376459367 L 97.0432607120155 106.15519324474238 L 96.35220710731156 106.73964704350504 L 95.65483128892538 107.31645567343244 L 94.95121731992083 107.88553984078064 L 94.24144963244697 108.44682043504463 L 93.52561303807937 109.00021851840677 L 92.8037927382328 109.54565531509131 L 92.07607433465478 110.08305220061695 L 91.34254384000786 110.61233069093848 L 90.6032876885497 111.13341243146881 L 89.85839274691975 111.6462191859726 L 89.10794632504215 112.15067282532266 L 88.35203618715256 112.64669531610875 L 87.59075056296008 113.13420870909175 L 86.82417815895249 113.61313512749136 L 86.052408169855 114.08339675509887 L 85.27553029025228 114.54491582420522 L 84.49363472638399 114.9976146033336 L 83.706812208124 115.44141538476663 L 82.91515400115398 115.87624047185804 L 82.1187519193418 116.30201216611698 L 81.31769833733654 116.71865275405506 L 80.51208620339062 117.12608449378394 L 79.7020090524213 117.5242296013528 L 78.88756101932304 117.91301023681226 L 78.06883685254354 118.29234848999428 L 77.24593192793532 118.66216636599428 L 76.41894226289645 119.0223857703428 L 75.58796453081382 119.3729284938536 L 74.75309607582156 119.71371619713412 L 73.9144349278909 120.04467039474481 L 73.0720798182635 120.36571243899195 L 72.2261301952455 120.6767635033393 L 71.37668624037656 120.97774456542345 L 70.52384888499043 121.26857638965625 L 69.66771982718336 121.54917950939803 L 68.80840154920782 121.81947420868451 L 67.94599733530879 122.07938050348999 L 67.08061129002161 122.32881812250798 L 66.21234835694926 122.5677064874306 L 65.34131433804018 122.79596469270744 L 64.46761591338554 123.01351148476328 L 63.591360661558056 123.22026524065359 L 62.712657080513566 123.41614394613589 L 61.83161460907835 123.60106517313517 L 60.94834364904561 123.7749460565787 L 60.06295558790552 123.9377032705768 L 59.17556282223413 124.08925300392394 L 58.28627878176732 124.22951093489378 L 57.39521795418759 124.35839220530144 L 56.50249591065126 124.47581139380367 L 55.60822933208644 124.58168248840846 L 54.71253603629209 124.67591885816304 L 53.81553500586984 124.7584332239879 L 52.917346417022614 124.82913762862455 L 52.01809166925357 124.88794340566179 L 51.117893416002396 124.93476114760466 L 50.21687559625578 124.9695006729487 L 49.31516346717173 124.99207099222073 L 48.41288363775778 125.00238027294436 L 47.51016410364655 125.00033580348959 L 46.6071342830119 124.98584395576032 L 45.70392505367267 124.95881014667505 L 44.80066879143211 124.91913879839181 L 43.89749940970303 124.86673329722706 L 42.994552400471676 124.8014959512168 L 42.09196487665508 124.72332794626364 L 41.189875615908946 124.63212930081407 L 40.28842510594661 124.52779881900449 L 39.38775559143153 124.41023404221502 L 38.488011122508475 124.27933119896385 L 37.58933760504271 124.13498515307529 L 36.691882852638166 123.97708935004849 L 35.79579664051035 123.80553576155248 L 34.90123076129206 123.62021482796946 L 34.00833908285447 123.4210153989023 L 33.11727760823002 123.20782467156256 L 32.22820453772711 122.98052812694662 L 31.34128033333156 122.73900946370648 L 30.456667785494005 122.48315052961502 L 29.574532082407792 122.2128312505231 L 28.69504088188593 121.92792955669726 L 27.818364385952634 121.6283213064252 L 26.94467541826944 121.31388020676775 L 26.07414950452231 120.98447773133083 L 25.206964955902837 120.63998303492525 L 24.34330295582311 120.28026286497428 L 23.483347650010643 119.90518146952246 L 22.62728624013832 119.5146005016916 L 21.775309081151136 119.10837892042134 L 20.927609782460827 118.68637288732377 L 20.084385313188083 118.24843565947248 L 19.24583611164163 117.79441747793642 L 18.412166199233894 117.32416545186005 L 17.583583299042687 116.8375234378785 L 16.76029895924115 116.33433191464746 L 15.942528681629046 115.81442785225389 L 15.130492055511807 115.27764457626135 L 14.324412897187315 114.7238116261299 L 13.52451939531479 114.15275460773678 L 12.73104426245562 113.56429503970752 L 11.944224893091903 112.95825019325204 L 11.164303528446716 112.33443292518223 L 10.391527428447631 111.69265150376864 L 9.626149051195407 111.03270942707533 L 8.868426240320566 110.3544052333898 L 8.118622420632834 109.65753230334333 L 7.377006802492616 108.94187865329235 L 6.643854595358574 108.20722671950708 L 5.919447230993391 107.45335313268548 L 5.204072596838023 106.68002848228232 L 4.498025280096197 105.88701707011128 L 3.801606823104005 105.07407665264597 L 3.115125990594901 104.24095817140936 L 2.4388990495080205 103.38740547080339 L 1.7732500620290637 102.51315500269041 L 1.118511192595706 101.6179355169939 L 0.4750230296466049 100.70146773753996 L -0.1576067831077607 100.23517618593768 L -0.7953391478572766 101.16237544144647 L -1.4444957770916322 102.0681836497861 L -2.104731744883253 102.95288422657615 L -2.7757107159658365 103.8167523934678 L -3.4571046163060273 104.66005550998966 L -4.148593318826588 105.48305339022609 L -4.849864343477671 106.28599860513191 L -5.560612570900985 107.0691367712384 L -6.280539968976466 107.83270682645956 L -7.009355331583805 108.57694129366901 L -7.746774028949291 109.30206653267425 L -8.492517768986161 110.00830298118117 L -9.246314369070356 110.69586538530694 L -10.00789753772582 111.36496302016688 L -10.777006665723391 112.01579990103076 L -11.553386626125485 112.64857498551683 L -12.336787582835319 113.26348236726493 L -13.126964807233367 113.86071146150448 L -13.923678502507778 114.44044718291254 L -14.72669363530644 115.00287011613241 L -15.535779774359197 115.54815667930563 L -16.350710935737304 116.0764792809487 L -17.171265434435995 116.58800647049023 L -17.997225741981794 117.08290308276531 L -18.82837834978295 117.56133037674948 L -19.664513637955924 118.02344616879918 L -20.505425749374794 118.46940496065172 L -21.350912468703797 118.8993580624238 L -22.200775106185496 119.31345371083721 L -23.054818385969252 119.71183718288643 L -23.9128503387747 120.09465090515268 L -24.774682198696368 120.46203455895903 L -25.64012830396491 120.8141251815509 L -26.509006001489684 121.15105726347733 L -27.381135555015938 121.47296284233815 L -28.256340056738726 121.77997159305755 L -29.13444534222293 122.07221091483244 L -30.01527990848595 122.34980601489934 L -30.898674835107347 122.61287998925624 L -31.78446370823552 122.86155390046875 L -32.67248254736806 123.09594685268351 L -33.562569734788255 123.31617606396694 L -34.454565947545944 123.52235693608081 L -35.34831409187571 123.71460312180139 L -36.24365923995087 123.89302658988369 L -37.14044856887638 124.05773768776834 L -38.038531301827845 124.20884520212245 L -38.93775865124857 124.34645641730357 L -39.837983764020294 124.47067717183084 L -40.73906166852738 124.5816119129432 L -41.640849223537245 124.67936374932218 L -42.543205068823916 124.76403450205149 L -43.4459895774645 124.8357247538849 L -44.349064809741684 124.89453389688829 L -45.252294468587834 124.94056017852027 L -46.1555438565096 124.9739007462127 L -47.05867983393452 124.99465169050953 L -47.96157077892314 125.00290808682024 L -48.86408654819311 124.9987640358413 L -49.76609843940392 124.98231270269753 L -50.66747915465262 124.95364635485163 L -51.5681027651338 124.91285639883037 L -52.46784467691802 124.86003341581149 L -53.36658159780582 124.79526719611528 L -54.26419150521527 124.71864677264212 L -55.160553615063506 124.63026045329627 L -56.05554835160348 124.53019585243334 L -56.94905731817981 124.41853992136924 L -57.84096326886752 124.2953789779846 L -58.731150080961044 124.16079873546025 L -59.61950272827936 124.01488433017398 L -60.505907255257156 123.85772034879233 L -61.390250751791626 123.68939085458538 L -62.272421328815504 123.50997941299495 L -63.15230809456888 123.31956911648291 L -64.02980113154311 123.11824260868721 L -64.90479147407055 122.90608210791089 L -65.7771710865357 122.68316942996901 L -66.64683284218366 122.4495860104175 L -67.51367050250259 122.20541292618674 L -68.37757869715847 121.95073091664227 L -69.23845290446013 121.68562040409427 L -70.09618943233417 121.41016151377548 L -70.95068539978986 121.12443409330906 L -71.80183871885416 120.82851773168429 L -72.6495480769594 120.5224917777593 L -73.49371291976398 120.20643535830865 L -74.33423343439027 119.88042739563375 L -75.17101053306162 119.54454662475152 L -76.00394583712301 119.19887161017934 L -76.83294166142913 118.84348076233064 L -77.65790099908457 118.47845235353691 L -78.47872750652172 118.10386453371126 L -79.2953254889014 117.71979534566734 L -80.10759988582268 117.32632274010756 L -80.91545625732849 116.92352459029479 L -81.71880077019316 116.51147870641971 L -82.51754018448003 116.09026284967729 L -83.31158184035564 115.65995474606456 L -84.10083364514986 115.22063209991165 L -84.88520406064856 114.77237260715823 L -85.66460209060816 114.31525396838606 L -86.43893726848124 113.84935390161988 L -87.20811964534126 113.37475015490662 L -87.97205977799666 112.89152051868425 L -88.73066871728327 112.39974283794996 L -89.48385799652522 111.89949502423889 L -90.23153962015397 111.39085506742211 L -90.97362605247628 110.87390104733504 L -91.71003020658083 110.34871114524466 L -92.44066543337432 109.81536365516527 L -93.16544551073804 109.27393699503315 L -93.8842846327959 108.72450971774686 L -94.59709739928348 108.16716052208487 L -95.30379880501238 107.60196826350699 L -96.0043042294169 107.02901196484993 L -96.69852942617933 106.44837082692464 L -97.38639051292036 105.86012423902457 L -98.0678039609507 105.26435178935209 L -98.74268658507208 104.66113327537352 L -99.41095553342178 104.05054871410829 L -100.07252827735118 103.43267835236286 L -100.72732260133058 102.80760267691599 L -101.37525659287229 102.17540242466399 L -102.01624863246383 101.53615859273401 L -102.65021738350305 100.88995244857382 L -103.27708178222795 100.23686554002443 L -103.8967610276313 99.57697970538632 L -104.50917457135495 98.91037708348443 L -105.11424210755229 98.2371401237422 L -105.71188356271463 97.5573515962709 L -106.30201908544974 96.87109460198445 L -106.8845690362073 96.17845258274514 L -107.45945397694115 95.47950933155077 L -108.02659466070142 94.77434900277086 L -108.58591202114798 94.06305612243878 L -109.13732716197521 93.34571559861084 L -109.68076134624296 92.62241273179774 L -110.21613598560128 91.89323322548015 L -110.74337262940355 91.15826319671402 L -111.26239295369717 90.41758918683689 L -111.77311875008346 89.67129817228258 L -112.27547191443819 88.91947757551415 L -112.76937443548282 88.16221527608374 L -113.2547483831975 87.3995996218296 L -113.73151589706634 86.63171944021813 L -114.19959917414477 85.85866404984353 L -114.65892045693971 85.08052327209111 L -115.1094020210917 84.29738744297887 L -115.55096616284953 83.50934742518334 L -115.98353518632544 82.71649462026413 L -116.40703139052209 81.91892098109483 L -116.82137705611743 81.11671902451427 L -117.22649443199884 80.30998184420687 L -117.62230572153328 79.49880312382615 L -118.00873306856114 78.68327715037151 L -118.3856985431034 77.86349882783223 L -118.75312412676672 77.03956369110986 L -119.11093169783577 76.21156792023375 L -119.45904301603858 75.37960835488104 L -119.79737970696974 74.54378250921758 L -120.12586324616042 73.70418858707117 L -120.44441494277646 72.86092549745482 L -120.75295592293313 72.01409287045195 L -121.05140711260825 71.16379107348271 L -121.3396892201392 70.31012122796432 L -121.6177227182861 69.45318522638445 L -121.88542782584443 68.5930857498038 L -122.14272448878936 67.72992628580619 L -122.3895323609327 66.86381114691416 L -122.62577078407456 65.99484548948995 L -122.85135876762814 65.12313533314075 L -123.06621496769938 64.24878758065003 L -123.27025766559838 63.37191003845396 L -123.46340474576135 62.49261143768841 L -123.64557367306071 61.61100145582525 L -123.81668146947865 60.727190738926005 L -123.97664469012047 59.84129092453301 L -124.12537939854153 58.95341466522819 L -124.26280114136179 58.06367565288181 L -124.3888249221402 57.172188643622036 L -124.50336517448017 56.279069483551964 L -124.60633573433654 55.3844351352449 L -124.69764981149322 54.488403705048526 L -124.77721996017868 53.59109447123056 L -124.84495804878694 52.69262791299843 L -124.90077522866747 51.79312574043015 L -124.94458190194948 50.892710925349476 L -124.97628768836128 49.99150773318722 L -124.99580139100621 49.08964175586405 L -125.00303096105324 48.18723994574009 L -124.9978834613002 47.2844306506702 L -124.98026502856402 46.38134365021379 L -124.9500808348522 45.4781101930421 L -124.90723504726576 44.574863035594504 L -124.8516307865841 43.67173648203338 L -124.78317008447736 42.768866425550996 L -124.701753839292 41.86639039108397 L -124.60728177035057 40.9644475794936 L -124.49965237070597 40.063178913271486 L -124.37876285828649 39.16272708383633 L -124.24450912536508 38.2632366004846 L -124.09678568628462 37.36485384106865 L -123.93548562336512 36.46772710447035 L -123.76050053091869 35.57200666495061 L -123.57172045729124 34.67784482845042 L -123.36903384484884 33.785395990929494 L -123.1523274678212 32.89481669882835 L -122.92148636791043 32.00626571174563 L -122.67639378756996 31.11990406742656 L -122.41693110085295 30.23589514916306 L -122.1429777417246 29.35440475571076 L -121.85441112972823 28.475601173834136 L -121.55110659288852 27.599655253594335 L -121.23293728773058 26.726740486504376 L -120.89977411628689 25.85703308667619 L -120.55148563995719 24.990712075097754 L -120.18793799008012 24.127959367177915 L -119.80899477506935 23.2689598637114 L -119.41451698395528 22.413901545416536 L -119.00436288617135 21.56297557121307 L -118.57838792740888 20.7163763804113 L -118.1364446213608 19.87430179899547 L -117.67838243716102 19.036953150192854 L -117.20404768231835 18.204535369530703 L -116.71328338093173 17.377257124593893 L -116.20592914696284 16.555330939708014 L -115.68182105232864 15.738973325783343 L -115.14079148956567 14.928404915571807 L -114.58266902880104 14.123850604597047 L -114.00727826875399 13.325539698039432 L -113.41443968147207 12.533706063865996 L -112.80396945049426 11.748588292519354 L -112.17567930211028 10.970429863490208 L -111.52937632937234 10.199479319122835 L -110.86486280849006 9.435990446018923 L -110.18193600722199 8.680222464428484 L -109.4803879848522 7.932440226038561 L -108.76000538331755 7.19291442059534 L -108.0205692090232 6.461921791819512 L -107.26185460486009 5.739745363105832 L -106.48363061190379 5.026674673522084 L -105.68565992024702 4.32300602466045 L -104.86769860838072 3.629042738921478 L -104.02949587050668 2.945095429853373 L -103.17079373112053 2.2714822852015333 L -102.29132674616912 1.6085293633707984 L -101.3908216900357 0.9565709040413385 L -100.46899722756434 0.3159496537312703 L -100.46899722756422 -0.3159496537312007 L -101.39082169003558 -0.9565709040412675 L -102.29132674616906 -1.608529363370773 L -103.17079373112044 -2.2714822852014604 L -104.02949587050662 -2.9450954298533003 L -104.8676986083806 -3.6290427389214015 L -105.68565992024693 -4.323006024660374 L -106.4836306119037 -5.026674673522007 L -107.26185460486005 -5.7397453631057544 L -108.02056920902314 -6.461921791819484 L -108.76000538331749 -7.192914420595261 L -109.48038798485217 -7.9324402260385325 L -110.18193600722189 -8.6802224644284 L -110.86486280849003 -9.435990446018895 L -111.5293763293723 -10.199479319122755 L -112.17567930211024 -10.970429863490178 L -112.80396945049425 -11.748588292519326 L -113.41443968147207 -12.533706063865967 L -114.00727826875394 -13.325539698039345 L -114.58266902880102 -14.123850604597015 L -115.14079148956561 -14.928404915571717 L -115.68182105232866 -15.738973325783368 L -116.20592914696277 -16.555330939707922 L -116.71328338093171 -17.377257124593918 L -117.20404768231828 -18.20453536953061 L -117.67838243716099 -19.036953150192822 L -118.13644462136075 -19.874301798995383 L -118.57838792740885 -20.71637638041127 L -119.0043628861713 -21.562975571212974 L -119.41451698395527 -22.413901545416504 L -119.80899477506928 -23.26895986371136 L -120.18793799008009 -24.12795936717788 L -120.55148563995715 -24.990712075097655 L -120.8997741162869 -25.857033086676157 L -121.23293728773059 -26.726740486504287 L -121.5511065928885 -27.599655253594356 L -121.8544111297282 -28.475601173834036 L -122.14297774172462 -29.354404755710796 L -122.41693110085288 -30.235895149162957 L -122.67639378756995 -31.119904067426525 L -122.92148636791039 -32.00626571174553 L -123.15232746782121 -32.89481669882832 L -123.36903384484884 -33.785395990929466 L -123.5717204572912 -34.67784482845038 L -123.76050053091868 -35.57200666495057 L -123.93548562336514 -36.46772710447032 L -124.09678568628458 -37.364853841068545 L -124.24450912536507 -38.26323660048457 L -124.37876285828645 -39.16272708383623 L -124.499652370706 -40.06317891327153 L -124.60728177035058 -40.96444757949351 L -124.701753839292 -41.866390391083996 L -124.78317008447735 -42.7688664255509 L -124.85163078658405 -43.67173648203334 L -124.90723504726574 -44.5748630355944 L -124.9500808348522 -45.47811019304207 L -124.98026502856405 -46.38134365021376 L -124.99788346130018 -47.28443065067016 L -125.00303096105324 -48.18723994573999 L -124.99580139100618 -49.08964175586401 L -124.97628768836128 -49.99150773318712 L -124.94458190194945 -50.89271092534949 L -124.90077522866743 -51.79312574043003 L -124.8449580487869 -52.69262791299846 L -124.77721996017868 -53.591094471230456 L -124.69764981149322 -54.488403705048555 L -124.60633573433654 -55.3844351352448 L -124.5033651744802 -56.279069483551936 L -124.38882492214023 -57.17218864362195 L -124.26280114136179 -58.063675652881784 L -124.1253793985415 -58.95341466522814 L -123.97664469012048 -59.84129092453299 L -123.81668146947868 -60.72719073892593 L -123.64557367306074 -61.61100145582523 L -123.46340474576138 -62.49261143768831 L -123.2702576655984 -63.37191003845399 L -123.06621496769944 -64.24878758064995 L -122.85135876762817 -65.1231353331408 L -122.62577078407456 -65.99484548948985 L -122.38953236093272 -66.86381114691412 L -122.14272448878936 -67.72992628580609 L -121.88542782584443 -68.59308574980378 L -121.61772271828612 -69.45318522638442 L -121.33968922013923 -70.31012122796429 L -121.0514071126083 -71.1637910734827 L -120.75295592293313 -72.01409287045192 L -120.44441494277649 -72.86092549745473 L -120.12586324616045 -73.70418858707113 L -119.79737970696979 -74.54378250921746 L -119.45904301603854 -75.37960835488106 L -119.11093169783582 -76.21156792023366 L -118.75312412676669 -77.03956369110988 L -118.38569854310344 -77.86349882783213 L -118.0087330685612 -78.68327715037151 L -117.62230572153328 -79.49880312382605 L -117.22649443199887 -80.30998184420685 L -116.82137705611744 -81.11671902451425 L -116.40703139052212 -81.9189209810948 L -115.98353518632553 -82.71649462026406 L -115.55096616284953 -83.50934742518331 L -115.10940202109174 -84.29738744297879 L -114.65892045693973 -85.08052327209106 L -114.19959917414482 -85.85866404984344 L -113.73151589706632 -86.63171944021815 L -113.25474838319755 -87.39959962182952 L -112.7693744354828 -88.16221527608377 L -112.27547191443824 -88.91947757551407 L -111.77311875008348 -89.67129817228258 L -111.26239295369723 -90.4175891868368 L -110.74337262940358 -91.15826319671399 L -110.21613598560126 -91.89323322548009 L -109.68076134624299 -92.62241273179771 L -109.13732716197525 -93.34571559861074 L -108.58591202114798 -94.06305612243875 L -108.0265946607015 -94.77434900277079 L -107.45945397694109 -95.47950933155076 L -106.88456903620735 -96.17845258274505 L -106.30201908544981 -96.87109460198445 L -105.71188356271472 -97.55735159627085 L -105.11424210755234 -98.23714012374211 L -104.50917457135496 -98.91037708348433 L -103.8967610276314 -99.5769797053863 L -103.27708178222801 -100.23686554002435 L -102.65021738350312 -100.88995244857375 L -102.01624863246386 -101.536158592734 L -101.37525659287238 -102.1754024246639 L -100.72732260133066 -102.8076026769159 L -100.07252827735125 -103.43267835236279 L -99.41095553342184 -104.0505487141082 L -98.74268658507208 -104.66113327537346 L -98.06780396095077 -105.26435178935202 L -97.38639051292043 -105.8601242390245 L -96.69852942617942 -106.44837082692459 L -96.00430422941699 -107.02901196484987 L -95.30379880501243 -107.6019682635069 L -94.59709739928357 -108.16716052208486 L -93.88428463279593 -108.72450971774684 L -93.16544551073807 -109.27393699503314 L -92.44066543337433 -109.81536365516521 L -91.7100302065808 -110.34871114524456 L -90.97362605247635 -110.87390104733498 L -90.231539620154 -111.3908550674221 L -89.4838579965252 -111.89949502423892 L -88.73066871728332 -112.39974283794996 L -87.97205977799666 -112.8915205186843 L -87.2081196453413 -113.37475015490662 L -86.43893726848123 -113.8493539016199 L -85.6646020906082 -114.31525396838606 L -84.88520406064852 -114.77237260715825 L -84.10083364514992 -115.22063209991168 L -83.3115818403556 -115.65995474606456 L -82.51754018448005 -116.09026284967726 L -81.7188007701932 -116.5114787064197 L -80.91545625732857 -116.92352459029473 L -80.10759988582271 -117.32632274010753 L -79.29532548890145 -117.71979534566724 L -78.47872750652175 -118.10386453371125 L -77.65790099908467 -118.47845235353688 L -76.83294166142917 -118.84348076233064 L -76.00394583712313 -119.19887161017934 L -75.17101053306166 -119.5445466247515 L -74.33423343439037 -119.8804273956337 L -73.49371291976402 -120.20643535830865 L -72.64954807695938 -120.52249177775929 L -71.8018387188542 -120.82851773168429 L -70.95068539978982 -121.12443409330908 L -70.09618943233426 -121.41016151377542 L -69.23845290446017 -121.68562040409427 L -68.37757869715844 -121.9507309166423 L -67.51367050250263 -122.20541292618672 L -66.64683284218361 -122.4495860104175 L -65.77717108653573 -122.683169429969 L -64.90479147407054 -122.90608210791092 L -64.02980113154315 -123.1182426086872 L -63.15230809456886 -123.31956911648291 L -62.27242132881554 -123.50997941299497 L -61.39025075179161 -123.6893908545854 L -60.50590725525719 -123.85772034879231 L -59.61950272827934 -124.014884330174 L -58.73115008096113 -124.16079873546022 L -57.84096326886755 -124.29537897798458 L -56.94905731817991 -124.41853992136922 L -56.05554835160357 -124.5301958524334 L -55.160553615063634 -124.63026045329624 L -54.264191505215344 -124.71864677264212 L -53.36658159780595 -124.79526719611525 L -52.46784467691809 -124.86003341581149 L -51.56810276513394 -124.91285639883037 L -50.66747915465271 -124.95364635485163 L -49.76609843940396 -124.98231270269756 L -48.86408654819321 -124.9987640358413 L -47.961570778923175 -125.00290808682024 L -47.05867983393463 -124.99465169050956 L -46.15554385650964 -124.97390074621272 L -45.25229446858793 -124.94056017852026 L -44.34906480974175 -124.8945338968883 L -43.4459895774645 -124.8357247538849 L -42.54320506882398 -124.76403450205149 L -41.64084922353725 -124.67936374932218 L -40.73906166852747 -124.58161191294329 L -39.837983764020294 -124.47067717183084 L -38.93775865124863 -124.34645641730359 L -38.038531301827874 -124.20884520212243 L -37.14044856887648 -124.05773768776835 L -36.2436592399509 -123.89302658988368 L -35.34831409187579 -123.71460312180136 L -34.45456594754597 -123.5223569360808 L -33.56256973478835 -123.31617606396695 L -32.672482547368105 -123.09594685268351 L -31.784463708235656 -122.8615539004688 L -30.898674835107418 -122.61287998925626 L -30.01527990848608 -122.3498060148994 L -29.134445342222996 -122.07221091483248 L -28.256340056738736 -121.77997159305757 L -27.381135555016 -121.47296284233815 L -26.509006001489837 -121.15105726347736 L -25.64012830396502 -120.81412518155102 L -24.7746821986964 -120.46203455895903 L -23.91285033877479 -120.09465090515269 L -23.054818385969284 -119.71183718288643 L -22.200775106185585 -119.31345371083724 L -21.350912468703825 -118.8993580624238 L -20.5054257493748 -118.46940496065173 L -19.66451363795599 -118.02344616879924 L -18.82837834978307 -117.56133037674952 L -17.99722574198185 -117.08290308276531 L -17.171265434435995 -116.58800647049023 L -16.35071093573736 -116.07647928094875 L -15.53577977435932 -115.54815667930575 L -14.726693635306415 -115.0028701161324 L -13.923678502507808 -114.44044718291256 L -13.126964807233456 -113.86071146150458 L -12.336787582835461 -113.26348236726504 L -11.553386626125459 -112.64857498551679 L -10.777006665723418 -112.01579990103075 L -10.007897537725928 -111.36496302016695 L -9.246314369070522 -110.69586538530712 L -8.492517768986163 -110.00830298118117 L -7.746774028949348 -109.30206653267433 L -7.009355331583913 -108.57694129366914 L -6.280539968976519 -107.8327068264596 L -5.560612570900987 -107.0691367712384 L -4.849864343477752 -106.28599860513204 L -4.148593318826615 -105.4830533902261 L -3.4571046163061028 -104.66005550998976 L -2.7757107159658636 -103.81675239346782 L -2.1047317448833254 -102.95288422657623 L -1.444495777091658 -102.06818364978614 L -0.7953391478573472 -101.16237544144657 L -0.15760678310780768 -100.23517618593777 L 0.47502302964660265 -100.70146773753996 L 1.118511192595658 -101.61793551699384 L 1.7732500620289682 -102.51315500269028 L 2.4388990495079717 -103.38740547080334 L 3.115125990594898 -104.24095817140933 L 3.801606823103952 -105.07407665264589 L 4.498025280096072 -105.88701707011114 L 5.204072596838044 -106.68002848228234 L 5.919447230993367 -107.45335313268549 L 6.643854595358495 -108.20722671950702 L 7.377006802492482 -108.9418786532922 L 8.118622420632857 -109.65753230334334 L 8.868426240320513 -110.35440523338978 L 9.626149051195299 -111.03270942707525 L 10.39152742844757 -111.6926515037686 L 11.164303528446712 -112.33443292518223 L 11.944224893091846 -112.95825019325201 L 12.731044262455507 -113.56429503970745 L 13.524519395314844 -114.15275460773681 L 14.324412897187287 -114.7238116261299 L 15.130492055511716 -115.27764457626128 L 15.94252868162901 -115.81442785225384 L 16.76029895924118 -116.33433191464749 L 17.583583299042658 -116.8375234378785 L 18.412166199233802 -117.32416545186 L 19.245836111641594 -117.7944174779364 L 20.084385313188072 -118.24843565947245 L 20.92760978246077 -118.68637288732376 L 21.775309081151136 -119.10837892042134 L 22.627286240138258 -119.5146005016916 L 23.483347650010643 -119.90518146952246 L 24.34330295582304 -120.28026286497425 L 25.20696495590283 -120.63998303492524 L 26.07414950452221 -120.98447773133078 L 26.944675418269412 -121.31388020676778 L 27.81836438595267 -121.62832130642525 L 28.695040881885895 -121.92792955669725 L 29.5745320824077 -122.21283125052307 L 30.45666778549409 -122.48315052961502 L 31.34128033333156 -122.73900946370648 L 32.22820453772705 -122.98052812694664 L 33.117277608229884 -123.2078246715625 L 34.008339082854526 -123.42101539890231 L 34.901230761292055 -123.62021482796945 L 35.795796640510304 -123.80553576155253 L 36.69188285263803 -123.97708935004846 L 37.58933760504274 -124.13498515307532 L 38.48801112250843 -124.27933119896383 L 39.38775559143142 -124.410234042215 L 40.28842510594659 -124.52779881900452 L 41.189875615908974 -124.63212930081407 L 42.09196487665504 -124.72332794626365 L 42.994552400471584 -124.8014959512168 L 43.89749940970297 -124.86673329722707 L 44.80066879143211 -124.91913879839181 L 45.70392505367262 -124.95881014667509 L 46.607134283011895 -124.98584395576033 L 47.51016410364648 -125.00033580348959 L 48.412883637757766 -125.00238027294441 L 49.315163467171715 -124.9920709922207 L 50.21687559625572 -124.96950067294873 L 51.11789341600226 -124.93476114760465 L 52.01809166925351 -124.88794340566176 L 52.917346417022614 -124.82913762862455 L 53.81553500586976 -124.75843322398788 L 54.71253603629193 -124.67591885816306 L 55.60822933208648 -124.58168248840848 L 56.50249591065122 -124.47581139380365 L 57.3952179541875 -124.35839220530146 L 58.286278781767166 -124.22951093489382 L 59.17556282223413 -124.08925300392389 L 60.06295558790549 -123.93770327057682 L 60.948343649045526 -123.77494605657873 L 61.8316146090782 -123.60106517313523 L 62.7126570805136 -123.41614394613589 L 63.59136066155805 -123.22026524065362 L 64.46761591338544 -123.01351148476337 L 65.34131433804012 -122.79596469270747 L 66.21234835694925 -122.56770648743057 L 67.08061129002152 -122.32881812250798 L 67.94599733530882 -122.07938050349001 L 68.80840154920773 -121.81947420868451 L 69.66771982718336 -121.54917950939803 L 70.52384888499034 -121.26857638965629 L 71.37668624037653 -120.97774456542348 L 72.22613019524542 -120.67676350333933 L 73.07207981826348 -120.36571243899196 L 73.91443492789092 -120.04467039474481 L 74.75309607582153 -119.71371619713415 L 75.58796453081366 -119.3729284938536 L 76.4189422628964 -119.02238577034282 L 77.24593192793529 -118.6621663659943 L 78.06883685254346 -118.29234848999431 L 78.88756101932293 -117.91301023681231 L 79.70200905242132 -117.52422960135277 L 80.5120862033906 -117.12608449378398 L 81.31769833733645 -116.71865275405509 L 82.11875191934166 -116.30201216611707 L 82.91515400115398 -115.87624047185804 L 83.70681220812398 -115.44141538476669 L 84.49363472638387 -114.99761460333363 L 85.2755302902522 -114.54491582420525 L 86.052408169855 -114.08339675509887 L 86.82417815895246 -113.61313512749143 L 87.59075056295994 -113.13420870909181 L 88.35203618715246 -112.64669531610878 L 89.10794632504212 -112.15067282532264 L 89.85839274691966 -111.64621918597268 L 90.60328768854967 -111.13341243146884 L 91.34254384000778 -110.61233069093852 L 92.07607433465475 -110.08305220061695 L 92.80379273823272 -109.5456553150914 L 93.52561303807933 -109.00021851840683 L 94.24144963244686 -108.44682043504469 L 94.95121731992077 -107.88553984078068 L 95.65483128892538 -107.31645567343244 L 96.35220710731153 -106.73964704350513 L 97.04326071201542 -106.15519324474249 L 97.72790839878073 -105.56317376459367 L 98.40606681193522 -104.9636682946033 L 99.0776529342158 -104.35675674073156 L 99.7425840766301 -103.74251923361541 L 100.4007778683497 -103.12103613877682 L 101.05215224662437 -102.49238806678765 L 101.69662544671218 -101.85665588339708 L 102.3341159918141 -101.21392071963244 L 102.9645426830078 -100.56426398187955 L 103.58782458917003 -99.90776736195147 L 104.20388103688327 -99.24451284715224 L 104.81263160031456 -98.57458273034592 L 105.41399609106062 -97.89805962003743 L 106.00789454795171 -97.2150264504734 L 106.5942472268047 -96.52556649177106 L 107.17297459011779 -95.82976336008424 L 107.74399729669877 -95.12770102781384 L 108.3072361912186 -94.4194638338709 L 108.86261229368213 -93.70513649400083 L 109.41004678880641 -92.98480411117836 L 109.94946101530017 -92.25855218607916 L 110.48077645503346 -91.52646662763982 L 111.00391472209066 -90.78863376371234 L 111.51879755169719 -90.04514035182332 L 112.02534678901073 -89.29607359004672 L 112.52348437776809 -88.54152112799946 L 113.01313234877867 -87.78157107796832 L 113.49421280825484 -87.01631202617818 L 113.96664792596962 -86.24583304421168 L 114.43035992323098 -85.47022370059013 L 114.88527106066525 -84.68957407252358 L 115.33130362579625 -83.90397475784376 L 115.76837992041166 -83.11351688712816 L 116.1964222477053 -82.31829213602606 L 116.61535289918473 -81.5183927377982 L 117.02509414133232 -80.7139114960809 L 117.42556820200821 -79.9049417978877 L 117.81669725658449 -79.09157762685624 L 118.1984034137972 -78.27391357675835 L 118.57060870130363 -77.45204486528087 L 118.93323505093304 -76.62606734809404 L 119.28620428361711 -75.79607753321616 L 119.62943809398611 -74.96217259569306 L 119.96285803461703 -74.12445039260353 L 120.28638549991962 -73.28300947840539 L 120.59994170964485 -72.43794912063763 L 120.90344769200081 -71.58936931599445 L 121.19682426635967 -70.7373708067866 L 121.47999202554001 -69.88205509780613 L 121.7528713176469 -69.02352447361159 L 122.01538222745265 -68.16188201625309 L 122.26744455729977 -67.2972316234517 L 122.50897780750772 -66.42967802725641 L 122.73990115626364 -65.55932681319374 L 122.96013343897712 -64.68628443993408 L 123.16959312707857 -63.810658259492435 L 123.36819830623864 -62.93255653798781 L 123.55586665398702 -62.05208847698158 L 123.73251541670763 -61.16936423541943 L 123.89806138598475 -60.28449495220059 L 124.05242087427668 -59.39759276940003 L 124.19550968988992 -58.508770856168404 L 124.32724311122712 -57.61814343333768 L 124.44753586028033 -56.725825798760596 L 124.55630207534136 -55.831934353414155 L 124.65345528289808 -54.936586628293824 L 124.73890836868485 -54.03990131213516 L 124.81257354785515 -53.14199827999198 L 124.8743623342414 -52.24299862270799 L 124.92418550866687 -51.34302467731368 L 124.96195308627213 -50.44220005839066 L 124.98757428281795 -49.540649690438784 L 125.00095747992353 -48.63849984128677 L 125.00201018919903 -47.73587815658896 L 124.99063901522825 -46.83291369545251 L 124.96674961735499 -45.92973696723995 L 124.93024667022682 -45.026479969594774 L 124.88103382304541 -44.12327622774004 L 124.81901365747176 -43.22026083510329 L 124.74408764413255 -42.31757049531926 L 124.6561560976698 -41.41534356567061 L 124.55511813027613 -40.51372010202249 L 124.44087160365211 -39.612841905316394 L 124.313313079322 -38.71285256968452 L 124.17233776724004 -37.81389753225619 L 124.01783947261566 -36.91612412472398 L 123.84971054088456 -36.01968162674547 L 123.6678418007468 -35.12472132125827 L 123.47212250519212 -34.23139655179035 L 123.26244027042543 -33.33986278184754 L 123.03868101260477 -32.45027765647261 L 122.80072888229749 -31.562801066065347 L 122.54846619655697 -30.677595212565073 L 122.28177336851601 -29.79482467809411 L 122.00052883439054 -28.914656496175652 L 121.70460897777889 -28.037260225635055 L 121.39388805113887 -27.162808027306564 L 121.06823809431694 -26.29147474366666 L 120.72752884999845 -25.42343798152963 L 120.3716276759427 -24.558878197940786 L 120.00039945385458 -23.69797878941187 L 119.61370649474424 -22.840926184652215 L 119.21140844061182 -21.98790994095575 L 118.79336216229032 -21.139122844412437 L 118.3594216532685 -20.294761014121026 L 117.90943791930638 -19.45502401059025 L 117.44325886364858 -18.620114948526822 L 116.96072916762543 -17.790240614214472 L 116.46169016642627 -16.965611587706217 L 115.94597971981227 -16.146442370057365 L 115.4134320775264 -15.332951515843527 L 114.86387773914556 -14.52536177122065 L 114.29714330810232 -13.723900217796986 L 113.7130513395914 -12.928798422602634 L 113.11142018205928 -12.140292594458924 L 112.49206381195717 -11.358623747066934 L 111.85479166142234 -10.584037869152914 L 111.19940843852689 -9.816786102024292 L 110.52571393972204 -9.0571249249181 L 109.83350285407445 -8.305316348537517 L 109.12256455887484 -7.561628117202029 L 108.39268290616772 -6.826333920055765 L 107.64363599973136 -6.09971361181279 L 106.87519596200238 -5.382053443539297 L 106.08712869041281 -4.6736463040087965 L 105.2791936025711 -3.97479197219346 L 104.45114336968899 -3.2857973814966566 L 103.60272363761473 -2.6069768963626956 L 102.73367273479279 -1.9386526019424084 L 101.84372136643067 -1.2811546075360105 L 100.93259229410674 -0.6348213645811672 L 100.0 0.0" fill="none" stroke="black" /></svg>