<?xml version="1.0" encoding="utf-8" ?>
<svg baseProfile="full" height="1000" version="1.1" viewBox="-500 -500 1000 1000" width="1000" xmlns="http://www.w3.org/2000/svg" xmlns:ev="http://www.w3.org/2001/xml-events" xmlns:xlink="http://www.w3.org/1999/xlink"><defs /><path d="M 100.0 0.0 L 99.68649874445555 0.626983987282 L 99.3748776854732 1.2500975093201436 L 99.06504196339885 1.8694231039481637 L 98.75689968699959 2.485040419795885 L 98.45036182151988 3.0970263287172126 L 98.14534208185502 3.7054550330978384 L 97.84175683056966 4.310398168314639 L 97.53952498050594 4.911924900602391 L 97.23856790174068 5.510102020568098 L 96.93880933266561 6.104994032579034 L 96.64017529497809 6.6966632402372746 L 96.34259401238137 7.285169828141034 L 96.04599583280641 7.870571940121564 L 95.75031315397678 8.45292575413343 L 95.45548035214918 9.032285553965869 L 95.16143371387143 9.608703797933401 L 94.86811137060867 10.18223118469492 L 94.5754532360966 10.752916716342186 L 94.28340094628906 11.320807758890783 L 93.99189780177394 11.885950100299274 L 93.70088871253861 12.448388006135342 L 93.41032014497253 13.00816427300137 L 93.1201400710008 13.565320279825688 L 92.83029791924788 14.119896037120084 L 92.54074452813627 14.671930234298783 L 92.25143210083014 15.22146028514917 L 91.96231416193831 15.768522371539563 L 91.67334551589549 16.313151485445058 L 91.38448220694524 16.855381469368254 L 91.09568148065168 17.395245055227583 L 90.80690174687086 17.93277390178241 L 90.51810254411635 18.467998630660347 L 90.22924450525646 19.000948861049146 L 89.94028932448447 19.53165324311221 L 89.65119972550518 20.060139490183886 L 89.3619394308848 20.586434409797988 L 89.07247313251301 21.11056393360019 L 88.78276646312938 21.632553146192624 L 88.49278596886779 22.152426312956607 L 88.20249908277549 22.670206906897086 L 87.91187409926486 23.18591763455057 L 87.62088014945863 23.69958046099594 L 87.32948717739043 24.21121663400606 L 87.03766591702502 24.720846707376 L 86.74538787006375 25.228490563462223 L 86.4526252845026 25.73416743496532 L 86.15935113391168 26.237895925987555 L 85.86553909740647 26.73969403239482 L 85.57116354028221 27.23957916151146 L 85.27619949528469 27.73756815117504 L 84.98062264449123 28.23367728817682 L 84.68440930177759 28.72792232611275 L 84.38753639584651 29.22031850266848 L 84.08998145379609 29.710880556360998 L 83.79172258520585 30.19962274275846 L 83.49273846672024 30.686558850198757 L 83.19300832710955 31.17170221502658 L 82.89251193278963 31.655065736367952 L 82.59122957378202 32.13666189046001 L 82.28914205009764 32.61650274455372 L 81.98623065852692 33.09459997040564 L 81.68247717982105 33.57096485737503 L 81.37786386624869 34.04560832514118 L 81.0723734295138 34.518540936055636 L 80.76598902902059 34.98977290714339 L 80.4586942604721 35.45931412176625 L 80.15047314478971 35.927174140961405 L 79.84131011734081 36.39336221446739 L 79.53119001746353 36.85788729144939 L 79.22009807827642 37.320758030935245 L 78.90801991676238 37.781982811972966 L 78.59494152411665 38.241569743520394 L 78.28084925634835 38.69952667407704 L 77.96572982512595 39.15586120106777 L 77.64957028885757 39.61058067998771 L 77.33235804399688 40.063692233317326 L 77.01408081656594 40.51520275921629 L 76.69472665388697 40.96511894000449 L 76.3742839165146 41.41344725043821 L 76.05274127036117 41.860193965789136 L 75.73008767900753 42.3053651697336 L 75.40631239619232 42.74896676205938 L 75.08140495847238 43.191004466196844 L 74.75535517804818 43.63148383658108 L 74.42815313574742 44.07041026585163 L 74.09978917416062 44.50778899189585 L 73.7702538909229 44.94362510474209 L 73.43953813213587 45.37792355330825 L 73.10763298592413 45.8106891520117 L 72.77452977612101 46.24192658724563 L 72.44022005607808 46.671640423727325 L 72.10469560259357 47.09983511072333 L 71.76794840995447 47.52651498815662 L 71.42997068408792 47.95168429260022 L 71.0907548368168 48.375347163162374 L 70.75029348021526 48.79750764726739 L 70.40857942105994 49.218169706336624 L 70.06560565537218 49.63733722137409 L 69.72136536304757 50.055013998460396 L 69.37585190256857 50.471203774159434 L 69.02905880579621 50.885910220841545 L 68.68097977283733 51.29913695192688 L 68.33160866698333 51.71088752705293 L 67.980939509717 52.12116545716959 L 67.6289664757839 52.52997420956548 L 67.27568388832461 52.9373172128289 L 66.92108621406481 53.343197861746674 L 66.56516805855952 53.74761952214457 L 66.20792416148852 54.15058553567208 L 65.84934939199968 54.55209922453498 L 65.48943874409701 54.95216389617886 L 65.12818733207051 55.350782847926446 L 64.76559038596474 55.74795937157186 L 64.40164324708303 56.143696757934855 L 64.03634136352473 56.53799830137778 L 63.6696802857522 56.930867304288206 L 63.3016556621851 57.32230708153004 L 62.93226323481892 57.7123209648661 L 62.5614988348651 58.10091230735452 L 62.18935837840993 58.48808448772216 L 61.81583786208957 58.87384091471753 L 61.440933358778445 59.25818503144587 L 61.06464101328832 59.641120319689136 L 60.68695703807557 60.02265030421374 L 60.30787770895358 60.40277855706826 L 59.92739936080821 60.78150870187419 L 59.54551838331316 61.158844418112146 L 59.16223121664288 61.534789445406226 L 58.777534347180335 61.90934758780914 L 58.39142430321701 62.28252271809069 L 58.00389765064241 62.654318782032455 L 57.614950988620514 63.02473980273106 L 57.22458094525045 63.39378988491288 L 56.83278417320879 63.76147321926278 L 56.439557345370595 64.1277940867697 L 56.0448971504067 64.49275686309164 L 55.64880028835431 64.85636602294292 L 55.251263466158306 65.21862614450653 L 54.85228339318017 65.57954191387418 L 54.45185677667213 65.93911812951714 L 54.049980317213084 66.29735970679062 L 53.646650704103884 66.6542716824746 L 53.241864610718764 67.00985921935418 L 52.83561868980985 67.3641276108424 L 52.427909568761805 67.71708228564856 L 52.0187338447934 68.06872881249537 L 51.608088080102945 68.41907290488783 L 51.195968796954084 68.76812042593741 L 50.782372472698825 69.11587739324469 L 50.367295534734495 69.46234998384365 L 49.9507343553907 69.8075445392117 L 49.53268524674338 70.15146757034839 L 49.11314445535165 70.49412576292666 L 48.69210815691432 70.83552598252058 L 48.2695724508416 71.17567527991321 L 47.84553335473867 71.51458089648838 L 47.41998679879669 71.85225026971088 L 46.99292862008716 72.18869103869875 L 46.56435455675545 72.5239110498924 L 46.134260242108965 72.8579183628245 L 45.702641198595536 73.19072125599561 L 45.26949283166725 73.52232823285989 L 44.83481042352494 73.85274802792614 L 44.39858912673839 74.18198961297858 L 43.96082395773705 74.51006220342295 L 43.52150979016609 74.83697526476324 L 43.08064134810209 75.16273851921417 L 42.63821319912296 75.48736195245552 L 42.19421974722596 75.8108558205338 L 41.7486552255881 76.13323065691782 L 41.30151368916224 76.4544972797137 L 40.85278900710273 76.7746667990468 L 40.40247485501364 77.09375062461613 L 39.950564707012745 77.41176047342958 L 39.49705182760401 77.7287083777259 L 39.0419292633508 78.04460669309191 L 38.58518983434254 78.35946810678232 L 38.12682612544631 78.67330564625016 L 37.666830477335054 78.98613268789656 L 37.205194977283945 79.29796296604827 L 36.74191144972548 79.60881058217234 L 36.276971446554136 79.91869001433685 L 35.81036623717071 80.22761612692827 L 35.34208679825616 80.53560418063486 L 34.87212380326431 80.84266984270724 L 34.400467611622545 81.1488291975069 L 33.927108257628696 81.45409875735437 L 33.45203543903257 81.75849547368884 L 32.97523850528925 82.06203674855165 L 32.4967064454715 82.36474044640698 L 32.01642787582757 82.66662490631288 L 31.534391026970287 82.96770895445695 L 31.050583730682813 83.26801191707163 L 30.564993406325534 83.56755363374401 L 30.07760704682827 83.8663544711365 L 29.58841120425087 84.16443533713515 L 29.097391974894826 84.46181769544287 L 28.60453498394766 84.75852358063608 L 28.109825369640834 85.05457561370376 L 27.613247766901495 85.34999701808873 L 27.11478629047706 85.64481163625224 L 26.614424517510837 85.93904394678361 L 26.112145469545926 86.23271908207767 L 25.60793159393351 86.52586284660381 L 25.10176474462061 86.81850173579197 L 24.593626162290985 87.11066295556132 L 24.083496453832023 87.40237444251933 L 23.571355571098746 87.69366488485979 L 23.05718278894494 87.98456374398982 L 22.540956682489814 88.27510127691778 L 22.02265510358722 88.56530855943458 L 21.502255156462724 88.85521751012345 L 20.97973317248202 89.14486091523462 L 20.455064684012747 89.43427245446281 L 19.92822439733942 89.72348672766803 L 19.399186164589416 90.0125392825812 L 18.867922954625826 90.30146664353978 L 18.334406822860675 90.5903063412988 L 17.7986088799395 90.87909694396711 L 17.260499259246163 91.16787808911984 L 16.720047083173604 91.4566905171409 L 16.17722042810378 91.74557610585315 L 15.631986288036822 92.03457790649529 L 15.084310536806418 92.32374018110919 L 14.534157888815075 92.61310844140372 L 13.981491858218973 92.90272948916527 L 13.426274716489068 93.19265145828865 L 12.868467448270318 93.48292385850627 L 12.308029705457104 93.77359762089752 L 11.744919759398257 94.06472514526519 L 11.179094451140207 94.35636034947011 L 10.610509139611898 94.64855872082073 L 10.039117647649139 94.94137736961966 L 9.464872205751075 95.23487508497473 L 8.887723393454447 95.5291123929888 L 8.307620078205334 95.82415161744882 L 7.724509351600778 96.1200569431413 L 7.138336462865311 96.41689448192992 L 6.549044749419582 96.7147323417374 L 5.9565755643893255 97.0136406985838 L 5.360868200894624 97.31369187184116 L 4.7618598129489635 97.61496040287511 L 4.159485332787729 97.91752313725377 L 3.5536773844345304 98.22145931071546 L 2.944366193302122 98.52685063909873 L 2.331479491611585 98.8337814124507 L 1.7149424194006428 99.14233859354326 L 1.0946774208767396 99.45261192104118 L 0.47060413585542815 99.76469401758189 L -0.15711347864200162 99.9214431151671 L -0.7831219493100039 99.60842096855075 L -1.405280866404399 99.29725501897116 L -2.0236720346271126 98.98785115966477 L -2.6383743980786867 98.68011822380805 L -3.2494641513797795 98.37396787387937 L -3.8570148457419577 98.06931449606857 L -4.461097490255581 97.76607509946635 L -5.061780648646475 97.46416921978141 L -5.659130531737948 97.16351882734925 L -6.253211085841138 96.86404823920942 L -6.844084077282841 96.56568403504187 L -7.431809173268509 96.26835497676495 L -8.016444019266224 95.97199193160924 L -8.598044313086913 95.67652779849162 L -9.17666387582606 95.38189743752477 L -9.752354719822707 95.08803760250575 L -10.325167113783124 94.79488687623693 L -10.895149645207646 94.50238560853992 L -11.462349280252203 94.21047585683186 L -12.026811421148322 93.91910132913944 L -12.58857996129889 93.62820732943408 L -13.1476973381603 93.3377407051769 L -13.70420458401618 93.04764979696907 L -14.258141374741468 92.75788439020795 L -14.809546076651106 92.46839566865538 L -15.358455791522147 92.17913616982887 L -15.904906399873664 91.89005974213164 L -16.448932602584282 91.60112150364124 L -16.990567960923045 91.31227780248149 L -17.529844935065736 91.02348617870541 L -18.066794921164416 90.73470532762106 L -18.601448287035215 90.44589506449586 L -19.133834406525697 90.15701629057747 L -19.663981692620162 89.86803096037323 L -20.191917629338366 89.57890205013246 L -20.71766880248028 89.28959352747898 L -21.241260929267217 89.00007032214386 L -21.762718886926656 88.7102982977504 L -22.282066740266444 88.42024422460628 L -22.799327768281263 88.1298757534596 L -23.314524489832642 87.83916139017768 L -23.827678688441488 87.54807047130956 L -24.338811436230607 87.25657314049475 L -24.84794311705246 86.96464032568295 L -25.35509344883626 86.67224371713066 L -25.860281505186542 86.37935574614241 L -26.36352573626407 86.08594956452599 L -26.86484398897844 85.791999024732 L -27.364253526520308 85.49747866064992 L -27.861771047260333 85.20236366903379 L -28.35741270303992 84.90662989153198 L -28.85119411687857 84.61025379729651 L -29.34313040012098 84.3132124661489 L -29.83323616904626 84.01548357227973 L -30.321525560960524 83.71704536846109 L -30.80801224979325 83.41787667075121 L -31.292709461217044 83.11795684367178 L -31.77562998730925 82.81726578583942 L -32.256786200773426 82.51578391603346 L -32.736190068737756 82.21349215968254 L -33.21385316614671 81.91037193575414 L -33.68978668876184 81.606405144031 L -34.16400146578638 81.30157415275951 L -34.63650797212856 80.99586178665565 L -35.107316340317055 80.68925131525442 L -35.576436372081936 80.38172644159002 L -36.043877549613974 80.07327129119338 L -36.509649046514404 79.7638704013954 L -36.97375973844672 79.4535087109237 L -37.43621821350219 79.14217154978206 L -37.89703278228937 78.8298446294013 L -38.35621148775837 78.51651403305152 L -38.81376211476982 78.20216620650558 L -39.269692199417946 77.88678794894413 L -39.7240090381172 77.57036640409316 L -40.176719696461255 77.2528890515848 L -40.62783101786288 76.93434369853341 L -41.07734963198302 76.61471847131793 L -41.52528196295691 76.29400180756332 L -41.971634237425036 75.97218244831284 L -42.41641249237607 75.64924943038409 L -42.8596225828091 75.32519207890178 L -43.30127018922191 75.00000000000001 L -43.741360824932 74.67366307368778 L -44.17989984323644 74.34617144687125 L -44.61689244441739 74.01751552652635 L -45.052343682598384 73.68768597301616 L -45.48625847245786 73.35667369354695 L -45.91864159580507 73.02446983575757 L -46.34949770802395 72.69106578143654 L -46.7788313443902 72.35645314036177 L -47.20664692626643 72.02062374425786 L -47.632948767180544 71.68356964086605 L -48.05774107879179 71.34528308812193 L -48.481027976749466 71.00575654843658 L -48.902813486448316 70.66498268307635 L -49.323101548685386 70.32295434663719 L -49.74189602522226 69.9796645816092 L -50.15920070425679 69.63510661302725 L -50.57501930580864 69.28927384320367 L -50.98935548702204 68.94215984653933 L -51.40221284738992 68.59375836440893 L -51.81359493390297 68.24406330011725 L -52.22350524612716 67.89306871392243 L -52.63194724121341 67.54076881812279 L -53.038924338842705 67.18715797220393 L -53.4444399261101 66.83223067804272 L -53.84849736235077 66.47598157516445 L -54.251099983911566 66.1184054360507 L -54.65225110887103 65.75949716149405 L -55.051954041711014 65.3992517759969 L -55.450212077942915 65.03766442321133 L -55.847028508691935 64.67473036141661 L -56.2424066252413 64.31044495903238 L -56.636349723540775 63.9448036901631 L -57.02886110868077 63.5778021301726 L -57.41994409933654 63.20943595128426 L -57.809602032183335 62.83970091820565 L -58.19783826628746 62.4685928837731 L -58.58465618747377 62.09610778461534 L -58.97005921267418 61.72224163683183 L -59.35405079425863 61.346990531684185 L -59.73663442435182 60.97035063129751 L -60.117813639138056 60.592318164369196 L -60.49759202315717 60.21288942188241 L -60.875973213593625 59.832060752821754 L -61.252960904562386 59.44982855988809 L -61.628558851392775 59.066189295210755 L -62.00277087491463 58.681139456053245 L -62.375600865747685 58.2946755805112 L -62.74705278859856 57.90679424319856 L -63.117130686566206 57.517492050920644 L -63.48583868546024 57.12676563833025 L -63.853180998133446 56.73461166356493 L -64.21916192883192 56.34102680386253 L -64.58378587756562 55.946007751151726 L -64.94705734450123 55.549551207615984 L -65.3089809343816 55.15165388122654 L -65.66956136097286 54.75231248124342 L -66.02880345154364 54.35152371367988 L -66.38671215137813 53.94928427672867 L -66.7432925283266 53.54559085614659 L -67.09854977739602 53.14044012059445 L -67.45248922538397 52.73382871692934 L -67.80511633555888 52.32575326544655 L -68.15643671238989 51.916210355067015 L -68.50645610632908 51.50519653846858 L -68.85518041865018 51.092708327155975 L -69.20261570634597 50.67874218646814 L -69.54876818708911 50.26329453051746 L -69.89364424425852 49.8463617170594 L -70.23725043203633 49.427940042287055 L -70.57959348057756 49.00802573554877 L -70.92068030125773 48.586614953983414 L -71.2605179920012 48.16370377707069 L -71.59911384269473 47.73928820109179 L -71.93647534069038 47.31336413349675 L -72.27261017640143 46.885927387173886 L -72.60752624899628 46.45697367461762 L -72.94123167219465 46.026498601989275 L -73.27373478016976 45.594497663067706 L -73.60504413356306 45.160966233083265 L -73.93516852561403 44.72589956243222 L -74.26411698841243 44.28929277026459 L -74.5918987992761 43.8511408379421 L -74.91852348726135 43.411438602359354 L -75.24400083981031 42.97018074912379 L -75.5683409095415 42.52736180558814 L -75.89155402118945 42.08297613372966 L -76.21365077869943 41.637017922869944 L -76.53464207248375 41.18948118222913 L -76.85453908684599 40.7403597333078 L -77.17335330757999 40.28964720208989 L -77.49109652975126 39.83733701105922 L -77.8077808656667 39.38342237102325 L -78.12341875304216 38.92789627273505 L -78.43802296337364 38.47075147830729 L -78.75160661052229 38.011980512408414 L -79.06418315951981 37.55157565323414 L -79.37576643560472 37.089528923243996 L -79.68637063349752 36.625832079654934 L -79.9960103269247 36.16047660468173 L -80.30470047840157 35.69345369551472 L -80.61245644928402 35.22475425402432 L -80.91929401009989 34.754368876181964 L -81.22522935117156 34.28228784118551 L -81.53027909354051 33.808501100279024 L -81.83446030020696 33.33299826525282 L -82.1377904876963 32.85576859661339 L -82.44028763796621 32.37680099140785 L -82.7419702106672 31.896083970691464 L -83.04285715577231 31.41360566662177 L -83.34296792658895 30.929353809166603 L -83.64232249317038 30.443315712408484 L -83.9409413561414 29.955478260430663 L -84.23884556095636 29.465827892767134 L -84.53605671260651 28.974350589399155 L -84.8325969907954 28.4810318552798 L -85.1284891656014 27.985856704367432 L -85.42375661364821 27.488809643147285 L -85.71842333480322 26.989874653621342 L -86.01251396942723 26.48903517574271 L -86.30605381619722 25.98627408927342 L -86.59906885052764 25.48157369503945 L -86.89158574361413 24.974915695559726 L -87.18363188212751 24.46628117502083 L -87.47523538858465 23.955650578571024 L -87.76642514242599 23.443003690903936 L -88.05723080182969 22.928319614101515 L -88.34768282629474 22.411576744704554 L -88.63781250002604 21.892752749977156 L -88.927651956157 21.37182454333006 L -89.21723420184615 20.848768258866322 L -89.5065931442868 20.323559225009774 L -89.79576361766968 19.79617193717731 L -90.08478141114236 19.266580029450257 L -90.37368329780865 18.73475624520233 L -90.66250706481685 18.200672406634766 L -90.95129154458465 17.664299383171496 L -91.24007664721421 17.125607058660158 L -91.52890339415109 16.5845642973258 L -91.81781395314523 16.0411389084188 L -92.10685167457459 15.495297609496662 L -92.39606112919509 14.947005988275684 L -92.68548814738449 14.396228462985317 L -92.97517985995094 13.842928241154183 L -93.26518474058086 13.287067276753296 L -93.55555265000561 12.728606225616787 L -93.84633488196889 12.167504399058624 L -94.13758421108432 11.603719715595293 L -94.4293549426744 11.037208650684299 L -94.7217029646896 10.467926184378024 L -95.01468580181057 9.895825746792152 L -95.30836267184311 9.32085916127698 L -95.60279454452116 8.742976585177866 L -95.89804420284018 8.162126448061626 L -96.19417630705027 7.5782553872798335 L -96.49125746144608 6.991308180732071 L -96.78935628409823 6.401227676684342 L -97.0885434796804 5.807954720488149 L -97.38889191555408 5.211428078039111 L -97.6904767012851 4.611584355800071 L -97.99337527177337 4.008357917208135 L -98.29766747419194 3.4016807952685024 L -98.60343565894064 2.791482601131371 L -98.91076477483456 2.1776904284298597 L -99.21974246875942 1.5602287531485677 L -99.5304591900429 0.9390193287724935 L -99.84300829980465 0.3139810764544681 L -99.8430082998047 -0.3139810764543995 L -99.53045919004293 -0.9390193287724251 L -99.21974246875942 -1.5602287531485437 L -98.91076477483459 -2.177690428429792 L -98.60343565894067 -2.7914826011313045 L -98.29766747419197 -3.401680795268436 L -97.9933752717734 -4.008357917208069 L -97.69047670128514 -4.611584355800005 L -97.38889191555413 -5.211428078039045 L -97.0885434796804 -5.807954720488126 L -96.78935628409826 -6.401227676684277 L -96.49125746144608 -6.991308180732048 L -96.19417630705028 -7.5782553872797696 L -95.89804420284018 -8.162126448061603 L -95.6027945445212 -8.742976585177805 L -95.30836267184313 -9.320859161276958 L -95.01468580181059 -9.89582574679213 L -94.72170296468961 -10.467926184378003 L -94.42935494267442 -11.037208650684235 L -94.13758421108433 -11.60371971559527 L -93.8463348819689 -12.16750439905856 L -93.55555265000561 -12.728606225616803 L -93.2651847405809 -13.287067276753236 L -92.97517985995094 -13.842928241154203 L -92.68548814738452 -14.396228462985258 L -92.3960611291951 -14.947005988275665 L -92.10685167457463 -15.495297609496605 L -91.81781395314525 -16.04113890841878 L -91.52890339415111 -16.584564297325738 L -91.24007664721422 -17.125607058660137 L -90.95129154458466 -17.664299383171475 L -90.66250706481685 -18.200672406634745 L -90.3736832978087 -18.73475624520227 L -90.08478141114239 -19.266580029450235 L -89.79576361766972 -19.796171937177252 L -89.50659314428678 -20.323559225009788 L -89.21723420184618 -20.848768258866265 L -88.927651956157 -21.371824543330078 L -88.63781250002606 -21.8927527499771 L -88.34768282629476 -22.411576744704536 L -88.05723080182973 -22.92831961410146 L -87.76642514242599 -23.443003690903915 L -87.47523538858465 -23.95565057857101 L -87.18363188212751 -24.46628117502081 L -86.89158574361414 -24.974915695559705 L -86.59906885052766 -25.48157369503943 L -86.30605381619726 -25.986274089273365 L -86.01251396942723 -26.489035175742686 L -85.71842333480325 -26.98987465362129 L -85.42375661364821 -27.4888096431473 L -85.12848916560144 -27.985856704367382 L -84.8325969907954 -28.481031855279813 L -84.53605671260655 -28.9743505893991 L -84.23884556095636 -29.465827892767116 L -83.94094135614142 -29.95547826043061 L -83.64232249317038 -30.44331571240847 L -83.34296792658898 -30.929353809166585 L -83.04285715577231 -31.41360566662175 L -82.74197021066723 -31.896083970691407 L -82.44028763796621 -32.37680099140783 L -82.13779048769635 -32.855768596613345 L -81.83446030020696 -33.33299826525284 L -81.53027909354053 -33.80850110027897 L -81.22522935117155 -34.28228784118552 L -80.91929401009992 -34.75436887618191 L -80.61245644928402 -35.22475425402433 L -80.3047004784016 -35.69345369551466 L -79.9960103269247 -36.160476604681705 L -79.68637063349755 -36.62583207965488 L -79.37576643560473 -37.08952892324398 L -79.06418315951981 -37.55157565323412 L -78.75160661052229 -38.0119805124084 L -78.43802296337367 -38.47075147830725 L -78.12341875304216 -38.927896272735026 L -77.80778086566673 -39.3834223710232 L -77.49109652975125 -39.837337011059226 L -77.17335330758004 -40.289647202089846 L -76.85453908684599 -40.74035973330781 L -76.53464207248379 -41.18948118222909 L -76.21365077869945 -41.63701792286992 L -75.89155402118948 -42.08297613372961 L -75.5683409095415 -42.527361805588136 L -75.24400083981033 -42.97018074912378 L -74.91852348726137 -43.41143860235933 L -74.59189879927612 -43.85114083794208 L -74.26411698841244 -44.289292770264574 L -73.93516852561406 -44.72589956243217 L -73.60504413356307 -45.160966233083236 L -73.2737347801698 -45.59449766306765 L -72.94123167219463 -46.026498601989296 L -72.60752624899631 -46.45697367461758 L -72.2726101764014 -46.8859273871739 L -71.93647534069041 -47.313364133496705 L -71.59911384269476 -47.739288201091775 L -71.26051799200123 -48.16370377707064 L -70.92068030125775 -48.5866149539834 L -70.57959348057757 -49.008025735548756 L -70.23725043203635 -49.427940042287034 L -69.89364424425855 -49.84636171705935 L -69.54876818708912 -50.26329453051745 L -69.20261570634601 -50.6787421864681 L -68.85518041865019 -51.09270832715596 L -68.50645610632913 -51.50519653846853 L -68.15643671238988 -51.91621035506703 L -67.8051163355589 -52.32575326544651 L -67.45248922538396 -52.733828716929345 L -67.09854977739606 -53.1404401205944 L -66.74329252832662 -53.545590856146575 L -66.38671215137818 -53.949284276728626 L -66.02880345154365 -54.35152371367986 L -65.66956136097286 -54.7523124812434 L -65.30898093438161 -55.15165388122652 L -64.94705734450127 -55.549551207615934 L -64.58378587756563 -55.94600775115172 L -64.21916192883197 -56.34102680386249 L -63.85318099813343 -56.73461166356494 L -63.48583868546028 -57.1267656383302 L -63.11713068656623 -57.51749205092063 L -62.747052788598594 -57.90679424319852 L -62.37560086574773 -58.29467558051116 L -62.00277087491467 -58.6811394560532 L -61.628558851392825 -59.06618929521072 L -61.25296090456243 -59.44982855988805 L -60.87597321359367 -59.83206075282172 L -60.497592023157175 -60.21288942188239 L -60.1178136391381 -60.59231816436915 L -59.736634424351855 -60.97035063129745 L -59.35405079425868 -61.34699053168414 L -58.970059212674215 -61.7222416368318 L -58.58465618747378 -62.09610778461533 L -58.197838266287505 -62.46859288377306 L -57.80960203218338 -62.83970091820561 L -57.41994409933658 -63.20943595128422 L -57.02886110868082 -63.57780213017255 L -56.63634972354082 -63.944803690163056 L -56.242406625241344 -64.31044495903235 L -55.84702850869196 -64.6747303614166 L -55.45021207794293 -65.03766442321131 L -55.051954041711035 -65.39925177599689 L -54.65225110887104 -65.75949716149404 L -54.251099983911615 -66.11840543605067 L -53.848497362350784 -66.47598157516444 L -53.444439926110086 -66.83223067804273 L -53.038924338842726 -67.18715797220393 L -52.631947241213396 -67.54076881812279 L -52.223505246127175 -67.8930687139224 L -51.81359493390296 -68.24406330011726 L -51.40221284738993 -68.59375836440891 L -50.989355487022024 -68.94215984653934 L -50.57501930580866 -69.28927384320366 L -50.159200704256776 -69.63510661302726 L -49.74189602522228 -69.97966458160917 L -49.3231015486854 -70.32295434663718 L -48.90281348644836 -70.6649826830763 L -48.48102797674948 -71.00575654843658 L -48.05774107879185 -71.3452830881219 L -47.632948767180565 -71.68356964086604 L -47.20664692626648 -72.02062374425783 L -46.77883134439022 -72.35645314036175 L -46.34949770802399 -72.69106578143649 L -45.918641595805084 -73.02446983575756 L -45.486258472457905 -73.35667369354691 L -45.0523436825984 -73.68768597301613 L -44.616892444417374 -74.01751552652635 L -44.179899843236456 -74.34617144687124 L -43.74136082493199 -74.6736630736878 L -43.30127018922197 -74.99999999999997 L -42.85962258280912 -75.32519207890176 L -42.416412492376054 -75.64924943038409 L -41.97163423742505 -75.97218244831281 L -41.525281962956896 -76.29400180756335 L -41.077349631983026 -76.61471847131793 L -40.62783101786287 -76.93434369853341 L -40.17671969646128 -77.25288905158479 L -39.72400903811719 -77.57036640409316 L -39.26969219941797 -77.88678794894413 L -38.81376211476981 -78.2021662065056 L -38.356211487758394 -78.51651403305151 L -37.897032782289365 -78.8298446294013 L -37.43621821350223 -79.14217154978203 L -36.97375973844674 -79.4535087109237 L -36.509649046514454 -79.76387040139537 L -36.04387754961402 -80.07327129119338 L -35.576436372082 -80.38172644158998 L -35.10731634031709 -80.6892513152544 L -34.63650797212863 -80.99586178665561 L -34.16400146578641 -81.3015741527595 L -33.68978668876191 -81.60640514403096 L -33.21385316614676 -81.91037193575411 L -32.73619006873778 -82.21349215968253 L -32.25678620077348 -82.51578391603343 L -31.77562998730927 -82.81726578583941 L -31.2927094612171 -83.11795684367173 L -30.80801224979327 -83.41787667075121 L -30.321525560960577 -83.71704536846107 L -29.833236169046295 -84.01548357227972 L -29.34313040012098 -84.3132124661489 L -28.851194116878606 -84.61025379729648 L -28.357412703039923 -84.90662989153198 L -27.86177104726037 -85.20236366903376 L -27.364253526520308 -85.49747866064992 L -26.86484398897847 -85.79199902473198 L -26.363525736264087 -86.08594956452598 L -25.860281505186595 -86.37935574614237 L -25.355093448836275 -86.67224371713064 L -24.847943117052512 -86.96464032568292 L -24.338811436230625 -87.25657314049474 L -23.82767868844154 -87.54807047130952 L -23.31452448983266 -87.83916139017767 L -22.799327768281337 -88.12987575345954 L -22.282066740266483 -88.42024422460624 L -21.762718886926738 -88.71029829775037 L -21.241260929267252 -89.00007032214384 L -20.717668802480283 -89.28959352747898 L -20.191917629338406 -89.57890205013243 L -19.663981692620258 -89.86803096037319 L -19.133834406525754 -90.15701629057745 L -18.601448287035236 -90.44589506449586 L -18.066794921164472 -90.73470532762103 L -17.529844935065757 -91.02348617870538 L -16.990567960923105 -91.31227780248146 L -16.448932602584303 -91.60112150364121 L -15.904906399873667 -91.89005974213163 L -15.35845579152219 -92.17913616982887 L -14.809546076651184 -92.46839566865533 L -14.258141374741509 -92.75788439020792 L -13.704204584016182 -93.04764979696907 L -13.147697338160341 -93.33774070517688 L -12.588579961298972 -93.62820732943405 L -12.026811421148304 -93.91910132913945 L -11.462349280252225 -94.21047585683185 L -10.895149645207708 -94.50238560853991 L -10.325167113783225 -94.79488687623687 L -9.752354719822689 -95.08803760250576 L -9.176663875826081 -95.38189743752476 L -8.598044313086996 -95.67652779849158 L -8.01644401926635 -95.97199193160918 L -7.431809173268511 -96.26835497676495 L -6.844084077282885 -96.56568403504184 L -6.253211085841224 -96.86404823920938 L -5.6591305317379925 -97.16351882734924 L -5.061780648646477 -97.46416921978141 L -4.461097490255647 -97.76607509946632 L -3.8570148457419817 -98.06931449606856 L -3.249464151379846 -98.37396787387932 L -2.6383743980787107 -98.68011822380802 L -2.02367203462718 -98.98785115966473 L -1.4052808664044232 -99.29725501897113 L -0.7831219493100723 -99.6084209685507 L -0.15711347864204825 -99.92144311516705 L 0.4706041358554259 -99.76469401758189 L 1.0946774208766934 -99.45261192104121 L 1.7149424194005534 -99.1423385935433 L 2.3314794916115393 -98.83378141245072 L 2.9443661933021197 -98.52685063909873 L 3.553677384434485 -98.22145931071549 L 4.159485332787621 -97.91752313725384 L 4.761859812948982 -97.6149604028751 L 5.360868200894601 -97.31369187184117 L 5.956575564389261 -97.01364069858386 L 6.549044749419475 -96.71473234173746 L 7.13833646286533 -96.41689448192992 L 7.724509351600735 -96.12005694314132 L 8.30762007820525 -95.82415161744885 L 8.887723393454403 -95.52911239298884 L 9.464872205751071 -95.23487508497473 L 10.039117647649096 -94.94137736961969 L 10.610509139611814 -94.64855872082077 L 11.179094451140244 -94.35636034947008 L 11.744919759398234 -94.06472514526519 L 12.308029705457043 -93.77359762089756 L 12.868467448270296 -93.48292385850628 L 13.426274716489088 -93.19265145828865 L 13.981491858218952 -92.90272948916527 L 14.534157888815013 -92.61310844140375 L 15.084310536806397 -92.3237401811092 L 15.631986288036819 -92.03457790649529 L 16.177220428103738 -91.74557610585316 L 16.720047083173604 -91.4566905171409 L 17.26049925924612 -91.16787808911985 L 17.7986088799395 -90.87909694396711 L 18.334406822860636 -90.59030634129883 L 18.867922954625826 -90.3014666435398 L 19.39918616458936 -90.01253928258124 L 19.9282243973394 -89.72348672766805 L 20.455064684012765 -89.43427245446281 L 20.979733172482 -89.14486091523463 L 21.502255156462667 -88.85521751012348 L 22.022655103587276 -88.56530855943456 L 22.540956682489814 -88.27510127691778 L 23.0571827889449 -87.98456374398984 L 23.57135557109867 -87.69366488485981 L 24.083496453832055 -87.40237444251932 L 24.59362616229098 -87.11066295556131 L 25.10176474462057 -86.81850173579198 L 25.607931593933436 -86.52586284660387 L 26.112145469545943 -86.23271908207767 L 26.614424517510816 -85.93904394678364 L 27.114786290477003 -85.64481163625229 L 27.613247766901473 -85.34999701808874 L 28.109825369640852 -85.05457561370376 L 28.60453498394764 -84.75852358063611 L 29.097391974894773 -84.4618176954429 L 29.588411204250836 -84.16443533713516 L 30.07760704682827 -83.8663544711365 L 30.5649934063255 -83.56755363374404 L 31.050583730682813 -83.26801191707163 L 31.534391026970248 -82.96770895445697 L 32.01642787582755 -82.66662490631288 L 32.4967064454715 -82.36474044640698 L 32.97523850528921 -82.06203674855169 L 33.4520354390325 -81.75849547368888 L 33.92710825762867 -81.45409875735439 L 34.400467611622545 -81.1488291975069 L 34.87212380326427 -80.84266984270725 L 35.34208679825608 -80.5356041806349 L 35.810366237170726 -80.22761612692827 L 36.276971446554114 -79.91869001433686 L 36.74191144972543 -79.60881058217235 L 37.20519497728386 -79.29796296604833 L 37.66683047733507 -78.98613268789654 L 38.12682612544629 -78.67330564625017 L 38.58518983434251 -78.35946810678234 L 39.041929263350724 -78.04460669309196 L 39.497051827604025 -77.7287083777259 L 39.95056470701273 -77.41176047342958 L 40.40247485501357 -77.09375062461618 L 40.85278900710269 -76.77466679904681 L 41.30151368916224 -76.45449727971372 L 41.748655225588074 -76.13323065691785 L 42.19421974722596 -75.8108558205338 L 42.638213199122916 -75.48736195245553 L 43.08064134810209 -75.16273851921417 L 43.52150979016605 -74.83697526476327 L 43.960823957737034 -74.51006220342296 L 44.398589126738344 -74.18198961297861 L 44.83481042352492 -73.85274802792615 L 45.269492831667264 -73.52232823285988 L 45.702641198595515 -73.19072125599563 L 46.13426024210891 -72.85791836282456 L 46.56435455675542 -72.52391104989243 L 46.992928620087156 -72.18869103869876 L 47.41998679879665 -71.85225026971091 L 47.8455333547386 -71.51458089648845 L 48.269572450841615 -71.17567527991321 L 48.69210815691431 -70.83552598252061 L 49.113144455351616 -70.49412576292669 L 49.53268524674329 -70.15146757034844 L 49.95073435539071 -69.8075445392117 L 50.36729553473447 -69.46234998384367 L 50.782372472698775 -69.11587739324473 L 51.19596879695405 -68.76812042593744 L 51.608088080102945 -68.41907290488783 L 52.018733844793374 -68.0687288124954 L 52.427909568761734 -67.71708228564863 L 52.83561868980982 -67.36412761084244 L 53.24186461071876 -67.0098592193542 L 53.646650704103834 -66.65427168247464 L 54.049980317213056 -66.29735970679063 L 54.45185677667209 -65.93911812951718 L 54.85228339318016 -65.57954191387418 L 55.25126346615825 -65.21862614450656 L 55.64880028835429 -64.85636602294295 L 56.04489715040664 -64.49275686309167 L 56.439557345370574 -64.12779408676973 L 56.83278417320879 -63.76147321926278 L 57.22458094525042 -63.393789884912906 L 57.61495098862045 -63.024739802731126 L 58.00389765064243 -62.65431878203244 L 58.39142430321701 -62.2825227180907 L 58.77753434718029 -61.90934758780918 L 59.1622312166428 -61.5347894454063 L 59.54551838331318 -61.15884441811214 L 59.927399360808195 -60.78150870187421 L 60.30787770895353 -60.4027785570683 L 60.68695703807549 -60.02265030421382 L 61.06464101328833 -59.64112031968913 L 61.440933358778416 -59.25818503144588 L 61.81583786208952 -58.87384091471759 L 62.189358378409906 -58.48808448772219 L 62.56149883486509 -58.10091230735452 L 62.93226323481889 -57.71232096486614 L 63.30165566218504 -57.32230708153011 L 63.66968028575217 -56.93086730428824 L 64.03634136352473 -56.5379983013778 L 64.401643247083 -56.143696757934904 L 64.76559038596471 -55.747959371571866 L 65.12818733207047 -55.35078284792649 L 65.48943874409697 -54.95216389617889 L 65.84934939199968 -54.55209922453497 L 66.2079241614885 -54.1505855356721 L 66.56516805855948 -53.74761952214463 L 66.92108621406479 -53.3431978617467 L 67.27568388832461 -52.9373172128289 L 67.62896647578387 -52.52997420956552 L 67.98093950971695 -52.12116545716965 L 68.33160866698334 -51.710887527052904 L 68.68097977283733 -51.2991369519269 L 69.02905880579618 -50.885910220841595 L 69.37585190256854 -50.471203774159456 L 69.72136536304758 -50.05501399846039 L 70.06560565537215 -49.63733722137411 L 70.4085794210599 -49.21816970633669 L 70.75029348021529 -48.79750764726735 L 71.09075483681679 -48.37534716316239 L 71.42997068408789 -47.95168429260026 L 71.76794840995441 -47.52651498815669 L 72.10469560259358 -47.099835110723326 L 72.44022005607808 -46.67164042372734 L 72.77452977612097 -46.241926587245686 L 73.10763298592411 -45.81068915201171 L 73.43953813213588 -45.377923553308236 L 73.77025389092289 -44.943625104742104 L 74.09978917416058 -44.50778899189591 L 74.42815313574741 -44.070410265851656 L 74.75535517804819 -43.631483836581076 L 75.08140495847235 -43.19100446619687 L 75.40631239619232 -42.74896676205938 L 75.73008767900751 -42.30536516973363 L 76.05274127036115 -41.86019396578914 L 76.37428391651457 -41.41344725043825 L 76.69472665388696 -40.965118940004494 L 77.01408081656592 -40.51520275921633 L 77.33235804399685 -40.06369223331734 L 77.64957028885757 -39.610580679987706 L 77.96572982512593 -39.15586120106779 L 78.28084925634832 -38.6995266740771 L 78.59494152411663 -38.24156974352042 L 78.90801991676237 -37.78198281197297 L 79.2200980782764 -37.32075803093529 L 79.5311900174635 -36.85788729144946 L 79.84131011734083 -36.39336221446736 L 80.15047314478969 -35.92717414096141 L 80.45869426047209 -35.4593141217663 L 80.76598902902053 -34.98977290714347 L 81.07237342951382 -34.518540936055615 L 81.37786386624867 -34.0456083251412 L 81.68247717982102 -33.57096485737509 L 81.98623065852689 -33.09459997040566 L 82.28914205009764 -32.61650274455371 L 82.59122957378202 -32.136661890460054 L 82.89251193278959 -31.65506573636802 L 83.19300832710954 -31.171702215026617 L 83.49273846672023 -30.686558850198757 L 83.79172258520582 -30.199622742758503 L 84.08998145379607 -29.71088055636101 L 84.3875363958465 -29.22031850266853 L 84.68440930177759 -28.72792232611277 L 84.9806226444912 -28.233677288176878 L 85.27619949528466 -27.73756815117506 L 85.57116354028219 -27.239579161511514 L 85.86553909740647 -26.739694032394848 L 86.15935113391168 -26.237895925987548 L 86.45262528450257 -25.73416743496536 L 86.74538787006372 -25.228490563462298 L 87.03766591702504 -24.72084670737597 L 87.32948717739043 -24.211216634006067 L 87.62088014945861 -23.699580460995982 L 87.91187409926482 -23.185917634550655 L 88.2024990827755 -22.670206906897064 L 88.49278596886779 -22.152426312956624 L 88.78276646312935 -21.632553146192688 L 89.07247313251295 -21.11056393360029 L 89.3619394308848 -20.58643440979798 L 89.65119972550517 -20.06013949018391 L 89.94028932448443 -19.531653243112277 L 90.22924450525643 -19.00094886104918 L 90.51810254411635 -18.46799863066035 L 90.80690174687085 -17.932773901782454 L 91.09568148065162 -17.39524505522767 L 91.38448220694522 -16.855381469368304 L 91.67334551589548 -16.31315148544507 L 91.96231416193828 -15.768522371539618 L 92.25143210083013 -15.221460285149192 L 92.54074452813624 -14.671930234298843 L 92.83029791924788 -14.119896037120109 L 93.12014007100082 -13.565320279825684 L 93.41032014497253 -13.008164273001404 L 93.70088871253857 -12.448388006135415 L 93.99189780177393 -11.885950100299313 L 94.28340094628906 -11.320807758890789 L 94.57545323609659 -10.752916716342233 L 94.86811137060863 -10.18223118469501 L 95.16143371387145 -9.608703797933373 L 95.45548035214917 -9.032285553965885 L 95.75031315397675 -8.452925754133489 L 96.04599583280637 -7.870571940121668 L 96.34259401238138 -7.285169828141018 L 96.64017529497806 -6.696663240237303 L 96.93880933266558 -6.104994032579108 L 97.23856790174061 -5.510102020568217 L 97.53952498050594 -4.911924900602388 L 97.84175683056964 -4.310398168314681 L 98.14534208185498 -3.705455033097927 L 98.45036182151986 -3.097026328717263 L 98.75689968699959 -2.4850404197958955 L 99.06504196339883 -1.8694231039482205 L 99.37487768547318 -1.250097509320161 L 99.68649874445552 -0.626983987282065 L 100.0 0.0" fill="none" stroke="black" /></svg>