<?xml version="1.0" encoding="utf-8" ?>
<svg baseProfile="full" height="1000" version="1.1" viewBox="-500 -500 1000 1000" width="1000" xmlns="http://www.w3.org/2000/svg" xmlns:ev="http://www.w3.org/2001/xml-events" xmlns:xlink="http://www.w3.org/1999/xlink"><defs /><path d="M 50.0 49.99999999999999 L 46.464244570035355 53.53575542996463 L 42.89294943407544 57.107050565924574 L 39.249131465716786 60.75086853428322 L 35.49279431099641 64.50720568900357 L 31.579086451500466 68.42091354849954 L 27.45599804417115 72.54400195582885 L 23.061329201207492 76.93867079879251 L 18.318528045345474 81.68147195465453 L 13.130766429524442 86.86923357047556 L 7.372217817619752 92.62778218238024 L 0.874772946886253 99.12522705311375 L -5.8248801672809325 94.17511983271906 L -11.750357297589048 88.24964270241095 L -17.067639883816856 82.93236011618313 L -21.911647101958607 78.08835289804139 L -26.38549848744306 73.61450151255694 L -30.570172101888883 69.42982789811111 L -34.53100993074148 65.46899006925851 L -38.32224916451513 61.67775083548486 L -41.99029187948461 58.0097081205154 L -45.57616120820512 54.423838791794886 L -49.11743851192516 50.88256148807484 L -52.649886330904394 47.35011366909561 L -56.20891114548388 43.79108885451612 L -59.83099526330993 40.16900473669008 L -63.55522247888264 36.44477752111735 L -67.42503642907985 32.57496357092015 L -71.49040718892275 28.50959281107725 L -75.81064968749415 24.189350312505855 L -80.45825502275005 19.541744977249962 L -85.52429684863725 14.475703151362744 L -91.12632479835757 8.873675201642431 L -97.4202834068418 2.5797165931582002 L -95.77148319796618 -4.228516802033817 L -89.66784161971684 -10.33215838028315 L -84.21267588527151 -15.78732411472848 L -79.26106356389754 -20.738936436102467 L -74.70299955239913 -25.29700044760087 L -70.45267854466907 -29.547321455330913 L -66.44133661074284 -33.558663389257156 L -62.61230697858814 -37.38769302141186 L -58.91748490262764 -41.08251509737235 L -55.31470037445967 -44.685299625540324 L -51.76567309969945 -48.23432690030055 L -48.234326900300566 -51.76567309969943 L -44.68529962554033 -55.31470037445968 L -41.082515097372394 -58.917484902627606 L -37.38769302141187 -62.612306978588116 L -33.55866338925713 -66.44133661074288 L -29.54732145533091 -70.4526785446691 L -25.29700044760086 -74.70299955239913 L -20.738936436102456 -79.26106356389754 L -15.787324114728538 -84.21267588527147 L -10.332158380283177 -89.66784161971682 L -4.228516802033928 -95.77148319796608 L 2.5797165931581287 -97.42028340684188 L 8.873675201642367 -91.12632479835763 L 14.475703151362723 -85.52429684863728 L 19.54174497725 -80.45825502275 L 24.189350312505834 -75.81064968749418 L 28.509592811077233 -71.49040718892277 L 32.574963570920154 -67.42503642907985 L 36.444777521117366 -63.555222478882634 L 40.169004736690056 -59.83099526330995 L 43.791088854516104 -56.20891114548389 L 47.35011366909561 -52.64988633090438 L 50.88256148807485 -49.11743851192515 L 54.423838791794864 -45.57616120820513 L 58.00970812051537 -41.990291879484616 L 61.67775083548487 -38.32224916451513 L 65.46899006925852 -34.531009930741476 L 69.42982789811107 -30.57017210188893 L 73.61450151255691 -26.38549848744309 L 78.08835289804136 -21.911647101958625 L 82.93236011618319 -17.067639883816817 L 88.24964270241094 -11.750357297589053 L 94.17511983271908 -5.824880167280921 L 99.1252270531137 0.8747729468862929 L 92.62778218238022 7.372217817619788 L 86.86923357047553 13.130766429524476 L 81.68147195465448 18.3185280453455 L 76.9386707987925 23.061329201207503 L 72.54400195582883 27.455998044171157 L 68.42091354849953 31.579086451500473 L 64.50720568900357 35.49279431099642 L 60.750868534283214 39.249131465716786 L 57.10705056592457 42.89294943407544 L 53.53575542996464 46.464244570035355 L 50.0 49.99999999999999" fill="none" stroke="black" /></svg>