<?xml version="1.0" encoding="utf-8" ?>
<svg baseProfile="full" height="1000" version="1.1" viewBox="-500 -500 1000 1000" width="1000" xmlns="http://www.w3.org/2000/svg" xmlns:ev="http://www.w3.org/2001/xml-events" xmlns:xlink="http://www.w3.org/1999/xlink"><defs /><path d="M 100.0 0.0 L 96.25974148291509 0.6054311997094733 L 92.58555756284017 1.1646904892265595 L 88.97630734206577 1.6790419844641586 L 85.43088382280796 2.149715109237186 L 81.94821256405501 2.577905933573896 L 78.52725039988624 2.9647784505851607 L 75.16698421600117 3.311465795155841 L 71.86642978139075 3.619071407525891 L 68.62463063226674 3.888670144645594 L 65.44065700553521 4.121309342018282 L 62.31360481926218 4.318009828584303 L 59.24259469772538 4.4797668970506574 L 56.22677103878871 4.607551231931452 L 53.2653011214642 4.702309797433774 L 50.357374251648025 4.764966687201554 L 47.502200944135474 4.796423937816069 L 44.699012139119944 4.797562307844262 L 41.94705845148596 4.769242024126115 L 39.24560945130262 4.712303496898741 L 36.593952974002185 4.627568005265654 L 33.99139445882241 4.515838354438125 L 31.437256314163385 4.377899506097524 L 28.930877308580676 4.2145191831541915 L 26.47161198620966 4.026448450110614 L 24.058830105477497 3.814422270171919 L 21.69191610002052 3.5791600401862933 L 19.37026856078046 3.321366104440779 L 17.093299738309668 3.0417302482848108 L 14.86043506436225 2.740928172502853 L 12.671112691897122 2.4196219493101925 L 10.52478305266564 2.078460460801571 L 8.420908431593787 1.7180798206391348 L 6.358962557215989 1.3391037797279601 L 4.338430207445413 0.942144116587798 L 2.3588068300125684 0.5278010130966386 L 0.41959817692614365 0.09666341624603447 L -1.479680047650092 -0.3506906134818877 L -3.339502526683802 -0.8136935665361733 L -5.160334657277289 -1.2917881609665613 L -6.942632865910056 -1.7844270308157384 L -8.686844912419758 -2.2910724257346224 L -10.393410183200075 -2.8111959213457745 L -12.062759974064193 -3.3442781399007018 L -13.6953177632099 -3.8898084808003937 L -15.291499474693396 -4.447284860566345 L -16.85171373280832 -5.016213461870798 L -18.3763621077413 -5.596108491251211 L -19.86583935286116 -6.186491945151726 L -21.32053363398485 -6.786893383951792 L -22.740826750941864 -7.396849713655367 L -24.127094351749818 -8.015904974930848 L -25.479706139698422 -8.643610139205041 L -26.799026073622997 -9.279522911527053 L -28.08541256163953 -9.923207539931305 L -29.339218648601914 -10.574234631041211 L -30.56079219752543 -11.23218097166454 L -31.7504760652169 -11.896629356144555 L -32.90860827233625 -12.567168419239483 L -34.035522168107065 -13.243392474313382 L -35.131546589883285 -13.924901356630262 L -36.19700601777251 -14.61130027155307 L -37.23222072450493 -15.302199647455943 L -38.23750692073122 -15.997214993167415 L -39.21317689592496 -16.69596675976943 L -40.15953915505618 -17.39808020658357 L -41.07689855119935 -18.103185271184344 L -41.96555641422741 -18.810916443283638 L -42.82581067574273 -19.52091264233903 L -43.657955990386256 -20.23281709874299 L -44.46228385366089 -20.946277238455806 L -45.23908271640204 -21.66094457095148 L -45.988638096020495 -22.376474580349942 L -46.71123268463967 -23.09252661961422 L -47.407146454242124 -23.808763807695144 L -48.076656758940274 -24.52485292951257 L -48.72003843447774 -25.240464338664104 L -49.33756389506485 -25.955271862757428 L -49.92950322764871 -26.668952711265774 L -50.49612428371651 -27.38118738581162 L -51.03769276872008 -28.091659592782875 L -51.554472329216566 -28.8000561581948 L -52.046724637807806 -29.50606694470917 L -52.51470947596364 -30.209384770728512 L -52.95868481480847 -30.909705331484155 L -53.37890689394945 -31.606727122041 L -53.775630298420985 -32.300151362143666 L -54.149108033817974 -32.98968192283182 L -54.49959159968731 -33.675025254753834 L -54.827331061246326 -34.35589031811193 L -55.13257511949342 -35.03198851417311 L -55.415571179772975 -35.70303361828103 L -55.67656541885913 -36.36874171430994 L -55.91580285061316 -37.028831130497736 L -56.13352739027772 -37.6830223766036 L -56.329981917459584 -38.331038082332185 L -56.505408337856586 -38.97260293696996 L -56.660047643783344 -39.60744363018233 L -56.79413997354397 -40.23528879391872 L -56.90792466970371 -40.855868945375995 L -57.00164033630772 -41.46891643097241 L -57.07552489509379 -42.074165371283875 L -57.129815640745214 -42.671351606897005 L -57.16474929522894 -43.260212645133734 L -57.18056206126225 -43.84048760760368 L -57.177489674951794 -44.411917178542105 L -57.15576745764492 -44.97424355389012 L -57.115630367036545 -45.5272103910783 L -57.057313047569224 -46.07056275947167 L -56.98104988016739 -46.604047091438524 L -56.88707503134323 -47.127411134003346 L -56.775622501711794 -47.640403901046845 L -56.64692617395335 -48.14277562601606 L -56.501219860258196 -48.63427771510778 L -56.33873734928993 -49.114662700889035 L -56.159712452703936 -49.583684196321336 L -55.96437905125333 -50.041096849150755 L -55.75297114051907 -50.48665629663245 L -55.525722876296435 -50.920119120553785 L -55.28286861967268 -51.341242802523546 L -55.02464298182791 -51.74978567949305 L -54.75128086859335 -52.14550689947763 L -54.46301752479855 -52.528166377444464 L -54.16008857844022 -52.89752475133451 L -53.84273008470579 -53.253343338187356 L -53.5111785698827 -53.59538409033569 L -53.16567107518622 -53.92340955163769 L -52.806445200537354 -54.237182813715755 L -52.433739148322324 -54.53646747216872 L -52.047791767167375 -54.82102758272733 L -51.648842595758126 -55.09062761731895 L -51.23713190673782 -55.34503242001091 L -50.812900750715706 -55.58400716280002 L -50.37639100041758 -55.8073173012156 L -49.927845395011815 -56.01472852970381 L -49.46750758464252 -56.20600673676038 L -48.99562217520407 -56.380917959779104 L -48.512434773389614 -56.53922833958269 L -48.018192032046564 -56.680704074601636 L -47.513141695875014 -56.80511137466846 L -46.99753264750116 -56.91221641439155 L -46.47161495396259 -57.001785286074416 L -45.93563991363973 -57.073583952144915 L -45.38986010367057 -57.12737819705909 L -44.83452942788261 -57.16293357864005 L -44.269903165283466 -57.1800153788202 L -43.69623801914408 -57.1783885537436 L -43.11379216671518 -57.15781768319257 L -42.52282530961594 -57.11806691929905 L -41.923598724935374 -57.05889993449985 L -41.316375317086695 -56.98007986869458 L -40.701419670458336 -56.88136927556575 L -40.07899810290232 -56.762530068015245 L -39.44937872010679 -56.62332346267644 L -38.812831470895475 -56.46350992345363 L -38.169628203502576 -56.28284910404565 L -37.52004272286839 -56.08109978940223 L -36.86435084900716 -55.858019836068465 L -36.20283047649523 -55.61336611136395 L -35.535761635132324 -55.34689443134616 L -34.86342655182936 -55.058359497505535 L -34.186109713776034 -54.7475148321353 L -33.50409793294777 -54.41411271232364 L -32.81768041200611 -54.057904102504814 L -32.12714881165618 -53.678638585513404 L -31.43279731952159 -53.27606429207841 L -30.734922720600835 -52.84992782869253 L -30.03382446937139 -52.3999742037914 L -29.329804763610383 -51.92594675217422 L -28.62316862000184 -51.4275870575957 L -27.914223951604008 -50.90463487345514 L -27.20328164725207 -50.35682804150771 L -26.490655652975256 -49.78390240852001 L -25.776663055509133 -49.18559174078855 L -25.06162416798685 -48.56162763643643 L -24.345862617897275 -47.9117394354016 L -23.629705437399956 -47.23565412702706 L -22.913483156090884 -46.53309625515776 L -22.19752989631653 -45.803787820648125 L -21.482183471137397 -45.04744818117878 L -20.767785485045355 -44.26379394827687 L -20.054681437545344 -43.45253888143273 L -19.343220829712966 -42.613393779196926 L -18.633757273847547 -41.74606636714225 L -17.92664860634263 -40.850261182567635 L -17.222257003900893 -39.925679455814574 L -16.520949103227654 -38.97201898806665 L -15.823096124339703 -37.98897402549099 L -15.129073997634453 -36.97623512957968 L -14.439263494868722 -35.93348904354026 L -13.754050364204115 -34.86041855458083 L -13.073825469480518 -33.75670235192375 L -12.398984933889441 -32.622014880382835 L -11.729930288222171 -31.456026189322273 L -11.067068623879088 -30.25840177681637 L -10.410812750832289 -29.028802428815567 L -9.761581360742557 -27.766884053117636 L -9.119799195441516 -26.47229750793541 L -8.485897220997735 -25.14468842483967 L -7.860312807596468 -23.78369702584959 L -7.243489915472566 -22.388957934429584 L -6.635879287147738 -20.96009998014543 L -6.037938646232671 -19.496745996711994 L -5.4501329030702195 -17.9985126131658 L -4.872934367504293 -16.465010037869035 L -4.30682296907618 -14.895841835049453 L -3.7522864849619815 -13.290604693561079 L -3.2098207759797113 -11.648888187533828 L -2.6799300310122547 -9.970274528572872 L -2.1631270202060193 -8.254338309141374 L -1.659933357324995 -6.5006462367511375 L -1.1708797716564412 -4.7087568585616 L -0.696506389886224 -2.878220275975565 L -0.2373630283787378 -1.0085778487876667 L 0.20599050367805205 0.9006381115662663 L 0.6329840897818677 2.849904660143764 L 1.0430369797739658 4.839708548519738 L 1.435557451114045 6.870546567229752 L 1.8099424572139835 8.94292590119123 L 2.1655772622438523 11.057364498689907 L 2.5018350617927254 13.214391454547439 L 2.8180765887353854 15.414547408119674 L 3.113649703621899 17.65838495680893 L 3.3878889688708593 19.946469085808005 L 3.6401152060095914 22.27937761483431 L 3.8696350351633217 24.65770166264881 L 4.0757403959537655 27.082046130203864 L 4.257708048920843 29.553030203301915 L 4.414799056533816 32.07128787570032 L 4.5462582428066725 34.63746849364698 L 4.651313630478347 37.252237322887225 L 4.729175854660102 39.91627613923676 L 4.7790375517916575 42.63028384388207 L 4.800072722681539 45.39497710463059 L 4.79143606833806 48.21109102440411 L 4.75226229722319 51.07937983834421 L 4.681665402482635 54.000617640975904 L 4.578737907621359 56.97559914495791 L 4.442550079004626 60.00514047304306 L 4.272149103468737 63.09007998496131 L 4.066558229223892 66.2312791410448 L 3.8247758681230106 69.42962340451928 L 3.545774657254052 72.68602318450527 L 3.2285004776894404 76.0014148218956 L 2.8718714280934754 79.37676162040655 L 2.4747767507469787 82.81305492524449 L 2.0360757073963875 86.31131525198083 L 1.5545964021724858 89.87259346838859 L 1.0291345486495815 93.49797203217122 L 0.45845217792969206 97.1885662876972 L -0.15575689136116416 99.058677170548 L -0.7495246533050042 95.3350461680875 L -1.2974398620145071 91.67720128423004 L -1.8007578314227275 88.08401022565845 L -2.2606995238890244 84.55437425724375 L -2.6784528728325983 81.08722687457605 L -3.0551740447592235 77.6815325371354 L -3.3919886438948303 74.33628545888605 L -3.6899928624465725 71.05050845327463 L -3.9502545793320234 67.82325182979591 L -4.173814410048803 64.65359233944557 L -4.361686710200104 61.54063216655284 L -4.514860535044965 58.483497964620355 L -4.634300557304858 55.481339933940546 L -4.72094794532992 52.533330938884646 L -4.775721203608398 49.63866566288329 L -4.799516977490067 46.79655979922528 L -4.793210823889585 44.00624927590993 L -4.757657949636911 41.266989512887406 L -4.6936939190493705 38.578054710109974 L -4.602135332213498 35.93873716490876 L -4.483780475383046 33.34834661728729 L -4.339409944823549 30.80620962180445 L -4.169787245361693 28.311668944785886 L -3.9756593648305785 25.86408298567519 L -3.7577573255385257 23.462825221396585 L -3.5167967138292546 21.1072836726605 L -3.2534781887455573 18.796860391201434 L -2.9684879707556213 16.530970966989216 L -2.6624983114513068 14.30904405450326 L -2.3361679450810637 12.130520917207619 L -1.990142522736134 9.994854989409106 L -1.6250550299670365 7.901511454722112 L -1.2415261885678532 5.849966840400555 L -0.8401648432289726 3.8397086268369804 L -0.42156833372504465 1.8702348715667938 L 0.013677146730447731 -0.058946152862091594 L 0.4649962063609969 -1.9483163077497494 L 0.9318239223613958 -3.7983479244092138 L 1.4136055205460352 -5.609504128181129 L 1.9097960665929463 -7.382239150815565 L 2.4198601683897714 -9.116998631713344 L 2.9432716890121142 -10.814219908498231 L 3.47951346988658 -12.474332297366914 L 4.0280770637114856 -14.097757363642756 L 4.588462476728925 -15.684909182940189 L 5.160177919960518 -17.236194593328875 L 5.74273956903631 -18.752013438864267 L 6.335671332264422 -20.232758804839847 L 6.938504626604658 -21.678817245097648 L 7.550778161224041 -23.0905690017171 L 8.172037728327737 -24.468388217391094 L 8.801836000971132 -25.812643140779684 L 9.439732337573695 -27.123696325125096 L 10.085292592866164 -28.401904820393796 L 10.738088935014588 -29.647620359201653 L 11.397699668676722 -30.86118953676791 L 12.063709063756008 -32.042953985132044 L 12.73570718962894 -33.19325054185781 L 13.413289754630696 -34.31241141343813 L 14.096057950594187 -35.40076433360866 L 14.783618302244527 -36.45863271676396 L 15.475582521261064 -37.48633580666724 L 16.171567364825645 -38.48418882063338 L 16.87119449848388 -39.45250308935829 L 17.574090363153047 -40.39158619256173 L 18.279886046117387 -41.301742090602175 L 18.98821715585716 -42.1832712522165 L 19.698723700565466 -43.036470778532674 L 20.411049970210485 -43.86163452349375 L 21.12484442200968 -44.65905321083294 L 21.839759569183094 -45.42901454772364 L 22.55545187286328 -46.171803335235694 L 23.27158163704015 -46.88770157571389 L 23.987812906425333 -47.57698857719562 L 24.70381336712491 -48.239941054978644 L 25.419254250013864 -48.87683323044685 L 26.133810236708214 -49.48793692725468 L 26.84715936803689 -50.07352166497252 L 27.558982954916658 -50.63385475028569 L 28.26896549153824 -51.169201365840394 L 28.976794570775525 -51.67982465682593 L 29.682160801731236 -52.165985815377546 L 30.384757729336798 -52.62794416288251 L 31.084281755927123 -53.06595723027075 L 31.7804320647123 -53.480280836364614 L 32.47291054507317 -53.87116916436426 L 33.161421719607 -54.23887483653822 L 33.84567267285626 -54.583648987191715 L 34.52537298165045 -54.90574133397577 L 35.20023464699846 -55.20540024760617 L 35.86997202746686 -55.482872820052634 L 36.53430177398346 -55.738404931259495 L 37.19294276600769 -55.97224131445827 L 37.845616049009585 -56.18462562012791 L 38.492044773201876 -56.3758004786586 L 39.13195413347217 -56.546007561774374 L 39.765071310461 -56.69548764276472 L 40.391125412736585 -56.82448065557804 L 41.009847420015056 -56.933225752825365 L 41.62097012737976 -57.021961362743276 L 42.224228090450886 -57.090925245162666 L 42.81935757146022 -57.14035454652819 L 43.40609648618728 -57.17048585401499 L 43.98418435171161 -57.181555248784136 L 44.55336223494056 -57.17379835842125 L 45.11337270186884 -57.147450408597635 L 45.66395976753145 -57.10274627399671 L 46.20486884660801 -57.039920528544094 L 46.735846704641396 -56.95920749498126 L 47.25664140983092 -56.8608412938201 L 47.76700228536307 -56.74505589171612 L 48.26667986224367 -56.6120851492987 L 48.755425832593936 -56.46216286849161 L 49.23299300337469 -56.295522839361965 L 49.69913525050617 -56.11239888653264 L 50.15360747334358 -55.91302491519008 L 50.596165549481135 -55.69763495672677 L 51.026566289843466 -55.466463214046385 L 51.44456739403645 -55.21974410656913 L 51.8499274059216 -54.95771231496961 L 52.24240566938174 -54.68060282567839 L 52.62176228424587 -54.38865097518217 L 52.98775806233979 -54.08209249415332 L 53.34015448363108 -53.761163551441456 L 53.678713652436144 -53.426100797959535 L 54.0031982536573 -53.07714141049643 L 54.3133715090179 -52.71452313548684 L 54.60899713326316 -52.33848433277208 L 54.8898392902962 -51.949264019382525 L 55.15566254921493 -51.547101913374014 L 55.40623184022065 -51.132238477750384 L 55.641312410363525 -50.70491496450481 L 55.860669779094174 -50.26537345881069 L 56.064069693587705 -49.813856923396145 L 56.25127808380922 -49.35060924313537 L 56.42206101728585 -48.875875269887665 L 56.57618465355221 -48.38990086761984 L 56.71341519823715 -47.89293295784428 L 56.833518856755276 -47.38521956540758 L 56.93626178757113 -46.86700986466403 L 57.0214100549992 -46.33855422606895 L 57.08872958150471 -45.80010426322739 L 57.13798609946994 -45.25191288043476 L 57.168945102387845 -44.694234320745274 L 57.18137179544731 -44.12732421460683 L 57.175031045470355 -43.55143962909857 L 57.14968733016405 -42.966839117812526 L 57.10510468664603 -42.37378277141562 L 57.04104665920478 -41.772532268936374 L 56.95727624625204 -41.16335092981372 L 56.85355584642553 -40.5465037667536 L 56.72964720379953 -39.92225753943434 L 56.58531135215705 -39.29088080910635 L 56.42030855828036 -38.652643994131125 L 56.234398264212004 -38.007819426506856 L 56.027339028437865 -37.35668140942742 L 55.798888465945446 -36.69950627592582 L 55.54880318710315 -36.03657244865004 L 55.27683873531231 -35.36816050082672 L 54.982749523376185 -34.694553218463064 L 54.66628876853016 -34.016035663844434 L 54.32720842607968 -33.33289524038347 L 53.965259121582626 -32.64542175887991 L 53.58019008151949 -31.953907505250655 L 53.17174906238732 -31.258647309794597 L 52.739682278152706 -30.559938618054304 L 52.28373432599812 -29.85808156334302 L 51.80364811029157 -29.153379041004918 L 51.29916476471031 -28.446136784480807 L 50.77002357244207 -27.73666344325165 L 50.215961884390964 -27.02527066273811 L 49.636715035304945 -26.312273166232842 L 49.032016257748325 -25.597988838950492 L 48.401596593828316 -24.882738814276316 L 47.74518480459359 -24.166847562305925 L 47.06250727700886 -23.45064298076303 L 46.35328792841514 -22.734456488394173 L 45.617248108372735 -22.018623120934244 L 44.8541064977899 -21.30348162974949 L 44.06357900522721 -20.589374583259993 L 43.24537866026985 -19.8766484712546 L 42.3992155038528 -19.165653812211414 L 41.52479647541959 -18.456745263743287 L 40.62182529679127 -17.750281736292255 L 39.69000235261679 -17.046626510201687 L 38.729024567270685 -16.346147356300047 L 37.738585278058636 -15.649216660136581 L 36.71837410458497 -14.956211550012991 L 35.668076814132405 -14.267514028964644 L 34.58737518289381 -13.5835111108467 L 33.47594685289441 -12.904594960692254 L 32.3334651844294 -12.231163039511426 L 31.159599103842467 -11.563618253713155 L 29.954012946454625 -10.90236910933395 L 28.716366294450637 -10.247829871269897 L 27.44631380951992 -9.60042072771505 L 26.143505060038336 -8.960567960018412 L 24.80758434257025 -8.328704118181676 L 23.438190497458834 -7.7052682022295365 L 22.034956718260645 -7.090705849694281 L 20.59751035477575 -6.485469529469867 L 19.125472709401862 -5.89001874229751 L 17.61845882654312 -5.304820228163468 L 16.07607727477543 -4.730348180895515 L 14.497929921473414 -4.167084470265198 L 12.883611699572725 -3.615518871910549 L 11.232710366141887 -3.076149305414763 L 9.544806252410865 -2.5494820808882075 L 7.819472004892347 -2.0360321544198 L 6.05627231721212 -1.5363233927809539 L 4.254763652247945 -1.0508888477840834 L 2.414493954153855 -0.5802710407168767 L 0.5350023498295684 -0.12502225729515715 L -1.3841811606320675 0.3142951464022339 L -3.3435360250022086 0.7371084265278824 L -5.343551471994914 1.1428341220789449 L -7.384726856900173 1.5308777129899127 L -9.467572020342871 1.9006332651411117 L -11.59260766075171 2.251483061686752 L -13.760365721176257 2.5827972200801135 L -15.971389791095362 2.893933294135808 L -18.226235523920195 3.184235860439431 L -20.525471070912516 3.4530360883749367 L -22.86967753228879 3.6996512930034715 L -25.259449426316344 3.9233844699855 L -27.695395177253786 4.1235238116949855 L -30.17813762303043 4.299342203627827 L -32.70831454361727 4.450096700158758 L -35.28657921107769 4.575027978647371 L -37.913600962363354 4.673359770840468 L -40.590065795955496 4.7442982704576835 L -43.31667699353775 4.7870315157861025 L -46.09415576793041 4.800728746042347 L -48.9232419386084 4.784539730190603 L -51.80469463618042 4.737594066829203 L -54.73929303730301 4.659000453679056 L -57.72783713157803 4.547845925121045 L -60.77114852207926 4.403195056139225 L -63.870071261245116 4.224089130929099 L -67.0254727239877 4.009545274326897 L -70.23824451996256 3.758555544105629 L -73.50930344708372 3.4700859820645356 L -76.83959248847084 3.14307562171427 L -80.2300818551728 2.776435450222821 L -83.68177007713403 2.369047322145865 L -87.19568514504816 1.9197628223077572 L -90.77288570588274 1.4274020750374325 L -94.41446231506274 0.8907524967831697 L -98.1215387484655 0.30856748894326214 L -98.12153874846601 -0.30856748894319613 L -94.41446231506316 -0.8907524967831085 L -90.77288570588291 -1.4274020750374132 L -87.1956851450485 -1.9197628223077046 L -83.6817700771343 -2.3690473221458155 L -80.23008185517321 -2.77643545022278 L -76.83959248847118 -3.1430756217142313 L -73.50930344708406 -3.470085982064501 L -70.23824451996283 -3.758555544105594 L -67.02547272398786 -4.009545274326891 L -63.870071261245386 -4.224089130929073 L -60.77114852207934 -4.403195056139216 L -57.727837131578376 -4.547845925121033 L -54.7392930373031 -4.65900045367905 L -51.804694636180685 -4.737594066829193 L -48.92324193860857 -4.784539730190607 L -46.094155767930495 -4.800728746042346 L -43.31667699353785 -4.787031515786102 L -40.590065795955766 -4.744298270457686 L -37.91360096236343 -4.6733597708404675 L -35.286579211077935 -4.5750279786473795 L -32.708314543617185 -4.450096700158751 L -30.17813762303078 -4.299342203627852 L -27.69539517725378 -4.123523811694991 L -25.259449426316692 -3.923384469985537 L -22.86967753228889 -3.699651293003482 L -20.525471070912786 -3.4530360883749687 L -18.226235523920295 -3.184235860439445 L -15.971389791095618 -2.8939332941358415 L -13.760365721176356 -2.5827972200801295 L -11.592607660751966 -2.2514830616867982 L -9.467572020342956 -1.900633265141126 L -7.384726856900443 -1.5308777129899624 L -5.343551471994928 -1.1428341220789449 L -3.3435360250023223 -0.7371084265279073 L -1.3841811606320533 -0.31429514640223033 L 0.5350023498293837 0.12502225729511451 L 2.41449395415394 0.5802710407169016 L 4.254763652247689 1.050888847784016 L 6.05627231721202 1.536323392780929 L 7.819472004892077 2.036032154419722 L 9.544806252410865 2.5494820808882004 L 11.232710366141859 3.076149305414752 L 12.883611699572626 3.615518871910517 L 14.497929921473343 4.1670844702651735 L 16.076077274775415 4.730348180895511 L 17.61845882654285 5.304820228163376 L 19.12547270940179 5.890018742297485 L 20.59751035477555 6.4854695294697855 L 22.03495671826073 7.09070584969432 L 23.438190497458734 7.705268202229476 L 24.80758434257028 8.328704118181687 L 26.143505060038137 8.96056796001833 L 27.446313809519808 9.600420727715 L 28.716366294450467 10.247829871269811 L 29.954012946454597 10.902369109333936 L 31.159599103842453 11.563618253713145 L 32.333465184429315 12.231163039511383 L 33.47594685289428 12.904594960692176 L 34.58737518289374 13.583511110846658 L 35.66807681413222 14.267514028964541 L 36.718374104584896 14.956211550012966 L 37.73858527805842 15.649216660136453 L 38.7290245672707 16.346147356300065 L 39.69000235261669 17.046626510201612 L 40.62182529679127 17.750281736292266 L 41.52479647541948 18.456745263743205 L 42.399215503852886 19.16565381221144 L 43.245378660269836 19.876648471254562 L 44.06357900522718 20.589374583259968 L 44.854106497789815 21.303481629749434 L 45.617248108372735 22.018623120934222 L 46.353287928415114 22.734456488394116 L 47.06250727700892 23.45064298076305 L 47.74518480459356 24.16684756230587 L 48.40159659382843 24.882738814276387 L 49.03201625774831 25.597988838950435 L 49.636715035305016 26.3122731662329 L 50.215961884390836 27.025270662737995 L 50.77002357244207 27.736663443251622 L 51.299164764710184 28.4461367844807 L 51.80364811029155 29.153379041004882 L 52.28373432599807 29.85808156334297 L 52.73968227815274 30.55993861805429 L 53.17174906238738 31.25864730979461 L 53.58019008151946 31.953907505250605 L 53.965259121582626 32.64542175887987 L 54.32720842607969 33.332895240383465 L 54.66628876853015 34.01603566384436 L 54.98274952337612 34.69455321846304 L 55.27683873531234 35.368160500826654 L 55.54880318710313 36.03657244865003 L 55.798888465945424 36.69950627592573 L 56.027339028437936 37.356681409427466 L 56.23439826421191 38.00781942650675 L 56.42030855828034 38.65264399413109 L 56.58531135215705 39.290880809106326 L 56.72964720379953 39.92225753943431 L 56.853555846425586 40.546503766753574 L 56.957276246252 41.16335092981365 L 57.04104665920476 41.772532268936295 L 57.105104686646 42.373782771415556 L 57.14968733016406 42.96683911781246 L 57.17503104547032 43.55143962909857 L 57.18137179544734 44.127324214606794 L 57.16894510238787 44.694234320745295 L 57.13798609946992 45.25191288043468 L 57.08872958150476 45.800104263227404 L 57.021410054999194 46.338554226068865 L 56.93626178757113 46.867009864664 L 56.833518856755205 47.385219565407496 L 56.713415198237165 47.89293295784425 L 56.57618465355219 48.389900867619765 L 56.42206101728582 48.87587526988763 L 56.251278083809254 49.350609243135345 L 56.06406969358761 49.81385692339609 L 55.86066977909417 50.265373458810615 L 55.641312410363646 50.70491496450489 L 55.40623184022075 51.1322384777504 L 55.15566254921494 51.54710191337395 L 54.88983929029614 51.94926401938241 L 54.608997133263266 52.33848433277212 L 54.313371509017934 52.714523135486786 L 54.003198253657324 53.07714141049636 L 53.678713652436194 53.426100797959535 L 53.34015448363113 53.761163551441406 L 52.98775806233985 54.082092494153294 L 52.6217622842459 54.388650975182124 L 52.242405669381746 54.680602825678335 L 51.849927405921555 54.95771231496955 L 51.44456739403646 55.21974410656906 L 51.02656628984349 55.466463214046335 L 50.59616554948125 55.697634956726816 L 50.153607473343655 55.913024915190114 L 49.699135250506124 56.1123988865325 L 49.2329930033748 56.29552283936203 L 48.75542583259393 56.46216286849159 L 48.26667986224372 56.61208514929873 L 47.76700228536302 56.745055891716035 L 47.256641409830785 56.860841293819895 L 46.73584670464141 56.959207494981214 L 46.20486884660806 57.03992052854412 L 45.66395976753148 57.102746273996765 L 45.11337270186892 57.14745040859768 L 44.5533622349406 57.173798358421365 L 43.984184351711676 57.181555248784186 L 43.40609648618727 57.17048585401499 L 42.81935757146029 57.140354546528236 L 42.22422809045086 57.09092524516267 L 41.620970127379834 57.02196136274338 L 41.00984742001499 56.93322575282529 L 40.3911254127366 56.824480655578036 L 39.76507131046103 56.69548764276473 L 39.13195413347222 56.54600756177437 L 38.492044773201876 56.37580047865856 L 37.84561604900955 56.184625620127775 L 37.192942766007704 55.972241314458266 L 36.53430177398355 55.73840493125956 L 35.869972027466915 55.48287282005268 L 35.200234646998624 55.20540024760632 L 34.5253729816505 54.90574133397582 L 33.84567267285636 54.58364898719179 L 33.16142171960705 54.23887483653829 L 32.47291054507312 53.87116916436419 L 31.78043206471235 53.48028083636468 L 31.084281755927073 53.0659572302707 L 30.38475772933684 52.627944162882514 L 29.68216080173128 52.1659858153776 L 28.976794570775525 51.67982465682596 L 28.268965491538303 51.169201365840465 L 27.5589829549166 50.63385475028561 L 26.847159368036927 50.073521664972546 L 26.133810236708207 49.48793692725472 L 25.41925425001387 48.87683323044685 L 24.7038133671249 48.23994105497866 L 23.98781290642536 47.576988577195635 L 23.27158163704013 46.88770157571386 L 22.5554518728633 46.17180333523571 L 21.83975956918308 45.429014547723625 L 21.124844422009737 44.659053210832965 L 20.4110499702105 43.86163452349376 L 19.698723700565534 43.03647077853273 L 18.988217155857253 42.18327125221667 L 18.279886046117475 41.30174209060229 L 17.574090363153104 40.39158619256182 L 16.871194498483966 39.4525030893584 L 16.17156736482571 38.48418882063346 L 15.475582521261181 37.48633580666744 L 14.783618302244594 36.45863271676407 L 14.096057950594236 35.40076433360876 L 13.413289754630767 34.31241141343824 L 12.735707189628975 33.19325054185785 L 12.063709063756107 32.04295398513223 L 11.397699668676758 30.861189536767967 L 10.738088935014638 29.64762035920171 L 10.085292592866214 28.40190482039391 L 9.439732337573709 27.123696325125096 L 8.801836000971175 25.81264314077977 L 8.172037728327734 24.468388217391094 L 7.550778161224159 23.09056900171744 L 6.938504626604658 21.678817245097648 L 6.335671332264468 20.232758804839946 L 5.742739569036317 18.75201343886428 L 5.160177919960589 17.236194593329074 L 4.588462476728932 15.684909182940189 L 4.02807706371151 14.097757363642785 L 3.4795134698865837 12.474332297366928 L 2.943271689012178 10.81421990849843 L 2.419860168389807 9.116998631713457 L 1.9097960665930422 7.382239150815906 L 1.4136055205460814 5.6095041281813 L 0.9318239223614562 3.7983479244094696 L 0.4649962063610431 1.94831630774992 L 0.01367714673045839 0.05894615286214844 L -0.4215683337250198 -1.8702348715667085 L -0.8401648432289157 -3.8397086268367104 L -1.241526188567768 -5.849966840400128 L -1.62505502996704 -7.901511454722112 L -1.9901425227361003 -9.994854989408935 L -2.3361679450810513 -12.13052091720752 L -2.66249831145128 -14.309044054503076 L -2.968487970755614 -16.53097096698913 L -3.253478188745545 -18.79686039120135 L -3.516796713829235 -21.10728367266033 L -3.757757325538499 -23.462825221396294 L -3.975659364830575 -25.864082985675097 L -4.169787245361693 -28.311668944785886 L -4.339409944823538 -30.806209621804257 L -4.48378047538302 -33.348346617286865 L -4.602135332213501 -35.938737164908844 L -4.693693919049369 -38.57805471010989 L -4.757657949636901 -41.26698951288706 L -4.793210823889578 -44.006249275909404 L -4.799516977490075 -46.79655979922545 L -4.775721203608408 -49.63866566288328 L -4.720947945329936 -52.53333093888429 L -4.634300557304876 -55.481339933939864 L -4.514860535044967 -58.483497964620355 L -4.361686710200109 -61.5406321665525 L -4.17381441004883 -64.65359233944505 L -3.9502545793320456 -67.82325182979574 L -3.689992862446574 -71.05050845327463 L -3.3919886438948597 -74.33628545888556 L -3.055174044759239 -77.68153253713531 L -2.67845287283264 -81.08722687457562 L -2.260699523889041 -84.55437425724358 L -1.8007578314227808 -88.0840102256581 L -1.2974398620145273 -91.67720128422987 L -0.7495246533050666 -95.33504616808708 L -0.15575689136120976 -99.05867717054757 L 0.45845217792968984 -97.1885662876972 L 1.0291345486495407 -93.49797203217148 L 1.5545964021724128 -89.8725934683891 L 2.0360757073963516 -86.311315251981 L 2.4747767507469796 -82.81305492524456 L 2.87187142809345 -79.3767616204069 L 3.22850047768938 -76.0014148218962 L 3.5457746572540616 -72.68602318450519 L 3.8247758681229955 -69.42962340451929 L 4.066558229223868 -66.23127914104515 L 4.2721491034687045 -63.0900799849619 L 4.44255007900463 -60.00514047304298 L 4.578737907621347 -56.97559914495809 L 4.681665402482617 -54.00061764097626 L 4.75226229722319 -51.07937983834448 L 4.791436068338059 -48.21109102440411 L 4.800072722681535 -45.394977104630776 L 4.779037551791659 -42.630283843882424 L 4.729175854660098 -39.916276139236565 L 4.65131363047834 -37.252237322887225 L 4.546258242806695 -34.63746849364733 L 4.414799056533832 -32.07128787570049 L 4.257708048920836 -29.553030203301823 L 4.07574039595376 -27.082046130203878 L 3.869635035163345 -24.657701662649067 L 3.6401152060095967 -22.27937761483438 L 3.3878889688708718 -19.94646908580809 L 3.1136497036219044 -17.65838495680903 L 2.818076588735387 -15.414547408119674 L 2.501835061792738 -13.214391454547538 L 2.165577262243854 -11.057364498689907 L 1.809942457214019 -8.942925901191416 L 1.4355574511140627 -6.870546567229837 L 1.0430369797740262 -4.839708548520008 L 0.6329840897818713 -2.8499046601437783 L 0.20599050367802008 -0.9006381115660957 L -0.23736302837870937 1.0085778487875814 L -0.6965063898861779 2.87822027597538 L -1.1708797716564696 4.708756858561713 L -1.659933357324995 6.5006462367511375 L -2.1631270202060158 8.254338309141374 L -2.6799300310121623 9.970274528572588 L -3.209820775979747 11.648888187533942 L -3.7522864849619744 13.290604693561065 L -4.306822969076194 14.895841835049524 L -4.8729343675042 16.46501003786875 L -5.4501329030702514 17.9985126131659 L -6.037938646232625 19.496745996711866 L -6.635879287147642 20.960099980145188 L -7.24348991547258 22.38895793442964 L -7.860312807596472 23.78369702584959 L -8.485897220997707 25.144688424839643 L -9.119799195441459 26.472297507935295 L -9.761581360742522 27.766884053117565 L -10.410812750832289 29.028802428815567 L -11.067068623879067 30.258401776816356 L -11.729930288222164 31.456026189322287 L -12.398984933889395 32.62201488038275 L -13.073825469480532 33.756702351923835 L -13.75405036420409 34.86041855458076 L -14.439263494868673 35.93348904354016 L -15.129073997634325 36.97623512957945 L -15.823096124339642 37.988974025490876 L -16.520949103227654 38.97201898806665 L -17.222257003900815 39.925679455814446 L -17.926648606342514 40.85026118256749 L -18.633757273847596 41.74606636714233 L -19.343220829712923 42.61339377919684 L -20.054681437545277 43.45253888143266 L -20.76778548504523 44.26379394827673 L -21.48218347113736 45.047448181178666 L -22.19752989631651 45.80378782064811 L -22.9134831560908 46.53309625515769 L -23.629705437399856 47.23565412702699 L -24.345862617897303 47.911739435401614 L -25.061624167986878 48.56162763643651 L -25.776663055509076 49.18559174078857 L -26.49065565297522 49.78390240851998 L -27.20328164725204 50.35682804150764 L -27.914223951603915 50.90463487345504 L -28.62316862000187 51.42758705759576 L -29.329804763610312 51.925946752174156 L -30.03382446937139 52.3999742037914 L -30.734922720600757 52.84992782869249 L -31.43279731952159 53.276064292078445 L -32.127148811656106 53.678638585513376 L -32.8176804120061 54.05790410250482 L -33.50409793294781 54.414112712323686 L -34.18610971377602 54.7475148321353 L -34.86342655182917 55.05835949750534 L -35.535761635132275 55.34689443134613 L -36.202830476495194 55.61336611136394 L -36.864350849007074 55.858019836068415 L -37.52004272286828 56.08109978940217 L -38.169628203502576 56.28284910404561 L -38.812831470895475 56.46350992345365 L -39.44937872010671 56.6233234626764 L -40.07899810290223 56.76253006801526 L -40.701419670458314 56.881369275565724 L -41.316375317086724 56.98007986869466 L -41.92359872493522 57.05889993449974 L -42.5228253096159 57.11806691929903 L -43.11379216671518 57.15781768319257 L -43.69623801914412 57.17838855374369 L -44.26990316528333 57.18001537882014 L -44.83452942788249 57.162933578639965 L -45.3898601036705 57.12737819705901 L -45.9356399136397 57.07358395214495 L -46.4716149539626 57.00178528607445 L -46.99753264750106 56.912216414391516 L -47.51314169587495 56.80511137466843 L -48.01819203204656 56.68070407460172 L -48.51243477338958 56.53922833958273 L -48.99562217520397 56.38091795977908 L -49.4675075846425 56.20600673676042 L -49.927845395011815 56.01472852970381 L -50.37639100041763 55.8073173012157 L -50.81290075071572 55.58400716280015 L -51.23713190673789 55.34503242001094 L -51.64884259575808 55.09062761731892 L -52.04779176716737 54.82102758272739 L -52.433739148322275 54.53646747216877 L -52.806445200537304 54.2371828137157 L -53.165671075186275 53.92340955163776 L -53.51117856988272 53.595384090335806 L -53.84273008470568 53.253343338187385 L -54.160088578440224 52.897524751334494 L -54.463017524798516 52.528166377444464 L -54.75128086859333 52.1455068994777 L -55.0246429818279 51.74978567949308 L -55.28286861967264 51.34124280252352 L -55.52572287629639 50.92011912055383 L -55.75297114051901 50.4866562966325 L -55.96437905125328 50.04109684915076 L -56.15971245270388 49.583684196321315 L -56.338737349289914 49.11466270088909 L -56.50121986025815 48.63427771510777 L -56.64692617395339 48.142775626016174 L -56.77562250171181 47.64040390104689 L -56.88707503134326 47.12741113400337 L -56.98104988016739 46.60404709143855 L -57.057313047569224 46.07056275947176 L -57.11563036703654 45.52721039107831 L -57.15576745764492 44.97424355389012 L -57.177489674951794 44.41191717854214 L -57.18056206126227 43.8404876076038 L -57.16474929522894 43.26021264513369 L -57.129815640745186 42.67135160689699 L -57.075524895093764 42.07416537128391 L -57.00164033630765 41.468916430972364 L -56.90792466970366 40.85586894537595 L -56.794139973543956 40.23528879391875 L -56.66004764378342 39.607443630182445 L -56.50540833785653 38.97260293696987 L -56.32998191745962 38.331038082332235 L -56.13352739027777 37.683022376603674 L -55.91580285061322 37.02883113049785 L -55.676565418859056 36.368741714309884 L -55.41557117977304 35.70303361828109 L -55.13257511949341 35.03198851417315 L -54.82733106124637 34.35589031811198 L -54.499591599687314 33.67502525475381 L -54.14910803381811 32.98968192283193 L -53.77563029842117 32.30015136214383 L -53.37890689394947 31.606727122041022 L -52.95868481480837 30.909705331484098 L -52.51470947596371 30.209384770728576 L -52.046724637807806 29.50606694470917 L -51.55447232921665 28.800056158194877 L -51.03769276872006 28.091659592782882 L -50.496124283716554 27.381187385811685 L -49.92950322764891 26.668952711265888 L -49.33756389506489 25.955271862757492 L -48.72003843447784 25.240464338664175 L -48.076656758940345 24.52485292951259 L -47.40714645424207 23.80876380769513 L -46.71123268463977 23.09252661961431 L -45.98863809602065 22.376474580350042 L -45.23908271640195 21.660944570951436 L -44.46228385366082 20.946277238455792 L -43.65795599038647 20.232817098743144 L -42.8258106757428 19.52091264233905 L -41.96555641422742 18.810916443283638 L -41.07689855119942 18.1031852711844 L -40.159539155056336 17.39808020658369 L -39.213176895924875 16.695966759769387 L -38.237506920731306 15.997214993167464 L -37.232220724505055 15.302199647456018 L -36.19700601777251 14.61130027155308 L -35.131546589883214 13.924901356630233 L -34.03552216810715 13.243392474313428 L -32.908608272336366 12.567168419239565 L -31.75047606521693 11.89662935614459 L -30.560792197525373 11.232180971664526 L -29.339218648601943 10.574234631041232 L -28.0854125616396 9.923207539931333 L -26.799026073622983 9.279522911527074 L -25.479706139698564 8.643610139205094 L -24.127094351749903 8.015904974930894 L -22.740826750941878 7.396849713655378 L -21.32053363398512 6.786893383951895 L -19.86583935286123 6.186491945151754 L -18.3763621077413 5.596108491251208 L -16.85171373280842 5.016213461870841 L -15.29149947469358 4.447284860566413 L -13.6953177632098 3.889808480800358 L -12.062759974064193 3.344278139900698 L -10.393410183200174 2.8111959213458064 L -8.686844912420042 2.291072425734704 L -6.942632865909985 1.784427030815717 L -5.16033465727746 1.2917881609666075 L -3.3395025266839866 0.8136935665362195 L -1.4796800476503904 0.35069061348195874 L 0.4195981769260726 -0.09666341624602381 L 2.358806830012469 -0.5278010130966138 L 4.338430207445057 -0.9421441165877233 L 6.358962557215904 -1.339103779727946 L 8.420908431593858 -1.7180798206391508 L 10.524783052665555 -2.078460460801555 L 12.671112691896937 -2.4196219493101694 L 14.860435064362079 -2.7409281725028283 L 17.093299738309653 -3.041730248284809 L 19.37026856078019 -3.321366104440745 L 21.69191610002045 -3.5791600401862844 L 24.058830105477305 -3.814422270171903 L 26.47161198620958 -4.02644845011061 L 28.930877308580854 -4.214519183154216 L 31.43725631416323 -4.377899506097513 L 33.99139445882206 -4.515838354438104 L 36.59395297400194 -4.627568005265639 L 39.24560945130262 -4.712303496898744 L 41.94705845148586 -4.769242024126125 L 44.69901213911935 -4.7975623078442435 L 47.50220094413572 -4.796423937816079 L 50.35737425164794 -4.764966687201555 L 53.26530112146386 -4.702309797433778 L 56.22677103878827 -4.607551231931478 L 59.242594697725394 -4.479766897050649 L 62.313604819261926 -4.318009828584305 L 65.44065700553469 -4.121309342018301 L 68.62463063226605 -3.8886701446456415 L 71.86642978139075 -3.6190714075258894 L 75.16698421600091 -3.3114657951558626 L 78.52725039988565 -2.9647784505852104 L 81.94821256405476 -2.57790593357393 L 85.43088382280796 -2.1497151092371953 L 88.97630734206543 -1.6790419844642037 L 92.58555756284008 -1.1646904892265748 L 96.25974148291466 -0.6054311997095336 L 100.0 0.0" fill="none" stroke="black" /></svg>