<?xml version="1.0" encoding="utf-8" ?>
<svg baseProfile="full" height="1000" version="1.1" viewBox="-500 -500 1000 1000" width="1000" xmlns="http://www.w3.org/2000/svg" xmlns:ev="http://www.w3.org/2001/xml-events" xmlns:xlink="http://www.w3.org/1999/xlink"><defs /><path d="M 100.0 0.0 L 99.99802213186832 0.6289433316067751 L 99.99208860571255 1.257861783874106 L 99.98219965624732 1.8867304784467096 L 99.96835567465338 2.5155245389375844 L 99.95055720856215 3.14421909191206 L 99.92880496203401 3.7727892678717185 L 99.90309979553044 4.4012102022381665 L 99.87344272588005 5.029457036336618 L 99.83983492623831 5.657504918379234 L 99.80227772604111 6.285329004448193 L 99.76077261095226 6.912904459478454 L 99.71532122280463 7.540206458240158 L 99.6659253595353 8.167210186320665 L 99.61258697511428 8.793890841106126 L 99.55530817946746 9.420223632762625 L 99.49409123839288 10.046183785216794 L 99.42893857347129 10.671746537135888 L 99.3598527619703 11.296887142907284 L 99.28683653674238 11.921580873617334 L 99.20989278611684 12.545803018029602 L 99.12902455378554 13.169528883562363 L 99.04423503868244 13.792733797265356 L 98.95552759485719 14.415393106795824 L 98.86290573134227 15.03748218139367 L 98.76637311201434 15.658976412855772 L 98.6659335554492 16.27985121650943 L 98.56159103477084 16.900082032184905 L 98.4533496774942 17.5196443251869 L 98.34121376536187 18.13851358726511 L 98.22518773417481 18.756665337583712 L 98.1052761736168 19.37407512368976 L 97.98148382707295 19.990718522480456 L 97.85381559144196 20.606571141169255 L 97.72227651694257 21.22160861825079 L 97.5868718069136 21.835806624464542 L 97.44760681760832 22.449140863757254 L 97.30448705798239 23.061587074244013 L 97.15751818947602 23.67312102916797 L 97.00670602579007 24.28371853785871 L 96.852056532656 24.893355446689164 L 96.69357582759983 25.502007640031042 L 96.53127017970033 26.109651041208824 L 96.36514600934086 26.71626161345213 L 96.19520988795547 27.321815360846585 L 96.02146853776894 27.926288329283004 L 95.84392883153086 28.529656607404966 L 95.66259779224377 29.131896327554713 L 95.47748259288535 29.73298366671723 L 95.28859055612467 30.33289484746267 L 95.09592915403255 30.931606138886895 L 94.89950600778587 31.529093857550247 L 94.69932888736632 32.125334368414364 L 94.49540571125283 32.720304085777165 L 94.28774454610841 33.31397947420575 L 94.0763536064611 33.906337049467524 L 93.86124125437894 34.49735337945906 L 93.64241599913923 35.08700508513305 L 93.41988649689198 35.675268841423176 L 93.19366155031739 36.26212137816668 L 92.96375010827772 36.847539481024995 L 92.73016126546322 37.43149999240189 L 92.49290426203251 38.013979812359665 L 92.25198848324686 38.59495589953287 L 92.00742345909914 39.174405272039735 L 91.75921886393667 39.752305008391296 L 91.5073845160786 40.328632248398115 L 91.25193037742763 40.90336419407459 L 90.99286655307567 41.4764781105407 L 90.73020329090443 42.04795132692142 L 90.4639509811798 42.61776123724353 L 90.19412015614097 43.18588530132973 L 89.92072148958367 43.75230104569042 L 89.64376579643817 44.31698606441261 L 89.36326403234123 44.87991802004622 L 89.07922729320283 45.441074644487735 L 88.7916668147673 46.000433739861094 L 88.50059397216874 46.55797317939572 L 88.20602027948114 47.113670908301785 L 87.90795738926289 47.66750494464274 L 87.60641709209582 48.21945338020477 L 87.30141131611882 48.76949438136346 L 86.99295212655596 49.31760618994743 L 86.68105172523929 49.86376712409915 L 86.36572245012606 50.40795557913247 L 86.04697677481077 50.95015002838732 L 85.72482730803168 51.49032902408126 L 85.39928679317207 52.028471198157895 L 85.07036810775615 52.56455526313207 L 84.73808426293962 53.098560012932026 L 84.40244840299505 53.630464323738245 L 84.06347380479181 54.16024715481899 L 83.72117387727108 54.68788754936273 L 83.37556216091517 55.213364635307016 L 83.02665232721208 55.7366576261642 L 82.67445817811465 56.2577458218437 L 82.31899364549452 56.776608609470784 L 81.96027279059115 57.29322546420199 L 81.59830980345546 57.80757595003708 L 81.23311900238859 58.319639720627336 L 80.8647148333755 58.829396520080515 L 80.49311186951348 59.33682618376204 L 80.11832481043575 59.84190863909269 L 79.7403684817299 60.344623906342626 L 79.35925783435148 60.844952099421704 L 78.9750079440326 61.34287342666617 L 78.58763401068548 61.83836819162154 L 78.1971513578013 62.33141679382167 L 77.80357543184395 62.821999729564226 L 77.40692180163906 63.31009759268213 L 77.00720615775812 63.79569107531118 L 76.60444431189781 64.27876096865393 L 76.1986521962545 64.7592881637394 L 75.7898458628941 65.2372536521791 L 75.37804148311693 65.71263852691885 L 74.96325534681824 66.18542398298679 L 74.54550386184361 66.6555913182372 L 74.12480355334003 67.12312193409028 L 73.70117106310214 67.5879973362679 L 73.27462314891399 68.05019913552525 L 72.8451766838861 68.50970904837808 L 72.41284865578803 68.96650889782619 L 71.97765616637635 69.42058061407226 L 71.5396164307182 69.87190623523674 L 71.09874677651024 70.32046790806838 L 70.65506464339325 70.76624788865044 L 70.20858758226225 71.20922854310254 L 69.7593332545723 71.64939234827833 L 69.30731943163971 72.0867218924585 L 68.85256399393921 72.52119987603973 L 68.39508493039656 72.95280911221884 L 67.93490033767698 73.38153252767276 L 67.47202841946927 73.8073531632339 L 67.00648748576573 74.23025417456093 L 66.53829595213793 74.6502188328052 L 66.06747233900815 75.06723052527244 L 65.59403527091676 75.48127275607989 L 65.11800347578557 75.89232914680889 L 64.63939578417693 76.30038343715272 L 64.15823112854882 76.70541948555987 L 63.67452854250607 77.10742126987248 L 63.18830716004723 77.50637288796017 L 62.69958621480785 77.9022585583491 L 62.208385039299614 78.29506262084631 L 61.71472306414553 78.68476953715899 L 61.21861981731137 79.07136389150936 L 60.72009492333318 79.45483039124437 L 60.21916810254096 79.8351538674406 L 59.715859170278634 80.21231927550437 L 59.210188036120115 80.58631169576691 L 58.70217470308187 80.9571163340744 L 58.19183926683152 81.32471852237329 L 57.679201914892985 81.68910371929053 L 57.16428292584787 82.05025751070875 L 56.6471026685334 82.40816561033643 L 56.12768160123653 82.76281386027311 L 55.60604027088476 83.11418823156936 L 55.082199312233406 83.46227482478173 L 54.5561794470492 83.80705987052264 L 54.028001483290694 84.14852973000501 L 53.49768631428518 84.48667089558178 L 52.965254917902044 84.82146999128024 L 52.43072835572316 85.15291377333112 L 51.89412777220958 85.48098913069259 L 51.35547439386517 85.80568308556876 L 50.81478952839693 86.12698279392308 L 50.27209456387218 86.44487554598649 L 49.7274109678724 86.75934876676014 L 49.18076028664417 87.07039001651276 L 48.63216414424667 87.37798699127285 L 48.08164424169648 87.68212752331536 L 47.529222356109 87.98279958164294 L 46.97492033983709 88.27999127246196 L 46.41876011960662 88.57369083965293 L 45.86076369564908 88.86388666523558 L 45.300953140831396 89.15056726982839 L 44.73935059978269 89.43372131310272 L 44.175978288018314 89.7133375942314 L 43.61085849106111 89.98940505233182 L 43.04401356355982 90.26191276690341 L 42.47546592840479 90.53084995825965 L 41.905238075841005 90.79620598795461 L 41.33335256257842 91.05797035920355 L 40.75983201089964 91.31613271729832 L 40.18469910776514 91.57068285001691 L 39.607976603915695 91.8216106880274 L 39.02968731297256 92.0689063052863 L 38.449854110534915 92.31255991943122 L 37.868499933275025 92.55256189216779 L 37.28564777803088 92.78890272965091 L 36.70132070089656 93.02157308286041 L 36.11554181631012 93.25056374797074 L 35.528334296139356 93.47586566671511 L 34.939721368765085 93.6974699267438 L 34.34972631816232 93.91536776197677 L 33.758372482979226 94.12955055295033 L 33.165683255613914 94.34000982715813 L 32.57168208128904 94.54673725938635 L 31.97639245712451 94.74972467204297 L 31.37983793120786 94.94896403548134 L 30.782042101662775 95.14444746831767 L 30.183028615715678 95.33616723774294 L 29.582821168760248 95.52411575982867 L 28.98144350342012 95.70828559982708 L 28.378919408609676 95.88866947246498 L 27.775272718593047 96.0652602422321 L 27.170527312041255 96.23805092366335 L 26.564707111087635 96.40703468161507 L 25.95783608038156 96.57220483153547 L 25.34993822614048 96.73355483972902 L 24.74103759520025 96.89107832361496 L 24.131158274063917 97.0447690519797 L 23.52032438794899 97.19462094522336 L 22.908560099832997 97.34062807560028 L 22.295889609497717 97.48278466745342 L 21.682337152571925 97.62108509744296 L 21.06792699957264 97.75552389476861 L 20.45268345494508 97.88609574138616 L 19.836630856101284 98.01279547221766 L 19.219793572457284 98.13561807535595 L 18.602196004469203 98.25455869226278 L 17.983862582667985 98.36961261796101 L 17.364817766693044 98.4807753012208 L 16.745086044324637 98.58804234473958 L 16.12469193051522 98.691409505316 L 15.50365996641978 98.7908726940178 L 14.882014718424902 98.88642797634357 L 14.25978077717709 98.97807157237835 L 13.63698275661 99.06579985694317 L 13.01364529297078 99.14960935973848 L 12.389793043845522 99.22949676548137 L 11.765450687183854 99.30545891403678 L 11.140642920322827 99.37749280054243 L 10.51539445900983 99.44559557552775 L 9.889730036424984 99.5097645450266 L 9.263674402202742 99.56999717068376 L 8.637252321452852 99.62629106985544 L 8.010488573780725 99.67864401570343 L 7.383407952307192 99.72705393728327 L 6.756035262687841 99.77151891962615 L 6.128395322131638 99.81203720381463 L 5.500512958419315 99.84860718705224 L 4.872413008921228 99.88122742272691 L 4.244120319614846 99.90989662046815 L 3.6156597441018987 99.93461364619809 L 2.987056142625317 99.95537752217639 L 2.3583343810856943 99.97218742703888 L 1.729519330057748 99.98504269583005 L 1.1006358638064813 99.99394282002936 L 0.47170885930322237 99.9988874475714 L -0.15723680475844137 99.99987638285974 L -0.786176248946822 99.99690958677468 L -1.4150845940762073 99.98998717667489 L -2.0439369621911476 99.97910942639261 L -2.672708477550474 99.96427676622298 L -3.301374267611341 99.94548978290693 L -3.9299094640131154 99.92274921960795 L -4.558289203561103 99.89605597588273 L -5.1864886292101025 99.86541110764566 L -5.814482891047577 99.83081582712683 L -6.442247147276805 99.79227150282432 L -7.069756565199453 99.74977965944997 L -7.6969863221979224 99.70334197786902 L -8.323911606717257 99.65296029503367 L -8.950507619246638 99.59863660391044 L -9.576749573300393 99.54037305340127 L -10.202612696398402 99.47817194825852 L -10.828072231046173 99.41203574899393 L -11.453103435714077 99.34196707178107 L -12.077681585816096 99.26796868835203 L -12.701781974687853 99.19004352588769 L -13.325379914563968 99.10819466690197 L -13.948450737554552 99.02242534911986 L -14.570969796621133 98.93273896534936 L -15.19291246655155 98.83913906334729 L -15.814254144934068 98.7416293456789 L -16.43497025313059 98.64021366957145 L -17.055036237248945 98.53489604676166 L -17.67442756911416 98.42568064333688 L -18.293119747238656 98.31257177957042 L -18.911088297791615 98.19557392975067 L -19.528308775566984 98.07469172200396 L -20.144756764950504 97.94992993811165 L -20.7604078808855 97.82129351332084 L -21.375237769837543 97.68878753614926 L -21.989222110757762 97.55241724818387 L -22.60233661604489 97.41218804387363 L -23.214557032506143 97.268105470316 L -23.82585914231648 97.12017522703763 L -24.43621876397667 96.96840316576876 L -25.045611753269824 96.81279529021188 L -25.654014004216496 96.65335775580414 L -26.26140145002818 96.4900968694739 L -26.86775006405944 96.32301908939127 L -27.473035860758273 96.15213102471256 L -28.07723489661491 95.97743943531891 L -28.680323271109 95.7989512315489 L -29.28227712765501 95.6166734739251 L -29.88307265454597 95.43061337287489 L -30.482686085895303 95.24077828844514 L -31.081093702577093 95.04717573001115 L -31.678271833164253 94.84981335597952 L -32.274196854864904 94.64869897348525 L -32.86884519445686 94.4438405380829 L -33.46219332922011 94.23524615343187 L -34.05421778786735 94.02292407097589 L -34.64489515147234 93.80688268961659 L -35.23420205439641 93.58713055538121 L -35.82211518521272 93.36367636108463 L -36.40861128762835 93.13652894598542 L -36.9936671614043 92.90569729543628 L -37.57725966327319 92.67119054052851 L -38.15936570785483 92.43301795773084 L -38.739962268569286 92.19118896852251 L -39.319026378547875 91.94571313902055 L -39.89653513154161 91.69660017960135 L -40.47246568282733 91.44385994451659 L -41.04679525011135 91.18750243150338 L -41.61950111443076 90.92753778138886 L -42.190560621051915 90.66397627768893 L -42.7599511803669 90.39682834620162 L -43.32765026878687 90.12610455459446 L -43.89363542963307 89.85181561198672 L -44.457884274025275 89.57397236852553 L -45.020374481767334 89.29258581495684 L -45.581083802230125 89.0076670821906 L -46.13999005523172 88.71922744086041 L -46.6970711319148 88.42727830087777 L -47.25230499562119 88.1318312109807 L -47.80566968276359 87.83289785827687 L -48.35714330369443 87.5304900677813 L -48.90670404357167 87.22461980194863 L -49.45433016322186 86.9152991601999 L -49.99999999999998 86.60254037844388 L -50.54369196864646 86.2863558285931 L -51.085384562140874 85.96675801807451 L -51.62505635255289 85.64375958933459 L -52.16268599188979 85.31737331933928 L -52.698252212940965 84.98761211906864 L -53.231733830119204 84.65448903300606 L -53.76310974029872 84.31801723862223 L -54.292358923649935 83.97821004585398 L -54.81946044447097 83.63508089657762 L -55.34439345201584 83.28864336407736 L -55.867137181319194 82.93891115250828 L -56.387670954017764 82.58589809635433 L -56.90597417916836 82.22961815988096 L -57.422026354062325 81.87008543658283 L -57.9358070650367 81.50731414862622 L -58.4472959882815 81.14131864628658 L -58.956472890643944 80.77211340738067 L -59.46331763042866 80.39971303669405 L -59.96781015819448 80.02413226540321 L -60.46993051754754 79.64538595049291 L -60.96965884593068 79.26348907416848 L -61.46697537540922 78.87845674326314 L -61.96186043345285 78.49030418864044 L -62.45429444371388 78.09904676459176 L -62.94425792680157 77.70469994822886 L -63.43173150105274 77.30727933887178 L -63.91669588329848 76.9068006574317 L -64.39913188962684 76.50327974578899 L -64.8790204361417 76.09673256616678 L -65.35634253971793 75.68717520049917 L -65.83107931875185 75.2746238497955 L -66.30321199390868 74.85909483349907 L -66.77272188886481 74.44060458884194 L -67.23959043104723 74.01916967019436 L -67.7037991523676 73.59480674841038 L -68.16532968995327 73.16753261016785 L -68.62416378687335 72.73736415730488 L -69.08028329286108 72.30431840615094 L -69.53367016503177 71.86841248685386 L -69.98430646859651 71.42966364270212 L -70.43217437757161 70.98808922944289 L -70.87725617548384 70.54370671459532 L -71.31953425607098 70.09653367675978 L -71.75899112397877 69.64658780492218 L -72.19560939545241 69.19388689775465 L -72.62937179902471 68.73844886291104 L -73.06026117619884 68.28029171631894 L -73.48826048212757 67.81943358146665 L -73.91335278628709 67.3558926886866 L -74.33552127314701 66.88968737443398 L -74.75474924283537 66.42083608056139 L -75.1710201117993 65.94935735358962 L -75.5843174134612 65.47526984397349 L -75.99462479886972 64.9985923053647 L -76.40192603734694 64.51934359386934 L -76.80620501712997 64.0375426673026 L -77.20744574600862 63.553208584438416 L -77.6056323519579 63.06636050425573 L -78.00074908376583 62.57701768518059 L -78.39278031165657 62.08519948432438 L -78.78171052790869 61.59092535671794 L -79.16752434746853 61.094214854542315 L -79.550206508559 60.5950876263548 L -79.929741873283 60.093563416312314 L -80.30611542822257 59.58966206338976 L -80.6793122850324 59.08340350059583 L -81.04931768102921 58.57480775418394 L -81.41611697977525 58.063894942860586 L -81.77969567165778 57.550685276989 L -82.14003937446253 57.035199057790145 L -82.49713383394301 56.51745667653928 L -82.85096492438421 55.997478613759554 L -83.20151864916134 55.47528543841172 L -83.54878114129363 54.95089780708062 L -83.89273866399274 54.424336463157886 L -84.23337761120615 53.89562223602165 L -84.57068450815562 53.36477604021222 L -84.90464601186976 52.83181887460517 L -85.2352489117124 52.296771821580236 L -85.56248012990464 51.75965604618787 L -85.8863267220426 51.22049279531143 L -86.20677587760913 50.67930339682725 L -86.52381492048082 50.13610925876059 L -86.83743130942926 49.59093186843895 L -87.14761263861723 49.04379279164206 L -87.45434663808942 48.4947136717488 L -87.75762117425775 47.943716228880994 L -88.05742425038146 47.390822259044334 L -88.35374400704153 46.83605363326603 L -88.64656872260984 46.27943229672992 L -88.93588681371304 45.720980267907905 L -89.22168683569036 45.16071963768954 L -89.50395748304679 44.598672568507595 L -89.7826875898999 44.03486129346197 L -90.05786613042183 43.46930811543956 L -90.32948221927523 42.90203540623265 L -90.59752511204398 42.33306560565345 L -90.86198420565819 41.76242122064671 L -91.12284903881357 41.19012482439929 L -91.38010929238531 40.61619905544726 L -91.63375478983632 40.04066661678037 L -91.8837754976196 39.46355027494411 L -92.1301615255754 38.88487285913874 L -92.37290312732225 38.3046572603168 L -92.6119907006426 37.722926430276985 L -92.84741478786255 37.13970338075684 L -93.0791660762262 36.5550111825219 L -93.30723539826371 35.968872964453624 L -93.53161373215428 35.381311912633876 L -93.75229220208273 34.7923512694284 L -93.96926207859083 34.20201433256689 L -94.18251477892248 33.610324454221626 L -94.39204186736329 33.0173050400837 L -94.59783505557422 32.42297954843711 L -94.79988620291955 31.827371489230842 L -94.99818731678869 31.23050442314897 L -95.19273055291265 30.632401960678337 L -95.38350821567404 30.03308776117509 L -95.5705127584117 29.432585531928183 L -95.75373678371908 28.83091902722223 L -95.93317304373701 28.228112047397175 L -96.10881444044027 27.62418843790745 L -96.28065402591844 27.019172088378227 L -96.44868500265069 26.413086931660644 L -96.61290072377479 25.80595694288504 L -96.77329469334988 25.19780613851254 L -96.92986056661354 24.588658575385058 L -97.08259215023277 23.97853834977363 L -97.2314834025489 23.367469596425234 L -97.37652843381667 22.755476487608277 L -97.51772150643723 22.142583232155914 L -97.65505703518491 21.528814074509075 L -97.7885295874285 20.91419329375674 L -97.91813388334579 20.298745202676187 L -98.04386479613267 19.682494146770555 L -98.16571735220582 19.065464503306472 L -98.28368673139947 18.44768068034925 L -98.39776826715615 17.829167115797617 L -98.50795744671115 17.209948276416927 L -98.61424991127114 16.590048656871364 L -98.71664145618658 15.969492778754978 L -98.81512803111795 15.348305189621662 L -98.90970574019615 14.726510462014112 L -99.00037084217637 14.104133192491975 L -99.08711975058637 13.481198000658425 L -99.16994903386808 12.857729528186919 L -99.2488554155135 12.233752437845732 L -99.3238357741943 11.609291412523081 L -99.39488714388521 10.984371154250018 L -99.4620067139815 10.359016383223953 L -99.5251918294099 9.733251836830288 L -99.58443999073396 9.107102268664109 L -99.63974885425264 8.48059244755095 L -99.6911162320932 7.853747156566996 L -99.73854009229761 7.226591192058693 L -99.78201855890306 6.599149362662091 L -99.8215499120161 5.971446488320989 L -99.85713258788059 5.343507399305791 L -99.88876517893978 4.715356935230575 L -99.91644643389178 4.087019944071214 L -99.94017525773914 3.4585212811817465 L -99.95995071183215 2.8298858083118716 L -99.97577201390605 2.201138392622778 L -99.98763853811184 1.5723039057041253 L -99.9955498150411 0.9434072225897048 L -99.99950553174457 0.3144732207736687 L -99.99950553174457 -0.3144732207735998 L -99.9955498150411 -0.9434072225896357 L -99.98763853811184 -1.572303905704101 L -99.97577201390605 -2.2011383926227093 L -99.95995071183216 -2.8298858083118033 L -99.94017525773913 -3.4585212811816772 L -99.91644643389178 -4.087019944071145 L -99.88876517893978 -4.715356935230505 L -99.8571325878806 -5.3435073993057225 L -99.82154991201608 -5.971446488320965 L -99.78201855890308 -6.599149362662023 L -99.73854009229761 -7.2265911920586685 L -99.6911162320932 -7.853747156566927 L -99.63974885425264 -8.480592447550926 L -99.58443999073397 -9.107102268664043 L -99.5251918294099 -9.733251836830263 L -99.4620067139815 -10.35901638322393 L -99.39488714388523 -10.984371154249995 L -99.32383577419431 -11.609291412523012 L -99.2488554155135 -12.233752437845705 L -99.16994903386808 -12.85772952818685 L -99.08711975058637 -13.481198000658445 L -99.00037084217638 -14.104133192491906 L -98.90970574019613 -14.726510462014131 L -98.81512803111796 -15.348305189621595 L -98.71664145618658 -15.969492778754955 L -98.61424991127116 -16.5900486568713 L -98.50795744671115 -17.209948276416903 L -98.39776826715615 -17.829167115797546 L -98.28368673139948 -18.44768068034923 L -98.16571735220582 -19.065464503306448 L -98.04386479613267 -19.68249414677053 L -97.9181338833458 -20.298745202676116 L -97.78852958742851 -20.914193293756714 L -97.65505703518494 -21.52881407450901 L -97.51772150643721 -22.142583232155932 L -97.37652843381669 -22.755476487608206 L -97.2314834025489 -23.367469596425256 L -97.08259215023277 -23.97853834977356 L -96.92986056661356 -24.588658575385033 L -96.7732946933499 -25.197806138512476 L -96.6129007237748 -25.805956942885018 L -96.4486850026507 -26.413086931660622 L -96.28065402591844 -27.019172088378202 L -96.10881444044027 -27.62418843790742 L -95.93317304373703 -28.228112047397154 L -95.75373678371909 -28.830919027222162 L -95.5705127584117 -29.432585531928158 L -95.38350821567406 -30.033087761175025 L -95.19273055291265 -30.632401960678358 L -94.99818731678872 -31.230504423148915 L -94.79988620291954 -31.827371489230856 L -94.59783505557425 -32.42297954843705 L -94.39204186736329 -33.01730504008367 L -94.1825147789225 -33.610324454221555 L -93.96926207859084 -34.20201433256687 L -93.75229220208274 -34.79235126942838 L -93.53161373215428 -35.38131191263385 L -93.30723539826374 -35.96887296445355 L -93.0791660762262 -36.55501118252187 L -92.84741478786258 -37.139703380756785 L -92.61199070064258 -37.722926430277 L -92.37290312732226 -38.30465726031674 L -92.13016152557539 -38.88487285913875 L -91.88377549761961 -39.46355027494404 L -91.63375478983632 -40.04066661678039 L -91.38010929238534 -40.6161990554472 L -91.12284903881358 -41.19012482439926 L -90.86198420565822 -41.762421220646644 L -90.597525112044 -42.33306560565343 L -90.32948221927523 -42.90203540623263 L -90.05786613042184 -43.469308115439546 L -89.78268758989992 -44.034861293461915 L -89.5039574830468 -44.598672568507574 L -89.22168683569039 -45.160719637689475 L -88.93588681371303 -45.72098026790792 L -88.64656872260989 -46.279432296729865 L -88.35374400704153 -46.836053633266054 L -88.05742425038149 -47.39082225904428 L -87.75762117425776 -47.94371622888097 L -87.45434663808945 -48.49471367174873 L -87.14761263861723 -49.04379279164205 L -86.83743130942928 -49.590931868438936 L -86.52381492048083 -50.13610925876058 L -86.20677587760916 -50.67930339682724 L -85.88632672204261 -51.22049279531141 L -85.56248012990467 -51.759656046187814 L -85.23524891171242 -52.29677182158021 L -84.9046460118698 -52.831818874605105 L -84.57068450815561 -53.364776040212234 L -84.2333776112062 -53.8956222360216 L -83.89273866399273 -54.42433646315789 L -83.54878114129367 -54.950897807080565 L -83.20151864916137 -55.4752854384117 L -82.85096492438424 -55.99747861375949 L -82.49713383394302 -56.51745667653926 L -82.14003937446255 -57.03519905779013 L -81.77969567165779 -57.55068527698898 L -81.4161169797753 -58.06389494286053 L -81.04931768102922 -58.57480775418391 L -80.67931228503244 -59.08340350059577 L -80.30611542822258 -59.58966206338974 L -79.92974187328305 -60.093563416312264 L -79.55020650855899 -60.59508762635481 L -79.16752434746857 -61.09421485454226 L -78.78171052790867 -61.590925356717946 L -78.39278031165661 -62.08519948432432 L -78.00074908376584 -62.57701768518058 L -77.60563235195794 -63.06636050425567 L -77.20744574600863 -63.553208584438394 L -76.80620501712997 -64.03754266730257 L -76.40192603734695 -64.51934359386932 L -75.99462479886976 -64.99859230536464 L -75.58431741346122 -65.47526984397348 L -75.17102011179935 -65.94935735358956 L -74.75474924283535 -66.4208360805614 L -74.33552127314704 -66.88968737443392 L -73.91335278628712 -67.3558926886866 L -73.48826048212763 -67.8194335814666 L -73.06026117619888 -68.2802917163189 L -72.62937179902474 -68.73844886291099 L -72.19560939545246 -69.19388689775461 L -71.75899112397883 -69.64658780492212 L -71.31953425607104 -70.09653367675972 L -70.87725617548385 -70.54370671459529 L -70.43217437757167 -70.98808922944283 L -69.98430646859656 -71.42966364270207 L -69.53367016503182 -71.8684124868538 L -69.08028329286113 -72.3043184061509 L -68.62416378687335 -72.73736415730487 L -68.16532968995332 -73.1675326101678 L -67.70379915236764 -73.59480674841033 L -67.23959043104729 -74.01916967019432 L -66.77272188886487 -74.44060458884188 L -66.30321199390872 -74.85909483349901 L -65.8310793187519 -75.27462384979547 L -65.35634253971796 -75.68717520049915 L -64.87902043614172 -76.09673256616676 L -64.39913188962686 -76.50327974578897 L -63.91669588329848 -76.90680065743167 L -63.431731501052795 -77.30727933887174 L -62.94425792680158 -77.70469994822885 L -62.45429444371386 -78.09904676459178 L -61.96186043345288 -78.49030418864044 L -61.46697537540922 -78.87845674326317 L -60.9696588459307 -79.26348907416846 L -60.469930517547525 -79.64538595049292 L -59.9678101581945 -80.0241322654032 L -59.46331763042865 -80.39971303669407 L -58.95647289064398 -80.77211340738067 L -58.44729598828148 -81.14131864628658 L -57.93580706503673 -81.5073141486262 L -57.42202635406235 -81.87008543658281 L -56.90597417916841 -82.22961815988091 L -56.387670954017786 -82.58589809635431 L -55.86713718131925 -82.93891115250824 L -55.34439345201586 -83.28864336407734 L -54.81946044447103 -83.63508089657759 L -54.29235892364996 -83.97821004585397 L -53.76310974029877 -84.3180172386222 L -53.231733830119225 -84.65448903300604 L -52.69825221294102 -84.9876121190686 L -52.1626859918898 -85.31737331933927 L -51.62505635255287 -85.64375958933459 L -51.08538456214089 -85.9667580180745 L -50.54369196864644 -86.28635582859312 L -50.00000000000004 -86.60254037844383 L -49.45433016322188 -86.9152991601999 L -48.90670404357165 -87.22461980194865 L -48.35714330369445 -87.53049006778129 L -47.80566968276358 -87.83289785827688 L -47.2523049956212 -88.13183121098069 L -46.69707113191478 -88.42727830087779 L -46.13999005523175 -88.7192274408604 L -45.58108380223011 -89.0076670821906 L -45.02037448176736 -89.29258581495684 L -44.45788427402526 -89.57397236852555 L -43.89363542963309 -89.85181561198671 L -43.327650268786854 -90.12610455459448 L -42.759951180366954 -90.39682834620159 L -42.19056062105194 -90.66397627768892 L -41.61950111443082 -90.92753778138882 L -41.0467952501114 -91.18750243150338 L -40.47246568282741 -91.44385994451655 L -39.896535131541654 -91.69660017960133 L -39.31902637854796 -91.94571313902051 L -38.739962268569336 -92.1911889685225 L -38.15936570785492 -92.43301795773081 L -37.57725966327325 -92.67119054052849 L -36.99366716140432 -92.90569729543628 L -36.40861128762841 -93.13652894598539 L -35.822115185212745 -93.36367636108461 L -35.234202054396484 -93.5871305553812 L -34.64489515147236 -93.80688268961659 L -34.054217787867415 -94.02292407097586 L -33.462193329220156 -94.23524615343186 L -32.86884519445686 -94.4438405380829 L -32.27419685486495 -94.64869897348524 L -31.678271833164253 -94.84981335597952 L -31.081093702577146 -95.04717573001115 L -30.482686085895303 -95.24077828844514 L -29.88307265454601 -95.43061337287487 L -29.282277127655036 -95.61667347392509 L -28.680323271109067 -95.79895123154887 L -28.077234896614932 -95.9774394353189 L -27.47303586075833 -96.15213102471253 L -26.867750064059464 -96.32301908939125 L -26.261401450028245 -96.49009686947387 L -25.65401400421652 -96.65335775580412 L -25.045611753269917 -96.81279529021187 L -24.43621876397672 -96.96840316576875 L -23.825859142316574 -97.12017522703762 L -23.214557032506185 -97.268105470316 L -22.602336616044898 -97.41218804387363 L -21.989222110757805 -97.55241724818386 L -21.37523776983765 -97.68878753614923 L -20.760407880885573 -97.82129351332084 L -20.14475676495053 -97.94992993811165 L -19.52830877556705 -98.07469172200395 L -18.91108829779164 -98.19557392975065 L -18.293119747238723 -98.3125717795704 L -17.674427569114183 -98.42568064333686 L -17.055036237248952 -98.53489604676166 L -16.43497025313064 -98.64021366957145 L -15.814254144934155 -98.74162934567887 L -15.192912466551594 -98.83913906334728 L -14.570969796621135 -98.93273896534936 L -13.948450737554596 -99.02242534911984 L -13.32537991456406 -99.10819466690197 L -12.701781974687833 -99.19004352588769 L -12.07768158581612 -99.26796868835203 L -11.453103435714144 -99.34196707178107 L -10.828072231046285 -99.41203574899392 L -10.202612696398381 -99.47817194825852 L -9.576749573300416 -99.54037305340125 L -8.950507619246729 -99.59863660391042 L -8.323911606717393 -99.65296029503367 L -7.696986322197924 -99.70334197786902 L -7.0697565651995005 -99.74977965944997 L -6.4422471472768965 -99.79227150282432 L -5.814482891047624 -99.83081582712683 L -5.186488629210104 -99.86541110764566 L -4.5582892035611735 -99.89605597588275 L -3.9299094640131402 -99.92274921960795 L -3.3013742676114104 -99.94548978290693 L -2.672708477550499 -99.96427676622298 L -2.0439369621912165 -99.97910942639261 L -1.4150845940762318 -99.98998717667489 L -0.786176248946891 -99.99690958677468 L -0.1572368047584881 -99.99987638285974 L 0.4717088593032201 -99.9988874475714 L 1.1006358638064344 -99.99394282002936 L 1.729519330057657 -99.98504269583005 L 2.3583343810856476 -99.97218742703888 L 2.987056142625314 -99.95537752217638 L 3.6156597441018516 -99.93461364619809 L 4.2441203196147335 -99.90989662046816 L 4.872413008921248 -99.88122742272691 L 5.500512958419293 -99.84860718705225 L 6.12839532213157 -99.81203720381464 L 6.7560352626877265 -99.77151891962615 L 7.383407952307212 -99.72705393728327 L 8.010488573780679 -99.67864401570344 L 8.637252321452763 -99.62629106985545 L 9.263674402202696 -99.56999717068378 L 9.889730036424982 -99.5097645450266 L 10.515394459009784 -99.44559557552776 L 11.140642920322737 -99.37749280054244 L 11.765450687183895 -99.30545891403676 L 12.389793043845497 -99.22949676548137 L 13.013645292970711 -99.14960935973849 L 13.636982756609976 -99.06579985694317 L 14.25978077717711 -98.97807157237835 L 14.882014718424879 -98.88642797634358 L 15.503659966419711 -98.7908726940178 L 16.124691930515198 -98.691409505316 L 16.745086044324633 -98.58804234473958 L 17.364817766692997 -98.48077530122082 L 17.983862582667985 -98.36961261796101 L 18.602196004469153 -98.25455869226279 L 19.219793572457284 -98.13561807535595 L 19.836630856101237 -98.01279547221768 L 20.452683454945078 -97.88609574138616 L 21.067926999572574 -97.75552389476863 L 21.682337152571904 -97.62108509744297 L 22.295889609497742 -97.48278466745342 L 22.908560099832975 -97.34062807560028 L 23.520324387948925 -97.19462094522338 L 24.131158274063978 -97.04476905197967 L 24.74103759520025 -96.89107832361496 L 25.349938226140438 -96.73355483972904 L 25.957836080381472 -96.57220483153549 L 26.56470711108767 -96.40703468161506 L 27.170527312041248 -96.23805092366335 L 27.775272718593 -96.06526024223213 L 28.378919408609587 -95.88866947246501 L 28.981443503420145 -95.70828559982708 L 29.58282116876022 -95.52411575982869 L 30.183028615715607 -95.33616723774296 L 30.782042101662753 -95.14444746831768 L 31.37983793120788 -94.94896403548134 L 31.97639245712449 -94.74972467204299 L 32.57168208128898 -94.54673725938638 L 33.16568325561387 -94.34000982715814 L 33.758372482979226 -94.12955055295033 L 34.34972631816228 -93.9153677619768 L 34.939721368765085 -93.6974699267438 L 35.528334296139306 -93.47586566671512 L 36.115541816310106 -93.25056374797076 L 36.70132070089655 -93.02157308286041 L 37.285647778030835 -92.78890272965094 L 37.86849993327494 -92.55256189216783 L 38.44985411053487 -92.31255991943124 L 39.02968731297256 -92.0689063052863 L 39.607976603915645 -91.8216106880274 L 40.18469910776504 -91.57068285001695 L 40.75983201089967 -91.31613271729832 L 41.33335256257839 -91.05797035920355 L 41.90523807584094 -90.79620598795464 L 42.47546592840469 -90.53084995825971 L 43.04401356355983 -90.26191276690338 L 43.610858491061094 -89.98940505233183 L 44.17597828801826 -89.71333759423145 L 44.73935059978259 -89.43372131310278 L 45.300953140831425 -89.15056726982839 L 45.86076369564906 -88.8638866652356 L 46.418760119606546 -88.57369083965298 L 46.97492033983705 -88.27999127246198 L 47.529222356108995 -87.98279958164294 L 48.08164424169644 -87.68212752331537 L 48.63216414424667 -87.37798699127286 L 49.18076028664412 -87.07039001651277 L 49.7274109678724 -86.75934876676014 L 50.27209456387212 -86.44487554598652 L 50.814789528396915 -86.12698279392309 L 51.35547439386511 -85.80568308556879 L 51.89412777220956 -85.4809891306926 L 52.430728355723176 -85.15291377333111 L 52.96525491790202 -84.82146999128025 L 53.4976863142851 -84.48667089558182 L 54.028001483290666 -84.14852973000504 L 54.55617944704919 -83.80705987052265 L 55.08219931223336 -83.46227482478176 L 55.60604027088468 -83.11418823156941 L 56.127681601236546 -82.7628138602731 L 56.64710266853338 -82.40816561033645 L 57.16428292584783 -82.05025751070879 L 57.679201914892886 -81.68910371929061 L 58.19183926683152 -81.32471852237327 L 58.702174703081845 -80.95711633407441 L 59.210188036120044 -80.58631169576695 L 59.71585917027859 -80.2123192755044 L 60.21916810254096 -79.8351538674406 L 60.72009492333314 -79.4548303912444 L 61.218619817311286 -79.07136389150942 L 61.71472306414548 -78.68476953715903 L 62.2083850392996 -78.29506262084631 L 62.699586214807795 -77.90225855834915 L 63.18830716004721 -77.50637288796018 L 63.67452854250601 -77.10742126987252 L 64.1582311285488 -76.70541948555987 L 64.63939578417687 -76.30038343715277 L 65.11800347578554 -75.89232914680892 L 65.59403527091669 -75.48127275607993 L 66.06747233900812 -75.06723052527246 L 66.53829595213793 -74.6502188328052 L 67.00648748576569 -74.23025417456095 L 67.4720284194692 -73.80735316323397 L 67.934900337677 -73.38153252767275 L 68.39508493039656 -72.95280911221886 L 68.85256399393917 -72.52119987603977 L 69.30731943163963 -72.08672189245857 L 69.75933325457231 -71.64939234827831 L 70.20858758226224 -71.20922854310257 L 70.65506464339319 -70.7662478886505 L 71.09874677651014 -70.32046790806848 L 71.5396164307182 -69.87190623523674 L 71.97765616637632 -69.42058061407228 L 72.41284865578797 -68.96650889782626 L 72.84517668388607 -68.50970904837813 L 73.27462314891397 -68.05019913552525 L 73.7011710631021 -67.58799733626795 L 74.12480355333994 -67.12312193409035 L 74.54550386184357 -66.65559131823724 L 74.96325534681824 -66.1854239829868 L 75.3780414831169 -65.71263852691891 L 75.78984586289407 -65.2372536521791 L 76.19865219625444 -64.75928816373946 L 76.60444431189778 -64.27876096865396 L 77.00720615775813 -63.79569107531118 L 77.40692180163904 -63.310097592682155 L 77.8035754318439 -62.821999729564304 L 78.19715135780127 -62.3314167938217 L 78.58763401068548 -61.83836819162154 L 78.97500794403257 -61.34287342666622 L 79.35925783435142 -60.84495209942179 L 79.74036848172992 -60.3446239063426 L 80.11832481043574 -59.8419086390927 L 80.49311186951344 -59.33682618376209 L 80.86471483337547 -58.829396520080536 L 81.2331190023886 -58.31963972062733 L 81.59830980345544 -57.8075759500371 L 81.9602727905911 -57.29322546420207 L 82.31899364549454 -56.77660860947074 L 82.67445817811465 -56.25774582184371 L 83.02665232721205 -55.73665762616426 L 83.37556216091511 -55.21336463530711 L 83.72117387727108 -54.68788754936271 L 84.06347380479181 -54.16024715481902 L 84.402448402995 -53.63046432373831 L 84.73808426293961 -53.09856001293205 L 85.07036810775617 -52.56455526313206 L 85.39928679317207 -52.02847119815792 L 85.72482730803165 -51.49032902408133 L 86.04697677481076 -50.950150028387355 L 86.36572245012606 -50.407955579132455 L 86.68105172523927 -49.86376712409919 L 86.99295212655596 -49.31760618994743 L 87.30141131611879 -48.769494381363494 L 87.60641709209581 -48.21945338020478 L 87.90795738926286 -47.66750494464279 L 88.20602027948114 -47.113670908301806 L 88.50059397216872 -46.55797317939577 L 88.79166681476728 -46.00043373986111 L 89.07922729320285 -45.44107464448773 L 89.3632640323412 -44.87991802004624 L 89.64376579643815 -44.31698606441268 L 89.92072148958367 -43.75230104569046 L 90.19412015614095 -43.18588530132973 L 90.46395098117978 -42.61776123724356 L 90.7302032909044 -42.04795132692152 L 90.9928665530757 -41.47647811054067 L 91.25193037742761 -40.9033641940746 L 91.50738451607859 -40.32863224839818 L 91.75921886393661 -39.75230500839139 L 92.00742345909914 -39.17440527203971 L 92.25198848324686 -38.5949558995329 L 92.49290426203248 -38.013979812359736 L 92.73016126546321 -37.43149999240191 L 92.96375010827771 -36.84753948102498 L 93.19366155031739 -36.26212137816673 L 93.41988649689195 -35.675268841423254 L 93.64241599913922 -35.08700508513309 L 93.86124125437892 -34.49735337945906 L 94.07635360646107 -33.90633704946757 L 94.28774454610841 -33.313979474205766 L 94.49540571125281 -32.72030408577722 L 94.69932888736633 -32.12533436841439 L 94.89950600778586 -31.52909385755031 L 95.09592915403253 -30.93160613888692 L 95.28859055612466 -30.332894847462732 L 95.47748259288535 -29.732983666717264 L 95.66259779224377 -29.13189632755471 L 95.84392883153085 -28.529656607405016 L 96.02146853776892 -27.92628832928309 L 96.19520988795549 -27.321815360846546 L 96.36514600934086 -26.716261613452136 L 96.53127017970031 -26.109651041208874 L 96.6935758275998 -25.502007640031145 L 96.852056532656 -24.893355446689135 L 97.00670602579008 -24.283718537858736 L 97.15751818947601 -23.673121029168044 L 97.30448705798236 -23.06158707424413 L 97.44760681760833 -22.44914086375725 L 97.58687180691359 -21.835806624464574 L 97.72227651694256 -21.221608618250873 L 97.85381559144194 -20.606571141169294 L 97.98148382707294 -19.99071852248046 L 98.10527617361679 -19.374075123689806 L 98.22518773417478 -18.756665337583804 L 98.34121376536187 -18.138513587265166 L 98.45334967749419 -17.51964432518691 L 98.56159103477084 -16.90008203218497 L 98.6659335554492 -16.279851216509456 L 98.76637311201432 -15.658976412855838 L 98.86290573134227 -15.037482181393699 L 98.95552759485719 -14.415393106795817 L 99.04423503868246 -13.792733797265393 L 99.12902455378553 -13.169528883562442 L 99.20989278611684 -12.545803018029648 L 99.28683653674238 -11.921580873617337 L 99.35985276197029 -11.296887142907332 L 99.42893857347129 -10.671746537135988 L 99.49409123839288 -10.046183785216762 L 99.55530817946746 -9.42022363276264 L 99.61258697511428 -8.793890841106188 L 99.66592535953528 -8.167210186320776 L 99.71532122280465 -7.540206458240142 L 99.76077261095226 -6.912904459478485 L 99.80227772604111 -6.285329004448273 L 99.8398349262383 -5.65750491837936 L 99.87344272588005 -5.029457036336615 L 99.90309979553044 -4.40121020223821 L 99.92880496203401 -3.77278926787181 L 99.95055720856215 -3.144219091912111 L 99.96835567465338 -2.5155245389375955 L 99.98219965624732 -1.8867304784467676 L 99.99208860571255 -1.2578617838741233 L 99.99802213186832 -0.6289433316068405 L 100.0 0.0" fill="none" stroke="black" /></svg>