<?xml version="1.0" encoding="utf-8" ?>
<svg baseProfile="full" height="200" version="1.1" viewBox="-200 -200 4400 200" width="4400" xmlns="http://www.w3.org/2000/svg" xmlns:ev="http://www.w3.org/2001/xml-events" xmlns:xlink="http://www.w3.org/1999/xlink"><defs /><path d="M 100.0 0.0 L 69.38716503272775 3.8281965726814446 L 43.244275571149664 4.786275272835857 L 21.015231294307227 3.5068218639646656 L 2.2557399256077417 0.5055231574864649 L -13.397328914217866 -3.788403663074849 L -26.247557560555194 -9.010797892103948 L -36.55454599301643 -14.847173588302187 L -44.545343557225294 -21.021454539765244 L -50.42300591414137 -27.287566207639948 L -54.373125444357605 -33.423035968744756 L -56.568920039092035 -39.224016328663694 L -57.17529369614089 -44.501317346889785 L -56.352169410704064 -49.077147501611215 L -54.257320415740125 -52.78233671548327 L -51.048877595849746 -55.453863553586686 L -46.8876613992859 -56.93253816385859 L -41.939471453836795 -57.06070770914217 L -36.37746419514211 -55.67985399733558 L -30.38475772933682 -52.627944162882514 L -24.157425129273797 -47.7363733353679 L -17.908075577991337 -40.826300076022235 L -11.870282981199157 -31.704115213705464 L -6.304213477217516 -20.155692963383487 L -1.5039423818530366 -5.938934158211836 L 2.1928367066899277 11.226100705231943 L 4.391679694614354 31.67049907742983 L 4.6232883145236965 55.79479244597523 L 2.3180521848613487 84.09462311858185 L -2.318052184861343 84.09462311858202 L -4.623288314523706 55.79479244597515 L -4.391679694614361 31.670499077429916 L -2.1928367066899135 11.226100705231886 L 1.5039423818530153 -5.938934158211751 L 6.304213477217505 -20.155692963383416 L 11.870282981199143 -31.704115213705435 L 17.9080755779913 -40.826300076022164 L 24.157425129273797 -47.736373335367915 L 30.384757729336798 -52.62794416288251 L 36.377464195142196 -55.6798539973357 L 41.93947145383684 -57.060707709142186 L 46.88766139928586 -56.9325381638585 L 51.04887759584971 -55.45386355358667 L 54.25732041574002 -52.78233671548318 L 56.35216941070412 -49.077147501611314 L 57.17529369614088 -44.501317346889785 L 56.568920039092 -39.224016328663666 L 54.373125444357676 -33.42303596874479 L 50.42300591414137 -27.287566207639955 L 44.54534355722538 -21.021454539765294 L 36.55454599301652 -14.847173588302226 L 26.247557560555194 -9.010797892103952 L 13.39732891421788 -3.788403663074849 L -2.2557399256079833 0.5055231574865182 L -21.015231294307227 3.5068218639646638 L -43.244275571149664 4.786275272835863 L -69.38716503272758 3.8281965726814446 L -99.99999999999994 1.2246467991473524e-14 L -69.38716503272784 -3.828196572681441 L -43.24427557114975 -4.786275272835861 L -21.015231294307043 -3.506821863964646 L -2.255739925607827 -0.5055231574864827 L 13.397328914217866 3.7884036630748454 L 26.247557560555137 9.010797892103927 L 36.55454599301643 14.847173588302184 L 44.545343557225294 21.021454539765244 L 50.423005914141356 27.28756620763992 L 54.3731254443577 33.42303596874484 L 56.568920039092035 39.224016328663694 L 57.17529369614089 44.501317346889756 L 56.352169410704064 49.07714750161122 L 54.257320415740125 52.78233671548327 L 51.04887759584966 55.45386355358659 L 46.8876613992859 56.93253816385859 L 41.93947145383685 57.06070770914218 L 36.37746419514211 55.67985399733558 L 30.38475772933684 52.627944162882514 L 24.15742512927382 47.73637333536793 L 17.908075577991234 40.82630007602205 L 11.870282981199143 31.704115213705435 L 6.304213477217484 20.1556929633834 L 1.5039423818530153 5.938934158211751 L -2.1928367066899455 -11.226100705232085 L -4.391679694614362 -31.670499077429916 L -4.623288314523711 -55.79479244597504 L -2.3180521848613447 -84.09462311858202 L 2.3180521848613185 -84.09462311858219 L 4.6232883145237 -55.79479244597515 L 4.391679694614374 -31.670499077430094 L 2.1928367066899153 -11.226100705231886 L -1.5039423818529514 5.938934158211481 L -6.3042134772174165 20.155692963383217 L -11.87028298119921 31.704115213705578 L -17.908075577991337 40.826300076022235 L -24.157425129273825 47.73637333536787 L -30.384757729336805 52.62794416288248 L -36.377464195142075 55.679853997335584 L -41.939471453836866 57.060707709142235 L -46.88766139928585 56.93253816385855 L -51.04887759584966 55.45386355358658 L -54.25732041574001 52.782336715483204 L -56.35216941070407 49.07714750161121 L -57.175293696140876 44.50131734688979 L -56.56892003909204 39.224016328663765 L -54.37312544435767 33.423035968744806 L -50.42300591414143 27.287566207640012 L -44.545343557225266 21.02145453976521 L -36.55454599301643 14.84717358830218 L -26.24755756055501 9.010797892103867 L -13.397328914217866 3.7884036630748454 L 2.2557399256077417 -0.5055231574864578 L 21.0152312943073 -3.506821863964678 L 43.24427557114965 -4.786275272835868 L 69.38716503272784 -3.8281965726814358 L 100.0 0.0 M 400.0 0.0 L 382.07924278714603 4.52843801555857 L 366.6396056380852 7.375669783907554 L 353.35727256345933 8.903754015676633 L 341.97403089941434 9.406600642132764 L 332.2793914795917 9.127742231761964 L 324.0979764938692 8.272845779801173 L 317.2804343046905 7.018705904650201 L 311.6967646206843 5.519836330820425 L 307.23131951702123 3.9133944220880963 L 303.7789855257217 2.322933767727136 L 301.24220561158154 0.8613262045406032 L 299.5285999021009 -0.3669054236162168 L 298.5490099177933 -1.2636683739509422 L 298.21583447283706 -1.735663038448763 L 298.4415535534935 -1.692924128211743 L 299.13735369249855 -1.0474534740708066 L 300.21177717963604 0.2881332388744866 L 301.56931914126824 2.402021762492936 L 303.1088913245535 5.384757729336805 L 304.7220586042107 9.331042163468481 L 306.2909319400454 14.341880232947759 L 307.6855663939986 20.5272345085491 L 308.76065926336037 28.00938751633911 L 309.3512622414524 36.927299488515196 L 309.26709774239157 47.442370963569374 L 308.28487806429206 59.746211321730044 L 306.1377242448193 74.07131613543012 L 302.5002947065092 90.70604294521239 L 297.4997052934908 90.70604294521249 L 293.86227575518063 74.07131613543008 L 291.71512193570794 59.74621132173009 L 290.73290225760843 47.442370963569346 L 290.6487377585476 36.927299488515246 L 291.23934073663963 28.009387516339153 L 292.3144336060014 20.527234508549114 L 293.7090680599545 14.341880232947801 L 295.27794139578936 9.331042163468474 L 296.8911086754465 5.384757729336819 L 298.4306808587318 2.402021762492865 L 299.788222820364 0.2881332388744724 L 300.8626463075014 -1.047453474070764 L 301.5584464465065 -1.692924128211736 L 301.7841655271629 -1.7356630384487133 L 301.4509900822067 -1.263668373950992 L 300.4714000978991 -0.3669054236162097 L 298.75779438841846 0.8613262045406103 L 296.2210144742783 2.3229337677271076 L 292.76868048297877 3.9133944220880963 L 288.30323537931577 5.519836330820404 L 282.71956569530954 7.0187059046501865 L 275.9020235061308 8.27284577980118 L 267.72060852040835 9.12774223176197 L 258.02596910058554 9.406600642132782 L 246.64272743654067 8.90375401567662 L 233.3603943619148 7.375669783907563 L 217.92075721285408 4.528438015558574 L 200.00000000000003 1.2246467991473529e-14 L 217.9207572128539 -4.528438015558562 L 233.36039436191476 -7.3756697839075525 L 246.64272743654078 -8.903754015676636 L 258.0259691005856 -9.406600642132771 L 267.7206085204083 -9.127742231761962 L 275.9020235061307 -8.272845779801184 L 282.7195656953095 -7.018705904650201 L 288.3032353793157 -5.5198363308204215 L 292.76868048297877 -3.9133944220881105 L 296.2210144742784 -2.3229337677271005 L 298.75779438841846 -0.8613262045406032 L 300.4714000978991 0.3669054236162026 L 301.4509900822067 1.2636683739509493 L 301.78416552716294 1.735663038448763 L 301.5584464465064 1.6929241282116934 L 300.86264630750145 1.0474534740708066 L 299.788222820364 -0.2881332388744724 L 298.43068085873176 -2.402021762492936 L 296.8911086754465 -5.384757729336798 L 295.27794139578936 -9.33104216346846 L 293.7090680599545 -14.341880232947872 L 292.3144336060014 -20.527234508549114 L 291.23934073663963 -28.00938751633916 L 290.6487377585476 -36.927299488515246 L 290.73290225760843 -47.442370963569466 L 291.71512193570794 -59.74621132173009 L 293.86227575518063 -74.07131613543001 L 297.4997052934908 -90.70604294521249 L 302.5002947065092 -90.70604294521259 L 306.13772424481937 -74.07131613543008 L 308.28487806429206 -59.74621132173019 L 309.26709774239157 -47.442370963569346 L 309.3512622414524 -36.9272994885154 L 308.7606592633604 -28.009387516339274 L 307.68556639399856 -20.52723450854902 L 306.2909319400454 -14.341880232947759 L 304.7220586042107 -9.331042163468481 L 303.10889132455355 -5.384757729336826 L 301.56931914126824 -2.402021762492943 L 300.211777179636 -0.2881332388744511 L 299.13735369249855 1.0474534740707782 L 298.4415535534936 1.6929241282116934 L 298.2158344728371 1.7356630384487204 L 298.5490099177933 1.2636683739509422 L 299.5285999021009 0.3669054236162097 L 301.24220561158154 -0.861326204540589 L 303.7789855257216 -2.3229337677271147 L 307.2313195170212 -3.9133944220880856 L 311.69676462068435 -5.519836330820425 L 317.2804343046905 -7.018705904650201 L 324.09797649386934 -8.272845779801198 L 332.2793914795917 -9.127742231761957 L 341.97403089941434 -9.40660064213277 L 353.35727256345933 -8.903754015676633 L 366.6396056380852 -7.375669783907572 L 382.0792427871461 -4.528438015558557 L 400.0 0.0 M 700.0 0.0 L 684.6176583380297 4.668486304133994 L 671.3186716514723 7.893548686121894 L 659.8256808172897 9.983140446019025 L 649.9176890941757 11.186816139062024 L 641.4147355583536 11.710971410729325 L 634.1670833047541 11.729574514182197 L 628.0474303642319 11.391881803240679 L 622.9451862562662 10.82809450493756 L 618.7621846032538 10.153586548033704 L 615.4094077197376 9.472127715021514 L 612.8044307417163 8.878394711181464 L 610.8693786217492 8.4599769610385 L 609.5292457834928 8.29902745158111 L 608.7104654505525 8.473671696958142 L 608.3396397833621 9.059263756863245 L 608.3423567108555 10.129563463886747 L 608.6420269063306 11.757901428477815 L 609.1586758085502 14.018396914458634 L 609.8076211353316 16.987298107780674 L 610.4979553509075 20.744525263235758 L 611.1307334436528 25.375516294741757 L 611.5967362690382 30.97350445300001 L 611.773633811476 37.64240361228363 L 611.5223031661135 45.5005462178606 L 610.6819499495319 54.685625015236866 L 609.0635177382276 65.36135377059009 L 606.4406114308784 77.72662087332111 L 602.5367432108387 92.0283269105385 L 597.4632567891613 92.02832691053858 L 593.5593885691216 77.72662087332107 L 590.9364822617724 65.36135377059013 L 589.3180500504682 54.68562501523684 L 588.4776968338865 45.500546217860645 L 588.226366188524 37.642403612283665 L 588.4032637309618 30.973504453000018 L 588.8692665563472 25.3755162947418 L 589.5020446490925 20.74452526323575 L 590.1923788646684 16.98729810778068 L 590.8413241914498 14.018396914458577 L 591.3579730936694 11.757901428477794 L 591.6576432891445 10.12956346388679 L 591.6603602166379 9.059263756863253 L 591.2895345494475 8.473671696958178 L 590.4707542165072 8.299027451581075 L 589.1306213782508 8.459976961038507 L 587.1955692582837 8.878394711181471 L 584.5905922802625 9.47212771502149 L 581.2378153967462 10.153586548033708 L 577.0548137437338 10.828094504937543 L 571.9525696357682 11.391881803240672 L 565.8329166952459 11.729574514182207 L 558.5852644416465 11.710971410729332 L 550.0823109058242 11.186816139062035 L 540.1743191827103 9.98314044601901 L 528.6813283485277 7.893548686121903 L 515.3823416619704 4.668486304134001 L 500.0 1.224646799147353e-14 L 515.3823416619703 -4.668486304133987 L 528.6813283485276 -7.893548686121891 L 540.1743191827104 -9.983140446019034 L 550.0823109058243 -11.186816139062028 L 558.5852644416464 -11.710971410729323 L 565.8329166952458 -11.729574514182207 L 571.9525696357681 -11.391881803240679 L 577.0548137437338 -10.828094504937557 L 581.2378153967462 -10.153586548033719 L 584.5905922802625 -9.47212771502149 L 587.1955692582837 -8.878394711181464 L 589.1306213782508 -8.459976961038507 L 590.4707542165072 -8.299027451581104 L 591.2895345494475 -8.473671696958142 L 591.6603602166377 -9.059263756863288 L 591.6576432891445 -10.129563463886747 L 591.3579730936694 -11.757901428477794 L 590.8413241914498 -14.018396914458634 L 590.1923788646684 -16.98729810778066 L 589.5020446490925 -20.744525263235737 L 588.8692665563472 -25.375516294741857 L 588.4032637309618 -30.973504453000018 L 588.226366188524 -37.64240361228367 L 588.4776968338865 -45.500546217860645 L 589.3180500504682 -54.68562501523694 L 590.9364822617724 -65.36135377059013 L 593.5593885691216 -77.72662087332101 L 597.4632567891613 -92.02832691053858 L 602.5367432108387 -92.02832691053867 L 606.4406114308784 -77.72662087332107 L 609.0635177382276 -65.36135377059021 L 610.6819499495318 -54.68562501523684 L 611.5223031661135 -45.50054621786077 L 611.773633811476 -37.64240361228377 L 611.5967362690382 -30.97350445299994 L 611.1307334436528 -25.375516294741757 L 610.4979553509075 -20.74452526323575 L 609.8076211353316 -16.98729810778069 L 609.1586758085502 -14.018396914458648 L 608.6420269063306 -11.757901428477794 L 608.3423567108555 -10.129563463886775 L 608.3396397833623 -9.059263756863281 L 608.7104654505525 -8.473671696958178 L 609.5292457834928 -8.29902745158111 L 610.8693786217492 -8.459976961038507 L 612.8044307417163 -8.878394711181464 L 615.4094077197375 -9.4721277150215 L 618.7621846032537 -10.153586548033704 L 622.9451862562662 -10.828094504937553 L 628.0474303642319 -11.391881803240675 L 634.1670833047542 -11.729574514182211 L 641.4147355583536 -11.710971410729316 L 649.9176890941757 -11.186816139062032 L 659.8256808172898 -9.983140446019025 L 671.3186716514723 -7.893548686121912 L 684.6176583380297 -4.66848630413398 L 700.0 0.0 M 1000.0 0.0 L 989.694489439797 4.948582881284844 L 980.6768036782465 8.929306490550573 L 972.7624973249506 12.141913306703813 L 965.8050054836983 14.747247132920544 L 959.6854237158774 16.87742976866405 L 954.3052969265239 18.643031982944244 L 949.5814224833147 20.138233600421636 L 945.4420295274301 21.444610853171827 L 941.8239147757188 22.633970799924924 L 938.6702521077692 23.77051560961027 L 935.9288810019857 24.912531724463182 L 933.550936061046 26.113741730347925 L 931.4897175148917 27.42441910264522 L 929.6997274059834 28.892341167771942 L 928.1358122430995 30.563639527013223 L 926.7523627475692 32.48359733980186 L 925.5025263597197 34.69743780768448 L 924.3373891431145 37.251147218390045 L 923.2050807568877 40.1923788646684 L 922.0497488443013 43.57149146277031 L 920.8103364508676 47.442788418329755 L 919.4190760191173 51.86604434190184 L 917.7995829077071 56.90843580417267 L 915.8643850154356 62.647039676551415 L 913.5116543638126 69.17213311857184 L 910.6207970860987 76.59163866831017 L 907.0463858029967 85.03723034910307 L 902.6096402194979 94.67289484119071 L 897.3903597805021 94.67289484119077 L 892.9536141970033 85.03723034910304 L 889.3792029139013 76.5916386683102 L 886.4883456361874 69.17213311857182 L 884.1356149845644 62.647039676551444 L 882.2004170922928 56.9084358041727 L 880.5809239808827 51.86604434190184 L 879.1896635491324 47.44278841832978 L 877.9502511556987 43.57149146277031 L 876.7949192431123 40.19237886466841 L 875.6626108568856 37.25114721839 L 874.4974736402803 34.697437807684466 L 873.2476372524308 32.48359733980188 L 871.8641877569005 30.563639527013226 L 870.3002725940166 28.892341167771967 L 868.5102824851083 27.424419102645203 L 866.449063938954 26.113741730347936 L 864.0711189980143 24.91253172446318 L 861.3297478922308 23.77051560961025 L 858.1760852242812 22.633970799924928 L 854.55797047257 21.444610853171824 L 850.4185775166854 20.138233600421636 L 845.6947030734761 18.643031982944258 L 840.3145762841226 16.877429768664058 L 834.1949945163017 14.74724713292054 L 827.2375026750494 12.141913306703794 L 819.3231963217535 8.929306490550584 L 810.3055105602031 4.948582881284853 L 800.0 1.2246467991473532e-14 L 810.305510560203 -4.948582881284835 L 819.3231963217535 -8.929306490550566 L 827.2375026750495 -12.141913306703831 L 834.1949945163017 -14.747247132920544 L 840.3145762841226 -16.877429768664047 L 845.694703073476 -18.64303198294425 L 850.4185775166853 -20.138233600421632 L 854.5579704725699 -21.444610853171824 L 858.1760852242812 -22.63397079992493 L 861.3297478922308 -23.770515609610264 L 864.0711189980143 -24.912531724463182 L 866.449063938954 -26.11374173034793 L 868.5102824851083 -27.424419102645214 L 870.3002725940166 -28.892341167771942 L 871.8641877569005 -30.563639527013244 L 873.2476372524308 -32.48359733980186 L 874.4974736402803 -34.69743780768446 L 875.6626108568855 -37.251147218390045 L 876.7949192431123 -40.192378864668385 L 877.9502511556987 -43.5714914627703 L 879.1896635491324 -47.442788418329826 L 880.5809239808827 -51.86604434190184 L 882.2004170922929 -56.9084358041727 L 884.1356149845644 -62.647039676551444 L 886.4883456361874 -69.17213311857189 L 889.3792029139013 -76.5916386683102 L 892.9536141970033 -85.037230349103 L 897.3903597805021 -94.67289484119077 L 902.6096402194979 -94.67289484119082 L 907.0463858029967 -85.03723034910304 L 910.6207970860986 -76.59163866831025 L 913.5116543638126 -69.17213311857182 L 915.8643850154356 -62.64703967655153 L 917.7995829077071 -56.90843580417277 L 919.4190760191173 -51.866044341901784 L 920.8103364508676 -47.442788418329755 L 922.0497488443013 -43.5714914627703 L 923.2050807568877 -40.19237886466841 L 924.3373891431144 -37.25114721839006 L 925.5025263597197 -34.697437807684466 L 926.7523627475692 -32.48359733980189 L 928.1358122430995 -30.563639527013237 L 929.6997274059834 -28.89234116777197 L 931.4897175148917 -27.424419102645217 L 933.550936061046 -26.11374173034794 L 935.9288810019857 -24.912531724463204 L 938.6702521077692 -23.770515609610268 L 941.8239147757188 -22.633970799924946 L 945.4420295274301 -21.444610853171806 L 949.5814224833147 -20.13823360042163 L 954.305296926524 -18.643031982944237 L 959.6854237158774 -16.877429768664037 L 965.8050054836983 -14.747247132920556 L 972.7624973249506 -12.141913306703806 L 980.6768036782465 -8.929306490550594 L 989.694489439797 -4.948582881284828 L 1000.0 0.0 M 1300.0 0.0 L 1292.2329049906807 5.088631169860269 L 1285.3558696916336 9.447185392764911 L 1279.230905578781 13.221299737046206 L 1273.7486636784597 16.527462629849804 L 1268.8207677946393 19.460658947631416 L 1264.3744037374088 22.09976071732527 L 1260.348418542856 24.51140949901211 L 1256.690451163012 26.75286902728896 L 1253.3547798619513 28.874162925870532 L 1250.3006743017852 30.91970955690465 L 1247.4911061321204 32.92960023110404 L 1244.8917147806942 34.940624115002635 L 1242.4699533805913 36.98711492817728 L 1240.1943583836987 39.101675903178844 L 1238.033898472968 41.31582741208821 L 1235.9573657659262 43.66061427775942 L 1233.9327760864144 46.16720599728781 L 1231.9267458103966 48.86752237035574 L 1229.903810567666 51.79491924311226 L 1227.8256455909982 54.98497456253759 L 1225.650137954475 58.476424480123754 L 1223.3302458941569 62.31231428635275 L 1220.8125574558228 66.54145190011718 L 1218.0354259400967 71.22028640589681 L 1214.9265065709528 76.41538717023931 L 1211.3994367600342 82.20678111717021 L 1207.3492729890559 88.69253508699404 L 1202.6460887238275 95.99517880651682 L 1197.3539112761725 95.99517880651686 L 1192.6507270109441 88.69253508699403 L 1188.6005632399658 82.20678111717024 L 1185.0734934290472 76.41538717023931 L 1181.9645740599033 71.22028640589684 L 1179.1874425441772 66.54145190011721 L 1176.6697541058431 62.31231428635275 L 1174.349862045525 58.476424480123775 L 1172.1743544090018 54.98497456253759 L 1170.0961894323343 51.794919243112275 L 1168.0732541896036 48.867522370355715 L 1166.0672239135856 46.167205997287795 L 1164.0426342340738 43.66061427775943 L 1161.966101527032 41.31582741208821 L 1159.8056416163013 39.10167590317886 L 1157.5300466194087 36.98711492817726 L 1155.1082852193058 34.94062411500265 L 1152.5088938678796 32.92960023110403 L 1149.6993256982148 30.91970955690463 L 1146.6452201380487 28.874162925870536 L 1143.3095488369881 26.752869027288963 L 1139.651581457144 24.511409499012117 L 1135.6255962625912 22.099760717325285 L 1131.1792322053607 19.460658947631423 L 1126.2513363215403 16.527462629849794 L 1120.769094421219 13.221299737046184 L 1114.6441303083664 9.447185392764924 L 1107.7670950093193 5.088631169860279 L 1100.0 1.2246467991473532e-14 L 1107.7670950093193 -5.0886311698602595 L 1114.6441303083664 -9.447185392764904 L 1120.769094421219 -13.221299737046229 L 1126.2513363215403 -16.5274626298498 L 1131.1792322053607 -19.46065894763141 L 1135.6255962625912 -22.099760717325275 L 1139.651581457144 -24.51140949901211 L 1143.309548836988 -26.752869027288956 L 1146.6452201380487 -28.874162925870536 L 1149.6993256982148 -30.919709556904653 L 1152.5088938678796 -32.92960023110404 L 1155.1082852193058 -34.94062411500264 L 1157.5300466194087 -36.98711492817727 L 1159.8056416163013 -39.101675903178844 L 1161.966101527032 -41.315827412088225 L 1164.0426342340738 -43.66061427775942 L 1166.0672239135856 -46.167205997287795 L 1168.0732541896034 -48.86752237035574 L 1170.096189432334 -51.79491924311225 L 1172.1743544090018 -54.98497456253757 L 1174.3498620455252 -58.47642448012381 L 1176.6697541058431 -62.31231428635275 L 1179.1874425441774 -66.54145190011721 L 1181.9645740599033 -71.22028640589684 L 1185.0734934290472 -76.41538717023937 L 1188.6005632399658 -82.20678111717024 L 1192.6507270109441 -88.69253508699398 L 1197.3539112761725 -95.99517880651686 L 1202.6460887238275 -95.9951788065169 L 1207.3492729890559 -88.69253508699403 L 1211.3994367600342 -82.20678111717027 L 1214.9265065709528 -76.41538717023931 L 1218.0354259400967 -71.2202864058969 L 1220.8125574558226 -66.54145190011727 L 1223.3302458941569 -62.3123142863527 L 1225.650137954475 -58.476424480123754 L 1227.8256455909982 -54.984974562537566 L 1229.903810567666 -51.79491924311227 L 1231.9267458103964 -48.867522370355765 L 1233.9327760864144 -46.1672059972878 L 1235.9573657659262 -43.66061427775944 L 1238.033898472968 -41.31582741208821 L 1240.1943583836987 -39.101675903178865 L 1242.4699533805913 -36.98711492817727 L 1244.8917147806942 -34.940624115002656 L 1247.4911061321204 -32.929600231104075 L 1250.3006743017852 -30.91970955690465 L 1253.3547798619513 -28.874162925870564 L 1256.690451163012 -26.75286902728893 L 1260.348418542856 -24.511409499012103 L 1264.3744037374088 -22.09976071732525 L 1268.8207677946393 -19.460658947631398 L 1273.7486636784597 -16.52746262984982 L 1279.230905578781 -13.221299737046198 L 1285.3558696916336 -9.447185392764935 L 1292.2329049906807 -5.088631169860252 L 1300.0 0.0 M 1600.0 0.0 L 1594.7713205415644 5.228679458435694 L 1590.0349357050206 9.965064294979252 L 1585.6993138326113 14.3006861673886 L 1581.6923218732209 18.307678126779063 L 1577.9561118734011 22.043888126598777 L 1574.4435105482937 25.556489451706295 L 1571.1154146023973 28.88458539760259 L 1567.9388727985938 32.061127201406094 L 1564.8856449481839 35.11435505181614 L 1561.931096495801 38.06890350419903 L 1559.0533312622551 40.9466687377449 L 1556.2324935003426 43.76750649965735 L 1553.4501892462906 46.54981075370933 L 1550.6889893614143 49.31101063858574 L 1547.9319847028369 52.0680152971632 L 1545.162368784283 54.837631215716975 L 1542.3630258131088 57.636974186891145 L 1539.5161024776785 60.48389752232145 L 1536.6025403784438 63.39745962155612 L 1533.601542337695 66.39845766230486 L 1530.4899394580823 69.51006054191775 L 1527.2414157691962 72.75858423080366 L 1523.8255320039382 76.17446799606171 L 1520.2064668647577 79.79353313524223 L 1516.3413587780933 83.6586412219068 L 1512.1780764339696 87.82192356603025 L 1507.652160175115 92.34783982488503 L 1502.6825372281571 97.31746277184293 L 1497.3174627718429 97.31746277184295 L 1492.347839824885 92.34783982488501 L 1487.8219235660304 87.82192356603026 L 1483.658641221907 83.6586412219068 L 1479.7935331352423 79.79353313524224 L 1476.1744679960616 76.17446799606172 L 1472.7585842308038 72.75858423080366 L 1469.5100605419177 69.51006054191777 L 1466.398457662305 66.39845766230486 L 1463.3974596215562 63.397459621556145 L 1460.4838975223215 60.48389752232143 L 1457.6369741868912 57.63697418689113 L 1454.837631215717 54.837631215716975 L 1452.0680152971631 52.0680152971632 L 1449.3110106385857 49.311010638585756 L 1446.5498107537094 46.54981075370933 L 1443.7675064996574 43.767506499657365 L 1440.9466687377449 40.946668737744886 L 1438.068903504199 38.06890350419901 L 1435.1143550518161 35.11435505181615 L 1432.0611272014062 32.0611272014061 L 1428.8845853976027 28.8845853976026 L 1425.5564894517063 25.556489451706312 L 1422.0438881265989 22.043888126598787 L 1418.3076781267791 18.307678126779045 L 1414.3006861673887 14.300686167388577 L 1409.9650642949794 9.965064294979264 L 1405.2286794584356 5.228679458435705 L 1400.0 1.2246467991473534e-14 L 1405.2286794584356 -5.228679458435684 L 1409.9650642949791 -9.965064294979243 L 1414.3006861673887 -14.300686167388626 L 1418.3076781267791 -18.30767812677906 L 1422.0438881265989 -22.04388812659877 L 1425.5564894517063 -25.556489451706295 L 1428.8845853976027 -28.884585397602585 L 1432.0611272014062 -32.06112720140609 L 1435.1143550518161 -35.11435505181614 L 1438.068903504199 -38.06890350419904 L 1440.9466687377449 -40.9466687377449 L 1443.7675064996574 -43.76750649965735 L 1446.5498107537094 -46.54981075370932 L 1449.3110106385857 -49.31101063858574 L 1452.0680152971631 -52.0680152971632 L 1454.837631215717 -54.837631215716975 L 1457.6369741868912 -57.63697418689112 L 1460.4838975223215 -60.48389752232145 L 1463.3974596215562 -63.39745962155611 L 1466.398457662305 -66.39845766230485 L 1469.5100605419177 -69.5100605419178 L 1472.7585842308038 -72.75858423080366 L 1476.1744679960618 -76.17446799606172 L 1479.7935331352423 -79.79353313524224 L 1483.658641221907 -83.65864122190685 L 1487.8219235660304 -87.82192356603026 L 1492.3478398248849 -92.34783982488499 L 1497.3174627718429 -97.31746277184295 L 1502.6825372281571 -97.31746277184298 L 1507.652160175115 -92.34783982488501 L 1512.1780764339696 -87.82192356603029 L 1516.341358778093 -83.6586412219068 L 1520.2064668647577 -79.79353313524228 L 1523.8255320039382 -76.17446799606176 L 1527.2414157691965 -72.75858423080362 L 1530.4899394580823 -69.51006054191775 L 1533.6015423376953 -66.39845766230484 L 1536.6025403784438 -63.39745962155613 L 1539.5161024776785 -60.48389752232147 L 1542.3630258131088 -57.63697418689114 L 1545.162368784283 -54.837631215716996 L 1547.9319847028369 -52.06801529716319 L 1550.6889893614143 -49.31101063858576 L 1553.4501892462906 -46.54981075370932 L 1556.2324935003426 -43.76750649965737 L 1559.0533312622551 -40.94666873774494 L 1561.931096495801 -38.068903504199035 L 1564.8856449481839 -35.11435505181618 L 1567.9388727985938 -32.06112720140606 L 1571.1154146023973 -28.88458539760258 L 1574.4435105482937 -25.556489451706263 L 1577.9561118734011 -22.04388812659876 L 1581.6923218732209 -18.30767812677908 L 1585.6993138326113 -14.300686167388589 L 1590.0349357050206 -9.965064294979275 L 1594.7713205415644 -5.228679458435677 L 1600.0 0.0 M 1900.0 0.0 L 1897.309736092448 5.368727747011119 L 1894.7140017184079 10.482943197193592 L 1892.1677220864417 15.380072597730994 L 1889.6359800679822 20.08789362370832 L 1887.0914559521632 24.627117305566138 L 1884.5126173591786 29.013218186087318 L 1881.8824106619388 33.25776129619307 L 1879.1872944341758 37.36938537552323 L 1876.4165100344164 41.35454717776175 L 1873.561518689817 45.218097451493406 L 1870.6155563923899 48.96373724438576 L 1867.573272219991 52.59438888431207 L 1864.4304251119902 56.11250657924138 L 1861.1836203391297 59.52034537399264 L 1857.8300709327054 62.82020318223819 L 1854.3673718026398 66.01464815367453 L 1850.7932755398035 69.10674237649448 L 1847.1054591449606 72.10027267428715 L 1843.301270189222 74.99999999999999 L 1839.377439084392 77.81194076207214 L 1835.3297409616896 80.54369660371175 L 1831.1525856442358 83.20485417525458 L 1826.8385065520538 85.80748409200623 L 1822.3775077894188 88.36677986458764 L 1817.7562109852336 90.9018952735743 L 1812.9567161079053 93.43706601489029 L 1807.9550473611741 96.00314456277601 L 1802.7189857324865 98.63974673716903 L 1797.2810142675135 98.63974673716905 L 1792.0449526388259 96.003144562776 L 1787.0432838920947 93.43706601489029 L 1782.2437890147664 90.9018952735743 L 1777.6224922105812 88.36677986458764 L 1773.1614934479462 85.80748409200623 L 1768.8474143557642 83.20485417525458 L 1764.6702590383104 80.54369660371177 L 1760.622560915608 77.81194076207214 L 1756.698729810778 75.00000000000001 L 1752.8945408550394 72.10027267428714 L 1749.2067244601965 69.10674237649447 L 1745.6326281973602 66.01464815367453 L 1742.1699290672946 62.82020318223819 L 1738.8163796608703 59.520345373992654 L 1735.5695748880098 56.1125065792414 L 1732.426727780009 52.59438888431208 L 1729.3844436076101 48.96373724438574 L 1726.438481310183 45.218097451493385 L 1723.5834899655836 41.35454717776176 L 1720.8127055658242 37.369385375523244 L 1718.1175893380612 33.25776129619308 L 1715.4873826408214 29.01321818608734 L 1712.9085440478368 24.627117305566152 L 1710.3640199320178 20.087893623708297 L 1707.832277913558 15.380072597730969 L 1705.2859982815921 10.482943197193604 L 1702.690263907552 5.368727747011131 L 1700.0 1.2246467991473535e-14 L 1702.690263907552 -5.368727747011108 L 1705.2859982815921 -10.482943197193581 L 1707.8322779135583 -15.380072597731024 L 1710.3640199320178 -20.087893623708318 L 1712.9085440478368 -24.62711730556613 L 1715.4873826408214 -29.013218186087315 L 1718.1175893380612 -33.25776129619306 L 1720.8127055658242 -37.36938537552322 L 1723.5834899655836 -41.354547177761745 L 1726.438481310183 -45.21809745149343 L 1729.3844436076101 -48.96373724438576 L 1732.426727780009 -52.59438888431206 L 1735.5695748880098 -56.112506579241376 L 1738.8163796608703 -59.52034537399264 L 1742.1699290672946 -62.820203182238174 L 1745.6326281973602 -66.01464815367453 L 1749.2067244601965 -69.10674237649445 L 1752.8945408550394 -72.10027267428715 L 1756.698729810778 -74.99999999999997 L 1760.622560915608 -77.81194076207213 L 1764.6702590383104 -80.54369660371178 L 1768.8474143557642 -83.20485417525458 L 1773.1614934479462 -85.80748409200623 L 1777.6224922105812 -88.36677986458764 L 1782.2437890147664 -90.90189527357433 L 1787.0432838920947 -93.43706601489029 L 1792.0449526388259 -96.00314456277599 L 1797.2810142675135 -98.63974673716905 L 1802.7189857324865 -98.63974673716906 L 1807.9550473611741 -96.003144562776 L 1812.9567161079053 -93.43706601489032 L 1817.7562109852336 -90.9018952735743 L 1822.3775077894188 -88.36677986458767 L 1826.8385065520538 -85.80748409200626 L 1831.1525856442358 -83.20485417525454 L 1835.3297409616896 -80.54369660371175 L 1839.377439084392 -77.81194076207211 L 1843.301270189222 -74.99999999999999 L 1847.1054591449606 -72.10027267428717 L 1850.7932755398035 -69.10674237649448 L 1854.3673718026398 -66.01464815367456 L 1857.8300709327054 -62.820203182238174 L 1861.1836203391297 -59.52034537399266 L 1864.4304251119902 -56.112506579241376 L 1867.573272219991 -52.59438888431209 L 1870.6155563923899 -48.96373724438581 L 1873.561518689817 -45.21809745149342 L 1876.4165100344164 -41.3545471777618 L 1879.1872944341758 -37.36938537552319 L 1881.8824106619388 -33.25776129619306 L 1884.5126173591786 -29.013218186087276 L 1887.0914559521632 -24.62711730556612 L 1889.6359800679822 -20.087893623708343 L 1892.1677220864417 -15.38007259773098 L 1894.7140017184079 -10.482943197193615 L 1897.309736092448 -5.368727747011101 L 1900.0 0.0 M 2200.0 0.0 L 2199.8481516433317 5.5087760355865445 L 2199.393067731795 11.00082209940793 L 2198.6361303402723 16.459459028073386 L 2197.5796382627436 21.868109120637584 L 2196.226800030925 27.210346484533503 L 2194.5817241700634 32.469946920468345 L 2192.6494067214803 37.63093719478354 L 2190.4357160697577 42.677643549640365 L 2187.9473751206488 47.59473930370736 L 2185.1919408838326 52.367291398787785 L 2182.1777815225246 56.98080575102662 L 2178.9140509396393 61.42127126896678 L 2175.4106609776895 65.67520240477344 L 2171.678251316845 69.72968010939954 L 2167.728157162574 73.57239106731318 L 2163.5723748209966 77.19166509163209 L 2159.223525266498 80.57651056609781 L 2154.6948158122427 83.71664782625285 L 2150.0 86.60254037844385 L 2145.153335831089 89.22542386183942 L 2140.169542465297 91.57733266550575 L 2135.063755519275 93.65112411970549 L 2129.8514811001696 95.44050018795075 L 2124.54854871408 96.94002659393304 L 2119.171063192374 98.14514932524177 L 2113.735355781841 99.05220846375033 L 2108.257934547233 99.65844930066699 L 2102.755434236816 99.96203070249514 L 2097.244565763184 99.96203070249514 L 2091.742065452767 99.65844930066699 L 2086.264644218159 99.05220846375033 L 2080.828936807626 98.14514932524179 L 2075.45145128592 96.94002659393304 L 2070.1485188998304 95.44050018795075 L 2064.936244480725 93.65112411970549 L 2059.830457534703 91.57733266550575 L 2054.846664168911 89.22542386183942 L 2050.0 86.60254037844388 L 2045.3051841877573 83.71664782625285 L 2040.776474733502 80.5765105660978 L 2036.4276251790031 77.19166509163207 L 2032.271842837426 73.57239106731318 L 2028.321748683155 69.72968010939954 L 2024.5893390223105 65.67520240477346 L 2021.0859490603607 61.42127126896679 L 2017.8222184774754 56.980805751026594 L 2014.8080591161672 52.36729139878776 L 2012.052624879351 47.59473930370737 L 2009.5642839302423 42.67764354964038 L 2007.35059327852 37.63093719478356 L 2005.4182758299366 32.46994692046837 L 2003.773199969075 27.210346484533517 L 2002.4203617372564 21.86810912063755 L 2001.3638696597277 16.45945902807336 L 2000.6069322682051 11.000822099407944 L 2000.1518483566683 5.508776035586557 L 2000.0 1.2246467991473535e-14 L 2000.1518483566683 -5.508776035586532 L 2000.6069322682051 -11.00082209940792 L 2001.3638696597277 -16.45945902807342 L 2002.4203617372564 -21.868109120637573 L 2003.773199969075 -27.210346484533492 L 2005.4182758299366 -32.46994692046834 L 2007.35059327852 -37.63093719478354 L 2009.5642839302423 -42.67764354964035 L 2012.052624879351 -47.59473930370735 L 2014.8080591161672 -52.36729139878782 L 2017.8222184774754 -56.98080575102662 L 2021.0859490603607 -61.42127126896678 L 2024.5893390223105 -65.67520240477343 L 2028.321748683155 -69.72968010939954 L 2032.271842837426 -73.57239106731316 L 2036.4276251790031 -77.19166509163209 L 2040.776474733502 -80.5765105660978 L 2045.3051841877573 -83.71664782625285 L 2050.0 -86.60254037844383 L 2054.846664168911 -89.2254238618394 L 2059.830457534703 -91.57733266550576 L 2064.936244480725 -93.65112411970549 L 2070.1485188998304 -95.44050018795075 L 2075.45145128592 -96.94002659393304 L 2080.828936807626 -98.1451493252418 L 2086.264644218159 -99.05220846375033 L 2091.742065452767 -99.65844930066697 L 2097.244565763184 -99.96203070249514 L 2102.755434236816 -99.96203070249514 L 2108.257934547233 -99.65844930066699 L 2113.7353557818406 -99.05220846375033 L 2119.171063192374 -98.14514932524179 L 2124.54854871408 -96.94002659393304 L 2129.851481100169 -95.44050018795076 L 2135.0637555192757 -93.65112411970546 L 2140.169542465297 -91.57733266550575 L 2145.153335831089 -89.22542386183937 L 2150.0 -86.60254037844385 L 2154.6948158122427 -83.71664782625288 L 2159.223525266498 -80.57651056609781 L 2163.5723748209966 -77.1916650916321 L 2167.728157162574 -73.57239106731315 L 2171.678251316845 -69.72968010939955 L 2175.4106609776895 -65.67520240477343 L 2178.9140509396393 -61.421271268966805 L 2182.1777815225246 -56.98080575102668 L 2185.1919408838326 -52.3672913987878 L 2187.9473751206488 -47.59473930370742 L 2190.4357160697577 -42.67764354964031 L 2192.6494067214803 -37.630937194783534 L 2194.5817241700634 -32.46994692046829 L 2196.226800030925 -27.21034648453348 L 2197.5796382627436 -21.868109120637605 L 2198.6361303402723 -16.459459028073372 L 2199.393067731795 -11.000822099407955 L 2199.8481516433317 -5.508776035586525 L 2200.0 0.0 M 2500.0 0.0 L 2504.924982745099 5.788872612737395 L 2508.7511997585693 12.036579903836609 L 2511.572946847933 18.618231888758174 L 2513.4669546522664 25.4285401144961 L 2514.497488188449 32.37680484246823 L 2514.719937791833 39.38340438923039 L 2514.183398840563 46.3772889919645 L 2512.9325593409217 53.29415989787463 L 2511.009105293114 60.07512355559858 L 2508.4527852718643 66.66567929337654 L 2505.302231782794 73.01494276430833 L 2501.595608378936 79.07503603827621 L 2497.3711327090887 84.80059405583755 L 2492.667513272276 90.14834958021333 L 2487.5243296223116 95.07676683746315 L 2481.9823808577107 99.5456989675472 L 2476.084024719887 103.51604694530448 L 2469.873529146807 106.94939813018426 L 2463.397459621556 109.80762113533157 L 2456.7051293244826 112.05239006137397 L 2449.8491454725117 113.64460478909375 L 2442.8860952693544 114.54366400860732 L 2435.8774301964004 114.70653237983979 L 2428.8906305634023 114.08652005262385 L 2422.0007676066543 112.63165742857674 L 2415.292635129712 110.28249336147042 L 2408.8637089193517 106.96905877644895 L 2402.8283312454755 102.60659863314736 L 2397.1716687545245 102.60659863314733 L 2391.1362910806483 106.96905877644896 L 2384.707364870288 110.2824933614704 L 2377.9992323933457 112.63165742857677 L 2371.1093694365977 114.08652005262384 L 2364.1225698035996 114.70653237983979 L 2357.1139047306456 114.54366400860731 L 2350.1508545274883 113.64460478909373 L 2343.2948706755174 112.05239006137398 L 2336.602540378444 109.8076211353316 L 2330.126470853193 106.94939813018428 L 2323.915975280113 103.51604694530447 L 2318.0176191422893 99.54569896754717 L 2312.4756703776884 95.07676683746314 L 2307.3324867277242 90.14834958021333 L 2302.6288672909113 84.80059405583759 L 2298.404391621064 79.07503603827622 L 2294.697768217206 73.0149427643083 L 2291.5472147281357 66.66567929337653 L 2288.990894706886 60.07512355559859 L 2287.0674406590783 53.294159897874664 L 2285.816601159437 46.37728899196453 L 2285.280062208167 39.38340438923042 L 2285.5025118115514 32.376804842468246 L 2286.533045347734 25.428540114496055 L 2288.427053152067 18.618231888758142 L 2291.2488002414307 12.036579903836625 L 2295.075017254901 5.788872612737409 L 2300.0 1.2246467991473537e-14 L 2295.075017254901 -5.78887261273738 L 2291.2488002414307 -12.036579903836595 L 2288.427053152067 -18.618231888758217 L 2286.5330453477336 -25.42854011449609 L 2285.502511811551 -32.37680484246822 L 2285.280062208167 -39.38340438923038 L 2285.816601159437 -46.37728899196449 L 2287.0674406590783 -53.29415989787462 L 2288.990894706886 -60.075123555598566 L 2291.5472147281357 -66.6656792933766 L 2294.697768217206 -73.01494276430833 L 2298.404391621064 -79.0750360382762 L 2302.6288672909113 -84.80059405583754 L 2307.332486727724 -90.14834958021333 L 2312.4756703776884 -95.07676683746311 L 2318.0176191422893 -99.5456989675472 L 2323.915975280113 -103.51604694530445 L 2330.126470853193 -106.94939813018426 L 2336.602540378444 -109.80762113533156 L 2343.2948706755174 -112.05239006137396 L 2350.1508545274883 -113.64460478909373 L 2357.1139047306456 -114.54366400860731 L 2364.1225698035996 -114.70653237983977 L 2371.1093694365977 -114.08652005262384 L 2377.9992323933457 -112.63165742857676 L 2384.707364870288 -110.2824933614704 L 2391.1362910806483 -106.96905877644896 L 2397.1716687545245 -102.60659863314733 L 2402.8283312454755 -102.6065986331473 L 2408.8637089193517 -106.96905877644896 L 2415.292635129712 -110.28249336147037 L 2422.0007676066543 -112.63165742857677 L 2428.890630563402 -114.0865200526238 L 2435.8774301964004 -114.70653237983976 L 2442.8860952693544 -114.5436640086073 L 2449.8491454725117 -113.64460478909375 L 2456.7051293244826 -112.05239006137393 L 2463.397459621556 -109.80762113533157 L 2469.873529146807 -106.94939813018429 L 2476.084024719887 -103.51604694530448 L 2481.9823808577107 -99.54569896754722 L 2487.5243296223116 -95.07676683746311 L 2492.6675132722758 -90.14834958021335 L 2497.3711327090887 -84.80059405583754 L 2501.595608378936 -79.07503603827624 L 2505.302231782794 -73.01494276430842 L 2508.4527852718643 -66.66567929337657 L 2511.009105293114 -60.075123555598665 L 2512.9325593409217 -53.294159897874565 L 2514.183398840563 -46.37728899196449 L 2514.719937791833 -39.383404389230314 L 2514.497488188449 -32.376804842468204 L 2513.4669546522664 -25.42854011449613 L 2511.572946847933 -18.618231888758153 L 2508.7511997585693 -12.036579903836637 L 2504.924982745099 -5.788872612737373 L 2500.0 0.0 M 2800.0 0.0 L 2807.4633982959826 5.928920901312819 L 2813.4302657719563 12.554458806050949 L 2818.0413551017637 19.697618319100567 L 2821.4106128470276 27.20875561142536 L 2823.6328322672107 34.96003402143559 L 2824.789044602718 42.840133123611416 L 2824.950394900104 50.75046489055498 L 2824.1809809765036 58.602418071991764 L 2822.5399703793464 66.31531568154418 L 2820.08320746588 73.81487324067092 L 2816.8644569129287 81.0320112709492 L 2812.9363870985844 87.90191842293092 L 2808.351368574788 94.36328988136961 L 2803.1621442499913 100.35768431562025 L 2797.42241585218 105.82895472253814 L 2791.1873838760675 110.72271590550476 L 2784.5142744465816 114.9858151349078 L 2777.462885814089 118.56577328214996 L 2770.096189432334 121.41016151377545 L 2762.4810260711797 123.46587316114125 L 2754.688946976119 124.67824085088775 L 2746.7972651443943 124.98993395305823 L 2738.890404744516 124.33954847578431 L 2731.061671488063 122.65976678196927 L 2723.415619813795 119.87491148024424 L 2716.0712748036476 115.89763581033046 L 2709.1665961054105 110.62436351433993 L 2702.8647797498047 103.92888259847346 L 2697.1352202501953 103.92888259847342 L 2690.8334038945895 110.62436351433995 L 2683.9287251963524 115.89763581033044 L 2676.584380186205 119.87491148024426 L 2668.938328511937 122.65976678196924 L 2661.109595255484 124.33954847578428 L 2653.2027348556057 124.98993395305821 L 2645.311053023881 124.67824085088773 L 2637.5189739288203 123.46587316114125 L 2629.903810567666 121.41016151377548 L 2622.537114185911 118.56577328214999 L 2615.4857255534184 114.9858151349078 L 2608.8126161239325 110.72271590550471 L 2602.57758414782 105.82895472253813 L 2596.8378557500087 100.35768431562022 L 2591.648631425212 94.36328988136965 L 2587.0636129014156 87.90191842293095 L 2583.1355430870713 81.03201127094917 L 2579.91679253412 73.8148732406709 L 2577.4600296206536 66.3153156815442 L 2575.8190190234964 58.6024180719918 L 2575.0496050998954 50.75046489055501 L 2575.210955397282 42.840133123611444 L 2576.3671677327893 34.960034021435604 L 2578.5893871529724 27.20875561142531 L 2581.9586448982363 19.697618319100535 L 2586.5697342280437 12.554458806050965 L 2592.5366017040174 5.928920901312836 L 2600.0 1.2246467991473538e-14 L 2592.5366017040174 -5.9289209013128055 L 2586.5697342280437 -12.554458806050933 L 2581.9586448982363 -19.697618319100616 L 2578.5893871529724 -27.208755611425346 L 2576.3671677327893 -34.960034021435575 L 2575.210955397282 -42.84013312361141 L 2575.049605099896 -50.750464890554966 L 2575.8190190234964 -58.60241807199175 L 2577.4600296206536 -66.31531568154418 L 2579.91679253412 -73.81487324067098 L 2583.1355430870713 -81.0320112709492 L 2587.0636129014156 -87.9019184229309 L 2591.648631425212 -94.3632898813696 L 2596.8378557500087 -100.35768431562025 L 2602.57758414782 -105.8289547225381 L 2608.8126161239325 -110.72271590550476 L 2615.4857255534184 -114.98581513490777 L 2622.537114185911 -118.56577328214996 L 2629.903810567666 -121.41016151377542 L 2637.5189739288203 -123.46587316114125 L 2645.311053023881 -124.67824085088772 L 2653.2027348556057 -124.98993395305821 L 2661.109595255484 -124.33954847578428 L 2668.938328511937 -122.65976678196924 L 2676.584380186205 -119.87491148024424 L 2683.9287251963524 -115.89763581033044 L 2690.8334038945895 -110.62436351433996 L 2697.1352202501953 -103.92888259847342 L 2702.8647797498047 -103.92888259847338 L 2709.1665961054105 -110.62436351433995 L 2716.071274803647 -115.8976358103304 L 2723.415619813795 -119.87491148024426 L 2731.061671488063 -122.65976678196917 L 2738.890404744516 -124.33954847578426 L 2746.7972651443943 -124.98993395305823 L 2754.688946976119 -124.67824085088775 L 2762.4810260711797 -123.46587316114119 L 2770.096189432334 -121.41016151377544 L 2777.4628858140886 -118.56577328214999 L 2784.5142744465816 -114.98581513490782 L 2791.1873838760675 -110.72271590550477 L 2797.42241585218 -105.82895472253807 L 2803.1621442499913 -100.35768431562025 L 2808.351368574788 -94.36328988136958 L 2812.9363870985844 -87.90191842293095 L 2816.8644569129287 -81.0320112709493 L 2820.08320746588 -73.81487324067095 L 2822.5399703793464 -66.31531568154428 L 2824.1809809765036 -58.60241807199169 L 2824.9503949001046 -50.750464890554966 L 2824.789044602718 -42.840133123611324 L 2823.6328322672107 -34.96003402143556 L 2821.4106128470276 -27.208755611425392 L 2818.0413551017637 -19.697618319100545 L 2813.4302657719563 -12.554458806050977 L 2807.4633982959826 -5.928920901312797 L 2800.0 0.0 M 3100.0 0.0 L 3115.0786449486336 6.349065767039094 L 3127.467463812118 14.108095512693968 L 3137.4465798632546 22.935777610127747 L 3145.2415874313115 32.54940210221314 L 3151.0388645034964 42.70972155833768 L 3154.996365035373 53.21031932675449 L 3157.2513830787284 63.869992586326404 L 3157.926245883249 74.52719259434316 L 3157.132565638044 85.03589205938101 L 3154.9744740479277 95.26245508255406 L 3151.551132303333 105.08321679087177 L 3146.9587232575295 114.38256557689505 L 3141.2920761718865 123.05137735796578 L 3134.6460371831377 130.98568852184093 L 3127.116674541786 138.0855183777631 L 3118.802392931138 144.25376671937744 L 3109.8050236266654 149.3951197037178 L 3100.230955815935 153.41489873804707 L 3090.1923788646686 156.21778264910702 L 3079.8087163112705 157.70632246044306 L 3069.208351486941 157.77914903626976 L 3058.530774769513 156.32874378641097 L 3047.929328388863 153.23859676361786 L 3037.5747942620465 148.37950697000548 L 3027.660176435216 141.60467363524668 L 3018.407193825454 132.74306315691058 L 3010.0752576635878 121.59027772801286 L 3002.9741252627937 107.89573449445179 L 2997.0258747372063 107.8957344944517 L 2989.924742336412 121.59027772801291 L 2981.592806174546 132.74306315691052 L 2972.339823564784 141.60467363524674 L 2962.4252057379535 148.37950697000542 L 2952.070671611137 153.23859676361783 L 2941.469225230487 156.32874378641094 L 2930.791648513059 157.7791490362697 L 2920.1912836887295 157.7063224604431 L 2909.807621135332 156.21778264910708 L 2899.769044184065 153.41489873804713 L 2890.1949763733346 149.3951197037178 L 2881.197607068862 144.25376671937735 L 2872.883325458214 138.0855183777631 L 2865.3539628168623 130.98568852184093 L 2858.7079238281135 123.05137735796583 L 2853.0412767424705 114.38256557689508 L 2848.448867696667 105.08321679087172 L 2845.0255259520723 95.26245508255404 L 2842.867434361956 85.03589205938103 L 2842.073754116751 74.52719259434322 L 2842.7486169212716 63.869992586326454 L 2845.003634964627 53.21031932675452 L 2848.9611354965036 42.7097215583377 L 2854.7584125686885 32.549402102213065 L 2862.5534201367454 22.935777610127708 L 2872.532536187882 14.108095512693986 L 2884.9213550513664 6.3490657670391135 L 2900.0 1.224646799147354e-14 L 2884.9213550513664 -6.349065767039078 L 2872.532536187882 -14.108095512693946 L 2862.553420136745 -22.93577761012781 L 2854.7584125686885 -32.54940210221312 L 2848.9611354965036 -42.70972155833766 L 2845.003634964627 -53.21031932675447 L 2842.7486169212716 -63.8699925863264 L 2842.073754116751 -74.52719259434315 L 2842.867434361956 -85.03589205938098 L 2845.0255259520723 -95.26245508255414 L 2848.448867696667 -105.08321679087177 L 2853.0412767424705 -114.38256557689505 L 2858.7079238281135 -123.05137735796576 L 2865.3539628168623 -130.98568852184093 L 2872.883325458214 -138.08551837776304 L 2881.197607068862 -144.25376671937744 L 2890.1949763733346 -149.3951197037178 L 2899.769044184065 -153.41489873804707 L 2909.8076211353314 -156.217782649107 L 2920.1912836887295 -157.70632246044306 L 2930.791648513059 -157.77914903626967 L 2941.469225230487 -156.32874378641094 L 2952.070671611137 -153.2385967636178 L 2962.4252057379535 -148.37950697000542 L 2972.339823564784 -141.60467363524668 L 2981.592806174546 -132.74306315691052 L 2989.924742336412 -121.59027772801294 L 2997.0258747372063 -107.8957344944517 L 3002.9741252627937 -107.89573449445162 L 3010.075257663588 -121.59027772801291 L 3018.4071938254538 -132.74306315691047 L 3027.660176435216 -141.60467363524674 L 3037.5747942620465 -148.3795069700053 L 3047.929328388863 -153.23859676361775 L 3058.530774769513 -156.328743786411 L 3069.208351486941 -157.77914903626976 L 3079.8087163112705 -157.706322460443 L 3090.1923788646686 -156.21778264910702 L 3100.230955815935 -153.4148987380471 L 3109.8050236266654 -149.39511970371782 L 3118.802392931138 -144.25376671937744 L 3127.116674541786 -138.085518377763 L 3134.6460371831377 -130.98568852184093 L 3141.2920761718865 -123.05137735796575 L 3146.9587232575295 -114.3825655768951 L 3151.551132303333 -105.0832167908719 L 3154.9744740479277 -95.26245508255411 L 3157.132565638044 -85.03589205938114 L 3157.926245883249 -74.52719259434306 L 3157.2513830787284 -63.86999258632639 L 3154.996365035373 -53.210319326754366 L 3151.0388645034964 -42.70972155833765 L 3145.2415874313115 -32.54940210221318 L 3137.4465798632546 -22.93577761012772 L 3127.467463812118 -14.108095512694 L 3115.0786449486336 -6.349065767039069 L 3100.0 0.0" fill="grey" stroke="black" /></svg>