<?xml version="1.0" encoding="utf-8" ?>
<svg baseProfile="full" height="200" version="1.1" viewBox="-200 -200 4400 200" width="4400" xmlns="http://www.w3.org/2000/svg" xmlns:ev="http://www.w3.org/2001/xml-events" xmlns:xlink="http://www.w3.org/1999/xlink"><defs /><path d="M 100.0 0.0 L 61.61863914461081 4.3573687588517895 L 30.304923936993347 4.307572536334192 L 4.992288416818496 1.0734287290888105 L -15.131729278628228 -4.390382181507547 L -30.709552014388876 -11.313960055404152 L -42.268404129691305 -19.0579797073905 L -50.257276362405946 -27.077284463415808 L -55.072643128564394 -34.8956479749262 L -57.0769592325748 -42.087674828766225 L -56.612482513533 -48.26529146781389 L -54.01210744790072 -53.067140839905974 L -49.608392093983426 -56.14969725247934 L -43.74167927212144 -57.179199832583436 L -36.768081129202855 -55.82363517143558 L -29.068082473203205 -51.74401393118022 L -21.056619185819464 -44.584085703910944 L -13.1957276683763 -33.95739719768474 L -6.011299392656031 -19.430161134443637 L -0.1162285855997709 -0.49764970685362186 L 3.7564673587217623 23.44946471332871 L 4.704721757466221 53.17465191308841 L 1.5828004672333937 89.670832492703 L -3.7364729616604953 70.50251397736885 L -4.660935218595096 37.53423997688613 L -2.124616255909034 10.805702774765194 L 2.8600737901181432 -10.54971172392699 L 9.483017154088294 -27.210896208694606 L 17.076213405968996 -39.72985075585474 L 25.073682285903985 -48.572357901654755 L 32.98388835569704 -54.14605717080731 L 40.37014037010361 -56.82046367041919 L 46.836118831913794 -56.94177520304981 L 52.014670772282784 -54.844327190142984 L 55.55858715174742 -50.85997876637894 L 57.13240681474512 -45.32638529761081 L 56.404456300887595 -38.59494763814457 L 53.03837717685636 -31.039186517959315 L 46.68332185877948 -23.06436157963868 L 36.961798322146976 -15.119355590315216 L 23.45376422887412 -7.712224649518376 L 5.674911993559235 -1.4314746427848135 L -16.95404099357343 3.023748091974424 L -45.152198193300286 4.799408092912203 L -79.84609487919953 2.819642036885047 L -79.84609487919961 -2.81964203688503 L -45.152198193300435 -4.799408092912208 L -16.954040993573685 -3.0237480919744666 L 5.674911993559235 1.4314746427848135 L 23.45376422887415 7.712224649518394 L 36.96179832214709 15.11935559031529 L 46.68332185877958 23.064361579638735 L 53.03837717685646 31.039186517959394 L 56.4044563008876 38.59494763814455 L 57.1324068147451 45.32638529761083 L 55.558587151747425 50.85997876637891 L 52.01467077228274 54.844327190142934 L 46.83611883191385 56.94177520304992 L 40.37014037010362 56.82046367041919 L 32.98388835569693 54.1460571708072 L 25.073682285904 48.572357901654755 L 17.07621340596895 39.72985075585467 L 9.483017154088248 27.210896208694507 L 2.8600737901181184 10.549711723926947 L -2.124616255909036 -10.805702774765194 L -4.660935218595085 -37.53423997688596 L -3.736472961660493 -70.50251397736876 L 1.5828004672334102 -89.67083249270291 L 4.70472175746621 -53.17465191308858 L 3.756467358721757 -23.449464713328723 L -0.1162285855997709 0.49764970685362186 L -6.011299392656031 19.430161134443637 L -13.195727668376232 33.95739719768463 L -21.056619185819414 44.5840857039109 L -29.068082473203226 51.74401393118028 L -36.768081129202955 55.82363517143563 L -43.741679272121466 57.17919983258345 L -49.60839209398347 56.14969725247935 L -54.01210744790067 53.06714083990587 L -56.61248251353304 48.26529146781388 L -57.07695923257476 42.08767482876621 L -55.072643128564465 34.895647974926234 L -50.25727636240593 27.07728446341578 L -42.26840412969129 19.05797970739047 L -30.709552014388805 11.31396005540413 L -15.131729278628242 4.390382181507558 L 4.992288416818511 -1.073428729088814 L 30.304923936993433 -4.3075725363341935 L 61.618639144610555 -4.357368758851795 L 100.0 0.0 M 400.0 0.0 L 377.50708221563815 5.480921736093167 L 358.9298935680151 8.376354668648718 L 343.64781924313223 9.385039329821433 L 331.1894956851243 9.04944858480777 L 321.1837598050744 7.804484160029091 L 313.327640852536 6.009167228923115 L 307.364774741642 3.967944845447125 L 303.0703746689575 1.9454797792971874 L 300.24040903330325 0.17727393602621078 L 298.68350135714604 -1.1223883478195162 L 298.2145694647404 -1.7541936086437744 L 298.64951439754304 -1.5285590707743992 L 299.8004337714666 -0.26087332381904815 L 301.47091115150005 2.2332306981807264 L 303.45094106589096 6.143010731917315 L 305.5109904277043 11.668657127430485 L 307.39455735301726 19.028880213952213 L 308.8083328111875 28.470936925262684 L 309.4086307467796 40.28443010699374 L 308.78199891110035 54.82096712492488 L 306.41660817367205 72.52307866160528 L 301.6586536326832 93.96816284728502 L 295.6152468506913 82.73474032020593 L 292.1464658351046 63.2440534328452 L 290.72205445865734 47.18721397399447 L 290.76590737888387 34.06101462186132 L 291.8197236200511 23.47276693865964 L 293.5078333880406 15.104801307128739 L 295.5137383243569 8.690718230577524 L 297.5639578487032 3.998985085451004 L 299.4165294559132 0.8212274356518066 L 300.8525028167189 -1.0364442007628512 L 301.6693424402538 -1.7601565409591302 L 301.6754898493267 -1.5337931097364361 L 300.6855278514408 -0.5438682047371657 L 298.51548593831035 1.0157839687942953 L 294.9778505393294 2.939068691921541 L 289.8758025973368 5.001960878127768 L 282.99608791411816 6.955510957887089 L 274.099704102552 8.516709663355705 L 262.90920353908086 9.35601022090885 L 249.09075409284952 9.07964863562345 L 232.22795872024224 7.2037618633484914 L 211.7824003928845 3.115268850926806 L 211.78240039288448 -3.115268850926786 L 232.22795872024216 -7.203761863348484 L 249.09075409284938 -9.079648635623464 L 262.90920353908086 -9.356010220908841 L 274.099704102552 -8.516709663355702 L 282.9960879141183 -6.955510957887068 L 289.87580259733693 -5.001960878127743 L 294.97785053932944 -2.9390686919215057 L 298.51548593831035 -1.0157839687942953 L 300.6855278514408 0.5438682047371657 L 301.6754898493267 1.533793109736429 L 301.66934244025373 1.7601565409590947 L 300.852502816719 1.036444200762908 L 299.4165294559132 -0.8212274356517995 L 297.5639578487031 -3.998985085451082 L 295.5137383243569 -8.690718230577517 L 293.5078333880406 -15.104801307128781 L 291.8197236200511 -23.472766938659696 L 290.76590737888387 -34.061014621861354 L 290.72205445865734 -47.18721397399447 L 292.1464658351046 -63.2440534328451 L 295.6152468506913 -82.73474032020587 L 301.6586536326832 -93.96816284728497 L 306.416608173672 -72.52307866160538 L 308.78199891110035 -54.82096712492489 L 309.4086307467796 -40.28443010699374 L 308.8083328111875 -28.470936925262684 L 307.39455735301726 -19.02888021395229 L 305.5109904277043 -11.66865712743052 L 303.45094106589096 -6.143010731917286 L 301.47091115150005 -2.2332306981806767 L 299.8004337714666 0.26087332381906236 L 298.649514397543 1.5285590707744134 L 298.21456946474046 1.7541936086437317 L 298.68350135714604 1.1223883478195305 L 300.2404090333033 -0.177273936026225 L 303.07037466895747 -1.945479779297166 L 307.364774741642 -3.9679448454471284 L 313.327640852536 -6.009167228923118 L 321.18375980507443 -7.804484160029112 L 331.1894956851243 -9.049448584807767 L 343.64781924313223 -9.385039329821433 L 358.92989356801513 -8.376354668648705 L 377.507082215638 -5.480921736093189 L 400.0 0.0 M 700.0 0.0 L 680.6847708298436 5.705632331541443 L 664.6548874942193 9.190111095111623 L 651.3789254083949 11.047361449967958 L 640.4537406778749 11.737414738070834 L 631.562422168967 11.62817300311574 L 624.4468498489814 11.022596616185837 L 618.8891849624516 10.176990707219712 L 614.6989782284619 9.313705330141865 L 611.7038826864789 8.630263688984698 L 609.7426981312819 8.30619227617936 L 608.6599048472686 8.508395837608667 L 608.3010956958483 9.395668565566588 L 608.5088563801842 11.12279197793383 L 609.1187096076407 13.844603872103988 L 609.9547457737099 17.720415664536816 L 610.8245123504091 22.91920569369877 L 611.512614357296 29.626135696279604 L 611.7722592519561 38.051156537203944 L 611.3136026132554 48.44084606976321 L 609.7871052215761 61.09526760724411 L 606.7589854569133 76.39276401130866 L 601.6738242657731 94.82762891820143 L 595.4855908131616 85.18118558877335 L 591.5079460458445 68.38601612403701 L 589.2913886015706 54.46351621384032 L 588.347074096637 42.983159891018985 L 588.2870649132436 33.60949956813049 L 588.7941573844549 26.071731719725435 L 589.6017495320475 20.143333457023985 L 590.4799717473044 15.627993536702668 L 591.2258072730751 12.349565656866005 L 591.65577961368 10.144621999694536 L 591.600276773848 8.856677588877638 L 590.8988703888426 8.331444021592063 L 589.3961520587799 8.412635213837568 L 586.9376918657949 8.93793029018207 L 583.365745211824 9.734719733897716 L 578.5142987450483 10.615225369681056 L 572.2029458325125 11.370484267527551 L 564.2288920772875 11.762496525930521 L 554.3560618481852 11.513507193647582 L 542.2997131101341 10.290828744353256 L 527.7039901029508 7.684632617435749 L 510.10809944730136 3.1743942137351575 L 510.1080994473013 -3.1743942137351366 L 527.7039901029507 -7.684632617435739 L 542.299713110134 -10.290828744353263 L 554.3560618481852 -11.513507193647571 L 564.2288920772876 -11.762496525930521 L 572.2029458325125 -11.370484267527537 L 578.5142987450483 -10.615225369681038 L 583.365745211824 -9.734719733897688 L 586.9376918657949 -8.937930290182063 L 589.39615205878 -8.412635213837568 L 590.8988703888426 -8.33144402159207 L 591.6002767738479 -8.856677588877673 L 591.65577961368 -10.144621999694493 L 591.2258072730751 -12.349565656865998 L 590.4799717473044 -15.62799353670274 L 589.6017495320475 -20.14333345702397 L 588.7941573844549 -26.071731719725477 L 588.2870649132436 -33.60949956813053 L 588.347074096637 -42.983159891019014 L 589.2913886015706 -54.46351621384032 L 591.5079460458445 -68.38601612403693 L 595.4855908131616 -85.1811855887733 L 601.6738242657732 -94.82762891820138 L 606.7589854569131 -76.39276401130874 L 609.7871052215761 -61.095267607244125 L 611.3136026132554 -48.44084606976321 L 611.7722592519561 -38.051156537203944 L 611.512614357296 -29.626135696279675 L 610.8245123504091 -22.919205693698807 L 609.9547457737098 -17.720415664536795 L 609.1187096076407 -13.844603872103939 L 608.5088563801842 -11.122791977933815 L 608.3010956958483 -9.39566856556658 L 608.6599048472686 -8.508395837608695 L 609.7426981312819 -8.306192276179345 L 611.7038826864789 -8.63026368898472 L 614.6989782284619 -9.313705330141847 L 618.8891849624516 -10.176990707219709 L 624.4468498489815 -11.022596616185837 L 631.562422168967 -11.628173003115762 L 640.4537406778749 -11.73741473807083 L 651.3789254083949 -11.047361449967957 L 664.6548874942195 -9.19011109511161 L 680.6847708298435 -5.705632331541467 L 700.0 0.0 M 1000.0 0.0 L 987.0401480582545 6.155053522437995 L 976.1048753466281 10.817623948037433 L 966.8411377389205 14.372005690261007 L 958.9822306633758 17.11334704459696 L 952.3197468967523 19.275550689289037 L 946.6852678418724 21.049455390711284 L 941.9380054040707 22.595082430764883 L 937.9561853474706 24.05015643183122 L 934.6308299928301 25.536243194901672 L 931.8610916795535 27.163353524177108 L 929.5505756123251 29.033574730113546 L 927.6042582924589 31.244123838248566 L 925.9257015976194 33.890122581439584 L 924.4143065199218 37.06735021995051 L 922.9623551893475 40.87522552977583 L 921.4515561958186 45.42030282623534 L 919.7487283658534 50.820646660934386 L 917.7001121334936 57.21159576108647 L 915.1235463462071 64.75367799530216 L 911.7973178425275 73.64386857188258 L 907.4437400233955 84.1321347107154 L 901.7041655319531 96.54656106003424 L 895.2262787381023 90.07407612590818 L 890.2309064673244 78.66994150642064 L 886.4300568873972 69.01612069353203 L 883.5094075321433 60.827450429334306 L 881.2217474996288 53.882964827072186 L 879.3668053772835 48.00559254491883 L 877.7777719474286 43.04856390991689 L 876.3119995445069 38.88601043920599 L 874.8443629073989 35.4062420992944 L 873.2623332076021 32.506754400609324 L 871.4621454410363 30.09034584855118 L 869.3456314678743 28.061918284249064 L 866.8174004734582 26.325642050987025 L 863.7821037207641 24.782222932957616 L 860.1415345568132 23.326021817850055 L 855.7912910404713 21.841754352787635 L 850.6166616693009 20.200430886808473 L 844.4872680267587 18.254070251080154 L 837.2497784663939 15.828501139125049 L 828.7176311447033 12.713188961812865 L 818.6560528683677 8.646374125610265 L 806.759497556135 3.2926449393518613 L 806.7594975561349 -3.292644939351839 L 818.6560528683677 -8.646374125610249 L 828.7176311447032 -12.713188961812863 L 837.2497784663939 -15.828501139125034 L 844.4872680267587 -18.254070251080158 L 850.6166616693009 -20.200430886808483 L 855.7912910404713 -21.841754352787632 L 860.1415345568132 -23.326021817850048 L 863.7821037207641 -24.782222932957602 L 866.8174004734582 -26.32564205098703 L 869.3456314678743 -28.06191828424906 L 871.4621454410363 -30.09034584855121 L 873.2623332076021 -32.506754400609296 L 874.8443629073989 -35.40624209929439 L 876.3119995445069 -38.886010439206046 L 877.7777719474286 -43.04856390991688 L 879.3668053772835 -48.005592544918855 L 881.2217474996288 -53.882964827072215 L 883.5094075321433 -60.827450429334334 L 886.4300568873972 -69.01612069353203 L 890.2309064673244 -78.66994150642059 L 895.2262787381023 -90.07407612590815 L 901.7041655319531 -96.54656106003421 L 907.4437400233955 -84.13213471071546 L 911.7973178425275 -73.64386857188259 L 915.1235463462071 -64.75367799530216 L 917.7001121334936 -57.21159576108647 L 919.7487283658534 -50.82064666093444 L 921.4515561958185 -45.42030282623537 L 922.9623551893475 -40.87522552977582 L 924.4143065199219 -37.06735021995046 L 925.9257015976194 -33.89012258143957 L 927.6042582924589 -31.24412383824855 L 929.5505756123251 -29.03357473011355 L 931.8610916795535 -27.163353524177083 L 934.6308299928302 -25.53624319490169 L 937.9561853474706 -24.050156431831205 L 941.9380054040707 -22.595082430764872 L 946.6852678418724 -21.049455390711273 L 952.3197468967523 -19.27555068928906 L 958.9822306633758 -17.11334704459696 L 966.8411377389205 -14.372005690261005 L 976.1048753466281 -10.817623948037413 L 987.0401480582544 -6.155053522438024 L 1000.0 0.0 M 1300.0 0.0 L 1290.21783667246 6.37976411788627 L 1281.8298692728324 11.631380374500338 L 1274.572243904183 16.034327810407532 L 1268.2464756561264 19.801313197860026 L 1262.698409260645 23.099239532375684 L 1257.804476838318 26.062884777974006 L 1253.4624156248804 28.80412829253747 L 1249.584788906975 31.418381982675896 L 1246.0943036460058 33.98923294786016 L 1242.9202884536894 36.59193414817598 L 1239.9959109948534 39.296164176365984 L 1237.2558395907643 42.16835147458956 L 1234.634124206337 45.27378788319246 L 1232.0621049760623 48.678723393873774 L 1229.4661598971663 52.45263046239534 L 1226.7650781185234 56.67085139250363 L 1223.8667853701322 61.41790214326178 L 1220.6640385742623 66.79181537302775 L 1217.0285182126831 72.91009395807163 L 1212.8024241530031 79.91816905420181 L 1207.7861173066367 88.00182006041878 L 1201.719336165043 97.40602713095063 L 1195.0966227005727 92.5205213944756 L 1189.5923866780643 83.81190419761245 L 1184.9993910303106 76.29242293337788 L 1181.0905742498965 69.74959569849196 L 1177.6890887928214 64.01969745654304 L 1174.653129373698 58.97252295751552 L 1171.8657831551193 54.50117913636335 L 1169.228013443108 50.515018890457654 L 1166.6536407245608 46.9345803205086 L 1164.065610004563 43.68782060106671 L 1161.3930797746305 40.707179978387956 L 1158.5690120073903 37.927155415577566 L 1155.5280246807974 35.282145469561755 L 1152.2043096482487 32.70436925434539 L 1148.5294292293079 30.121672859826226 L 1144.4297871881827 27.455018844340927 L 1139.823519587695 24.615404196448935 L 1134.6164560014943 21.49985711365497 L 1128.6966367754983 17.98599811186378 L 1121.9265901619879 13.92436907054267 L 1114.1320842510763 9.127244879697523 L 1105.0851966105517 3.351770302160213 L 1105.0851966105517 -3.35177030216019 L 1114.1320842510763 -9.127244879697505 L 1121.9265901619879 -13.924369070542662 L 1128.696636775498 -17.985998111863765 L 1134.6164560014943 -21.49985711365498 L 1139.8235195876953 -24.615404196448953 L 1144.4297871881827 -27.455018844340927 L 1148.5294292293079 -30.121672859826226 L 1152.2043096482487 -32.70436925434537 L 1155.5280246807974 -35.28214546956176 L 1158.5690120073903 -37.92715541557756 L 1161.3930797746305 -40.70717997838798 L 1164.065610004563 -43.687820601066704 L 1166.6536407245608 -46.93458032050859 L 1169.228013443108 -50.5150188904577 L 1171.8657831551193 -54.501179136363334 L 1174.653129373698 -58.972522957515544 L 1177.6890887928214 -64.01969745654306 L 1181.0905742498965 -69.74959569849199 L 1184.9993910303106 -76.29242293337788 L 1189.5923866780643 -83.81190419761242 L 1195.0966227005727 -92.52052139447557 L 1201.719336165043 -97.40602713095062 L 1207.7861173066367 -88.00182006041882 L 1212.8024241530031 -79.91816905420183 L 1217.0285182126831 -72.91009395807163 L 1220.6640385742623 -66.79181537302775 L 1223.866785370132 -61.41790214326183 L 1226.7650781185232 -56.67085139250366 L 1229.4661598971663 -52.452630462395334 L 1232.0621049760625 -48.678723393873724 L 1234.634124206337 -45.27378788319245 L 1237.2558395907643 -42.168351474589535 L 1239.9959109948534 -39.29616417636598 L 1242.9202884536894 -36.59193414817595 L 1246.0943036460058 -33.989232947860174 L 1249.584788906975 -31.418381982675886 L 1253.4624156248804 -28.804128292537456 L 1257.804476838318 -26.062884777973988 L 1262.698409260645 -23.099239532375705 L 1268.2464756561264 -19.801313197860026 L 1274.5722439041833 -16.03432781040753 L 1281.8298692728324 -11.631380374500317 L 1290.21783667246 -6.379764117886303 L 1300.0 0.0 M 1600.0 0.0 L 1593.3955252866654 6.604474713334546 L 1587.5548631990368 12.445136800963244 L 1582.303350069446 17.696649930554056 L 1577.510720648877 22.489279351123088 L 1573.0770716245377 26.922928375462334 L 1568.9236858347633 31.07631416523673 L 1564.98682584569 35.01317415431006 L 1561.2133924664795 38.786607533520574 L 1557.5577772991815 42.44222270081865 L 1553.979485227825 46.020514772174856 L 1550.4412463773815 49.558753622618426 L 1546.9074208890695 53.092579110930544 L 1543.3425468150547 56.65745318494534 L 1539.709903432203 60.290096567797036 L 1535.969964604985 64.03003539501485 L 1532.0786000412281 67.92139995877191 L 1527.9848423744108 72.01515762558917 L 1523.627965015031 76.372034984969 L 1518.933490079159 81.0665099208411 L 1513.807530463479 86.19246953652105 L 1508.1284945898778 91.87150541012215 L 1501.734506798133 98.26549320186705 L 1494.966966663043 94.96696666304301 L 1488.9538668888042 88.95386688880427 L 1483.5687251732238 83.56872517322374 L 1478.6717409676496 78.67174096764963 L 1474.1564300860139 74.15643008601388 L 1469.9394533701122 69.93945337011222 L 1465.9537943628097 65.9537943628098 L 1462.1440273417093 62.14402734170932 L 1458.4629185417227 58.4629185417228 L 1454.868886801524 54.868886801524106 L 1451.3240141082247 51.32401410822472 L 1447.792392546906 47.792392546906065 L 1444.2386488881364 44.23864888813648 L 1440.6265155757333 40.62651557573316 L 1436.9173239018023 36.9173239018024 L 1433.0682833358942 33.068283335894215 L 1429.0303775060893 29.030377506089394 L 1424.7456439762298 24.745643976229786 L 1420.1434950846026 20.143495084602513 L 1415.1355491792724 15.135549179272475 L 1409.6081156337848 9.60811563378478 L 1403.4108956649686 3.4108956649685647 L 1403.4108956649686 -3.410895664968541 L 1409.6081156337848 -9.60811563378476 L 1415.1355491792724 -15.135549179272461 L 1420.1434950846026 -20.143495084602495 L 1424.7456439762298 -24.745643976229797 L 1429.0303775060895 -29.030377506089426 L 1433.0682833358942 -33.06828333589422 L 1436.9173239018023 -36.917323901802405 L 1440.6265155757333 -40.626515575733144 L 1444.2386488881366 -44.238648888136495 L 1447.792392546906 -47.79239254690605 L 1451.3240141082247 -51.324014108224745 L 1454.868886801524 -54.868886801524106 L 1458.4629185417227 -58.462918541722786 L 1462.1440273417093 -62.14402734170936 L 1465.9537943628097 -65.95379436280979 L 1469.9394533701122 -69.93945337011223 L 1474.1564300860139 -74.1564300860139 L 1478.6717409676496 -78.67174096764965 L 1483.5687251732238 -83.56872517322374 L 1488.9538668888042 -88.95386688880424 L 1494.966966663043 -94.966966663043 L 1501.734506798133 -98.26549320186703 L 1508.1284945898778 -91.87150541012218 L 1513.807530463479 -86.19246953652106 L 1518.933490079159 -81.0665099208411 L 1523.627965015031 -76.372034984969 L 1527.9848423744108 -72.01515762558921 L 1532.0786000412281 -67.92139995877194 L 1535.969964604985 -64.03003539501485 L 1539.709903432203 -60.29009656779699 L 1543.3425468150547 -56.657453184945325 L 1546.9074208890695 -53.09257911093052 L 1550.4412463773815 -49.558753622618404 L 1553.979485227825 -46.02051477217482 L 1557.5577772991815 -42.44222270081866 L 1561.2133924664795 -38.78660753352057 L 1564.98682584569 -35.013174154310036 L 1568.9236858347633 -31.076314165236706 L 1573.0770716245377 -26.922928375462355 L 1577.510720648877 -22.48927935112309 L 1582.303350069446 -17.696649930554052 L 1587.5548631990368 -12.445136800963219 L 1593.3955252866654 -6.604474713334581 L 1600.0 0.0 M 1900.0 0.0 L 1896.573213900871 6.829185308782821 L 1893.279857125241 13.25889322742615 L 1890.0344562347086 19.35897205070058 L 1886.7749656416274 25.17724550438615 L 1883.4557339884302 30.746617218548984 L 1880.0428948312087 36.089743552499456 L 1876.5112360664996 41.222220016082645 L 1872.841996025984 46.15483308436525 L 1869.021250952357 50.895212453777134 L 1865.038682001961 55.44909539617373 L 1860.8865817599099 59.82134306887087 L 1856.5590021873747 64.01680674727153 L 1852.0509694237724 68.04111848669822 L 1847.3577018883436 71.90146974172029 L 1842.473769312804 75.60744032763435 L 1837.3921219639328 79.1719485250402 L 1832.1028993786895 82.61241310791655 L 1826.5918914557997 85.95225459691027 L 1820.8384619456347 89.22292588361057 L 1814.8126367739546 92.46677001884028 L 1808.470871873119 95.74119075982553 L 1801.7496774312228 99.12495927278346 L 1794.8373106255133 97.41341193161043 L 1788.3153470995442 94.09582957999609 L 1782.138059316137 90.8450274130696 L 1776.2529076854028 87.5938862368073 L 1770.6237713792063 84.29316271548473 L 1765.2257773665265 80.90638378270891 L 1760.0418055705004 77.40640958925626 L 1755.0600412403105 73.77303579296098 L 1750.2721963588847 69.991256762937 L 1745.6721635984852 66.04995300198149 L 1741.254948441819 61.94084823806149 L 1737.0157730864219 57.657629678234564 L 1732.9492730954755 53.19515230671121 L 1729.0487215032176 48.54866189712093 L 1725.305218574297 43.71297494377857 L 1721.7067794836057 38.6815478274475 L 1718.2372354244835 33.44535081572985 L 1714.8748319509655 27.991430838804604 L 1711.590353393707 22.300992057341247 L 1708.3445081965572 16.34672928800228 L 1705.0841470164933 10.088986387872039 L 1701.7365947193853 3.4700210277769163 L 1701.7365947193853 -3.4700210277768924 L 1705.0841470164933 -10.088986387872014 L 1708.344508196557 -16.346729288002262 L 1711.590353393707 -22.300992057341226 L 1714.8748319509655 -27.991430838804614 L 1718.2372354244837 -33.445350815729896 L 1721.7067794836057 -38.68154782744752 L 1725.305218574297 -43.71297494377858 L 1729.0487215032176 -48.548661897120915 L 1732.9492730954757 -53.19515230671123 L 1737.0157730864219 -57.65762967823454 L 1741.254948441819 -61.94084823806151 L 1745.6721635984852 -66.0499530019815 L 1750.2721963588847 -69.99125676293698 L 1755.0600412403105 -73.77303579296101 L 1760.0418055705004 -77.40640958925624 L 1765.2257773665265 -80.90638378270893 L 1770.6237713792066 -84.29316271548474 L 1776.2529076854028 -87.59388623680732 L 1782.138059316137 -90.8450274130696 L 1788.3153470995442 -94.09582957999606 L 1794.8373106255133 -97.41341193161043 L 1801.7496774312228 -99.12495927278344 L 1808.470871873119 -95.74119075982554 L 1814.8126367739546 -92.4667700188403 L 1820.8384619456347 -89.22292588361057 L 1826.5918914557997 -85.95225459691027 L 1832.1028993786895 -82.6124131079166 L 1837.3921219639328 -79.17194852504022 L 1842.473769312804 -75.60744032763436 L 1847.3577018883436 -71.90146974172025 L 1852.0509694237724 -68.0411184866982 L 1856.5590021873747 -64.0168067472715 L 1860.8865817599099 -59.82134306887083 L 1865.038682001961 -55.44909539617369 L 1869.021250952357 -50.89521245377715 L 1872.841996025984 -46.154833084365244 L 1876.5112360664996 -41.222220016082616 L 1880.0428948312087 -36.08974355249942 L 1883.4557339884302 -30.746617218549005 L 1886.7749656416274 -25.177245504386157 L 1890.0344562347086 -19.358972050700576 L 1893.279857125241 -13.258893227426121 L 1896.573213900871 -6.82918530878286 L 1900.0 0.0 M 2200.0 0.0 L 2199.750902515076 7.053895904231097 L 2199.0048510514453 14.072649653889055 L 2197.7655623999713 21.021294170847106 L 2196.039210634378 27.865211657649215 L 2193.834396352323 34.570306061635634 L 2191.1621038276544 41.103172939762175 L 2188.035646287309 47.43126587785523 L 2184.4705995854883 53.52305863520993 L 2180.4847246055324 59.34820220673562 L 2176.097878776097 64.8776760201726 L 2171.331917142438 70.08393251512331 L 2166.21058348568 74.94103438361252 L 2160.75939203249 79.4247837884511 L 2155.005500344484 83.51284291564356 L 2148.977574020623 87.18484526025387 L 2142.7056438866375 90.42249709130849 L 2136.2209563829683 93.20966859024395 L 2129.5558178965684 95.53247420885154 L 2122.7434338121107 97.37934184638004 L 2115.8177430844303 98.74107050115951 L 2108.81324915636 99.6108761095289 L 2101.764848064313 99.98442534369985 L 2094.7076545879836 99.85985720017784 L 2087.6768273102844 99.2377922711879 L 2080.7073934590503 98.12132965291545 L 2073.834074403156 96.51603150596495 L 2067.091112672399 94.42989534495558 L 2060.512101362941 91.87331419530561 L 2054.129816778191 88.85902481570271 L 2047.9760551389118 85.40204424421265 L 2042.0814741760466 81.5195949841512 L 2036.4754403954462 77.23101920243889 L 2031.1858827754131 72.55768236789827 L 2026.239153625938 67.52286680956307 L 2021.6598973028147 62.151655725285934 L 2017.4709274307022 56.4708082185087 L 2013.6931132467917 50.50862598575474 L 2010.3452756313172 44.2948123190008 L 2007.444093342878 37.86032412537031 L 2005.004019925701 31.237217701379418 L 2003.0372117028112 24.458489030079978 L 2001.5534672138417 17.557909396732086 L 2000.5601783992017 10.569857141959297 L 2000.0622937738021 3.529146390585268 L 2000.0622937738021 -3.529146390585243 L 2000.5601783992017 -10.56985714195927 L 2001.5534672138417 -17.55790939673206 L 2003.0372117028112 -24.458489030079956 L 2005.004019925701 -31.237217701379436 L 2007.444093342878 -37.86032412537037 L 2010.3452756313172 -44.29481231900081 L 2013.6931132467917 -50.50862598575476 L 2017.4709274307022 -56.47080821850869 L 2021.6598973028147 -62.15165572528596 L 2026.239153625938 -67.52286680956304 L 2031.1858827754131 -72.55768236789828 L 2036.4754403954462 -77.23101920243892 L 2042.0814741760466 -81.51959498415118 L 2047.9760551389118 -85.40204424421268 L 2054.129816778191 -88.8590248157027 L 2060.512101362941 -91.87331419530561 L 2067.091112672399 -94.42989534495558 L 2073.834074403156 -96.51603150596497 L 2080.7073934590503 -98.12132965291545 L 2087.676827310284 -99.2377922711879 L 2094.7076545879836 -99.85985720017784 L 2101.764848064313 -99.98442534369985 L 2108.81324915636 -99.6108761095289 L 2115.8177430844303 -98.74107050115953 L 2122.7434338121107 -97.37934184638004 L 2129.5558178965684 -95.53247420885154 L 2136.2209563829683 -93.20966859024398 L 2142.7056438866375 -90.42249709130851 L 2148.977574020623 -87.18484526025388 L 2155.005500344484 -83.51284291564352 L 2160.75939203249 -79.42478378845108 L 2166.21058348568 -74.94103438361249 L 2171.331917142438 -70.08393251512325 L 2176.097878776097 -64.87767602017256 L 2180.4847246055324 -59.348202206735635 L 2184.4705995854883 -53.52305863520993 L 2188.035646287309 -47.431265877855196 L 2191.1621038276544 -41.10317293976214 L 2193.834396352323 -34.57030606163565 L 2196.039210634378 -27.865211657649223 L 2197.7655623999713 -21.0212941708471 L 2199.0048510514453 -14.072649653889025 L 2199.750902515076 -7.053895904231139 L 2200.0 0.0 M 2500.0 0.0 L 2506.1062797434874 7.503317095127649 L 2510.454838903854 15.700162506814864 L 2513.227774730497 24.345938411140153 L 2514.567700619879 33.24114396417534 L 2514.591721080108 42.21768374780893 L 2513.4005218205452 51.130031714287625 L 2511.0844667289284 59.8493576014004 L 2507.727806704497 68.25950973689928 L 2503.411671911884 76.2541817126526 L 2498.216272324368 83.73483726817035 L 2492.2225879074945 90.60911140762818 L 2485.5137460822907 96.7894896562945 L 2478.176237249925 102.19211439195685 L 2470.3010972567654 106.73558926349008 L 2461.9851834362607 110.33965512549288 L 2453.332687732047 112.92359422384506 L 2444.4570703915256 114.40417955489873 L 2435.483670778106 114.69291343273406 L 2426.553377545062 113.69217377191899 L 2417.827955705382 111.28967146579798 L 2409.4980037228424 107.35024680893565 L 2401.7951893304926 101.70335748553266 L 2394.4483425129242 104.75274773731267 L 2386.399787731764 109.52171765357153 L 2377.846061744877 112.67393413260716 L 2368.9964078386624 114.36032204428027 L 2360.025795258784 114.70336060389728 L 2351.0847493557694 113.807175020499 L 2342.305839193572 111.76425526859562 L 2333.8080829361143 108.66006114671598 L 2325.7000298103703 104.5762714265796 L 2318.081993989368 99.59315160335368 L 2311.0477514426016 93.7913506275718 L 2304.6859147049695 87.25334107222007 L 2299.081145717493 80.06466256243539 L 2294.3153392856716 72.31510086128425 L 2290.468902591781 64.09992806970708 L 2287.6222679267403 55.52134130210737 L 2285.857809179666 46.69027074465124 L 2285.262395875172 37.72879142652905 L 2285.93092832102 28.773482975557442 L 2287.971385248411 19.980269614191695 L 2291.512241164619 11.531598650133812 L 2296.713691882636 3.647397116201972 L 2296.713691882636 -3.6473971162019456 L 2291.512241164619 -11.53159865013378 L 2287.971385248411 -19.98026961419166 L 2285.93092832102 -28.77348297555742 L 2285.262395875172 -37.72879142652907 L 2285.857809179666 -46.690270744651315 L 2287.6222679267403 -55.5213413021074 L 2290.468902591781 -64.09992806970712 L 2294.315339285671 -72.31510086128422 L 2299.081145717493 -80.06466256243542 L 2304.6859147049695 -87.25334107222002 L 2311.0477514426016 -93.79135062757182 L 2318.081993989368 -99.59315160335372 L 2325.7000298103703 -104.57627142657958 L 2333.8080829361143 -108.66006114671598 L 2342.305839193572 -111.7642552685956 L 2351.0847493557694 -113.80717502049899 L 2360.025795258784 -114.70336060389727 L 2368.9964078386624 -114.3603220442803 L 2377.846061744877 -112.67393413260716 L 2386.399787731764 -109.52171765357156 L 2394.4483425129242 -104.75274773731269 L 2401.7951893304926 -101.70335748553268 L 2409.4980037228424 -107.35024680893562 L 2417.827955705382 -111.289671465798 L 2426.553377545062 -113.69217377191899 L 2435.483670778106 -114.69291343273406 L 2444.4570703915256 -114.40417955489875 L 2453.332687732047 -112.92359422384507 L 2461.9851834362603 -110.3396551254929 L 2470.3010972567654 -106.73558926349003 L 2478.176237249925 -102.19211439195684 L 2485.5137460822907 -96.78948965629446 L 2492.2225879074945 -90.60911140762812 L 2498.2162723243687 -83.7348372681703 L 2503.411671911884 -76.25418171265261 L 2507.727806704497 -68.25950973689929 L 2511.0844667289284 -59.849357601400364 L 2513.4005218205452 -51.130031714287576 L 2514.591721080108 -42.21768374780895 L 2514.567700619879 -33.24114396417535 L 2513.227774730497 -24.345938411140146 L 2510.454838903854 -15.700162506814829 L 2506.1062797434874 -7.503317095127696 L 2500.0 0.0 M 2800.0 0.0 L 2809.2839683576926 7.728027690575924 L 2816.1798328300583 16.513918933277772 L 2820.9588808957596 26.00826053128668 L 2823.8319456126296 35.929110117438405 L 2824.970383444001 46.04137259089558 L 2824.5197308169904 56.14346110155034 L 2822.608876949738 66.058403463173 L 2819.356410264001 75.62773528774396 L 2814.8751455650595 84.70717146561108 L 2809.2754690985043 93.16341789216924 L 2802.667923290023 100.87170085388063 L 2795.165327380596 107.7137172926355 L 2786.884659858643 113.57577969370973 L 2777.948895712906 118.34696243741334 L 2768.4889881440795 121.91706005811238 L 2758.646209654752 124.17414279011334 L 2748.5751273958044 125.00143503722612 L 2738.4475972188743 124.27313304467532 L 2728.458349411538 121.84858973468846 L 2718.8330620158576 117.56397194811721 L 2709.8403810060836 111.21993215863903 L 2701.810359963583 102.56282355644908 L 2694.3186864753948 107.19919300588009 L 2685.7612679425038 114.66368034476335 L 2676.41539588779 119.95023637245302 L 2666.5775745564156 123.28246731343793 L 2656.4931365519765 124.84009323336812 L 2646.371073352184 124.7741054330957 L 2636.3938504012626 123.21687049504209 L 2626.7240968347155 120.28906959796763 L 2617.5093076275325 116.1046096477938 L 2608.8852707863293 110.77421780381107 L 2600.9786857761956 104.40818475740858 L 2593.9092952444853 97.11857820354857 L 2587.7917699248324 89.02116598101013 L 2582.737545213156 80.23724718267202 L 2578.8567972642754 70.89557911168325 L 2576.260764074452 61.13460579366066 L 2575.0646670980605 51.1052440542917 L 2575.3915838499074 40.97457828910387 L 2577.3777866301243 30.930979948296176 L 2581.1803442656956 21.1914497229215 L 2586.988272547327 12.01246940422107 L 2595.0393909370528 3.7065224790103235 L 2595.0393909370528 -3.7065224790102964 L 2586.988272547327 -12.012469404221035 L 2581.1803442656956 -21.19144972292146 L 2577.3777866301243 -30.930979948296148 L 2575.3915838499074 -40.97457828910389 L 2575.0646670980605 -51.10524405429179 L 2576.2607640744513 -61.1346057936607 L 2578.8567972642754 -70.8955791116833 L 2582.737545213156 -80.237247182672 L 2587.7917699248324 -89.02116598101016 L 2593.9092952444853 -97.11857820354854 L 2600.9786857761956 -104.40818475740858 L 2608.8852707863293 -110.77421780381113 L 2617.5093076275325 -116.10460964779378 L 2626.7240968347155 -120.28906959796764 L 2636.3938504012626 -123.21687049504206 L 2646.371073352184 -124.77410543309568 L 2656.493136551977 -124.8400932333681 L 2666.5775745564156 -123.28246731343796 L 2676.41539588779 -119.95023637245302 L 2685.7612679425038 -114.66368034476338 L 2694.3186864753948 -107.19919300588012 L 2701.810359963583 -102.56282355644909 L 2709.8403810060836 -111.21993215863898 L 2718.8330620158576 -117.56397194811723 L 2728.458349411538 -121.84858973468846 L 2738.4475972188743 -124.27313304467532 L 2748.5751273958044 -125.00143503722613 L 2758.6462096547516 -124.17414279011336 L 2768.4889881440795 -121.91706005811241 L 2777.948895712906 -118.3469624374133 L 2786.884659858643 -113.5757796937097 L 2795.165327380596 -107.71371729263547 L 2802.667923290023 -100.87170085388054 L 2809.2754690985043 -93.16341789216918 L 2814.8751455650595 -84.7071714656111 L 2819.356410264001 -75.62773528774397 L 2822.608876949738 -66.05840346317294 L 2824.5197308169904 -56.143461101550294 L 2824.970383444001 -46.0413725908956 L 2823.8319456126296 -35.92911011743841 L 2820.9588808957596 -26.008260531286673 L 2816.1798328300583 -16.513918933277733 L 2809.283968357693 -7.728027690575974 L 2800.0 0.0 M 3100.0 0.0 L 3118.817034200309 8.402159476920751 L 3133.3548146086714 18.955188212666485 L 3144.152199391548 30.995226891726254 L 3151.624680590881 43.9930085772276 L 3156.1063705356787 57.51243912015552 L 3157.877357806327 71.18374926333851 L 3157.182107612167 84.68554104849075 L 3154.2422209425145 97.73241194027798 L 3149.265566524586 110.06614072448654 L 3142.453059420912 121.44915976416584 L 3134.0039294376074 131.65946919263794 L 3124.1200712755117 140.48640020165845 L 3113.0099276847955 147.72677559896835 L 3100.8922910813276 153.18108195918313 L 3088.0004022675357 156.64927485597093 L 3074.586775422866 157.92578848891822 L 3060.9292984086405 156.79320148420828 L 3047.3393765411806 153.01379188049913 L 3034.1732650109657 146.31783762299688 L 3021.8483809472846 136.38687339507493 L 3010.867512855807 122.82898820774915 L 3001.8558718628524 105.14122176919828 L 2993.929718362806 114.53852881158234 L 2983.8457085747236 130.08956841833879 L 2972.12339831653 141.7791430919906 L 2959.321074709675 150.0489031209109 L 2945.8951604315544 155.25029112178066 L 2932.230045341427 157.6748966708858 L 2918.6578840243346 157.57471617438142 L 2905.4721385305193 155.17609495172263 L 2892.937141079018 150.68962431143638 L 2881.2951011772125 144.31741640518325 L 2870.7714887769785 136.2586871469189 L 2861.579436863033 126.71428959753408 L 2853.92364254685 115.89067623673431 L 2848.0041629956095 104.00368614683534 L 2844.020481281759 91.28253223761176 L 2842.176252517586 77.97439926832052 L 2842.685240853243 64.35016398321308 L 2845.7791477741143 50.71193887682831 L 2851.718361557437 37.40347086651238 L 2860.807221317549 24.824990049110916 L 2873.416366695453 13.455081666482844 L 2890.016488100303 3.8838985674353785 L 2890.016488100303 -3.8838985674353497 L 2873.416366695453 -13.455081666482801 L 2860.807221317549 -24.824990049110855 L 2851.718361557437 -37.40347086651234 L 2845.7791477741143 -50.71193887682835 L 2842.685240853243 -64.3501639832132 L 2842.176252517586 -77.97439926832058 L 2844.020481281759 -91.28253223761183 L 2848.0041629956095 -104.0036861468353 L 2853.92364254685 -115.89067623673435 L 2861.579436863033 -126.71428959753402 L 2870.7714887769785 -136.25868714691887 L 2881.2951011772125 -144.31741640518334 L 2892.937141079018 -150.68962431143638 L 2905.4721385305193 -155.1760949517226 L 2918.6578840243346 -157.57471617438142 L 2932.230045341427 -157.67489667088574 L 2945.8951604315544 -155.25029112178063 L 2959.321074709675 -150.04890312091095 L 2972.12339831653 -141.7791430919906 L 2983.8457085747236 -130.08956841833887 L 2993.929718362806 -114.53852881158238 L 3001.855871862853 -105.14122176919832 L 3010.867512855807 -122.82898820774906 L 3021.8483809472846 -136.38687339507493 L 3034.1732650109657 -146.31783762299688 L 3047.3393765411806 -153.01379188049913 L 3060.9292984086405 -156.79320148420828 L 3074.586775422866 -157.92578848891822 L 3088.0004022675357 -156.64927485597096 L 3100.8922910813276 -153.18108195918308 L 3113.0099276847955 -147.72677559896835 L 3124.1200712755117 -140.4864002016584 L 3134.0039294376074 -131.65946919263783 L 3142.453059420912 -121.44915976416577 L 3149.265566524586 -110.06614072448654 L 3154.2422209425145 -97.73241194027801 L 3157.182107612167 -84.68554104849069 L 3157.877357806327 -71.18374926333844 L 3156.1063705356787 -57.51243912015554 L 3151.624680590881 -43.99300857722761 L 3144.152199391548 -30.995226891726244 L 3133.3548146086714 -18.95518821266644 L 3118.8170342003095 -8.40215947692081 L 3100.0 0.0" fill="grey" stroke="black" /></svg>