<?xml version="1.0" encoding="utf-8" ?>
<svg baseProfile="full" height="200" version="1.1" viewBox="-200 -200 4400 200" width="4400" xmlns="http://www.w3.org/2000/svg" xmlns:ev="http://www.w3.org/2001/xml-events" xmlns:xlink="http://www.w3.org/1999/xlink"><defs /><path d="M 100.0 0.0 L 79.95316892020591 2.8076368777296583 L 61.81228541061968 4.346562487410841 L 45.414463550471154 4.8001162853912165 L 30.619934632690992 4.327710243470468 L 17.30764382966153 3.069207982737492 L 5.371774918482416 1.1483768759583768 L -5.2810183591904405 -1.3243654279969341 L -14.73383747679192 -4.249746856381563 L -23.061342484519685 -7.53785747300352 L -30.331225220753637 -11.10669505459575 L -36.60542216204961 -14.880969871150654 L -41.9411205645868 -18.79111499561857 L -46.391599536083504 -22.772460483690942 L -50.00693865521262 -26.764538787841246 L -52.834619928532724 -30.710495598324833 L -54.92004367512346 -34.556585505177694 L -56.30697494826439 -38.251735857650225 L -57.03793404569434 -41.747165256875824 L -57.15454230932304 -44.99604546980535 L -56.697832613535894 -47.953197355769554 L -55.70853257233111 -50.574812767521614 L -54.227327474676926 -52.818195411084155 L -52.29510922350638 -54.64151438430168 L -49.953217063950106 -56.003564605452034 L -47.24367561277429 -56.86352861851893 L -44.20943562816014 -57.180734336196096 L -40.89462308280706 -56.91440315947216 L -37.344802430738476 -56.02338258687606 L -33.607260507520046 -54.46585687875305 L -29.731318306249584 -52.19902854091053 L -25.768678974600967 -49.17876229065341 L -21.77382184788597 -45.35918170014686 L -17.804454261340638 -40.69220678538869 L -13.92203539707885 -35.127018298402646 L -10.192389688358105 -28.609431214623086 L -6.686431559447868 -21.08115565332875 L -3.481028843973938 -12.478917905918777 L -0.6600395410943634 -2.7334069318380187 L 1.6844337453397298 8.231998002369778 L 3.4505144155694687 20.50277578787066 L 4.524672864101421 34.17516268526748 L 4.779399536578982 49.35850057305009 L 4.070299251937614 66.17816500793249 L 2.2324308436243174 84.77924901572422 L -0.8319263442413996 94.79968251411063 L -3.3036916423734946 75.2460711970145 L -4.555106040868452 57.555235067221446 L -4.763055409293362 41.57054154693235 L -4.081694757764689 27.15727250207572 L -2.6465708377915167 14.198477695323703 L -0.577879711898273 2.591694305650293 L 2.0169357552785243 -7.753672410038533 L 5.041096995668333 -16.91845877503397 L 8.4067961765323 -24.975455894830787 L 12.03381240875516 -31.99081194937385 L 15.848372411834042 -38.0251888655837 L 19.782205300146405 -43.1347236842133 L 23.771752331695275 -47.371833759945645 L 27.757500870949187 -50.78589652469067 L 31.683418193116033 -53.42382816983632 L 35.496465620578086 -55.33058074133962 L 39.14617720970054 -56.549573415612095 L 42.58429007113492 -57.12307086080008 L 45.7644156087871 -57.092519387598486 L 48.641742648231165 -56.498849909709215 L 51.17276470192306 -55.382755459090596 L 53.31502456437615 -53.784950056946975 L 55.02687010162761 -51.74641507185693 L 56.26721553462513 -49.308638762765646 L 56.99530274023217 -46.51385448212766 L 57.1704571188819 -43.40528299077618 L 56.75183240588631 -40.02738450975561 L 55.69813842434528 -36.426126515034326 L 53.967345170062885 -32.649273890178144 L 51.51635574785537 -28.74670892469704 L 48.30063949273648 -24.77078983328544 L 44.27381503649241 -20.77675804574179 L 39.387171020802796 -16.82320657829283 L 33.58910947678385 -12.972624479894012 L 26.824493402867688 -9.292035836588532 L 19.033875525706605 -5.853756365770504 L 10.152579275039884 -2.7362965874546887 L 0.10959516229122812 -0.025448402316776253 L -11.173754647763275 2.1843976918395605 L -23.785444690364812 3.7886436046385974 L -37.82474736327768 4.6705029707717545 L -53.40471235685929 4.6985432970544805 L -70.65526504159882 3.723610222414917 L -89.7271136108015 1.5749440652383264 L -89.72711361080133 -1.5749440652383413 L -70.65526504159847 -3.723610222414944 L -53.40471235685946 -4.698543297054483 L -37.82474736327777 -4.670502970771757 L -23.785444690364727 -3.7886436046385885 L -11.173754647763175 -2.1843976918395427 L 0.10959516229124233 0.025448402316776253 L 10.152579275040068 2.7362965874547456 L 19.03387552570662 5.853756365770508 L 26.824493402867603 9.29203583658851 L 33.58910947678393 12.972624479894069 L 39.38717102080277 16.8232065782928 L 44.27381503649241 20.776758045741776 L 48.30063949273644 24.770789833285434 L 51.51635574785537 28.746708924697067 L 53.96734517006293 32.64927389017819 L 55.698138424345316 36.42612651503439 L 56.75183240588634 40.027384509755635 L 57.17045711888192 43.405282990776165 L 56.99530274023217 46.513854482127684 L 56.26721553462516 49.30863876276564 L 55.02687010162758 51.74641507185695 L 53.3150245643762 53.78495005694708 L 51.17276470192307 55.38275545909063 L 48.64174264823107 56.498849909709115 L 45.7644156087871 57.092519387598486 L 42.58429007113484 57.12307086080007 L 39.146177209700554 56.54957341561204 L 35.49646562057808 55.33058074133962 L 31.683418193115997 53.42382816983627 L 27.757500870949137 50.78589652469063 L 23.771752331695218 47.37183375994559 L 19.7822053001464 43.13472368421331 L 15.848372411833942 38.02518886558356 L 12.033812408755281 31.99081194937412 L 8.40679617653226 24.975455894830674 L 5.041096995668312 16.918458775033884 L 2.0169357552785527 7.753672410038632 L -0.5778797118983121 -2.5916943056504778 L -2.646570837791506 -14.198477695323604 L -4.081694757764689 -27.15727250207572 L -4.763055409293364 -41.57054154693226 L -4.555106040868453 -57.55523506722179 L -3.3036916423734923 -75.24607119701442 L -0.8319263442413222 -94.79968251411114 L 2.2324308436243627 -84.77924901572388 L 4.070299251937618 -66.17816500793232 L 4.779399536578977 -49.35850057304993 L 4.52467286410142 -34.17516268526748 L 3.4505144155694527 -20.502775787870505 L 1.684433745339712 -8.231998002369679 L -0.6600395410944451 2.73340693183836 L -3.481028843973906 12.478917905918692 L -6.6864315594478505 21.08115565332865 L -10.192389688358112 28.609431214623086 L -13.922035397078837 35.12701829840262 L -17.80445426134073 40.692206785388834 L -21.773821847885927 45.359181700146834 L -25.768678974601002 49.178762290653495 L -29.73131830624962 52.1990285409106 L -33.60726050752012 54.465856878753115 L -37.344802430738476 56.02338258687602 L -40.89462308280706 56.91440315947219 L -44.2094356281602 57.18073433619611 L -47.24367561277429 56.863528618519 L -49.95321706395008 56.003564605451984 L -52.29510922350632 54.64151438430164 L -54.227327474676905 52.81819541108406 L -55.70853257233118 50.57481276752162 L -56.69783261353582 47.9531973557694 L -57.15454230932307 44.9960454698054 L -57.037934045694335 41.74716525687587 L -56.30697494826443 38.25173585765023 L -54.92004367512335 34.55658550517761 L -52.83461992853268 30.710495598324755 L -50.00693865521258 26.764538787841182 L -46.39159953608349 22.772460483690914 L -41.9411205645868 18.79111499561857 L -36.60542216204942 14.880969871150544 L -30.331225220753524 11.106695054595694 L -23.061342484519685 7.53785747300352 L -14.733837476791663 4.249746856381471 L -5.2810183591904405 1.3243654279969377 L 5.371774918482487 -1.148376875958391 L 17.30764382966153 -3.06920798273749 L 30.619934632691248 -4.327710243470479 L 45.414463550471325 -4.800116285391213 L 61.81228541061934 -4.346562487410857 L 79.95316892020591 -2.8076368777296583 L 100.0 0.0 M 400.0 0.0 L 388.2803486328536 3.1000542661141655 L 377.6211984948921 5.458225454123143 L 367.9276276233324 7.179662294598774 L 359.11826218312996 8.355560254950795 L 351.122707660788 9.065718245411468 L 343.8795213487351 9.380554548485279 L 337.3345969560555 9.3627111503508 L 331.4398661611364 9.06834167227685 L 326.1522461486077 8.54815387263071 L 321.43277965835523 7.8482602039700815 L 317.24592683717026 7.010877146229582 L 313.55897759632586 6.074904623571438 L 310.34156018655017 5.076409803562608 L 307.5652269647803 4.049034313692758 L 305.2031023095953 3.0243399269759337 L 303.22958067554595 2.0321047343034877 L 301.62006509884895 1.1005794981937385 L 300.3507382507144 0.25671209800048445 L 299.3983595058803 -0.4736533954444866 L 298.7400825450186 -1.0655975296713223 L 298.3532888082836 -1.4949614782099587 L 298.21543271284577 -1.7381941557263119 L 298.30389497548066 -1.7722067793846819 L 298.59584066708146 -1.574231501782542 L 299.06807878565473 -1.1216809013013602 L 299.69692017691153 -0.3920051590896705 L 300.4580305593901 0.6374563194702532 L 301.3262752201281 1.9896322710646288 L 302.2755516265205 3.6878896803429413 L 303.27860573184694 5.756220844573036 L 304.3068271086346 8.219452258738208 L 305.3300171867642 11.103481039219389 L 306.316123748466 14.435545728169352 L 307.23093336693177 18.244539785327483 L 308.0377115694437 22.561377979065725 L 308.696778023503 27.419428370108704 L 309.1650007984737 32.855025826579926 L 309.3951894873434 38.908087276190415 L 309.33536132318653 45.62285455066821 L 308.927846885995 53.04879821572504 L 308.1081918470296 61.24172592765484 L 306.8037974031264 70.26515265168817 L 304.9322231028212 80.1920090271139 L 302.39904943170194 91.10679049797231 L 299.1490727223012 96.96487715147718 L 296.2452250782324 85.52010649792638 L 294.05550041350097 75.11067096754593 L 292.4785136884343 65.64531216654717 L 291.4261345417845 57.04561817170469 L 290.82108023078257 49.243604497340165 L 290.59501318160727 42.17980019038158 L 290.6870235972408 35.80171951458228 L 291.0424087569702 30.06263087161905 L 291.6116829478966 24.920556912215055 L 292.34976811494926 20.337455935884776 L 293.21532713288855 16.278546494179665 L 294.1702103405773 12.711745848397449 L 295.17899249746284 9.607199451642373 L 296.2085822282549 6.93688353043494 L 297.2278897409197 4.674266559443517 L 298.20754144004695 2.794018259088091 L 299.1196322319683 1.2717569193119544 L 299.93750798915875 0.08382752319123199 L 300.63557192593026 -0.7928955722625091 L 301.18910962064894 -1.3811866583212762 L 301.5741281643192 -1.7036319161876392 L 301.7672054670446 -1.7827818436169167 L 301.74534614532575 -1.6412964414165288 L 301.48584066702034 -1.3020864816750617 L 300.9661245614328 -0.7884540497470738 L 300.1636345167082 -0.12423553812083554 L 299.05565808628864 0.6660496284677038 L 297.6191735050013 1.5570410353115207 L 295.8306757608717 2.5223662307511745 L 293.66598456058637 3.534452224310158 L 291.1000291346751 4.5643144716640975 L 288.1066039108335 5.581317369716366 L 284.65808788243623 6.552899082888441 L 280.72511893512484 7.444251956785926 L 276.27621235962516 8.217947739897028 L 271.2773101263146 8.833494180576029 L 265.6912440239496 9.246806092702334 L 259.4770911908577 9.409569408553725 L 252.58939449989256 9.268470669693977 L 244.97721214568003 8.764256293181727 L 236.58294983576317 7.830575002787892 L 227.3409140688013 6.392541895758207 L 217.17550443118975 4.364942063196627 L 205.99893419717148 1.6499630351914059 L 205.9989341971716 -1.649963035191423 L 217.17550443118995 -4.364942063196668 L 227.34091406880123 -6.392541895758199 L 236.58294983576312 -7.830575002787884 L 244.97721214568008 -8.76425629318173 L 252.58939449989262 -9.268470669693974 L 259.4770911908577 -9.409569408553732 L 265.6912440239497 -9.246806092702329 L 271.2773101263146 -8.833494180576034 L 276.2762123596251 -8.217947739897046 L 280.7251189351249 -7.444251956785919 L 284.65808788243623 -6.552899082888448 L 288.1066039108334 -5.581317369716366 L 291.100029134675 -4.564314471664108 L 293.66598456058637 -3.534452224310151 L 295.8306757608717 -2.522366230751153 L 297.61917350500136 -1.5570410353115065 L 299.0556580862887 -0.6660496284676967 L 300.1636345167082 0.12423553812083554 L 300.9661245614328 0.7884540497470809 L 301.48584066702034 1.3020864816750617 L 301.74534614532575 1.6412964414165359 L 301.7672054670447 1.7827818436169593 L 301.5741281643192 1.7036319161876534 L 301.1891096206489 1.3811866583212193 L 300.6355719259303 0.792895572262502 L 299.9375079891587 -0.0838275231912533 L 299.11963223196824 -1.2717569193119687 L 298.20754144004695 -2.794018259088098 L 297.2278897409197 -4.674266559443545 L 296.20858222825484 -6.936883530434983 L 295.17899249746284 -9.607199451642416 L 294.1702103405773 -12.711745848397442 L 293.2153271328885 -16.278546494179764 L 292.3497681149493 -20.33745593588462 L 291.6116829478966 -24.92055691221512 L 291.0424087569702 -30.0626308716191 L 290.6870235972408 -35.801719514582224 L 290.59501318160727 -42.179800190381684 L 290.8210802307825 -49.2436044973401 L 291.4261345417845 -57.04561817170469 L 292.4785136884343 -65.64531216654713 L 294.055500413501 -75.11067096754613 L 296.2452250782324 -85.52010649792634 L 299.14907272230124 -96.96487715147748 L 302.399049431702 -91.1067904979721 L 304.9322231028212 -80.1920090271138 L 306.8037974031264 -70.26515265168807 L 308.1081918470296 -61.24172592765484 L 308.92784688599505 -53.04879821572495 L 309.33536132318653 -45.62285455066815 L 309.3951894873434 -38.90808727619021 L 309.1650007984737 -32.855025826579976 L 308.696778023503 -27.419428370108754 L 308.0377115694437 -22.561377979065725 L 307.23093336693177 -18.244539785327497 L 306.31612374846594 -14.43554572816926 L 305.3300171867642 -11.103481039219417 L 304.3068271086346 -8.219452258738166 L 303.2786057318469 -5.756220844573001 L 302.2755516265205 -3.6878896803428916 L 301.32627522012814 -1.989632271064643 L 300.4580305593901 -0.637456319470239 L 299.69692017691153 0.3920051590896989 L 299.06807878565473 1.1216809013013886 L 298.59584066708146 1.5742315017825206 L 298.30389497548066 1.7722067793846534 L 298.21543271284577 1.7381941557262834 L 298.3532888082836 1.494961478209973 L 298.74008254501865 1.0655975296712654 L 299.39835950588025 0.4736533954445079 L 300.3507382507144 -0.25671209800047023 L 301.62006509884895 -1.1005794981937242 L 303.229580675546 -2.0321047343035303 L 305.20310230959535 -3.024339926975955 L 307.5652269647803 -4.049034313692779 L 310.34156018655017 -5.076409803562619 L 313.55897759632586 -6.074904623571438 L 317.2459268371704 -7.0108771462296176 L 321.4327796583553 -7.848260203970099 L 326.1522461486077 -8.548153872630703 L 331.4398661611366 -9.06834167227687 L 337.3345969560555 -9.36271115035081 L 343.8795213487352 -9.380554548485273 L 351.122707660788 -9.065718245411462 L 359.11826218313007 -8.35556025495077 L 367.9276276233325 -7.179662294598753 L 377.6211984948919 -5.458225454123179 L 388.2803486328536 -3.1000542661141655 L 400.0 0.0 M 700.0 0.0 L 689.9457845753832 3.158537743791067 L 680.7829811117466 5.6805580474656026 L 672.4302604379046 7.655571496440286 L 664.8179276932177 9.16113025724686 L 657.8857204270133 10.265020297946261 L 651.5810706347856 11.02699008299066 L 645.8577200191047 11.500126466020346 L 640.6746068887221 11.731959378008531 L 635.9949638752331 11.765356141757554 L 631.785580634177 11.639251255683249 L 628.0161966370142 11.389246549705629 L 624.6589972285084 11.048108547409438 L 621.6881921310769 10.64618386101332 L 619.0796600887788 10.211748933999562 L 616.8106467572209 9.771307032036088 L 614.8595055456798 9.349842782199726 L 613.2054731082716 8.971042569362535 L 611.8284727099962 8.657487568975746 L 610.708939868921 8.43082501942768 L 609.8276655767295 8.311922435548325 L 609.1656530844066 8.321008779652374 L 608.7039847503503 8.477806095345258 L 608.423695815278 8.801654741598718 L 608.3056522132878 9.311635118951358 L 608.3304296653406 10.026688642142148 L 608.4781913379259 10.965740676331613 L 608.7285612878296 12.147828215258741 L 609.0604907503014 13.59223524265277 L 609.4521140533286 15.318638992162136 L 609.8805905394662 17.347270721669744 L 610.3219283252818 19.69909516861653 L 610.7507849936942 22.39601358709264 L 611.1402393504274 25.461096230880955 L 611.4615271197339 28.918851402073514 L 611.683731821004 32.79553981780349 L 611.7734199400932 37.1195451747962 L 611.6942067269632 41.92181457307967 L 611.4062352930309 47.2363861177961 L 610.8655468387559 53.101025860327894 L 610.0233133800801 59.55800270129592 L 608.8248956436153 66.65503857613231 L 607.2086769764359 74.44648306741578 L 605.1046078729979 82.99477783095017 L 602.4323731493175 92.37229879442192 L 599.1452725356097 97.3979160789505 L 596.1550084223536 87.57491355810876 L 593.7776217043748 78.62175814761083 L 591.9268275079799 70.46026629047014 L 590.5277004016943 63.02328730563049 L 589.5146104444974 56.25262985774346 L 588.8295917603084 50.09742136732784 L 588.4210411656333 44.51279789950644 L 588.2426711092305 39.45884880094965 L 588.2526603021695 34.89975947362423 L 588.4129592561881 30.8031095129365 L 588.6887180770995 27.13929356613233 L 589.0478113486635 23.8810397549196 L 589.4604405306163 21.003006093959982 L 589.898798499716 18.481439541460063 L 590.3367840504804 16.293885505299492 L 590.7497566039407 14.418938059173634 L 591.1143232364218 12.836022986296769 L 591.4081515727635 11.525207199989495 L 591.6098031893589 10.467029190804688 L 591.6985830151325 9.642345991956311 L 591.6544008567984 9.032192792392955 L 591.4576416475784 8.6176517990491 L 591.0890413540653 8.379727284671553 L 590.5295656934993 8.299223974543054 L 589.760288925673 8.35662603672904 L 588.7622699962735 8.531973952410233 L 587.5164232223691 8.804736456112373 L 586.0033805211325 9.153674545380692 L 584.2033418790335 9.556694254937042 L 582.0959103231326 9.990684454111594 L 579.6599070630627 10.431335332654005 L 576.8731616857017 10.852932452807995 L 573.712271254763 11.228120215124697 L 570.152320826793 11.527627244121913 L 566.1665561509766 11.71994445519414 L 561.7259970464362 11.770944289845335 L 556.7989769737316 11.643426628733739 L 551.3505903965711 11.296572970727826 L 545.3420243294237 10.68528526526486 L 538.729743512889 9.759378830890352 L 531.4644892755714 8.46258940919112 L 523.4900393539334 6.731341615498953 L 514.7416583257475 4.4932084313529685 L 505.14414375876606 1.6649668291820219 L 505.1441437587662 -1.6649668291820392 L 514.7416583257476 -4.493208431353014 L 523.4900393539333 -6.731341615498941 L 531.4644892755713 -8.46258940919111 L 538.7297435128891 -9.759378830890357 L 545.3420243294238 -10.68528526526486 L 551.3505903965711 -11.296572970727834 L 556.7989769737317 -11.643426628733744 L 561.7259970464362 -11.770944289845342 L 566.1665561509766 -11.719944455194158 L 570.1523208267931 -11.527627244121916 L 573.712271254763 -11.228120215124697 L 576.8731616857017 -10.852932452807995 L 579.6599070630627 -10.431335332654015 L 582.0959103231326 -9.990684454111598 L 584.2033418790335 -9.556694254937025 L 586.0033805211326 -9.153674545380685 L 587.5164232223692 -8.804736456112366 L 588.7622699962735 -8.531973952410233 L 589.760288925673 -8.35662603672904 L 590.5295656934994 -8.299223974543054 L 591.0890413540653 -8.379727284671546 L 591.4576416475784 -8.617651799049064 L 591.6544008567985 -9.032192792392948 L 591.6985830151324 -9.642345991956361 L 591.6098031893589 -10.467029190804695 L 591.4081515727635 -11.525207199989516 L 591.1143232364218 -12.836022986296769 L 590.7497566039407 -14.418938059173641 L 590.3367840504804 -16.293885505299507 L 589.898798499716 -18.481439541460105 L 589.4604405306163 -21.003006093960018 L 589.0478113486635 -23.88103975491959 L 588.6887180770995 -27.13929356613243 L 588.4129592561882 -30.803109512936373 L 588.2526603021695 -34.89975947362427 L 588.2426711092305 -39.458848800949696 L 588.4210411656333 -44.512797899506396 L 588.8295917603084 -50.097421367327925 L 589.5146104444973 -56.2526298577434 L 590.5277004016943 -63.02328730563049 L 591.9268275079799 -70.4602662904701 L 593.777621704375 -78.621758147611 L 596.1550084223536 -87.57491355810872 L 599.1452725356098 -97.39791607895076 L 602.4323731493175 -92.37229879442175 L 605.1046078729979 -82.99477783095008 L 607.2086769764359 -74.4464830674157 L 608.8248956436153 -66.65503857613231 L 610.0233133800801 -59.558002701295834 L 610.8655468387559 -53.10102586032785 L 611.4062352930309 -47.236386117795924 L 611.6942067269632 -41.921814573079715 L 611.7734199400932 -37.11954517479623 L 611.683731821004 -32.795539817803494 L 611.4615271197339 -28.91885140207352 L 611.1402393504274 -25.461096230880884 L 610.7507849936942 -22.396013587092668 L 610.3219283252818 -19.699095168616502 L 609.8805905394662 -17.347270721669723 L 609.4521140533286 -15.318638992162093 L 609.0604907503015 -13.592235242652777 L 608.7285612878296 -12.147828215258727 L 608.4781913379259 -10.965740676331585 L 608.3304296653405 -10.02668864214214 L 608.3056522132878 -9.31163511895138 L 608.423695815278 -8.801654741598739 L 608.7039847503503 -8.477806095345272 L 609.1656530844065 -8.321008779652352 L 609.8276655767296 -8.311922435548361 L 610.7089398689209 -8.430825019427665 L 611.8284727099962 -8.65748756897574 L 613.2054731082716 -8.971042569362513 L 614.8595055456799 -9.349842782199758 L 616.810646757221 -9.771307032036098 L 619.079660088779 -10.21174893399957 L 621.6881921310769 -10.646183861013327 L 624.6589972285084 -11.048108547409438 L 628.0161966370143 -11.38924654970565 L 631.785580634177 -11.639251255683256 L 635.9949638752331 -11.765356141757547 L 640.6746068887222 -11.73195937800854 L 645.8577200191047 -11.50012646602036 L 651.5810706347856 -11.02699008299065 L 657.8857204270133 -10.265020297946258 L 664.8179276932178 -9.161130257246828 L 672.4302604379047 -7.65557149644026 L 680.7829811117465 -5.680558047465643 L 689.9457845753832 -3.158537743791067 L 700.0 0.0 M 1000.0 0.0 L 993.2766564604423 3.2755046991448697 L 987.1065463454556 6.125223234150524 L 981.4355260670492 8.607389900123309 L 976.2172587133933 10.772270261838992 L 971.4117459594639 12.663624403015852 L 966.9841692068867 14.319861152001419 L 962.9039661452031 15.77495709735944 L 959.1440883438934 17.059194789471896 L 955.6803993284841 18.199760680011245 L 952.4911825858205 19.221233359109583 L 949.5567362367022 20.145985356657725 L 946.8590364928734 20.99451639508544 L 944.3814560201304 21.78573197591474 L 942.1085263367761 22.53717817461316 L 940.0257356524721 23.265241242156392 L 938.1193552859476 23.9853188779922 L 936.3762891271169 24.711968711700116 L 934.7839416285597 25.45903851092627 L 933.3301005950022 26.23978184917203 L 932.0028316401513 27.066962365987617 L 930.7903816366525 27.952949295377035 L 929.6810888253594 28.909806597488394 L 928.6632974948728 29.949377783565517 L 927.7252753057004 31.083368360419154 L 926.8551314247122 32.32342772902918 L 926.0407336599545 33.68123234717419 L 925.2696227447085 35.1685720068357 L 924.5289218106481 36.797441185829044 L 923.8052389069449 38.58013761580054 L 923.0845601547048 40.529370475863175 L 922.352130758576 42.65838098837318 L 921.5923206075543 44.98107868283914 L 920.7884705543499 47.512197236304175 L 919.9227146253381 50.26747463556556 L 918.9757723241247 53.26386349527901 L 917.9267037732735 56.51977878417118 L 916.7526185839423 60.05539206607915 L 915.428326904406 63.892983801007475 L 913.9259178698946 68.05736847964727 L 912.2142463682503 72.57641167243767 L 910.2583032367866 77.48166387308726 L 908.0184361230548 82.80914389887101 L 905.4493774133513 88.60031543862273 L 902.4990205845486 94.90331538732116 L 899.1376721622267 98.26399393389713 L 895.9745751105959 91.68452767847351 L 893.2218642861227 85.64393250774063 L 890.823455147071 80.09017453831608 L 888.730832121514 74.97862557348208 L 886.901670871927 70.27068057855004 L 885.2987489177107 65.93266372122035 L 883.8890763024182 61.93495466935477 L 882.6431958137513 58.25128465961086 L 881.5346150107152 54.85816459644256 L 880.5393415386658 51.73441666703995 L 879.6354999655213 48.860787710037684 L 878.8030133648358 46.2196275679639 L 878.0233365969234 43.794619378595186 L 877.2792310426382 41.57055156351031 L 876.5545726696018 39.53312339701142 L 875.8341869317283 37.66877765934471 L 875.1037052453289 35.96455512026638 L 874.349438739973 34.40796655358602 L 873.5582657162162 32.986878716939074 L 872.7175298040995 31.689411292511487 L 871.8149462417568 30.503842209554136 L 870.8385140086457 29.41851908438112 L 869.7764317715446 28.421774736847713 L 868.6170157464575 27.50184488697929 L 867.3486176541533 26.646786209681277 L 865.959540955404 25.84439293347237 L 864.4379534945301 25.082110111401697 L 862.771794553395 24.34694156551903 L 860.948674115357 23.625350303308768 L 858.9557618482249 22.903148913714475 L 856.7796629198382 22.165377054633822 L 854.4062772354381 21.39616261899126 L 851.8206379994164 20.578562479597203 L 849.0067246101295 19.69437781879389 L 845.9472437336797 18.723937885788363 L 842.6233708866794 17.64584450838395 L 839.0144428732955 16.436667700796548 L 835.0975888079977 15.070580095076027 L 830.8472839884861 13.518914456406627 L 826.2348062473069 11.749623906307605 L 821.2275681551877 9.726618221997574 L 815.7882899241977 7.408941054980443 L 809.8739661148629 4.749741167665652 L 803.4345628819553 1.6949744171632537 L 803.4345628819553 -1.694974417163272 L 809.873966114863 -4.749741167665704 L 815.7882899241977 -7.408941054980428 L 821.2275681551877 -9.72661822199756 L 826.234806247307 -11.749623906307614 L 830.8472839884861 -13.518914456406632 L 835.0975888079977 -15.070580095076037 L 839.0144428732955 -16.436667700796573 L 842.6233708866794 -17.64584450838396 L 845.9472437336796 -18.72393788578838 L 849.0067246101295 -19.69437781879391 L 851.8206379994162 -20.578562479597196 L 854.4062772354381 -21.39616261899125 L 856.7796629198382 -22.165377054633833 L 858.9557618482249 -22.90314891371448 L 860.948674115357 -23.625350303308764 L 862.771794553395 -24.346941565519046 L 864.4379534945301 -25.082110111401697 L 865.959540955404 -25.844392933472363 L 867.3486176541533 -26.64678620968128 L 868.6170157464575 -27.501844886979285 L 869.7764317715446 -28.421774736847713 L 870.8385140086458 -29.418519084381114 L 871.8149462417568 -30.503842209554136 L 872.7175298040995 -31.68941129251152 L 873.5582657162162 -32.98687871693909 L 874.349438739973 -34.40796655358605 L 875.1037052453289 -35.96455512026637 L 875.8341869317283 -37.66877765934473 L 876.5545726696018 -39.53312339701144 L 877.2792310426383 -41.57055156351035 L 878.0233365969234 -43.794619378595215 L 878.8030133648358 -46.2196275679639 L 879.6354999655213 -48.860787710037755 L 880.5393415386658 -51.734416667039866 L 881.5346150107152 -54.85816459644259 L 882.6431958137513 -58.25128465961089 L 883.8890763024182 -61.93495466935474 L 885.2987489177107 -65.93266372122041 L 886.901670871927 -70.27068057855 L 888.730832121514 -74.97862557348208 L 890.823455147071 -80.09017453831605 L 893.2218642861227 -85.64393250774074 L 895.9745751105959 -91.68452767847349 L 899.1376721622269 -98.2639939338973 L 902.4990205845486 -94.90331538732104 L 905.4493774133513 -88.60031543862267 L 908.0184361230548 -82.80914389887096 L 910.2583032367866 -77.48166387308726 L 912.2142463682504 -72.57641167243762 L 913.9259178698946 -68.05736847964724 L 915.428326904406 -63.89298380100735 L 916.7526185839423 -60.05539206607918 L 917.9267037732735 -56.519778784171194 L 918.9757723241247 -53.26386349527901 L 919.9227146253381 -50.26747463556556 L 920.7884705543499 -47.51219723630412 L 921.5923206075543 -44.98107868283917 L 922.352130758576 -42.65838098837317 L 923.0845601547048 -40.52937047586316 L 923.8052389069449 -38.580137615800496 L 924.5289218106481 -36.797441185829044 L 925.2696227447085 -35.168572006835696 L 926.0407336599546 -33.681232347174145 L 926.8551314247121 -32.32342772902918 L 927.7252753057004 -31.08336836041916 L 928.6632974948728 -29.949377783565534 L 929.6810888253594 -28.909806597488384 L 930.7903816366525 -27.952949295377014 L 932.0028316401514 -27.066962365987614 L 933.3301005950022 -26.239781849172026 L 934.7839416285597 -25.459038510926273 L 936.3762891271169 -24.711968711700095 L 938.1193552859476 -23.985318877992214 L 940.0257356524721 -23.26524124215638 L 942.1085263367761 -22.537178174613153 L 944.3814560201304 -21.78573197591474 L 946.8590364928734 -20.99451639508544 L 949.5567362367022 -20.145985356657715 L 952.4911825858205 -19.221233359109576 L 955.6803993284841 -18.199760680011238 L 959.1440883438935 -17.059194789471874 L 962.9039661452031 -15.774957097359458 L 966.9841692068868 -14.319861152001403 L 971.4117459594639 -12.663624403015845 L 976.2172587133934 -10.772270261838946 L 981.4355260670492 -8.607389900123277 L 987.1065463454555 -6.125223234150573 L 993.2766564604423 -3.2755046991448697 L 1000.0 0.0 M 1300.0 0.0 L 1294.9420924029719 3.333988176821771 L 1290.26832896231 6.347555827492984 L 1285.9381588816213 9.08329910196482 L 1281.9169242234811 11.577840264135057 L 1278.1747587256893 13.862926455550646 L 1274.6857184929372 15.9662966865068 L 1271.4270892082523 17.912372413028987 L 1268.378829071479 19.72281249520358 L 1265.5231170551097 21.416962949138092 L 1262.8439835616423 23.012224410822746 L 1260.3270060365462 24.52435476013377 L 1257.9590561250561 25.967720318923444 L 1255.728087964657 27.35550603336545 L 1253.6229594607746 28.69989279491996 L 1251.6332801000976 30.012208347216546 L 1249.7492801560813 31.303056925888434 L 1247.9616971365397 32.58243178286891 L 1246.2616760878414 33.85981398190153 L 1244.640680958043 35.144260264044206 L 1243.0904146718622 36.44448233120726 L 1241.6027459127754 37.768919553239364 L 1240.1696408628638 39.12580684855996 L 1238.7830983346703 40.523239304548916 L 1237.4350868519068 41.96923498115305 L 1236.117482304398 43.47179727247269 L 1234.822004820969 45.03897818259547 L 1233.540153473148 46.678943902624184 L 1232.2631373408215 48.400044157417184 L 1230.9818013337529 50.21088692761973 L 1229.6865449623242 52.12042035295989 L 1228.3672319752231 54.138023898251504 L 1227.0130884144844 56.27361123071239 L 1225.6125861563112 58.537747739015785 L 1224.1533083781403 60.94178625231159 L 1222.621792575685 63.49802533401677 L 1221.0033456898636 66.21989558885866 L 1219.2818245124317 69.12218081257889 L 1217.4393727100937 72.22128264261316 L 1215.456103385464 75.53553978930695 L 1213.3097128623356 79.08561615800855 L 1210.975007033372 82.89497652156473 L 1208.4233156963644 86.99047431459863 L 1205.621762183528 91.40308424245902 L 1202.5323443021641 96.16882368377077 L 1199.1338719755352 98.69703286137045 L 1195.8843584547171 93.73933473865588 L 1192.9439855769965 89.15501968780552 L 1190.2717689666165 84.90512866223904 L 1187.8323979814238 80.95629470740786 L 1185.5952010856417 77.27970593895334 L 1183.5333274964119 73.8502848981666 L 1181.6230938708106 70.64603305427893 L 1179.8434581660117 67.64750258894146 L 1178.175592364988 64.83736715785173 L 1176.6025326799045 62.20007024409168 L 1175.108890909732 59.72153478199036 L 1173.680614372922 57.38892147448605 L 1172.304784630077 55.19042602091279 L 1170.9694473140994 53.11510757453543 L 1169.6634669791626 51.152742342867384 L 1168.376402095622 49.293697459430255 L 1167.0983962497824 47.5288211872512 L 1165.8200823235777 45.84934623038428 L 1164.5324969796447 44.24680348000627 L 1163.2270031985831 42.712943942789074 L 1161.895218934236 41.23966691813473 L 1160.5289501891793 39.81895272704713 L 1159.1201269802843 38.44279846293579 L 1157.6607407729364 37.10315534319741 L 1156.1427820183933 35.791866296157394 L 1154.5581764349693 34.50060242400344 L 1152.8987186306106 33.22079693904636 L 1151.156001569526 31.9435750755882 L 1149.3213402335186 30.659678327494632 L 1147.3856876107711 29.359381143515915 L 1145.3395408482259 28.03239791562373 L 1143.1728350103062 26.66777770208289 L 1140.874821371743 25.25378361183346 L 1138.4339265017977 23.77775310612988 L 1135.837587525031 22.225934601085477 L 1133.072057806801 20.583294617653255 L 1130.1221758230774 18.833288236827954 L 1126.9710880137109 16.957583657250126 L 1123.5999138180173 14.93572905197751 L 1119.9873376145158 12.74474644401623 L 1116.1091075949957 10.358632628400802 L 1111.9374152093299 7.747740774721189 L 1107.4401200094205 4.878007535821994 L 1102.57977244355 1.7099782111538695 L 1102.57977244355 -1.7099782111538884 L 1107.4401200094208 -4.878007535822048 L 1111.9374152093299 -7.747740774721171 L 1116.1091075949957 -10.358632628400786 L 1119.9873376145158 -12.744746444016242 L 1123.5999138180173 -14.935729051977518 L 1126.9710880137109 -16.95758365725014 L 1130.1221758230774 -18.83328823682799 L 1133.072057806801 -20.583294617653266 L 1135.837587525031 -22.22593460108549 L 1138.4339265017977 -23.77775310612991 L 1140.874821371743 -25.253783611833448 L 1143.1728350103062 -26.66777770208288 L 1145.3395408482259 -28.03239791562374 L 1147.3856876107711 -29.359381143515925 L 1149.3213402335186 -30.659678327494632 L 1151.156001569526 -31.943575075588225 L 1152.8987186306106 -33.220796939046366 L 1154.5581764349693 -34.50060242400343 L 1156.1427820183933 -35.7918662961574 L 1157.6607407729364 -37.1031553431974 L 1159.1201269802843 -38.4427984629358 L 1160.5289501891796 -39.81895272704714 L 1161.895218934236 -41.23966691813473 L 1163.2270031985831 -42.712943942789096 L 1164.5324969796447 -44.246803480006285 L 1165.8200823235777 -45.84934623038431 L 1167.0983962497824 -47.528821187251175 L 1168.376402095622 -49.29369745943027 L 1169.6634669791626 -51.1527423428674 L 1170.9694473140994 -53.11510757453547 L 1172.304784630077 -55.19042602091282 L 1173.680614372922 -57.38892147448605 L 1175.108890909732 -59.72153478199042 L 1176.6025326799045 -62.20007024409161 L 1178.175592364988 -64.83736715785176 L 1179.8434581660117 -67.64750258894148 L 1181.6230938708106 -70.64603305427892 L 1183.5333274964119 -73.85028489816665 L 1185.5952010856417 -77.2797059389533 L 1187.8323979814238 -80.95629470740786 L 1190.2717689666165 -84.90512866223902 L 1192.9439855769965 -89.15501968780562 L 1195.8843584547171 -93.73933473865587 L 1199.1338719755354 -98.69703286137056 L 1202.5323443021641 -96.16882368377068 L 1205.621762183528 -91.40308424245896 L 1208.4233156963644 -86.99047431459859 L 1210.975007033372 -82.89497652156473 L 1213.3097128623356 -79.0856161580085 L 1215.456103385464 -75.53553978930692 L 1217.4393727100937 -72.22128264261306 L 1219.2818245124317 -69.1221808125789 L 1221.0033456898636 -66.21989558885868 L 1222.621792575685 -63.49802533401677 L 1224.1533083781403 -60.94178625231159 L 1225.6125861563114 -58.537747739015735 L 1227.0130884144844 -56.27361123071242 L 1228.3672319752231 -54.1380238982515 L 1229.6865449623242 -52.12042035295988 L 1230.981801333753 -50.2108869276197 L 1232.2631373408215 -48.40004415741717 L 1233.540153473148 -46.678943902624184 L 1234.822004820969 -45.03897818259543 L 1236.117482304398 -43.4717972724727 L 1237.4350868519068 -41.96923498115305 L 1238.7830983346703 -40.52323930454893 L 1240.169640862864 -39.12580684855994 L 1241.6027459127754 -37.76891955323934 L 1243.0904146718622 -36.44448233120724 L 1244.640680958043 -35.144260264044206 L 1246.2616760878414 -33.85981398190154 L 1247.9616971365397 -32.58243178286889 L 1249.7492801560816 -31.30305692588844 L 1251.6332801000976 -30.01220834721652 L 1253.6229594607746 -28.699892794919947 L 1255.728087964657 -27.355506033365444 L 1257.9590561250561 -25.967720318923444 L 1260.3270060365462 -24.524354760133747 L 1262.8439835616423 -23.012224410822732 L 1265.5231170551097 -21.41696294913808 L 1268.3788290714792 -19.722812495203545 L 1271.4270892082523 -17.912372413029008 L 1274.6857184929372 -15.96629668650678 L 1278.1747587256893 -13.86292645555064 L 1281.9169242234811 -11.577840264135004 L 1285.9381588816213 -9.083299101964784 L 1290.26832896231 -6.347555827493037 L 1294.9420924029719 -3.333988176821771 L 1300.0 0.0 M 1600.0 0.0 L 1596.6075283455014 3.3924716544986726 L 1593.4301115791645 6.569888420835444 L 1590.4407916961936 9.559208303806333 L 1587.6165897335688 12.383410266431122 L 1584.9377714919146 15.062228508085441 L 1582.3872677789877 17.61273222101218 L 1579.9502122713016 20.049787728698533 L 1577.6135697990646 22.386430200935262 L 1575.365834781735 24.63416521826494 L 1573.196784537464 26.803215462535913 L 1571.0972758363903 28.902724163609818 L 1569.0590757572386 30.940924242761447 L 1567.0747199091838 32.92528009081616 L 1565.1373925847734 34.86260741522676 L 1563.2408245477234 36.7591754522767 L 1561.3792050262152 38.62079497378467 L 1559.5471051459624 40.4528948540377 L 1557.7394105471233 42.26058945287679 L 1555.9512613210836 44.04873867891638 L 1554.177997703573 45.82200229642691 L 1552.4151101888983 47.5848898111017 L 1550.6581929003685 49.34180709963153 L 1548.9028991744676 51.097100825532316 L 1547.1448983981131 52.85510160188695 L 1545.3798331840837 54.62016681591621 L 1543.6032759819832 56.396724018016755 L 1541.8106842015873 58.189315798412665 L 1539.9973528709947 60.00264712900532 L 1538.158363760561 61.841636239438934 L 1536.2885297699434 63.711470230056605 L 1534.3823331918702 65.61766680812983 L 1532.4338562214143 67.56614377858564 L 1530.4367017582726 69.5632982417274 L 1528.3839021309425 71.61609786905761 L 1526.2678128272455 73.73218717275454 L 1524.0799876064539 75.92001239354616 L 1521.8110304409213 78.18896955907863 L 1519.4504185157812 80.54958148421885 L 1516.9862889010333 83.01371109896664 L 1514.4051793564206 85.59482064357942 L 1511.6917108299579 88.3082891700422 L 1508.8281952696739 91.17180473032624 L 1505.7941469537047 94.20585304629529 L 1502.5656680197797 97.43433198022039 L 1499.1300717888437 99.13007178884375 L 1495.7941417988382 95.79414179883827 L 1492.6661068678704 92.66610686787043 L 1489.720082786162 89.72008278616201 L 1486.9339638413337 86.93396384133366 L 1484.2887312993566 84.28873129935663 L 1481.767906075113 81.76790607511286 L 1479.3571114392032 79.3571114392031 L 1477.043720518272 77.04372051827207 L 1474.816569719261 74.8165697192609 L 1472.6657238211435 72.6657238211434 L 1470.582281853943 70.58228185394303 L 1468.5582153810083 68.5582153810082 L 1466.5862326632305 66.58623266323039 L 1464.6596635855606 64.65966358556055 L 1462.7723612887235 62.77236128872335 L 1460.9186172595157 60.9186172595158 L 1459.093087254236 59.093087254236 L 1457.2907259071826 57.29072590718254 L 1455.5067282430734 55.50672824307347 L 1453.7364765930668 53.73647659306666 L 1451.9754916267152 51.97549162671532 L 1450.2193863697132 50.21938636971314 L 1448.4638221890239 48.46382218902387 L 1446.7044657994156 46.70446579941552 L 1444.9369463826336 44.936946382633515 L 1443.1568119145345 43.15681191453451 L 1441.359483766691 41.35948376669102 L 1439.5402085856574 39.54020858565737 L 1437.6940063516804 37.69400635168049 L 1435.8156133733173 35.815613373317355 L 1433.8994187766136 33.899418776613636 L 1431.9393927851745 31.939392785174523 L 1429.9290047440697 29.92900474406971 L 1427.8611283934658 27.861128393465865 L 1425.7279313163826 25.727931316382588 L 1423.5207447269227 23.520744726922562 L 1421.2299087728593 21.229908772859357 L 1418.8445872194243 18.844587219424227 L 1416.3525436475484 16.352543647548394 L 1413.7398689817248 13.739868981724856 L 1410.990647034804 10.990647034804029 L 1408.086540494462 8.086540494461934 L 1405.0062739039784 5.006273903978336 L 1401.7249820051445 1.7249820051444855 L 1401.7249820051445 -1.7249820051445046 L 1405.0062739039784 -5.006273903978394 L 1408.0865404944618 -8.086540494461914 L 1410.990647034804 -10.990647034804011 L 1413.7398689817248 -13.73986898172487 L 1416.3525436475484 -16.352543647548405 L 1418.8445872194243 -18.84458721942424 L 1421.2299087728593 -21.229908772859403 L 1423.5207447269227 -23.520744726922576 L 1425.7279313163826 -25.727931316382602 L 1427.8611283934658 -27.861128393465908 L 1429.9290047440697 -29.929004744069697 L 1431.9393927851745 -31.93939278517451 L 1433.8994187766136 -33.89941877661365 L 1435.8156133733173 -35.81561337331737 L 1437.6940063516804 -37.6940063516805 L 1439.5402085856574 -39.5402085856574 L 1441.359483766691 -41.35948376669103 L 1443.1568119145345 -43.156811914534494 L 1444.9369463826336 -44.93694638263352 L 1446.7044657994154 -46.704465799415516 L 1448.4638221890239 -48.46382218902388 L 1450.2193863697132 -50.21938636971316 L 1451.9754916267152 -51.975491626715325 L 1453.7364765930668 -53.736476593066676 L 1455.5067282430734 -55.50672824307348 L 1457.2907259071826 -57.290725907182576 L 1459.093087254236 -59.093087254235975 L 1460.9186172595157 -60.91861725951581 L 1462.7723612887235 -62.77236128872336 L 1464.6596635855606 -64.6596635855606 L 1466.5862326632305 -66.58623266323042 L 1468.5582153810083 -68.5582153810082 L 1470.5822818539432 -70.58228185394309 L 1472.6657238211433 -72.66572382114336 L 1474.816569719261 -74.81656971926091 L 1477.043720518272 -77.04372051827208 L 1479.357111439203 -79.35711143920308 L 1481.767906075113 -81.76790607511289 L 1484.2887312993566 -84.2887312993566 L 1486.9339638413337 -86.93396384133366 L 1489.720082786162 -89.720082786162 L 1492.6661068678704 -92.66610686787048 L 1495.7941417988382 -95.79414179883825 L 1499.130071788844 -99.13007178884384 L 1502.5656680197797 -97.43433198022034 L 1505.7941469537047 -94.20585304629526 L 1508.8281952696739 -91.17180473032622 L 1511.6917108299579 -88.3082891700422 L 1514.4051793564206 -85.5948206435794 L 1516.9862889010333 -83.01371109896662 L 1519.4504185157812 -80.54958148421878 L 1521.8110304409213 -78.18896955907864 L 1524.0799876064539 -75.92001239354616 L 1526.2678128272455 -73.73218717275454 L 1528.3839021309425 -71.61609786905761 L 1530.4367017582726 -69.56329824172735 L 1532.4338562214143 -67.56614377858567 L 1534.3823331918702 -65.61766680812983 L 1536.2885297699434 -63.7114702300566 L 1538.158363760561 -61.8416362394389 L 1539.9973528709947 -60.002647129005304 L 1541.8106842015873 -58.189315798412665 L 1543.6032759819832 -56.39672401801671 L 1545.3798331840837 -54.62016681591622 L 1547.1448983981131 -52.85510160188694 L 1548.9028991744676 -51.09710082553233 L 1550.6581929003685 -49.341807099631495 L 1552.4151101888983 -47.584889811101675 L 1554.177997703573 -45.82200229642687 L 1555.9512613210836 -44.048738678916386 L 1557.7394105471233 -42.26058945287681 L 1559.5471051459624 -40.45289485403768 L 1561.3792050262155 -38.62079497378467 L 1563.2408245477234 -36.759175452276665 L 1565.1373925847734 -34.86260741522674 L 1567.0747199091838 -32.92528009081615 L 1569.0590757572386 -30.940924242761447 L 1571.0972758363903 -28.90272416360978 L 1573.196784537464 -26.803215462535892 L 1575.365834781735 -24.634165218264926 L 1577.6135697990649 -22.386430200935212 L 1579.9502122713016 -20.049787728698558 L 1582.3872677789877 -17.612732221012156 L 1584.9377714919146 -15.062228508085434 L 1587.6165897335688 -12.383410266431062 L 1590.4407916961936 -9.559208303806292 L 1593.4301115791645 -6.569888420835501 L 1596.6075283455014 -3.3924716544986726 L 1600.0 0.0 M 1900.0 0.0 L 1898.2729642880308 3.450955132175574 L 1896.591894196019 6.792221014177905 L 1894.943424510766 10.035117505647845 L 1893.3162552436568 13.188980268727187 L 1891.70078425814 16.261530560620237 L 1890.0888170650383 19.25916775551756 L 1888.4733353343506 22.18720304436808 L 1886.8483105266505 25.050047906666943 L 1885.2085525083605 27.851367487391787 L 1883.5495855132858 30.59420651424908 L 1881.8675456362341 33.28109356708587 L 1880.159095389421 35.91412816659945 L 1878.4213518537106 38.49505414826687 L 1876.6518257087719 41.02532203553356 L 1874.848368995349 43.50614255733685 L 1873.0091298963491 45.938533021680904 L 1871.132513155385 48.323357925206494 L 1869.217145006405 50.661364923852055 L 1867.2618416841242 52.95321709378855 L 1865.265580735284 55.19952226164656 L 1863.2274744650213 57.40086006896403 L 1861.146744937873 59.5578073507031 L 1859.0227000142652 61.670962346515715 L 1856.8547099443194 63.74096822262085 L 1854.6421840637695 65.76853635935973 L 1852.3845471429977 67.75446985343804 L 1850.0812149300268 69.69968769420115 L 1847.731568401168 71.60525010059345 L 1845.334926187369 73.47238555125813 L 1842.8905145775627 75.30252010715333 L 1840.3974344085173 77.09730971800815 L 1837.8546240283445 78.85867632645889 L 1835.260817360234 80.588848744439 L 1832.6144958837444 82.29040948580364 L 1829.9138330788057 83.9663490114923 L 1827.156629523044 85.62012919823366 L 1824.3402363694108 87.25575830557837 L 1821.4614643214686 88.87788032582453 L 1818.5164744166027 90.49188240862632 L 1815.5006458505056 92.1040251291503 L 1812.4084146265434 93.72160181851967 L 1809.2330748429833 95.35313514605386 L 1805.9665317238814 97.00862185013156 L 1802.5989917373952 98.69984027667002 L 1799.1262716021522 99.56311071631706 L 1795.7039251429594 97.84894885902065 L 1792.3882281587444 96.17719404793533 L 1789.1683966057076 94.53503691008498 L 1786.0355297012434 92.91163297525947 L 1782.9822615130715 91.29775665975991 L 1780.002484653814 89.68552725205912 L 1777.0911290075956 88.06818982412726 L 1774.2439828705324 86.43993844760267 L 1771.4575470735338 84.79577228067006 L 1768.7289149623823 83.13137739819513 L 1766.0556727981539 81.4430289258957 L 1763.4358163890943 79.72750928753035 L 1760.867680696384 77.982039305548 L 1758.3498798570217 76.20421959658567 L 1755.881255598284 74.39198023457932 L 1753.4608324234096 72.54353705960133 L 1751.0877782586895 70.65735332122081 L 1748.7613694907873 68.7321055839808 L 1746.4809595065021 66.76665300614066 L 1744.2459499875501 64.76000924334426 L 1742.0557643191946 62.711316335295905 L 1739.9098225502469 60.61982001237915 L 1737.8075173977636 58.484845915111954 L 1735.7481908258947 56.30577625563364 L 1733.7311107468736 54.082026469109636 L 1731.7554473940997 51.81302140506558 L 1729.8202489027715 49.49817059433568 L 1727.9244156017885 47.136842095726536 L 1726.0666724698422 44.72833437586635 L 1724.2455391358635 42.27184560311879 L 1722.4592967050014 39.76643963760355 L 1720.7059505600428 37.21100786826615 L 1718.9831881163964 34.60422587630597 L 1717.2883302851342 31.94450368080185 L 1715.618275107734 29.229928031679698 L 1713.969431647044 26.45819483619187 L 1712.3376417226414 23.62652930889076 L 1710.7180864251375 20.731590781598328 L 1709.1051734770795 17.769358243119278 L 1707.4924003489339 14.734991519433482 L 1705.8721864746121 11.622661441207256 L 1704.235665779594 8.425340214202679 L 1702.572427798536 5.134540272134678 L 1700.870191566739 1.7399857991351015 L 1700.870191566739 -1.7399857991351209 L 1702.5724277985362 -5.134540272134739 L 1704.235665779594 -8.425340214202658 L 1705.8721864746121 -11.622661441207237 L 1707.4924003489339 -14.734991519433498 L 1709.1051734770795 -17.769358243119292 L 1710.7180864251375 -20.731590781598342 L 1712.3376417226414 -23.626529308890817 L 1713.969431647044 -26.458194836191886 L 1715.618275107734 -29.229928031679712 L 1717.2883302851342 -31.944503680801905 L 1718.9831881163964 -34.60422587630595 L 1720.7059505600428 -37.21100786826614 L 1722.4592967050014 -39.76643963760356 L 1724.2455391358635 -42.27184560311881 L 1726.0666724698422 -44.72833437586637 L 1727.9244156017887 -47.136842095726585 L 1729.8202489027715 -49.49817059433569 L 1731.7554473940997 -51.813021405065555 L 1733.7311107468736 -54.08202646910964 L 1735.7481908258947 -56.30577625563363 L 1737.8075173977636 -58.48484591511196 L 1739.9098225502469 -60.619820012379186 L 1742.0557643191946 -62.71131633529592 L 1744.2459499875501 -64.76000924334426 L 1746.4809595065021 -66.76665300614067 L 1748.7613694907873 -68.73210558398084 L 1751.0877782586895 -70.65735332122078 L 1753.4608324234096 -72.54353705960136 L 1755.881255598284 -74.39198023457932 L 1758.3498798570217 -76.20421959658572 L 1760.867680696384 -77.98203930554801 L 1763.4358163890943 -79.72750928753035 L 1766.055672798154 -81.44302892589575 L 1768.728914962382 -83.1313773981951 L 1771.4575470735338 -84.79577228067006 L 1774.2439828705324 -86.43993844760269 L 1777.0911290075956 -88.06818982412724 L 1780.002484653814 -89.68552725205913 L 1782.9822615130713 -91.2977566597599 L 1786.0355297012434 -92.91163297525947 L 1789.1683966057076 -94.53503691008497 L 1792.3882281587444 -96.17719404793534 L 1795.7039251429594 -97.84894885902064 L 1799.1262716021524 -99.56311071631711 L 1802.5989917373952 -98.69984027666999 L 1805.9665317238814 -97.00862185013156 L 1809.2330748429833 -95.35313514605384 L 1812.4084146265434 -93.72160181851967 L 1815.5006458505056 -92.10402512915029 L 1818.5164744166027 -90.49188240862632 L 1821.4614643214688 -88.87788032582449 L 1824.3402363694108 -87.25575830557838 L 1827.156629523044 -85.62012919823364 L 1829.9138330788057 -83.9663490114923 L 1832.6144958837444 -82.29040948580364 L 1835.260817360234 -80.58884874443896 L 1837.8546240283445 -78.85867632645892 L 1840.3974344085173 -77.09730971800816 L 1842.8905145775627 -75.30252010715331 L 1845.3349261873693 -73.4723855512581 L 1847.731568401168 -71.60525010059344 L 1850.0812149300268 -69.69968769420115 L 1852.3845471429977 -67.754469853438 L 1854.6421840637695 -65.76853635935974 L 1856.8547099443194 -63.740968222620836 L 1859.022700014265 -61.67096234651573 L 1861.146744937873 -59.55780735070305 L 1863.2274744650213 -57.40086006896401 L 1865.265580735284 -55.19952226164649 L 1867.2618416841242 -52.95321709378857 L 1869.217145006405 -50.66136492385208 L 1871.132513155385 -48.32335792520647 L 1873.0091298963491 -45.9385330216809 L 1874.848368995349 -43.50614255733681 L 1876.6518257087719 -41.025322035533534 L 1878.4213518537106 -38.49505414826686 L 1880.159095389421 -35.91412816659945 L 1881.8675456362341 -33.28109356708581 L 1883.5495855132858 -30.594206514249052 L 1885.2085525083605 -27.85136748739177 L 1886.8483105266505 -25.05004790666688 L 1888.4733353343506 -22.187203044368108 L 1890.0888170650385 -19.25916775551753 L 1891.70078425814 -16.26153056062023 L 1893.3162552436568 -13.18898026872712 L 1894.943424510766 -10.0351175056478 L 1896.591894196019 -6.792221014177966 L 1898.2729642880308 -3.450955132175574 L 1900.0 0.0 M 2200.0 0.0 L 2199.9384002305605 3.5094386098524755 L 2199.7536768128734 7.014553607520365 L 2199.446057325338 10.511026707489357 L 2199.0159207537445 13.994550271023252 L 2198.4637970243652 17.46083261315503 L 2197.790366351089 20.905603290022942 L 2196.9964583973997 24.324618360037626 L 2196.083051254236 27.71366561239863 L 2195.051270234986 31.068569756518635 L 2193.902386489108 34.385197565962244 L 2192.637815436078 37.65946297056191 L 2191.2591150216035 40.887332090437454 L 2189.7679837982373 44.064828205717575 L 2188.1662588327704 47.188036655840364 L 2186.4559134429746 50.25310966239701 L 2184.6390547664832 53.25627106957714 L 2182.7179211648076 56.19382099637529 L 2180.694879465687 59.06214039482732 L 2178.5724220471648 61.857695508660726 L 2176.353163766995 64.5770422268662 L 2174.039838741144 67.21683032682635 L 2171.6352969753775 69.77380760177466 L 2169.1425008540623 72.24482386749912 L 2166.5645214905257 74.62683484335474 L 2163.9045349434555 76.91690590280324 L 2161.1658183040117 79.11221568885932 L 2158.3517456584664 81.21005958998963 L 2155.4657839313413 83.20785307218159 L 2152.5114886141773 85.10313486307733 L 2149.492499385182 86.89356998425004 L 2146.4125356251643 88.57695262788647 L 2143.2753918352746 90.15120887433214 L 2140.084932962195 91.61439924715062 L 2136.8450896365466 92.96472110254966 L 2133.559853330366 94.20051085023006 L 2130.2332714396343 95.32024600292114 L 2126.8694422979006 96.32254705207811 L 2123.472510127156 97.20617916743022 L 2120.046659932172 97.97005371828601 L 2116.596112344591 98.61322961472118 L 2113.125118423129 99.13491446699715 L 2109.637954416293 99.53446556178147 L 2106.1389164940583 99.81139065396785 L 2102.6323154550105 99.96534857311963 L 2099.122471415461 99.99614964379037 L 2095.6137084870807 99.90375591920302 L 2092.1103494496183 99.68828122800022 L 2088.616710425253 99.34999103400794 L 2085.1370955611533 98.88930210918525 L 2081.6757917267864 98.30678202016321 L 2078.237063232515 97.60314842900537 L 2074.825146575988 96.77926820905142 L 2071.4442452227927 95.83615637693327 L 2068.0985244278068 94.77497484207923 L 2064.792106103621 93.59703097524685 L 2061.529063742365 92.30377599784838 L 2058.3134173971807 90.8968031940525 L 2055.1491287295376 89.3778459478656 L 2052.0400961284827 87.7487756076108 L 2048.9901499078446 86.01159918043528 L 2046.0030475873034 84.16845685968688 L 2043.0824692631431 82.22161938820562 L 2040.2320130743922 80.17348526077906 L 2037.4551907699308 78.02657776920786 L 2034.7554233820338 75.78354189362184 L 2032.1360370116738 73.4471410438765 L 2029.6002587307805 71.02025365504517 L 2027.1512126065031 68.50586964120004 L 2024.7919158523737 65.90708671185176 L 2022.5252751111138 63.22710655558575 L 2020.354082873665 60.469230895596645 L 2018.281014038852 57.636857421980345 L 2016.3086226179198 54.733475605795704 L 2014.439338588004 51.76266240005222 L 2012.6754648984097 48.728077832920235 L 2011.019174633389 45.63346049859345 L 2009.472508334911 42.48262295135778 L 2008.037371488723 39.27944700854222 L 2006.7155321768023 36.02787896813784 L 2005.5086188990856 32.73192474697681 L 2004.4181185671657 29.395644945461175 L 2003.4453746724232 26.023149844922166 L 2002.591585630851 22.61859434377243 L 2001.8578033066108 19.18617283869016 L 2001.2449317161427 15.730114057142107 L 2000.7537259144203 12.254675847610484 L 2000.3847910647262 8.764139933943424 L 2000.1385816930938 5.26280664029102 L 2000.0154011283337 1.7549895931257173 L 2000.0154011283337 -1.7549895931257373 L 2000.1385816930938 -5.262806640291084 L 2000.3847910647262 -8.764139933943401 L 2000.7537259144203 -12.254675847610462 L 2001.2449317161427 -15.730114057142126 L 2001.8578033066108 -19.186172838690176 L 2002.591585630851 -22.618594343772443 L 2003.4453746724232 -26.023149844922234 L 2004.4181185671657 -29.395644945461193 L 2005.5086188990856 -32.73192474697682 L 2006.7155321768023 -36.027878968137905 L 2008.037371488723 -39.2794470085422 L 2009.472508334911 -42.48262295135777 L 2011.0191746333892 -45.633460498593465 L 2012.6754648984097 -48.728077832920256 L 2014.439338588004 -51.762662400052236 L 2016.3086226179198 -54.73347560579576 L 2018.281014038852 -57.63685742198036 L 2020.354082873665 -60.469230895596624 L 2022.5252751111138 -63.22710655558576 L 2024.7919158523737 -65.90708671185175 L 2027.1512126065031 -68.50586964120005 L 2029.6002587307805 -71.02025365504521 L 2032.1360370116738 -73.44714104387651 L 2034.7554233820338 -75.78354189362183 L 2037.4551907699308 -78.02657776920788 L 2040.2320130743922 -80.1734852607791 L 2043.0824692631431 -82.22161938820558 L 2046.0030475873034 -84.1684568596869 L 2048.9901499078446 -86.01159918043528 L 2052.0400961284827 -87.74877560761084 L 2055.1491287295376 -89.37784594786562 L 2058.3134173971807 -90.8968031940525 L 2061.529063742365 -92.30377599784842 L 2064.792106103621 -93.59703097524685 L 2068.0985244278068 -94.77497484207923 L 2071.4442452227927 -95.83615637693327 L 2074.825146575988 -96.77926820905142 L 2078.237063232515 -97.60314842900537 L 2081.6757917267864 -98.3067820201632 L 2085.1370955611533 -98.88930210918525 L 2088.616710425253 -99.34999103400794 L 2092.1103494496183 -99.68828122800022 L 2095.6137084870807 -99.90375591920302 L 2099.122471415461 -99.99614964379037 L 2102.632315455011 -99.96534857311963 L 2106.1389164940583 -99.81139065396785 L 2109.637954416293 -99.53446556178147 L 2113.125118423129 -99.13491446699715 L 2116.596112344591 -98.61322961472118 L 2120.046659932172 -97.97005371828601 L 2123.4725101271565 -97.20617916743021 L 2126.8694422979006 -96.32254705207811 L 2130.2332714396343 -95.32024600292112 L 2133.559853330366 -94.20051085023006 L 2136.8450896365466 -92.96472110254966 L 2140.084932962195 -91.61439924715059 L 2143.2753918352746 -90.15120887433217 L 2146.4125356251643 -88.57695262788648 L 2149.492499385182 -86.89356998425004 L 2152.5114886141773 -85.1031348630773 L 2155.4657839313413 -83.20785307218156 L 2158.3517456584664 -81.21005958998964 L 2161.165818304012 -79.11221568885928 L 2163.9045349434555 -76.91690590280326 L 2166.5645214905257 -74.62683484335473 L 2169.1425008540623 -72.24482386749912 L 2171.6352969753775 -69.7738076017746 L 2174.039838741144 -67.21683032682634 L 2176.353163766995 -64.57704222686613 L 2178.5724220471648 -61.85769550866075 L 2180.694879465687 -59.06214039482734 L 2182.7179211648076 -56.193820996375266 L 2184.6390547664832 -53.256271069577124 L 2186.4559134429746 -50.25310966239695 L 2188.1662588327704 -47.18803665584033 L 2189.7679837982373 -44.06482820571756 L 2191.2591150216035 -40.887332090437454 L 2192.637815436078 -37.65946297056185 L 2193.902386489108 -34.38519756596221 L 2195.051270234986 -31.068569756518613 L 2196.083051254236 -27.71366561239855 L 2196.9964583973997 -24.324618360037658 L 2197.790366351089 -20.90560329002291 L 2198.4637970243652 -17.460832613155024 L 2199.0159207537445 -13.994550271023178 L 2199.446057325338 -10.511026707489307 L 2199.7536768128734 -7.01455360752043 L 2199.9384002305605 -3.5094386098524755 L 2200.0 0.0 M 2500.0 0.0 L 2503.2692721156195 3.6264055652062783 L 2506.0772420465823 7.459218794205286 L 2508.4513229544827 11.46284511117238 L 2510.41525177392 15.605690275615384 L 2511.989822556816 19.85943671822462 L 2513.19346492319 24.198474359033703 L 2514.0427045234983 28.59944899137672 L 2514.5525327094074 33.04090102386199 L 2514.7367056882367 37.50297429477233 L 2514.6079884407513 41.96717966938858 L 2514.178355035766 46.416201777514004 L 2513.459154285969 50.83373993811345 L 2512.461247687291 55.204376320619 L 2511.1951250807674 59.513465896453965 L 2509.6710023382257 63.74704387251731 L 2507.898904506751 67.89174716536961 L 2505.888737183653 71.93474713871286 L 2503.6503483842503 75.86369133677783 L 2501.1935827732464 79.66665233840507 L 2498.5283298304166 83.33208215730549 L 2495.66456729339 86.84877084255102 L 2492.612401050387 90.2058081039178 L 2489.3821025336574 93.39254690946592 L 2485.9841445829384 96.39856808482254 L 2482.429236702827 99.21364498969027 L 2478.7283606260407 101.82770735970189 L 2474.892807115345 104.23080338156659 L 2470.934214991688 106.41305901535787 L 2466.8646134677933 108.36463348671573 L 2462.6964690004206 110.07566973844347 L 2458.4427380584584 111.53623844764311 L 2454.1169274491344 112.73627397007864 L 2449.733164166118 113.66550025257384 L 2445.306277142151 114.31334433604171 L 2440.851893833487 114.66883452770558 L 2436.3865552728143 114.72047961229612 L 2431.9278541548797 114.45612454507759 L 2427.4946017385314 113.8627768506416 L 2423.107030963311 112.92639633760538 L 2418.787045332761 111.63163858586293 L 2414.5585260163 109.96153976395209 L 2410.4477135629118 107.8971263932367 L 2406.4836860344117 105.41692826164041 L 2402.6989628902415 102.49636516601886 L 2399.114871042078 100.862227498737 L 2395.433275175323 104.01337003956777 L 2391.554592031366 106.71045558813002 L 2387.513338064344 108.97989928185387 L 2383.340227280973 110.84464037703684 L 2379.0628521542158 112.3248327409698 L 2374.7062203899172 113.43839078289788 L 2370.293181712773 114.20142497889975 L 2365.8447699273133 114.62859223559448 L 2361.3804791363523 114.73337996489757 L 2356.9184883860985 114.5283381293503 L 2352.475845630787 114.02527014175374 L 2348.0686194133527 113.2353910070968 L 2343.7120247958446 112.1694592325008 L 2339.420528671405 110.83788762966104 L 2335.2079385269662 109.25083707214722 L 2331.087477915091 107.41829645985797 L 2327.07185127205 105.35015152217524 L 2323.1733002416017 103.05624461437559 L 2319.403653296788 100.54642729534226 L 2315.774370171001 97.83060719417702 L 2312.2965823966324 94.91879046103767 L 2308.981131091848 91.82112094037718 L 2305.8386030239826 88.54791709337618 L 2302.8793659053317 85.10970762428799 L 2300.113603839594 81.51726672853799 L 2297.5513538327955 77.78164987665878 L 2295.202544311013 73.91423107726968 L 2293.077036650182 69.92674262593404 L 2291.1846708243274 65.83131844842394 L 2289.535316423502 61.640542292523115 L 2288.1389304901645 57.36750222057327 L 2287.0056238846473 53.02585311754105 L 2286.1457382333765 48.629889273014726 L 2285.5699359601385 44.19462954280982 L 2285.2893064817886 39.73591817757104 L 2285.315492407409 35.270545163999785 L 2285.660840571987 30.816390916984975 L 2286.3385840422775 26.392601468120628 L 2287.363062965673 22.01980202983193 L 2288.7499944505607 17.72035913255936 L 2290.516804794037 13.518704660416939 L 2292.6830416349903 9.441739373424916 L 2295.270889482209 5.519339376603703 L 2298.305820251523 1.7849971811069492 L 2298.305820251523 -1.78499718110697 L 2295.270889482209 -5.5193393766037735 L 2292.6830416349903 -9.441739373424888 L 2290.516804794037 -13.518704660416912 L 2288.7499944505607 -17.72035913255938 L 2287.363062965673 -22.01980202983195 L 2286.3385840422775 -26.39260146812065 L 2285.660840571987 -30.816390916985064 L 2285.315492407409 -35.27054516399981 L 2285.2893064817886 -39.735918177571044 L 2285.5699359601385 -44.1946295428099 L 2286.1457382333765 -48.6298892730147 L 2287.0056238846473 -53.02585311754102 L 2288.1389304901645 -57.367502220573286 L 2289.535316423502 -61.640542292523136 L 2291.1846708243274 -65.83131844842397 L 2293.0770366501824 -69.92674262593412 L 2295.202544311013 -73.91423107726969 L 2297.5513538327955 -77.78164987665875 L 2300.113603839594 -81.517266728538 L 2302.8793659053317 -85.10970762428798 L 2305.8386030239826 -88.54791709337621 L 2308.981131091848 -91.82112094037726 L 2312.2965823966324 -94.9187904610377 L 2315.774370171001 -97.83060719417699 L 2319.403653296788 -100.54642729534227 L 2323.1733002416017 -103.05624461437563 L 2327.07185127205 -105.35015152217518 L 2331.087477915091 -107.41829645985798 L 2335.2079385269662 -109.25083707214722 L 2339.420528671405 -110.83788762966108 L 2343.7120247958446 -112.16945923250083 L 2348.0686194133527 -113.23539100709681 L 2352.475845630787 -114.02527014175374 L 2356.9184883860985 -114.52833812935035 L 2361.3804791363523 -114.73337996489755 L 2365.844769927314 -114.62859223559447 L 2370.293181712773 -114.20142497889977 L 2374.7062203899172 -113.43839078289786 L 2379.0628521542158 -112.3248327409698 L 2383.340227280973 -110.84464037703684 L 2387.513338064344 -108.97989928185389 L 2391.554592031366 -106.71045558812996 L 2395.433275175323 -104.01337003956779 L 2399.114871042078 -100.86222749873691 L 2402.698962890242 -102.49636516601892 L 2406.4836860344117 -105.41692826164044 L 2410.4477135629118 -107.89712639323673 L 2414.5585260163 -109.96153976395209 L 2418.787045332761 -111.63163858586296 L 2423.107030963311 -112.9263963376054 L 2427.4946017385314 -113.86277685064164 L 2431.9278541548792 -114.45612454507757 L 2436.3865552728143 -114.72047961229609 L 2440.851893833487 -114.66883452770557 L 2445.306277142151 -114.3133443360417 L 2449.733164166118 -113.66550025257382 L 2454.1169274491344 -112.73627397007867 L 2458.4427380584584 -111.53623844764314 L 2462.6964690004206 -110.07566973844348 L 2466.864613467794 -108.3646334867157 L 2470.934214991688 -106.41305901535783 L 2474.892807115345 -104.2308033815666 L 2478.7283606260407 -101.82770735970183 L 2482.429236702827 -99.2136449896903 L 2485.9841445829384 -96.3985680848225 L 2489.3821025336574 -93.39254690946592 L 2492.612401050387 -90.20580810391772 L 2495.66456729339 -86.848770842551 L 2498.5283298304166 -83.33208215730536 L 2501.1935827732464 -79.6666523384051 L 2503.6503483842503 -75.86369133677788 L 2505.888737183653 -71.93474713871285 L 2507.898904506751 -67.89174716536958 L 2509.6710023382257 -63.74704387251723 L 2511.1951250807674 -59.51346589645391 L 2512.461247687291 -55.20437632061898 L 2513.459154285969 -50.83373993811345 L 2514.178355035766 -46.416201777513905 L 2514.6079884407513 -41.96717966938853 L 2514.7367056882367 -37.5029742947723 L 2514.5525327094074 -33.040901023861885 L 2514.0427045234983 -28.599448991376754 L 2513.19346492319 -24.19847435903366 L 2511.989822556816 -19.85943671822461 L 2510.41525177392 -15.605690275615295 L 2508.4513229544827 -11.462845111172324 L 2506.077242046583 -7.459218794205359 L 2503.2692721156195 -3.6264055652062783 L 2500.0 0.0 M 2800.0 0.0 L 2804.934708058149 3.6848890428831798 L 2809.239024663437 7.681551387547746 L 2812.953955769055 11.938754313013892 L 2816.114917284008 16.41126027791145 L 2818.752835323041 21.058738770759415 L 2820.8950142092403 25.844909893539082 L 2822.5658275865476 30.736864307046268 L 2823.787273436993 35.70451872959367 L 2824.5794234148625 40.72017656389917 L 2824.960789416573 45.75817072110175 L 2824.94862483561 50.794571180990054 L 2824.5591739181514 55.80694386195145 L 2823.8078796318177 60.774150378069706 L 2822.7095582047664 65.67618051676077 L 2821.278546785851 70.49401097757746 L 2819.528829376885 75.20948521326585 L 2817.474145193076 79.80521020988166 L 2815.128082843532 84.26446680775311 L 2812.504163136287 88.57113075327725 L 2809.6159128621275 92.70960212252514 L 2806.476931569513 96.66474110041335 L 2803.100953087891 100.42180835498937 L 2799.5019033734548 103.96640843044932 L 2795.6939561291447 107.28443470555644 L 2791.691587582513 110.36201453313377 L 2787.509631787055 113.18545319512319 L 2783.1633378437846 115.74117527735507 L 2778.6684305218614 118.01566198694601 L 2774.0411758946016 119.99538279853493 L 2769.29845380804 121.66671961554017 L 2764.457839275106 123.01588135752144 L 2759.5376952560646 124.02880651795189 L 2754.5572797680793 124.69105075528543 L 2749.536870894953 124.98765595278775 L 2744.4979140850473 124.90299636644335 L 2739.4631971894046 124.42059641698361 L 2734.457060083369 123.52291329157734 L 2729.505647544219 122.19107569224728 L 2724.63721647888 120.40456764726507 L 2719.882511826846 118.1408430714338 L 2715.275229812886 115.37485241242956 L 2710.852593136221 112.07845680896432 L 2706.656070804588 108.21969706547668 L 2702.732286607857 103.76187346246847 L 2699.1110708553865 101.29526642621032 L 2695.343058519444 106.06817709975016 L 2691.27671332224 110.22154276819492 L 2686.9616518838898 113.79485340577685 L 2682.441793140883 116.82230951096264 L 2677.7563823679307 119.3338581013731 L 2672.9407989686183 121.35601195984415 L 2668.0271992811654 122.9125033638239 L 2663.045032279574 124.02481016492509 L 2658.021456490625 124.71258252630673 L 2652.9816795273373 124.99399170640203 L 2647.9492365749975 124.8860172137064 L 2642.946220421439 124.40468491361895 L 2637.993472828998 123.56526587481841 L 2633.1107449428664 122.38244364068616 L 2628.316832836527 120.87045601800318 L 2623.6296930789845 119.0432162599435 L 2619.0665422765037 116.91441758916005 L 2614.6439438252064 114.49762429117385 L 2610.3778845602164 111.80635205840944 L 2606.2838435654844 108.85413984445461 L 2602.3768550891114 105.65461516961827 L 2598.6715672723817 102.2215545830432 L 2595.182298232722 98.56894081946427 L 2591.9230909318107 94.71101808050611 L 2588.907768203834 90.6623468150141 L 2586.149989312361 86.43785936718984 L 2583.6633094470935 82.05291790491434 L 2581.4612436663133 77.52337613600321 L 2579.557336942489 72.86564647260981 L 2577.9652421860483 68.09677452232455 L 2576.6988084185523 63.234523081563175 L 2575.772181659516 58.29746820063268 L 2575.1999216057034 53.305110405250986 L 2574.9971378518067 48.278004830145804 L 2575.17965027314 43.23791489286815 L 2575.7641793275307 38.20799527326909 L 2576.768573521769 33.21301145301638 L 2578.212083247991 28.27960503029473 L 2580.1156927952043 23.436616625402813 L 2582.5025258177698 18.715481670267984 L 2585.398344233845 14.150719066820166 L 2588.8321669201227 9.780539093165661 L 2592.837043376767 5.647605744760045 L 2597.4510298131177 1.8000009750975652 L 2597.451029813117 -1.8000009750975863 L 2592.837043376767 -5.647605744760119 L 2588.8321669201227 -9.78053909316563 L 2585.398344233845 -14.150719066820137 L 2582.5025258177698 -18.715481670268012 L 2580.1156927952043 -23.436616625402834 L 2578.212083247991 -28.27960503029475 L 2576.768573521769 -33.21301145301648 L 2575.7641793275307 -38.20799527326912 L 2575.17965027314 -43.23791489286816 L 2574.9971378518067 -48.278004830145896 L 2575.199921605703 -53.30511040525094 L 2575.7721816595154 -58.29746820063265 L 2576.6988084185523 -63.2345230815632 L 2577.9652421860483 -68.09677452232458 L 2579.557336942489 -72.86564647260985 L 2581.4612436663133 -77.5233761360033 L 2583.6633094470935 -82.05291790491435 L 2586.149989312361 -86.43785936718982 L 2588.907768203834 -90.66234681501413 L 2591.9230909318107 -94.7110180805061 L 2595.182298232722 -98.5689408194643 L 2598.6715672723817 -102.22155458304329 L 2602.3768550891114 -105.6546151696183 L 2606.2838435654844 -108.85413984445458 L 2610.377884560217 -111.80635205840946 L 2614.6439438252064 -114.4976242911739 L 2619.0665422765037 -116.91441758915998 L 2623.6296930789845 -119.04321625994353 L 2628.316832836527 -120.87045601800318 L 2633.1107449428664 -122.3824436406862 L 2637.993472828998 -123.56526587481842 L 2642.946220421439 -124.40468491361895 L 2647.9492365749975 -124.88601721370641 L 2652.9816795273373 -124.9939917064021 L 2658.021456490625 -124.7125825263067 L 2663.045032279574 -124.02481016492507 L 2668.0271992811654 -122.91250336382393 L 2672.9407989686183 -121.3560119598441 L 2677.7563823679307 -119.3338581013731 L 2682.441793140883 -116.82230951096264 L 2686.9616518838898 -113.79485340577686 L 2691.27671332224 -110.22154276819484 L 2695.343058519444 -106.06817709975017 L 2699.1110708553865 -101.29526642621019 L 2702.7322866078575 -103.76187346246857 L 2706.656070804588 -108.21969706547672 L 2710.852593136221 -112.07845680896436 L 2715.2752298128858 -115.37485241242956 L 2719.882511826846 -118.14084307143384 L 2724.6372164788804 -120.4045676472651 L 2729.505647544219 -122.19107569224735 L 2734.457060083369 -123.52291329157731 L 2739.4631971894046 -124.42059641698356 L 2744.4979140850473 -124.90299636644335 L 2749.536870894953 -124.98765595278772 L 2754.5572797680793 -124.69105075528545 L 2759.5376952560646 -124.02880651795192 L 2764.457839275106 -123.0158813575215 L 2769.29845380804 -121.66671961554019 L 2774.0411758946016 -119.9953827985349 L 2778.6684305218614 -118.01566198694596 L 2783.1633378437846 -115.7411752773551 L 2787.509631787055 -113.18545319512313 L 2791.691587582513 -110.36201453313383 L 2795.6939561291447 -107.28443470555641 L 2799.5019033734548 -103.96640843044932 L 2803.1009530878914 -100.42180835498928 L 2806.476931569513 -96.66474110041332 L 2809.6159128621275 -92.709602122525 L 2812.504163136287 -88.57113075327729 L 2815.128082843532 -84.26446680775314 L 2817.474145193076 -79.80521020988164 L 2819.5288293768845 -75.20948521326581 L 2821.278546785851 -70.49401097757737 L 2822.7095582047664 -65.6761805167607 L 2823.8078796318177 -60.774150378069685 L 2824.5591739181514 -55.80694386195145 L 2824.94862483561 -50.79457118098994 L 2824.960789416573 -45.758170721101685 L 2824.5794234148625 -40.720176563899145 L 2823.787273436993 -35.70451872959355 L 2822.5658275865476 -30.736864307046304 L 2820.8950142092403 -25.84490989353904 L 2818.752835323041 -21.058738770759405 L 2816.114917284008 -16.411260277911353 L 2812.953955769055 -11.938754313013831 L 2809.2390246634372 -7.681551387547824 L 2804.934708058149 -3.6848890428831798 L 2800.0 0.0 M 3100.0 0.0 L 3109.9310158857375 3.860339475913884 L 3118.7243725140006 8.348549167575127 L 3126.461854212772 13.366481918538426 L 3133.213913814271 18.827970284799644 L 3139.041873621717 24.656644928363804 L 3143.9996620673924 30.784216497055223 L 3148.135196775695 37.149110254054904 L 3151.49149561975 43.695371846788724 L 3154.107576594739 50.37178337127971 L 3156.0191923440384 57.13114387624124 L 3157.259434235142 63.9296793914182 L 3157.8592328146988 70.72655563346547 L 3157.8477754653977 77.48347255042184 L 3157.252857576762 84.16432437768117 L 3156.101180128728 90.73491229275793 L 3154.4186039872866 97.16269935695456 L 3152.2303692213436 103.41659942338804 L 3149.5612862213775 109.46679322067888 L 3146.435904225409 115.28456599789378 L 3142.87866195726 120.84216201818407 L 3138.914024397882 126.11265187400033 L 3134.566609200405 131.06980910820408 L 3129.8613058928468 135.68799299339952 L 3124.8233907677636 139.94203456775813 L 3119.4786402215705 143.80712316346433 L 3113.853445270098 147.25869070138702 L 3107.974930029103 150.27229096472053 L 3101.871077112381 152.8234709017104 L 3095.570863175026 154.88763073399252 L 3089.1044082308977 156.4398692468303 L 3082.503142925047 157.45481008715643 L 3075.7999986768546 157.90640416157163 L 3069.029626573963 157.7677022634203 L 3062.2286521533592 157.01059080302582 L 3055.4359748397283 155.60548188265665 L 3048.6931229391753 153.52094683104607 L 3042.0446778688374 150.72327953107654 L 3035.5387849612816 147.17597221706433 L 3029.2277730255882 142.83908157624413 L 3023.1689113091015 137.66845652814644 L 3017.425341202643 131.61479035786198 L 3012.0672318561496 124.62244805614716 L 3007.1732251151184 116.62800347698553 L 3002.8322577607037 107.55839835181733 L 2999.099670295312 102.59438320863025 L 2995.0724085518077 112.23259828029728 L 2990.4430771948614 120.75480430838961 L 2985.3065933425264 128.23971577754574 L 2979.746490720612 134.75531691274003 L 2973.8369730090753 140.36093418258295 L 2967.644534704722 145.10887549068292 L 2961.2292519863427 149.0457385185964 L 2954.645819336355 152.2134639529169 L 2947.944388553444 154.65019021053422 L 2941.171252951054 156.3909524375572 L 2934.3694094076304 157.46825842956443 L 2927.5790234456977 157.9125666331854 L 2920.8378169284583 157.7526858017712 L 2914.1813937572497 157.01611167376154 L 2907.643515765209 155.72931285557107 L 2901.256338570666 153.9179756602001 L 2895.0506152898643 151.60721579011448 L 2889.055874576021 148.82176332156862 L 2883.3005783505027 145.586126347611 L 2877.812263748935 141.92473779528737 L 2872.617673166549 137.86208929536005 L 2867.7428758139827 133.42285551104123 L 2863.2133838589407 128.6320119977285 L 2859.054266011248 123.51494944916047 L 2855.2902612965545 118.09758707444246 L 2851.9458957510565 112.40648783878305 L 2849.0456048553347 106.46897838784832 L 2846.6138647147072 100.31327666621073 L 2844.6753352969745 93.9686305451674 L 2843.255019473687 87.46547121172887 L 2842.378442203715 80.8355856645329 L 2842.0718549841204 74.11231344990757 L 2842.362471722683 67.33077380195974 L 2843.2787435268115 60.528130692153766 L 2844.8506816471945 53.74390503875948 L 2847.1102400878954 47.02034560107701 L 2850.091772371115 40.4028730611106 L 2853.8325808651307 33.94061571681703 L 2858.3735822837975 27.687060412115464 L 2863.7601199193964 21.70084928339386 L 2870.0429625532693 16.04676228602985 L 2877.279542775519 10.796938252387896 L 2885.53550506044 6.032404849229071 L 2894.8866584979014 1.8450123570694128 L 2894.8866584979014 -1.8450123570694352 L 2885.53550506044 -6.032404849229153 L 2877.279542775519 -10.79693825238786 L 2870.0429625532693 -16.046762286029814 L 2863.7601199193964 -21.700849283393893 L 2858.3735822837975 -27.687060412115496 L 2853.8325808651307 -33.94061571681706 L 2850.091772371115 -40.402873061110725 L 2847.1102400878954 -47.02034560107704 L 2844.8506816471945 -53.74390503875949 L 2843.2787435268115 -60.528130692153894 L 2842.362471722683 -67.3307738019597 L 2842.0718549841204 -74.11231344990753 L 2842.378442203715 -80.83558566453291 L 2843.255019473687 -87.46547121172891 L 2844.6753352969745 -93.96863054516746 L 2846.6138647147072 -100.31327666621084 L 2849.0456048553347 -106.46897838784835 L 2851.9458957510565 -112.40648783878302 L 2855.2902612965545 -118.09758707444249 L 2859.054266011248 -123.51494944916044 L 2863.2133838589407 -128.63201199772854 L 2867.7428758139827 -133.42285551104135 L 2872.617673166549 -137.86208929536008 L 2877.812263748935 -141.9247377952873 L 2883.3005783505027 -145.58612634761107 L 2889.055874576021 -148.8217633215687 L 2895.0506152898643 -151.6072157901144 L 2901.256338570666 -153.91797566020017 L 2907.6435157652095 -155.72931285557107 L 2914.1813937572497 -157.01611167376157 L 2920.837816928459 -157.75268580177124 L 2927.5790234456977 -157.9125666331854 L 2934.3694094076304 -157.4682584295644 L 2941.1712529510537 -156.39095243755733 L 2947.944388553444 -154.6501902105342 L 2954.645819336355 -152.21346395291687 L 2961.2292519863427 -149.04573851859647 L 2967.644534704722 -145.10887549068283 L 2973.836973009075 -140.36093418258298 L 2979.746490720612 -134.75531691274003 L 2985.3065933425264 -128.23971577754577 L 2990.4430771948614 -120.75480430838944 L 2995.0724085518077 -112.23259828029732 L 2999.099670295312 -102.59438320862999 L 3002.832257760704 -107.5583983518175 L 3007.1732251151184 -116.62800347698561 L 3012.0672318561496 -124.62244805614725 L 3017.425341202643 -131.61479035786198 L 3023.1689113091015 -137.66845652814652 L 3029.2277730255882 -142.83908157624418 L 3035.5387849612816 -147.1759722170645 L 3042.0446778688374 -150.7232795310765 L 3048.6931229391753 -153.52094683104602 L 3055.4359748397283 -155.60548188265662 L 3062.2286521533592 -157.0105908030258 L 3069.0296265739635 -157.7677022634203 L 3075.7999986768546 -157.9064041615717 L 3082.503142925047 -157.4548100871565 L 3089.1044082308977 -156.43986924683034 L 3095.5708631750263 -154.88763073399252 L 3101.871077112381 -152.82347090171035 L 3107.974930029103 -150.27229096472053 L 3113.853445270098 -147.25869070138697 L 3119.4786402215705 -143.80712316346438 L 3124.8233907677636 -139.94203456775807 L 3129.8613058928468 -135.68799299339952 L 3134.566609200405 -131.06980910820394 L 3138.914024397882 -126.11265187400032 L 3142.87866195726 -120.84216201818387 L 3146.435904225409 -115.28456599789382 L 3149.561286221377 -109.46679322067894 L 3152.2303692213436 -103.41659942338802 L 3154.418603987286 -97.16269935695449 L 3156.101180128728 -90.7349122927578 L 3157.252857576762 -84.16432437768108 L 3157.8477754653977 -77.4834725504218 L 3157.8592328146988 -70.72655563346547 L 3157.259434235142 -63.929679391418034 L 3156.0191923440384 -57.13114387624117 L 3154.107576594739 -50.37178337127968 L 3151.49149561975 -43.69537184678856 L 3148.135196775695 -37.14911025405495 L 3143.999662067392 -30.784216497055166 L 3139.041873621717 -24.65664492836379 L 3133.213913814271 -18.827970284799527 L 3126.4618542127714 -13.366481918538355 L 3118.7243725140006 -8.348549167575216 L 3109.9310158857375 -3.860339475913884 L 3100.0 0.0" fill="grey" stroke="black" /></svg>