<?xml version="1.0" encoding="utf-8" ?>
<svg baseProfile="full" height="1000" version="1.1" viewBox="-500 -500 1000 1000" width="1000" xmlns="http://www.w3.org/2000/svg" xmlns:ev="http://www.w3.org/2001/xml-events" xmlns:xlink="http://www.w3.org/1999/xlink"><defs /><path d="M 50.0 49.99999999999999 L 48.24419912578342 51.75580087421657 L 46.48406262724589 53.515937372754124 L 44.71521194998085 55.284788050019166 L 42.93318177294532 57.06681822705467 L 41.13337432597978 58.86662567402023 L 39.3110108540921 60.68898914590791 L 37.46107911467329 62.53892088532671 L 35.57827564246051 64.42172435753949 L 33.65694131193048 66.34305868806952 L 31.6909884553622 68.3090115446378 L 29.6738174398404 70.3261825601596 L 27.598220144498306 72.40177985550169 L 25.456267178308376 74.54373282169162 L 23.239174894930954 76.76082510506903 L 20.937147234270178 79.06285276572983 L 18.539186066934604 81.4608139330654 L 16.03286192092859 83.96713807907142 L 13.40403456458357 86.59596543541643 L 10.636509670320985 89.36349032967902 L 7.711613349818467 92.28838665018154 L 4.607660234223516 95.3923397657765 L 1.2992822338984231 98.70071776610158 L -2.1470901632527126 97.85290983674727 L -5.40175217785415 94.59824782214585 L -8.45871970967671 91.54128029032329 L -11.342368070835521 88.65763192916447 L -14.07357293353165 85.92642706646835 L -16.670343072530912 83.32965692746909 L -19.14832297384628 80.85167702615371 L -21.521195760426906 78.4788042395731 L -23.801009038917616 76.1989909610824 L -25.998440633447895 74.0015593665521 L -28.123017073955225 71.87698292604478 L -30.183294695251806 69.81670530474818 L -32.187010968696775 67.81298903130323 L -34.14121201559445 65.85878798440555 L -36.052360989077094 63.9476390109229 L -37.92643105191559 62.0735689480844 L -39.76898594451296 60.231014055487044 L -41.58525057467884 58.41474942532116 L -43.38017362818295 56.61982637181705 L -45.15848386692225 54.84151613307775 L -46.92474152807826 53.07525847192175 L -48.68338604697342 51.31661395302658 L -50.43878118690829 49.5612188130917 L -52.19525856288467 47.80474143711533 L -53.95716048726785 46.042839512732144 L -55.72888304078979 44.27111695921021 L -57.514920280474996 42.485079719525004 L -59.319910537533076 40.68008946246693 L -61.14868583533185 38.851314164668146 L -63.00632557462214 36.993674425377854 L -64.89821579701845 35.101784202981555 L -66.83011555811535 33.169884441884655 L -68.80823223211549 31.191767767884517 L -70.83930794907671 29.1606920509233 L -72.93071985921452 27.069280140785494 L -75.09059756073347 24.909402439266522 L -77.3279618658049 22.672038134195112 L -79.6528901788854 20.347109821114607 L -82.07671521334436 17.92328478665565 L -84.6122657035757 15.387734296424295 L -87.27416036062392 12.72583963937609 L -90.07916982791966 9.920830172080343 L -93.04666619406014 6.9533338059398515 L -96.19918626089547 3.8008137391045205 L -99.56314406532564 0.4368559346743596 L -97.01922440462988 -2.980775595370118 L -93.81649091238806 -6.183509087611947 L -90.80498939897217 -9.195010601027825 L -87.96128733107554 -12.03871266892446 L -85.26527938647136 -14.734720613528625 L -82.69959063758647 -17.300409362413536 L -80.24910136610681 -19.75089863389318 L -77.9005652742564 -22.09943472574361 L -75.64230007452646 -24.357699925473547 L -73.46393464016674 -26.536065359833255 L -71.35620068956901 -28.643799310430985 L -69.31075977000886 -30.689240229991142 L -67.32005838290158 -32.67994161709842 L -65.37720565069522 -34.62279434930478 L -63.47586910343992 -36.52413089656009 L -61.61018505960616 -38.38981494039384 L -59.77468076174746 -40.225319238252524 L -57.96420595443677 -42.03579404556323 L -56.173871996969545 -43.82612800303045 L -54.3989969140345 -45.6010030859655 L -52.63505502401174 -47.36494497598826 L -50.87762996147952 -49.12237003852048 L -49.12237003852048 -50.877629961479535 L -47.36494497598823 -52.63505502401176 L -45.601003085965495 -54.398996914034505 L -43.82612800303047 -56.17387199696953 L -42.03579404556324 -57.96420595443675 L -40.2253192382525 -59.7746807617475 L -38.38981494039383 -61.61018505960617 L -36.52413089656008 -63.475869103439926 L -34.62279434930475 -65.37720565069523 L -32.679941617098414 -67.32005838290158 L -30.689240229991135 -69.31075977000886 L -28.643799310431003 -71.356200689569 L -26.53606535983325 -73.46393464016676 L -24.357699925473533 -75.64230007452645 L -22.099434725743595 -77.9005652742564 L -19.75089863389314 -80.24910136610687 L -17.300409362413557 -82.69959063758644 L -14.734720613528614 -85.26527938647138 L -12.038712668924484 -87.96128733107552 L -9.195010601027777 -90.80498939897222 L -6.1835090876119345 -93.81649091238808 L -2.9807755953701887 -97.01922440462981 L 0.4368559346743733 -99.56314406532563 L 3.8008137391045747 -96.19918626089542 L 6.953333805939865 -93.04666619406014 L 9.920830172080354 -90.07916982791964 L 12.725839639376135 -87.27416036062387 L 15.387734296424306 -84.6122657035757 L 17.923284786655692 -82.07671521334431 L 20.347109821114582 -79.65289017888541 L 22.672038134195088 -77.3279618658049 L 24.90940243926656 -75.09059756073344 L 27.06928014078555 -72.93071985921445 L 29.160692050923327 -70.83930794907667 L 31.1917677678845 -68.8082322321155 L 33.16988444188461 -66.83011555811538 L 35.10178420298154 -64.89821579701847 L 36.993674425377904 -63.00632557462209 L 38.85131416466815 -61.14868583533184 L 40.68008946246688 -59.319910537533104 L 42.48507971952502 -57.51492028047499 L 44.2711169592102 -55.7288830407898 L 46.04283951273215 -53.957160487267835 L 47.80474143711534 -52.19525856288466 L 49.56121881309176 -50.438781186908244 L 51.31661395302659 -48.6833860469734 L 53.07525847192177 -46.92474152807823 L 54.841516133077754 -45.158483866922246 L 56.61982637181703 -43.380173628182966 L 58.41474942532119 -41.58525057467881 L 60.23101405548705 -39.768985944512956 L 62.073568948084436 -37.92643105191557 L 63.94763901092288 -36.05236098907711 L 65.85878798440558 -34.14121201559442 L 67.81298903130323 -32.18701096869677 L 69.81670530474818 -30.18329469525181 L 71.8769829260448 -28.123017073955186 L 74.00155936655213 -25.99844063344787 L 76.19899096108239 -23.80100903891762 L 78.47880423957307 -21.521195760426924 L 80.85167702615377 -19.14832297384624 L 83.3296569274691 -16.670343072530905 L 85.92642706646834 -14.073572933531658 L 88.65763192916454 -11.342368070835459 L 91.54128029032324 -8.458719709676755 L 94.59824782214586 -5.401752177854137 L 97.85290983674729 -2.147090163252721 L 98.70071776610153 1.2992822338984609 L 95.39233976577647 4.607660234223534 L 92.28838665018147 7.711613349818533 L 89.363490329679 10.636509670320995 L 86.59596543541643 13.404034564583565 L 83.96713807907138 16.032861920928624 L 81.4608139330654 18.539186066934597 L 79.06285276572979 20.937147234270206 L 76.76082510506903 23.239174894930954 L 74.54373282169158 25.456267178308412 L 72.40177985550167 27.598220144498313 L 70.32618256015955 29.673817439840445 L 68.30901154463778 31.69098845536222 L 66.34305868806952 33.656941311930474 L 64.42172435753946 35.57827564246054 L 62.53892088532671 37.46107911467328 L 60.688989145907875 39.31101085409213 L 58.866625674020206 41.13337432597979 L 57.06681822705463 42.93318177294535 L 55.28478805001915 44.715211949980855 L 53.51593737275413 46.484062627245876 L 51.755800874216554 48.24419912578345 L 50.0 49.99999999999999" fill="none" stroke="black" /></svg>