<?xml version="1.0" encoding="utf-8" ?>
<svg baseProfile="full" height="40" version="1.1" viewBox="-20 -20 40 40" width="40" xmlns="http://www.w3.org/2000/svg" xmlns:ev="http://www.w3.org/2001/xml-events" xmlns:xlink="http://www.w3.org/1999/xlink"><defs /><path d="M 1.0 0.0 L 0.9937497535704278 0.006250246429572248 L 0.9875766676523383 0.012423332347661816 L 0.9814788427055039 0.018521157294496177 L 0.9754544369934581 0.02454556300654185 L 0.9695016643447762 0.030498335655223658 L 0.9636187920167605 0.03638120798323959 L 0.9578041386560888 0.042195861343911116 L 0.9520560723513184 0.04794392764868164 L 0.9463730087724305 0.053626991227569615 L 0.9407534093929013 0.05924659060709875 L 0.9351957797900391 0.06480422020996095 L 0.9296986680195809 0.07030133198041909 L 0.9242606630607754 0.07573933693922463 L 0.9188803933283927 0.08111960667160734 L 0.9135565252483089 0.08644347475169113 L 0.9082877618934999 0.09171223810650007 L 0.9030728416774606 0.09692715832253951 L 0.8979105371022291 0.10208946289777089 L 0.8927996535583577 0.10720034644164236 L 0.8877390281743106 0.11226097182568945 L 0.8827275287129168 0.11727247128708322 L 0.8777640525126261 0.12223594748737386 L 0.8728475254714444 0.12715247452855552 L 0.867976901071535 0.13202309892846495 L 0.863151159442582 0.13684884055741797 L 0.858369306462111 0.14163069353788912 L 0.8536303728910578 0.1463696271089422 L 0.8489334135429678 0.1510665864570322 L 0.844277506485286 0.15572249351471398 L 0.8396617522712854 0.1603382477287146 L 0.8350852732012494 0.16491472679875063 L 0.8305472126115976 0.1694527873884024 L 0.8260467341907096 0.17395326580929038 L 0.8215830213202637 0.17841697867973622 L 0.8171552764409677 0.18284472355903225 L 0.8127627204416129 0.1872372795583872 L 0.8084045920704364 0.19159540792956364 L 0.8040801473678272 0.1959198526321728 L 0.799788659119455 0.20021134088054499 L 0.7955294163289499 0.20447058367105014 L 0.7913017237092991 0.20869827629070103 L 0.7871049011921694 0.21289509880783059 L 0.7829382834544001 0.2170617165455999 L 0.7788012194609458 0.22119878053905423 L 0.7746930720235856 0.2253069279764145 L 0.7706132173747433 0.22938678262525675 L 0.766561044755796 0.23343895524420397 L 0.7625359560192759 0.23746404398072404 L 0.7585373652443975 0.24146263475560256 L 0.7545646983653681 0.24543530163463184 L 0.750617392811966 0.249382607188034 L 0.7466948971618886 0.25330510283811136 L 0.7427966708044019 0.25720332919559796 L 0.7389221836148375 0.2610778163851624 L 0.735070915639506 0.264929084360494 L 0.7312423567906154 0.26875764320938456 L 0.7274360065507988 0.2725639934492012 L 0.7236513736868727 0.2763486263131273 L 0.7198879759724665 0.28011202402753343 L 0.7161453399191755 0.2838546600808245 L 0.7124230005159061 0.287576999484094 L 0.708720500976096 0.291279499023904 L 0.7050373924925051 0.29496260750749487 L 0.7013732339992845 0.29862676600071536 L 0.6977275919410452 0.30227240805895483 L 0.6941000400486561 0.3058999599513437 L 0.6904901591215178 0.30950984087848216 L 0.6868975368160593 0.3131024631839407 L 0.6833217674402264 0.3166782325597735 L 0.6797624517537303 0.32023754824626977 L 0.676219196773838 0.323780803226162 L 0.6726916155864964 0.3273083844135036 L 0.6691793271625853 0.3308206728374147 L 0.6656819561791067 0.33431804382089325 L 0.6621991328451231 0.33780086715487684 L 0.6587304927322645 0.34126950726773553 L 0.6552756766096314 0.3447243233903685 L 0.6518343302829283 0.34816566971707186 L 0.6484061044376632 0.3515938955623368 L 0.644990654486265 0.3550093455137349 L 0.6415876404189625 0.3584123595810375 L 0.6381967266582866 0.3618032733417133 L 0.6348175819170546 0.3651824180829453 L 0.6314498790597031 0.36855012094029693 L 0.6280932949668407 0.3719067050331593 L 0.6247475104028957 0.3752524895971044 L 0.6214122098867373 0.3785877901132627 L 0.6180870815651558 0.38191291843484426 L 0.6147718170890862 0.38522818291091365 L 0.6114661114924698 0.38853388850753023 L 0.6081696630736434 0.39183033692635655 L 0.6048821732791605 0.3951178267208395 L 0.6016033465899377 0.39839665341006225 L 0.5983328904096378 0.40166710959036234 L 0.5950705149551895 0.4049294850448105 L 0.5918159331493601 0.40818406685063996 L 0.5885688605152873 0.4114311394847127 L 0.5853290150728889 0.41467098492711113 L 0.5820961172370654 0.41790388276293455 L 0.5788698897176163 0.4211301102823837 L 0.5756500574207895 0.42434994257921055 L 0.5724363473523892 0.42756365264761076 L 0.5692284885223676 0.4307715114776323 L 0.5660262118508252 0.4339737881491747 L 0.562829250075352 0.43717074992464794 L 0.5596373376596374 0.4403626623403626 L 0.5564502107032833 0.44354978929671673 L 0.5532676068527509 0.4467323931472491 L 0.5500892652133798 0.44991073478662014 L 0.5469149262624123 0.4530850737375877 L 0.5437443317629621 0.45625566823703806 L 0.5405772246788652 0.45942277532113485 L 0.5374133490903538 0.4625866509096461 L 0.5342524501104913 0.4657475498895086 L 0.5310942738023122 0.4689057261976877 L 0.5279385670966079 0.47206143290339214 L 0.5247850777103018 0.4752149222896983 L 0.521633554065357 0.4783664459346429 L 0.5184837452081621 0.4815162547918379 L 0.5153354007293376 0.4846645992706623 L 0.5121882706839113 0.4878117293160888 L 0.5090421055118053 0.49095789448819466 L 0.5058966559585846 0.4941033440414153 L 0.502751672996409 0.497248327003591 L 0.4996069077451392 0.5003930922548608 L 0.4964621113935417 0.5035378886064583 L 0.4933170351205402 0.5066829648794597 L 0.4901714300164604 0.5098285699835396 L 0.4870250470042145 0.5129749529957855 L 0.48387763676037454 0.5161223632396255 L 0.4807289496360785 0.5192710503639215 L 0.47757873557771763 0.5224212644222823 L 0.47442674404735174 0.5255732559526484 L 0.47127272394279646 0.5287272760572036 L 0.4681164235173304 0.5318835764826696 L 0.4649575902989662 0.5350424097010339 L 0.4617959710092305 0.5382040289907696 L 0.4586313114813968 0.5413686885186032 L 0.4554633565781152 0.5445366434218848 L 0.4522918501083819 0.547708149891618 L 0.44911653474378926 0.5508834652562107 L 0.44593715193399913 0.5540628480660009 L 0.44275344182137916 0.5572465581786208 L 0.43956514315474177 0.5604348568452582 L 0.43637199320212233 0.5636280067978777 L 0.43317372766253637 0.5668262723374637 L 0.42997008057664937 0.5700299194233507 L 0.4267607842362954 0.5732392157637047 L 0.42354556909277535 0.5764544309072245 L 0.4203241636638711 0.579675836336129 L 0.4170962944394988 0.5829037055605012 L 0.4138616857859377 0.5861383142140624 L 0.4106200598485544 0.5893799401514456 L 0.40737113645295253 0.5926288635470475 L 0.40411463300446676 0.5958853669955331 L 0.40085026438592575 0.5991497356140743 L 0.39757774285359976 0.6024222571464002 L 0.39429677793125134 0.6057032220687487 L 0.3910070763022019 0.608992923697798 L 0.38770834169932755 0.6122916583006723 L 0.3844002747928903 0.6155997252071098 L 0.38108257307611343 0.6189174269238867 L 0.377754930748403 0.622245069251597 L 0.37441703859611614 0.625582961403884 L 0.37106858387077174 0.6289314161292282 L 0.3677092501646001 0.6322907498353998 L 0.36433871728331774 0.6356612827166822 L 0.36095666111601743 0.6390433388839826 L 0.35756275350205247 0.6424372464979474 L 0.3541566620947973 0.6458433379052027 L 0.35073805022215493 0.649261949777845 L 0.3473065767436837 0.6526934232563164 L 0.3438618959042065 0.6561381040957933 L 0.34040365718376425 0.6595963428162358 L 0.3369315051437662 0.6630684948562339 L 0.33344507926918915 0.6665549207308109 L 0.3299440138066678 0.6700559861933322 L 0.32642793759831507 0.673572062401685 L 0.3228964739111029 0.6771035260888971 L 0.319349240261631 0.680650759738369 L 0.3157858482360995 0.6842141517639005 L 0.31220590330529857 0.6877940966947015 L 0.30860900463441776 0.6913909953655822 L 0.3049947448874718 0.6950052551125281 L 0.3013627100261293 0.6986372899738708 L 0.29771247910272525 0.7022875208972748 L 0.29404362404722484 0.7059563759527753 L 0.2903557094479011 0.7096442905520988 L 0.2866482923254761 0.7133517076745238 L 0.28292092190046453 0.7170790780995355 L 0.2791731393534501 0.7208268606465498 L 0.2754044775780122 0.7245955224219878 L 0.2716144609260054 0.7283855390739945 L 0.2678026049448875 0.7321973950551124 L 0.26396841610677313 0.736031583893227 L 0.2601113915288783 0.7398886084711216 L 0.2562310186850061 0.7437689813149938 L 0.25232677510770807 0.747673224892292 L 0.24839812808073808 0.751601871919262 L 0.24444453432140217 0.755555465678598 L 0.24046543965238443 0.7595345603476155 L 0.23646027866261426 0.7635397213373857 L 0.23242847435671732 0.7675715256432827 L 0.22836943779257346 0.7716305622074265 L 0.22428256770648175 0.7757174322935184 L 0.22016725012540714 0.7798327498745928 L 0.2160228579657641 0.7839771420342359 L 0.21184875061815925 0.7881512493818408 L 0.20764427351749395 0.7923557264825061 L 0.2034087576977938 0.7965912423022061 L 0.19914151933110524 0.8008584806688949 L 0.19484185924976455 0.8051581407502354 L 0.19050906245131044 0.8094909375486896 L 0.18614239758527773 0.8138576024147223 L 0.18174111642106913 0.8182588835789308 L 0.17730445329606195 0.8226955467039381 L 0.17283162454306575 0.8271683754569342 L 0.16832182789620068 0.8316781721037994 L 0.16377424187421713 0.8362257581257828 L 0.15918802514023123 0.8408119748597688 L 0.1545623158367922 0.8454376841632079 L 0.14989623089514517 0.8501037691048547 L 0.1451888653174901 0.8548111346825099 L 0.14043929143097617 0.8595607085690239 L 0.1356465581121037 0.8643534418878963 L 0.13080968998013046 0.8691903100198696 L 0.12592768655801048 0.8740723134419894 L 0.12099952139930636 0.8790004786006936 L 0.11602414117943428 0.8839758588205656 L 0.11100046474950992 0.88899953525049 L 0.10592738215096562 0.8940726178490344 L 0.10080375358900966 0.8991962464109904 L 0.09562840836288447 0.9043715916371154 L 0.09040014375077163 0.9095998562492285 L 0.08511772384706151 0.9148822761529385 L 0.07977987834957817 0.9202201216504219 L 0.07438530129420831 0.9256146987057917 L 0.06893264973423431 0.9310673502657657 L 0.06342054236151323 0.9365794576384867 L 0.05784755806647014 0.9421524419335299 L 0.05221223443369931 0.9477877655663007 L 0.046513066169766984 0.953486933830233 L 0.04074850345960612 0.959251496540394 L 0.03491695024767162 0.9650830497523285 L 0.02901676243978927 0.9709832375602107 L 0.023046246021374762 0.9769537539786253 L 0.017003655087435374 0.9829963449125645 L 0.010887189779469978 0.98911281022053 L 0.0046949941240763396 0.9953050058759236 L -0.0015699015252556184 0.9984300984747444 L -0.007800676496731858 0.9921993235032682 L -0.013954771387325905 0.9860452286126741 L -0.020034071070630776 0.9799659289293692 L -0.026040403186068987 0.973959596813931 L -0.03197554035148217 0.9680244596485178 L -0.037841202274708004 0.962158797725292 L -0.043639057769500576 0.9563609422304994 L -0.049370726680828474 0.9506292733191715 L -0.05503778172428319 0.9449622182757168 L -0.06064175024405471 0.9393582497559452 L -0.06618411589366228 0.9338158841063378 L -0.07166632024339095 0.928333679756609 L -0.07708976431815191 0.9229102356818482 L -0.08245581006927186 0.9175441899307281 L -0.08776578178351727 0.9122342182164827 L -0.09302096743247014 0.9069790325675299 L -0.09822261996520075 0.9017773800347992 L -0.10337195854701216 0.8966280414529879 L -0.10847016974688309 0.8915298302531168 L -0.11351840867608794 0.886481591323912 L -0.11851780008033813 0.8814821999196618 L -0.12346943938766052 0.8765305606123396 L -0.12837439371411227 0.8716256062858878 L -0.13323370282931388 0.8667662971706861 L -0.13804838008368145 0.8619516199163186 L -0.14281941329913703 0.8571805867008631 L -0.1475477656249838 0.8524522343750162 L -0.15223437636054404 0.847765623639456 L -0.15688016174607433 0.8431198382539257 L -0.16148601572339855 0.8385139842766014 L -0.16605281066761843 0.8339471893323815 L -0.17058139809119927 0.8294186019088007 L -0.1750726093216589 0.8249273906783412 L -0.17952725615402781 0.8204727438459722 L -0.18394613147918973 0.8160538685208102 L -0.18833000988915666 0.8116699901108433 L -0.19267964826028286 0.8073203517397172 L -0.19699578631536835 0.8030042136846316 L -0.2012791471655622 0.7987208528344377 L -0.20553043783292696 0.7944695621670731 L -0.20975034975448784 0.7902496502455121 L -0.21393955926854796 0.7860604407314521 L -0.21809872808401773 0.7819012719159825 L -0.22222850373346645 0.7777714962665334 L -0.22632952001057607 0.7736704799894241 L -0.2304023973926408 0.7695976026073593 L -0.23444774344873123 0.7655522565512688 L -0.23846615323410905 0.7615338467658911 L -0.2424582096714531 0.7575417903285467 L -0.2464244839194357 0.7535755160805643 L -0.2503655357291559 0.7496344642708442 L -0.25428191378892234 0.7457180862110777 L -0.258174156057851 0.741825843942149 L -0.262042790088724 0.7379572099112759 L -0.26588833334053696 0.734111666659463 L -0.2697112934811416 0.7302887065188584 L -0.27351216868037675 0.7264878313196234 L -0.2772914478940578 0.7227085521059422 L -0.2810496111391851 0.718950388860815 L -0.28478712976071213 0.7152128702392878 L -0.28850446669020235 0.7114955333097976 L -0.29220207669668846 0.7077979233033115 L -0.2958804066300347 0.7041195933699654 L -0.2995398956570925 0.7004601043429075 L -0.303180975490925 0.6968190245090751 L -0.3068040706133654 0.6931959293866345 L -0.310409598491166 0.689590401508834 L -0.31399796978598055 0.6860020302140194 L -0.31756958855841516 0.6824304114415848 L -0.3211248524663747 0.6788751475336252 L -0.3246641529579188 0.6753358470420812 L -0.3281878754588368 0.6718121245411632 L -0.3316963995551437 0.6683036004448563 L -0.3351900991706856 0.6648099008293143 L -0.33866934274004284 0.6613306572599571 L -0.34213449337690793 0.657865506623092 L -0.34558590903810965 0.6544140909618903 L -0.3490239426834484 0.6509760573165516 L -0.3524489424315022 0.6475510575684977 L -0.35586125171155647 0.6441387482884435 L -0.35926120941180467 0.6407387905881953 L -0.3626491500239634 0.6373508499760365 L -0.3660254037844385 0.6339745962155614 L -0.3693902968121754 0.6306097031878246 L -0.37274415124332005 0.6272558487566798 L -0.3760872853628188 0.6239127146371812 L -0.3794200137330698 0.6205799862669302 L -0.3827426473197476 0.6172573526802525 L -0.38605549361490926 0.6139445063850908 L -0.3893588567574918 0.6106411432425083 L -0.39265303765130466 0.6073469623486955 L -0.39593833408061896 0.6040616659193809 L -0.3992150408234525 0.6007849591765475 L -0.402483449762644 0.5975165502373558 L -0.4057438499948116 0.5942561500051884 L -0.4089965279372827 0.5910034720627173 L -0.41224176743308444 0.5877582325669157 L -0.4154798498540782 0.5845201501459217 L -0.41871105420232074 0.5812889457976791 L -0.42193565720973325 0.5780643427902669 L -0.4251539334361541 0.5748460665638461 L -0.42836615536585365 0.5716338446341465 L -0.43157259350258403 0.568427406497416 L -0.4347735164632363 0.5652264835367636 L -0.4379691910701759 0.562030808929824 L -0.4411598824423257 0.5588401175576744 L -0.4443458540850633 0.5556541459149369 L -0.44752736797899967 0.5524726320210003 L -0.4507046846677039 0.5492953153322961 L -0.4538780633444358 0.5461219366555641 L -0.45704776193795194 0.5429522380620481 L -0.46021403719744136 0.5397859628025586 L -0.4633771447766595 0.5366228552233404 L -0.4665373393173075 0.5334626606826925 L -0.4696948745317287 0.5303051254682712 L -0.4728500032849674 0.5271499967150326 L -0.4760029776762584 0.5239970223237417 L -0.4791540491199908 0.5208459508800092 L -0.4823034684262165 0.5176965315737835 L -0.48545148588074194 0.5145485141192581 L -0.4885983513248728 0.5114016486751273 L -0.49174431423485493 0.5082556857651451 L -0.49488962380107127 0.5051103761989288 L -0.49803452900704503 0.501965470992955 L -0.5011792787083049 0.4988207212916949 L -0.5043241217111627 0.4956758782888374 L -0.50746930685146 0.49253069314854003 L -0.5106150830733315 0.48938491692666863 L -0.5137616995080455 0.4862383004919544 L -0.5169094055529654 0.4830905944470345 L -0.5200584509506954 0.4799415490493047 L -0.5232090858684532 0.4767909141315469 L -0.5263615609777347 0.4736384390222652 L -0.5295161275343153 0.47048387246568474 L -0.5326730374586455 0.4673269625413545 L -0.5358325434167003 0.4641674565832996 L -0.5389948989013273 0.4610051010986727 L -0.5421603583141626 0.45783964168583746 L -0.5453291770481575 0.45467082295184236 L -0.5485016115707866 0.45149838842921336 L -0.5516779195079838 0.44832208049201616 L -0.5548583597288741 0.445141640271126 L -0.5580431924313548 0.4419568075686452 L -0.5612326792285927 0.4387673207714074 L -0.5644270832364922 0.43557291676350784 L -0.5676266691622077 0.4323733308377923 L -0.5708317033937517 0.42916829660624845 L -0.574042454090778 0.42595754590922197 L -0.5772591912765954 0.42274080872340464 L -0.58048218693149 0.4195178130685099 L -0.5837117150874178 0.4162882849125822 L -0.5869480519241489 0.41305194807585105 L -0.590191475866926 0.40980852413307395 L -0.5934422676857245 0.4065577323142755 L -0.5967007105961818 0.40329928940381815 L -0.5999670903622814 0.40003290963771854 L -0.6032416954008711 0.39675830459912875 L -0.606524816888101 0.393475183111899 L -0.6098167488678641 0.3901832511321359 L -0.6131177883623365 0.3868822116376634 L -0.6164282354846977 0.38357176451530234 L -0.6197483935541371 0.3802516064458628 L -0.6230785692132342 0.37692143078676565 L -0.6264190725478226 0.3735809274521775 L -0.6297702172094305 0.37022978279056934 L -0.6331323205404189 0.36686767945958104 L -0.6365057037019137 0.3634942962980863 L -0.6398906918046577 0.3601093081953423 L -0.6432876140428947 0.3567123859571053 L -0.6466968038314111 0.35330319616858885 L -0.6501185989458605 0.3498814010541393 L -0.6535533416665045 0.3464466583334956 L -0.6570013789255015 0.3429986210744985 L -0.6604630624578948 0.3395369375421053 L -0.6639387489564303 0.3360612510435696 L -0.6674288002303751 0.3325711997696249 L -0.6709335833684739 0.32906641663152614 L -0.6744534709062273 0.32554652909377263 L -0.6779888409976438 0.3220111590023563 L -0.6815400775916546 0.3184599224083455 L -0.6851075706133684 0.31489242938663153 L -0.6886917161503584 0.3113082838496417 L -0.6922929166441782 0.3077070833558217 L -0.6959115810873172 0.3040884189126826 L -0.699548125225802 0.3004518747741981 L -0.7032029717676773 0.29679702823232273 L -0.7068765505975876 0.29312344940241236 L -0.7105692989977134 0.2894307010022866 L -0.7142816618753006 0.2857183381246993 L -0.718014091997062 0.28198590800293805 L -0.721767050230707 0.2782329497692931 L -0.7255410057939033 0.2744589942060966 L -0.7293364365109519 0.2706635634890481 L -0.7331538290774992 0.2668461709225008 L -0.7369936793336029 0.26300632066639706 L -0.7408564925454942 0.25914350745450576 L -0.744742783696388 0.255257216303612 L -0.7486530777867125 0.2513469222132876 L -0.7525879101441411 0.2474120898558589 L -0.7565478267438377 0.24345217325616234 L -0.7605333845393241 0.23946661546067594 L -0.7645451518044276 0.2354548481955723 L -0.7685837084867538 0.23141629151324614 L -0.7726496465731827 0.22735035342681725 L -0.7767435704678799 0.22325642953212005 L -0.7808660973833658 0.2191339026166343 L -0.7850178577451858 0.21498214225481405 L -0.7891994956107717 0.21080050438922834 L -0.7934116691030951 0.20658833089690487 L -0.7976550508597594 0.20234494914024057 L -0.8019303284981932 0.1980696715018068 L -0.8062382050976511 0.19376179490234882 L -0.8105793996987564 0.18942060030124372 L -0.8149546478213636 0.18504535217863632 L -0.8193647020015445 0.1806352979984554 L -0.8238103323485623 0.17618966765143773 L -0.8282923271227153 0.17170767287728475 L -0.8328114933350103 0.16718850666498977 L -0.8373686573696347 0.1626313426303652 L -0.8419646656302894 0.15803533436971062 L -0.8466003852114602 0.15339961478853983 L -0.8512767045957932 0.14872329540420678 L -0.8559945343787805 0.14400546562121963 L -0.8607548080220362 0.13924519197796395 L -0.8655584826365103 0.1344415173634897 L -0.8704065397970575 0.12959346020294257 L -0.8752999863898537 0.12470001361014617 L -0.8802398554942485 0.11976014450575148 L -0.8852272073006967 0.11477279269930327 L -0.8902631300665514 0.10973686993344854 L -0.8953487411115449 0.10465125888845514 L -0.9004851878549397 0.09951481214506032 L -0.9056736488963965 0.09432635110360352 L -0.9109153351427632 0.08908466485723673 L -0.9162114909830837 0.08378850901691626 L -0.9215633955142771 0.07843660448572302 L -0.9269723638200733 0.0730276361799267 L -0.9324397483059454 0.06756025169405448 L -0.937966940092934 0.06203305990706593 L -0.943555370473447 0.056444629526553075 L -0.9492065124322757 0.050793487567724296 L -0.9549218822363044 0.04507811776369568 L -0.9607030410965496 0.03929695890345057 L -0.9665515969064475 0.03344840309355259 L -0.9724692060604913 0.027530793939508705 L -0.9784575753576307 0.021542424642369416 L -0.9845184639940698 0.015481536005930097 L -0.9906536856504471 0.009346314349552822 L -0.9968651106786472 0.003134889321352676 L -0.9968651106786481 -0.0031348893213519915 L -0.9906536856504478 -0.009346314349552146 L -0.9845184639940701 -0.015481536005929863 L -0.9784575753576313 -0.021542424642368753 L -0.9724692060604919 -0.027530793939508056 L -0.9665515969064481 -0.033448403093551946 L -0.9607030410965501 -0.03929695890344993 L -0.9549218822363049 -0.04507811776369505 L -0.9492065124322764 -0.05079348756772368 L -0.9435553704734472 -0.05644462952655286 L -0.9379669400929346 -0.06203305990706531 L -0.9324397483059457 -0.06756025169405426 L -0.9269723638200739 -0.07302763617992611 L -0.9215633955142772 -0.0784366044857228 L -0.9162114909830843 -0.08378850901691567 L -0.9109153351427635 -0.08908466485723653 L -0.9056736488963966 -0.09432635110360331 L -0.9004851878549399 -0.09951481214506011 L -0.8953487411115455 -0.10465125888845458 L -0.8902631300665516 -0.10973686993344833 L -0.8852272073006973 -0.11477279269930273 L -0.8802398554942483 -0.11976014450575162 L -0.8752999863898544 -0.12470001361014563 L -0.8704065397970573 -0.12959346020294274 L -0.8655584826365109 -0.1344415173634892 L -0.8607548080220363 -0.13924519197796376 L -0.8559945343787809 -0.1440054656212191 L -0.8512767045957933 -0.1487232954042066 L -0.8466003852114606 -0.1533996147885393 L -0.8419646656302896 -0.15803533436971046 L -0.8373686573696351 -0.16263134263036502 L -0.8328114933350105 -0.1671885066649896 L -0.8282923271227157 -0.17170767287728422 L -0.8238103323485625 -0.17618966765143756 L -0.819364702001545 -0.18063529799845493 L -0.8149546478213635 -0.18504535217863646 L -0.8105793996987568 -0.18942060030124322 L -0.806238205097651 -0.193761794902349 L -0.8019303284981937 -0.19806967150180632 L -0.7976550508597596 -0.2023449491402404 L -0.7934116691030957 -0.20658833089690445 L -0.7891994956107719 -0.21080050438922815 L -0.7850178577451861 -0.21498214225481393 L -0.7808660973833659 -0.21913390261663415 L -0.7767435704678801 -0.2232564295321199 L -0.7726496465731829 -0.22735035342681711 L -0.7685837084867543 -0.23141629151324572 L -0.764545151804428 -0.2354548481955722 L -0.7605333845393245 -0.23946661546067555 L -0.7565478267438375 -0.24345217325616242 L -0.7525879101441414 -0.2474120898558585 L -0.7486530777867124 -0.2513469222132877 L -0.7447427836963885 -0.25525721630361153 L -0.7408564925454943 -0.2591435074545056 L -0.7369936793336034 -0.2630063206663966 L -0.7331538290774993 -0.2668461709225006 L -0.729336436510952 -0.2706635634890479 L -0.7255410057939035 -0.27445899420609643 L -0.7217670502307074 -0.27823294976929264 L -0.7180140919970621 -0.2819859080029379 L -0.7142816618753011 -0.285718338124699 L -0.7105692989977133 -0.28943070100228674 L -0.706876550597588 -0.293123449402412 L -0.7032029717676772 -0.29679702823232285 L -0.6995481252258023 -0.30045187477419766 L -0.6959115810873171 -0.3040884189126828 L -0.6922929166441787 -0.3077070833558213 L -0.6886917161503584 -0.3113082838496415 L -0.6851075706133688 -0.31489242938663115 L -0.6815400775916547 -0.31845992240834536 L -0.6779888409976439 -0.3220111590023561 L -0.6744534709062274 -0.32554652909377246 L -0.6709335833684742 -0.32906641663152575 L -0.6674288002303752 -0.33257119976962474 L -0.6639387489564307 -0.3360612510435692 L -0.6604630624578945 -0.33953693754210534 L -0.6570013789255018 -0.34299862107449813 L -0.6535533416665044 -0.34644665833349564 L -0.650118598945861 -0.34988140105413895 L -0.6466968038314113 -0.35330319616858874 L -0.643287614042895 -0.3567123859571049 L -0.6398906918046577 -0.3601093081953422 L -0.6365057037019138 -0.3634942962980861 L -0.633132320540419 -0.36686767945958093 L -0.6297702172094307 -0.3702297827905693 L -0.6264190725478227 -0.37358092745217736 L -0.6230785692132346 -0.3769214307867653 L -0.6197483935541374 -0.38025160644586264 L -0.616428235484698 -0.38357176451530195 L -0.6131177883623365 -0.38688221163766356 L -0.6098167488678644 -0.3901832511321356 L -0.6065248168881009 -0.3934751831118991 L -0.6032416954008716 -0.3967583045991284 L -0.5999670903622816 -0.4000329096377185 L -0.5967007105961821 -0.4032992894038178 L -0.5934422676857246 -0.4065577323142754 L -0.5901914758669261 -0.40980852413307384 L -0.586948051924149 -0.41305194807585094 L -0.5837117150874181 -0.41628828491258174 L -0.5804821869314902 -0.4195178130685099 L -0.5772591912765958 -0.4227408087234043 L -0.5740424540907781 -0.42595754590922186 L -0.5708317033937519 -0.429168296606248 L -0.5676266691622076 -0.4323733308377924 L -0.5644270832364925 -0.4355729167635075 L -0.5612326792285925 -0.4387673207714075 L -0.5580431924313553 -0.4419568075686449 L -0.5548583597288741 -0.4451416402711258 L -0.5516779195079842 -0.44832208049201583 L -0.5485016115707867 -0.4514983884292132 L -0.5453291770481578 -0.4546708229518423 L -0.5421603583141628 -0.4578396416858373 L -0.5389948989013277 -0.4610051010986723 L -0.5358325434167005 -0.46416745658329955 L -0.5326730374586458 -0.46732696254135414 L -0.5295161275343152 -0.4704838724656848 L -0.526361560977735 -0.4736384390222649 L -0.5232090858684533 -0.47679091413154673 L -0.5200584509506957 -0.47994154904930436 L -0.5169094055529658 -0.4830905944470343 L -0.513761699508046 -0.48623830049195416 L -0.5106150830733318 -0.48938491692666825 L -0.5074693068514603 -0.4925306931485397 L -0.504324121711163 -0.4956758782888371 L -0.5011792787083051 -0.4988207212916949 L -0.4980345290070453 -0.5019654709929546 L -0.4948896238010715 -0.5051103761989284 L -0.4917443142348553 -0.5082556857651448 L -0.4885983513248731 -0.5114016486751269 L -0.48545148588074205 -0.514548514119258 L -0.4823034684262169 -0.5176965315737831 L -0.4791540491199912 -0.5208459508800088 L -0.4760029776762587 -0.5239970223237413 L -0.4728500032849678 -0.5271499967150322 L -0.4696948745317291 -0.5303051254682709 L -0.4665373393173078 -0.5334626606826922 L -0.4633771447766597 -0.5366228552233403 L -0.4602140371974415 -0.5397859628025585 L -0.4570477619379521 -0.542952238062048 L -0.45387806334443603 -0.5461219366555641 L -0.45070468466770425 -0.5492953153322957 L -0.4475273679789998 -0.5524726320210003 L -0.44434585408506305 -0.5556541459149368 L -0.44115988244232573 -0.5588401175576742 L -0.43796919107017585 -0.5620308089298242 L -0.4347735164632364 -0.5652264835367635 L -0.4315725935025839 -0.5684274064974161 L -0.4283661553658537 -0.5716338446341462 L -0.42515393343615393 -0.5748460665638461 L -0.4219356572097334 -0.5780643427902666 L -0.4187110542023207 -0.5812889457976793 L -0.4154798498540784 -0.5845201501459216 L -0.41224176743308455 -0.5877582325669155 L -0.4089965279372831 -0.5910034720627171 L -0.4057438499948117 -0.5942561500051883 L -0.40248344976264444 -0.5975165502373556 L -0.39921504082345266 -0.6007849591765475 L -0.39593833408061935 -0.6040616659193807 L -0.39265303765130477 -0.6073469623486952 L -0.3893588567574921 -0.6106411432425078 L -0.3860554936149094 -0.6139445063850907 L -0.38274264731974794 -0.6172573526802522 L -0.37942001373306994 -0.6205799862669301 L -0.37608728536281877 -0.6239127146371813 L -0.37274415124332017 -0.6272558487566797 L -0.3693902968121752 -0.6306097031878247 L -0.3660254037844389 -0.6339745962155611 L -0.3626491500239636 -0.6373508499760364 L -0.35926120941180456 -0.6407387905881954 L -0.3558612517115566 -0.6441387482884433 L -0.3524489424315021 -0.6475510575684978 L -0.3490239426834485 -0.6509760573165514 L -0.34558590903810954 -0.6544140909618904 L -0.34213449337690816 -0.657865506623092 L -0.33866934274004273 -0.6613306572599572 L -0.33519009917068576 -0.6648099008293143 L -0.3316963995551436 -0.6683036004448564 L -0.32818787545883693 -0.671812124541163 L -0.32466415295791873 -0.6753358470420814 L -0.32112485246637507 -0.678875147533625 L -0.3175695885584153 -0.6824304114415847 L -0.31399796978598093 -0.6860020302140191 L -0.3104095984911663 -0.6895904015088338 L -0.30680407061336595 -0.6931959293866341 L -0.30318097549092526 -0.6968190245090747 L -0.29953989565709305 -0.700460104342907 L -0.2958804066300349 -0.704119593369965 L -0.292202076696689 -0.707797923303311 L -0.28850446669020274 -0.7114955333097972 L -0.2847871297607123 -0.7152128702392878 L -0.2810496111391855 -0.7189503888608144 L -0.2772914478940579 -0.722708552105942 L -0.27351216868037714 -0.7264878313196228 L -0.26971129348114176 -0.7302887065188582 L -0.26588833334053735 -0.7341116666594626 L -0.2620427900887243 -0.7379572099112757 L -0.25817415605785105 -0.741825843942149 L -0.2542819137889226 -0.7457180862110774 L -0.2503655357291559 -0.7496344642708441 L -0.24642448391943597 -0.753575516080564 L -0.2424582096714531 -0.7575417903285467 L -0.2384661532341093 -0.7615338467658906 L -0.23444774344873143 -0.7655522565512687 L -0.2304023973926412 -0.7695976026073588 L -0.2263295200105762 -0.7736704799894238 L -0.2222285037334669 -0.777771496266533 L -0.2180987280840179 -0.7819012719159822 L -0.2139395592685484 -0.7860604407314515 L -0.209750349754488 -0.790249650245512 L -0.20553043783292757 -0.7944695621670724 L -0.20127914716556253 -0.7987208528344375 L -0.19699578631536901 -0.803004213684631 L -0.19267964826028317 -0.8073203517397168 L -0.1883300098891567 -0.8116699901108434 L -0.18394613147919006 -0.8160538685208099 L -0.1795272561540286 -0.8204727438459714 L -0.17507260932165938 -0.8249273906783405 L -0.17058139809119946 -0.8294186019088006 L -0.16605281066761893 -0.8339471893323811 L -0.16148601572339874 -0.8385139842766013 L -0.15688016174607483 -0.8431198382539252 L -0.1522343763605442 -0.8477656236394557 L -0.14754776562498384 -0.8524522343750162 L -0.1428194132991374 -0.8571805867008626 L -0.13804838008368214 -0.861951619916318 L -0.13323370282931424 -0.8667662971706858 L -0.12837439371411227 -0.8716256062858877 L -0.12346943938766086 -0.8765305606123391 L -0.11851780008033887 -0.8814821999196611 L -0.11351840867608777 -0.8864815913239121 L -0.10847016974688328 -0.8915298302531167 L -0.1033719585470127 -0.8966280414529872 L -0.09822261996520167 -0.9017773800347982 L -0.09302096743246996 -0.90697903256753 L -0.08776578178351747 -0.9122342182164825 L -0.08245581006927263 -0.9175441899307274 L -0.07708976431815306 -0.9229102356818468 L -0.07166632024339098 -0.9283336797566091 L -0.06618411589366269 -0.9338158841063373 L -0.06064175024405551 -0.9393582497559443 L -0.055037781724283606 -0.9449622182757164 L -0.049370726680828494 -0.9506292733191716 L -0.043639057769501215 -0.9563609422304988 L -0.03784120227470823 -0.9621587977252918 L -0.03197554035148282 -0.9680244596485172 L -0.026040403186069223 -0.9739595968139307 L -0.02003407107063144 -0.9799659289293686 L -0.013954771387326145 -0.9860452286126739 L -0.007800676496732536 -0.9921993235032674 L -0.001569901525256084 -0.9984300984747438 L 0.004694994124076317 -0.9953050058759236 L 0.010887189779469522 -0.9891128102205304 L 0.017003655087434497 -0.9829963449125655 L 0.023046246021374315 -0.9769537539786256 L 0.02901676243978925 -0.9709832375602108 L 0.03491695024767118 -0.9650830497523287 L 0.040748503459605075 -0.9592514965403949 L 0.046513066169767164 -0.9534869338302329 L 0.052212234433699094 -0.9477877655663008 L 0.05784755806646952 -0.9421524419335304 L 0.06342054236151223 -0.9365794576384878 L 0.06893264973423448 -0.9310673502657655 L 0.07438530129420791 -0.9256146987057922 L 0.07977987834957738 -0.9202201216504226 L 0.08511772384706111 -0.9148822761529388 L 0.09040014375077161 -0.9095998562492285 L 0.09562840836288408 -0.9043715916371159 L 0.10080375358900892 -0.8991962464109912 L 0.10592738215096596 -0.8940726178490341 L 0.11100046474950973 -0.8889995352504902 L 0.11602414117943376 -0.8839758588205663 L 0.12099952139930617 -0.8790004786006939 L 0.12592768655801065 -0.8740723134419893 L 0.13080968998013026 -0.8691903100198698 L 0.13564655811210316 -0.8643534418878968 L 0.14043929143097597 -0.8595607085690241 L 0.14518886531749006 -0.8548111346825099 L 0.1498962308951448 -0.8501037691048552 L 0.1545623158367922 -0.8454376841632079 L 0.15918802514023087 -0.8408119748597692 L 0.16377424187421713 -0.8362257581257828 L 0.16832182789620034 -0.8316781721037996 L 0.17283162454306572 -0.8271683754569342 L 0.17730445329606148 -0.8226955467039385 L 0.18174111642106897 -0.8182588835789311 L 0.1861423975852779 -0.8138576024147222 L 0.19050906245131027 -0.8094909375486897 L 0.19484185924976408 -0.8051581407502358 L 0.1991415193311057 -0.8008584806688943 L 0.2034087576977938 -0.7965912423022062 L 0.20764427351749362 -0.7923557264825064 L 0.21184875061815867 -0.7881512493818413 L 0.21602285796576434 -0.7839771420342355 L 0.2201672501254071 -0.7798327498745928 L 0.2242825677064814 -0.7757174322935185 L 0.2283694377925729 -0.7716305622074272 L 0.23242847435671746 -0.7675715256432825 L 0.23646027866261413 -0.7635397213373859 L 0.240465439652384 -0.759534560347616 L 0.24444453432140195 -0.7555554656785979 L 0.24839812808073825 -0.7516018719192619 L 0.2523267751077079 -0.747673224892292 L 0.2562310186850057 -0.7437689813149942 L 0.2601113915288781 -0.739888608471122 L 0.26396841610677313 -0.736031583893227 L 0.2678026049448872 -0.7321973950551127 L 0.2716144609260054 -0.7283855390739945 L 0.2754044775780119 -0.7245955224219881 L 0.27917313935345 -0.72082686064655 L 0.2829209219004645 -0.7170790780995355 L 0.28664829232547584 -0.7133517076745242 L 0.2903557094479006 -0.7096442905520994 L 0.29404362404722456 -0.7059563759527755 L 0.29771247910272525 -0.7022875208972748 L 0.30136271002612897 -0.698637289973871 L 0.3049947448874712 -0.6950052551125289 L 0.30860900463441787 -0.691390995365582 L 0.3122059033052984 -0.6877940966947016 L 0.31578584823609906 -0.6842141517639009 L 0.3193492402616303 -0.6806507597383696 L 0.322896473911103 -0.677103526088897 L 0.3264279375983149 -0.6735720624016851 L 0.3299440138066675 -0.6700559861933325 L 0.33344507926918854 -0.6665549207308116 L 0.3369315051437663 -0.6630684948562338 L 0.3404036571837641 -0.6595963428162359 L 0.34386189590420607 -0.656138104095794 L 0.34730657674368337 -0.6526934232563165 L 0.35073805022215493 -0.6492619497778451 L 0.35415666209479707 -0.645843337905203 L 0.35756275350205247 -0.6424372464979475 L 0.36095666111601715 -0.6390433388839829 L 0.36433871728331774 -0.6356612827166822 L 0.36770925016459977 -0.6322907498354002 L 0.37106858387077163 -0.6289314161292283 L 0.37441703859611575 -0.6255829614038844 L 0.3777549307484029 -0.6222450692515971 L 0.3810825730761135 -0.6189174269238865 L 0.38440027479289013 -0.6155997252071099 L 0.38770834169932716 -0.6122916583006729 L 0.3910070763022017 -0.6089929236977984 L 0.3942967779312512 -0.6057032220687488 L 0.3975777428535995 -0.6024222571464006 L 0.40085026438592525 -0.5991497356140749 L 0.4041146330044669 -0.5958853669955332 L 0.40737113645295236 -0.5926288635470476 L 0.41062005984855404 -0.5893799401514459 L 0.41386168578593696 -0.5861383142140629 L 0.41709629443949886 -0.5829037055605012 L 0.4203241636638708 -0.5796758363361291 L 0.4235455690927751 -0.576454430907225 L 0.42676078423629504 -0.5732392157637048 L 0.42997008057664937 -0.5700299194233507 L 0.43317372766253603 -0.566826272337464 L 0.43637199320212183 -0.5636280067978783 L 0.4395651431547415 -0.5604348568452585 L 0.44275344182137916 -0.557246558178621 L 0.4459371519339988 -0.5540628480660014 L 0.4491165347437891 -0.5508834652562108 L 0.45229185010838163 -0.5477081498916184 L 0.4554633565781151 -0.5445366434218849 L 0.4586313114813963 -0.5413686885186035 L 0.46179597100923025 -0.5382040289907697 L 0.46495759029896583 -0.5350424097010342 L 0.4681164235173302 -0.5318835764826698 L 0.47127272394279646 -0.5287272760572036 L 0.47442674404735147 -0.5255732559526486 L 0.47757873557771713 -0.5224212644222829 L 0.4807289496360786 -0.5192710503639213 L 0.48387763676037454 -0.5161223632396256 L 0.4870250470042142 -0.5129749529957859 L 0.49017143001645974 -0.5098285699835401 L 0.4933170351205404 -0.5066829648794597 L 0.49646211139354157 -0.5035378886064585 L 0.4996069077451388 -0.5003930922548612 L 0.5027516729964084 -0.4972483270035917 L 0.5058966559585847 -0.49410334404141537 L 0.5090421055118052 -0.49095789448819493 L 0.5121882706839108 -0.4878117293160893 L 0.5153354007293374 -0.4846645992706626 L 0.5184837452081621 -0.4815162547918379 L 0.5216335540653568 -0.4783664459346433 L 0.5247850777103013 -0.47521492228969875 L 0.5279385670966077 -0.4720614329033925 L 0.5310942738023121 -0.46890572619768783 L 0.5342524501104909 -0.465747549889509 L 0.5374133490903537 -0.4625866509096463 L 0.5405772246788648 -0.45942277532113523 L 0.5437443317629618 -0.4562556682370381 L 0.5469149262624123 -0.45308507373758766 L 0.5500892652133796 -0.44991073478662036 L 0.5532676068527504 -0.44673239314724955 L 0.556450210703283 -0.443549789296717 L 0.5596373376596374 -0.4403626623403626 L 0.5628292500753518 -0.4371707499246483 L 0.5660262118508248 -0.43397378814917525 L 0.5692284885223677 -0.43077151147763215 L 0.5724363473523892 -0.4275636526476109 L 0.5756500574207891 -0.4243499425792109 L 0.5788698897176162 -0.42113011028238384 L 0.5820961172370656 -0.41790388276293444 L 0.5853290150728888 -0.4146709849271113 L 0.5885688605152869 -0.4114311394847131 L 0.5918159331493603 -0.4081840668506397 L 0.5950705149551894 -0.4049294850448105 L 0.5983328904096374 -0.40166710959036267 L 0.6016033465899372 -0.3983966534100628 L 0.6048821732791606 -0.39511782672083945 L 0.6081696630736434 -0.39183033692635666 L 0.6114661114924694 -0.3885338885075306 L 0.6147718170890862 -0.3852281829109138 L 0.6180870815651558 -0.3819129184348441 L 0.6214122098867371 -0.3785877901132628 L 0.6247475104028951 -0.3752524895971048 L 0.6280932949668405 -0.37190670503315953 L 0.6314498790597032 -0.36855012094029693 L 0.6348175819170544 -0.36518241808294566 L 0.6381967266582866 -0.3618032733417133 L 0.6415876404189622 -0.3584123595810377 L 0.6449906544862649 -0.35500934551373503 L 0.6484061044376629 -0.3515938955623371 L 0.651834330282928 -0.3481656697170719 L 0.6552756766096312 -0.3447243233903689 L 0.6587304927322644 -0.3412695072677357 L 0.6621991328451232 -0.3378008671548768 L 0.6656819561791065 -0.3343180438208934 L 0.6691793271625849 -0.3308206728374152 L 0.6726916155864961 -0.3273083844135038 L 0.676219196773838 -0.32378080322616204 L 0.6797624517537301 -0.32023754824627004 L 0.6833217674402259 -0.31667823255977406 L 0.6868975368160595 -0.3131024631839405 L 0.6904901591215177 -0.3095098408784822 L 0.6941000400486559 -0.30589995995134417 L 0.6977275919410445 -0.30227240805895544 L 0.7013732339992848 -0.2986267660007153 L 0.705037392492505 -0.29496260750749503 L 0.7087205009760955 -0.29127949902390443 L 0.7124230005159059 -0.28757699948409415 L 0.7161453399191756 -0.28385466008082444 L 0.7198879759724662 -0.28011202402753366 L 0.7236513736868723 -0.27634862631312784 L 0.7274360065507985 -0.27256399344920146 L 0.7312423567906154 -0.26875764320938456 L 0.7350709156395057 -0.26492908436049434 L 0.7389221836148374 -0.2610778163851625 L 0.7427966708044017 -0.25720332919559835 L 0.7466948971618885 -0.2533051028381115 L 0.7506173928119656 -0.24938260718803443 L 0.754564698365368 -0.245435301634632 L 0.758537365244397 -0.24146263475560298 L 0.7625359560192758 -0.23746404398072427 L 0.766561044755796 -0.2334389552442039 L 0.770613217374743 -0.22938678262525702 L 0.7746930720235851 -0.22530692797641505 L 0.778801219460946 -0.22119878053905395 L 0.7829382834544001 -0.21706171654559994 L 0.787104901192169 -0.21289509880783095 L 0.7913017237092983 -0.2086982762907017 L 0.79552941632895 -0.20447058367104995 L 0.7997886591194548 -0.20021134088054512 L 0.8040801473678267 -0.19591985263217332 L 0.8084045920704356 -0.19159540792956445 L 0.8127627204416129 -0.18723727955838712 L 0.8171552764409674 -0.18284472355903247 L 0.8215830213202632 -0.17841697867973683 L 0.8260467341907093 -0.17395326580929069 L 0.8305472126115976 -0.16945278738840241 L 0.835085273201249 -0.164914726798751 L 0.8396617522712847 -0.16033824772871533 L 0.8442775064852857 -0.1557224935147144 L 0.8489334135429676 -0.15106658645703228 L 0.8536303728910574 -0.14636962710894266 L 0.8583693064621107 -0.14163069353788926 L 0.8631511594425815 -0.13684884055741847 L 0.8679769010715349 -0.1320230989284652 L 0.8728475254714446 -0.1271524745285555 L 0.8777640525126259 -0.12223594748737414 L 0.8827275287129162 -0.11727247128708387 L 0.8877390281743103 -0.1122609718256898 L 0.8927996535583577 -0.1072003464416424 L 0.8979105371022288 -0.10208946289777131 L 0.9030728416774596 -0.0969271583225403 L 0.9082877618935002 -0.09171223810649982 L 0.9135565252483088 -0.08644347475169127 L 0.9188803933283921 -0.08111960667160786 L 0.9242606630607744 -0.07573933693922559 L 0.9296986680195811 -0.07030133198041894 L 0.9351957797900388 -0.06480422020996121 L 0.9407534093929004 -0.059246590607099435 L 0.9463730087724292 -0.053626991227570746 L 0.9520560723513184 -0.047943927648681606 L 0.9578041386560885 -0.042195861343911525 L 0.9636187920167595 -0.03638120798324043 L 0.9695016643447758 -0.030498335655224144 L 0.9754544369934581 -0.024545563006541954 L 0.9814788427055033 -0.018521157294496736 L 0.9875766676523381 -0.012423332347661986 L 0.9937497535704272 -0.006250246429572893 L 1.0 0.0" fill="none" stroke="black" /></svg>